<svg width="256" height="256" viewBox="0 0 256 256" fill="none" xmlns="http://www.w3.org/2000/svg">
<path d="M196 0H60C26.8629 0 0 26.8629 0 60V196C0 229.137 26.8629 256 60 256H196C229.137 256 256 229.137 256 196V60C256 26.8629 229.137 0 196 0Z" fill="#F4F2ED"/>
<g clip-path="url(#clip0_23_12)">
<mask id="mask0_23_12" style="mask-type:luminance" maskUnits="userSpaceOnUse" x="48" y="43" width="160" height="169">
<path d="M48 43H208V212H48V43Z" fill="white"/>
</mask>
<g mask="url(#mask0_23_12)">
<path d="M207.338 71.0655L201.584 161.239L146.574 43L207.338 71.0655ZM169.236 187.665L127.669 211.336L86.1022 187.665L94.5564 167.216H160.781L169.236 187.665ZM127.669 87.8817L149.45 140.732H105.888L127.669 87.8817ZM53.6947 161.239L48 71.0655L108.764 43L53.6947 161.239Z" fill="url(#paint0_linear_23_12)"/>
<path d="M207.338 71.0655L201.584 161.239L146.574 43L207.338 71.0655ZM169.236 187.665L127.669 211.336L86.1022 187.665L94.5564 167.216H160.781L169.236 187.665ZM127.669 87.8817L149.45 140.732H105.888L127.669 87.8817ZM53.6947 161.239L48 71.0655L108.764 43L53.6947 161.239Z" fill="url(#paint1_linear_23_12)"/>
</g>
</g>
<defs>
<linearGradient id="paint0_linear_23_12" x1="83.1634" y1="196.067" x2="209.939" y2="135.704" gradientUnits="userSpaceOnUse">
<stop stop-color="#E40035"/>
<stop offset="0.24" stop-color="#F60A48"/>
<stop offset="0.352" stop-color="#F20755"/>
<stop offset="0.494" stop-color="#DC087D"/>
<stop offset="0.745" stop-color="#9717E7"/>
<stop offset="1" stop-color="#6C00F5"/>
</linearGradient>
<linearGradient id="paint1_linear_23_12" x1="77.435" y1="63.2972" x2="160.278" y2="157.982" gradientUnits="userSpaceOnUse">
<stop stop-color="#FF31D9"/>
<stop offset="1" stop-color="#FF5BE1" stop-opacity="0"/>
</linearGradient>
<clipPath id="clip0_23_12">
<rect width="160" height="169" fill="white" transform="translate(48 43)"/>
</clipPath>
</defs>
</svg>
