<svg width="256" height="256" viewBox="0 0 256 256" fill="none" xmlns="http://www.w3.org/2000/svg">
<path d="M196 0H60C26.8629 0 0 26.8629 0 60V196C0 229.137 26.8629 256 60 256H196C229.137 256 256 229.137 256 196V60C256 26.8629 229.137 0 196 0Z" fill="#242938"/>
<g clip-path="url(#clip0_23_11)">
<path d="M120.429 41.7589L41.762 120.361C37.5327 124.587 37.5327 131.413 41.762 135.639L120.429 214.241C124.659 218.467 131.49 218.467 135.719 214.241L168.703 181.284C172.491 177.5 172.491 171.364 168.703 167.579C164.915 163.795 158.774 163.795 154.987 167.579L129.982 192.564C128.929 193.615 127.331 193.615 126.279 192.564L63.4573 129.794C62.4047 128.742 62.4047 127.146 63.4573 126.094L126.279 63.3241C127.331 62.2723 128.929 62.2723 129.982 63.3241L154.987 88.3085C158.774 92.093 164.915 92.093 168.703 88.3085C172.491 84.524 172.491 78.3881 168.703 74.6035L135.722 41.6502C131.476 37.5158 124.642 37.5493 120.429 41.7589Z" fill="url(#paint0_linear_23_11)"/>
<path d="M120.429 41.7589L41.762 120.361C37.5327 124.587 37.5327 131.413 41.762 135.639L120.429 214.241C124.659 218.467 131.49 218.467 135.719 214.241L168.703 181.284C172.491 177.5 172.491 171.364 168.703 167.579C164.915 163.795 158.774 163.795 154.987 167.579L129.982 192.564C128.929 193.615 127.331 193.615 126.279 192.564L63.4573 129.794C62.4047 128.742 62.4047 127.146 63.4573 126.094L126.279 63.3241C128.9 61.0645 133.176 56.4876 139.457 55.4172C144.124 54.6217 149.227 56.3726 154.765 60.6701C151.062 56.9706 144.715 50.6306 135.722 41.6502C131.476 37.5158 124.642 37.5493 120.429 41.7589Z" fill="url(#paint1_linear_23_11)"/>
<path d="M176.317 160.269C180.105 164.054 186.246 164.054 190.033 160.269L214.364 135.958C218.593 131.733 218.593 124.907 214.364 120.682L189.822 96.2463C186.025 92.4662 179.882 92.4717 176.092 96.2584C172.305 100.043 172.305 106.179 176.092 109.963L192.669 126.526C193.721 127.578 193.721 129.174 192.669 130.226L176.317 146.564C172.529 150.349 172.529 156.485 176.317 160.269Z" fill="url(#paint2_linear_23_11)"/>
<path d="M128.467 149.616C140.198 149.616 149.708 140.114 149.708 128.393C149.708 116.672 140.198 107.17 128.467 107.17C116.737 107.17 107.227 116.672 107.227 128.393C107.227 140.114 116.737 149.616 128.467 149.616Z" fill="url(#paint3_linear_23_11)"/>
</g>
<defs>
<linearGradient id="paint0_linear_23_11" x1="8295.32" y1="38.5758" x2="15771" y2="4603.86" gradientUnits="userSpaceOnUse">
<stop stop-color="#4285EB"/>
<stop offset="1" stop-color="#2EC7FF"/>
</linearGradient>
<linearGradient id="paint1_linear_23_11" x1="9298.03" y1="38.5752" x2="5605.73" y2="19121.4" gradientUnits="userSpaceOnUse">
<stop stop-color="#29CDFF"/>
<stop offset="0.378601" stop-color="#148EFF"/>
<stop offset="1" stop-color="#0A60FF"/>
</linearGradient>
<linearGradient id="paint2_linear_23_11" x1="3259.47" y1="-810.803" x2="-1544.78" y2="6702.65" gradientUnits="userSpaceOnUse">
<stop stop-color="#FA816E"/>
<stop offset="0.414726" stop-color="#F74A5C"/>
<stop offset="1" stop-color="#F51D2C"/>
</linearGradient>
<linearGradient id="paint3_linear_23_11" x1="3001.33" y1="-1407.73" x2="1402.81" y2="4986.58" gradientUnits="userSpaceOnUse">
<stop stop-color="#FA8E7D"/>
<stop offset="0.512635" stop-color="#F74A5C"/>
<stop offset="1" stop-color="#F51D2C"/>
</linearGradient>
<clipPath id="clip0_23_11">
<rect width="180" height="180" fill="white" transform="translate(38 38)"/>
</clipPath>
</defs>
</svg>
