<svg width="256" height="256" viewBox="0 0 256 256" fill="none" xmlns="http://www.w3.org/2000/svg">
<path d="M196 0H60C26.8629 0 0 26.8629 0 60V196C0 229.137 26.8629 256 60 256H196C229.137 256 256 229.137 256 196V60C256 26.8629 229.137 0 196 0Z" fill="#F4F2ED"/>
<g clip-path="url(#clip0_23_12)">
<path d="M128 203.026C169.436 203.026 203.026 169.436 203.026 128C203.026 86.5644 169.436 52.9744 128 52.9744C86.5644 52.9744 52.9744 86.5644 52.9744 128C52.9744 169.436 86.5644 203.026 128 203.026Z" fill="#FCEBDC" stroke="black"/>
<path d="M150.755 142.474L148.355 135.652L145.193 126.669L142.907 120.168L139.913 111.659L136.435 101.777H119.566L116.873 109.429L114.472 116.252L102.549 150.134H113.675L117.165 140.244H134.037L131.043 131.736H120.146L122.433 125.235L127.211 111.659L128 109.412L128.79 111.659L142.322 150.126L142.325 150.134H153.451L150.755 142.474Z" fill="#18242C"/>
<path d="M171.991 103.245C176.251 110.799 178.484 119.327 178.47 128C178.47 155.873 155.874 178.47 128 178.47C100.127 178.47 77.5307 155.873 77.5307 128C77.5307 100.127 100.127 77.5306 128 77.5306C137.055 77.5162 145.945 79.9495 153.73 84.5731" stroke="#18242C" stroke-width="2.20228" stroke-miterlimit="10" stroke-linecap="round"/>
<path d="M156.743 93.1179C160.349 93.1179 163.272 90.1952 163.272 86.5897C163.272 82.9844 160.349 80.0615 156.743 80.0615C153.138 80.0615 150.215 82.9844 150.215 86.5897C150.215 90.1952 153.138 93.1179 156.743 93.1179Z" fill="#18242C"/>
</g>
<defs>
<clipPath id="clip0_23_12">
<rect width="152" height="152" fill="white" transform="translate(52 52)"/>
</clipPath>
</defs>
</svg>
