<svg width="256" height="256" viewBox="0 0 256 256" fill="none" xmlns="http://www.w3.org/2000/svg">
<path d="M196 0H60C26.8629 0 0 26.8629 0 60V196C0 229.137 26.8629 256 60 256H196C229.137 256 256 229.137 256 196V60C256 26.8629 229.137 0 196 0Z" fill="#F4F2ED"/>
<path d="M0 192.238C0 177.61 1.82857 177 35.3524 177C78.0191 177 93.8667 167.248 112.152 128.848C142.019 65.4571 163.962 49 221.867 49C251.733 49 256 50.219 256 61.1905C256 72.1619 251.733 73.381 220.648 73.381C175.543 73.381 162.743 82.5238 138.971 131.895C118.248 175.781 99.9619 191.629 60.3429 200.771C14.019 211.743 0 209.914 0 192.238Z" fill="#E51B23"/>
<path d="M196.267 201.99C165.79 196.505 139.581 175.171 150.552 164.2C156.038 158.714 161.524 159.324 173.105 167.248C182.857 173.343 201.143 177 222.476 177C254.781 177 256.61 177.61 254.781 191.019C252.952 206.257 238.933 208.695 196.267 201.99Z" fill="#E51B23"/>
<path d="M82.8952 82.5238C75.581 77.0381 57.2952 73.381 35.3524 73.381C4.26667 73.381 0 72.1619 0 61.1905C0 50.219 4.26667 49 37.181 49C77.4095 49 111.543 63.6286 108.495 78.8667C106.057 91.0571 96.3048 92.8857 82.8952 82.5238Z" fill="#E51B23"/>
</svg>
