<svg width="256" height="256" viewBox="0 0 256 256" fill="none" xmlns="http://www.w3.org/2000/svg">
<g id="Arch-Light 2" clip-path="url(#clip0_3_146)">
<g id="Clip path group">
<mask id="mask0_3_146" style="mask-type:luminance" maskUnits="userSpaceOnUse" x="0" y="0" width="256" height="256">
<g id="clip0_33_618">
<path id="Vector" d="M256 0H0V256H256V0Z" fill="white"/>
</g>
</mask>
<g mask="url(#mask0_3_146)">
<g id="Group">
<path id="Vector_2" d="M196 0H60C26.8629 0 0 26.8629 0 60V196C0 229.137 26.8629 256 60 256H196C229.137 256 256 229.137 256 196V60C256 26.8629 229.137 0 196 0Z" fill="#F4F2ED"/>
</g>
</g>
</g>
<path id="Vector_3" d="M231.544 93.8491C227.005 122.337 212.517 148.288 190.659 167.087C168.801 185.886 140.99 196.313 112.174 196.513C106.337 196.737 100.493 196.382 94.7259 195.453C82.6655 193.401 71.6723 187.273 63.5796 178.09C55.487 168.907 50.7842 157.225 50.2555 144.991C50.372 131.346 55.8437 118.293 65.4895 108.651C75.1349 99.0092 88.1815 93.5509 101.813 93.4545C115.444 93.3581 128.566 98.6314 138.347 108.136C148.128 117.641 153.783 130.614 154.092 144.256C154.311 152.872 150.582 160.43 142.919 160.648C134.731 160.648 130.893 154.8 130.893 146.919V125.018C130.896 121.477 129.5 118.078 127.009 115.563C124.519 113.047 121.135 111.62 117.598 111.592H99.2583C93.9238 111.555 88.6651 112.857 83.963 115.379C79.2609 117.901 75.2653 121.563 72.3414 126.029C69.4172 130.495 67.6576 135.623 67.2233 140.945C66.7891 146.268 67.6942 151.614 69.8558 156.496C72.0174 161.377 75.3666 165.639 79.5975 168.892C83.8284 172.144 88.806 174.284 94.0757 175.115C99.3452 175.945 104.739 175.44 109.763 173.645C114.787 171.851 119.282 168.826 122.837 164.845L123.479 163.887L124.121 164.95C126.326 167.95 129.238 170.357 132.598 171.959C135.957 173.56 139.66 174.306 143.377 174.13C150.002 173.648 156.177 170.592 160.582 165.616C164.988 160.64 167.275 154.136 166.956 147.495C167.02 141.796 166.382 136.11 165.056 130.568C161.655 114.91 152.584 101.066 139.592 91.7064C126.6 82.347 110.606 78.1335 94.6946 79.8781C78.7829 81.6227 64.0798 89.202 53.42 101.155C42.7593 113.108 36.8964 128.589 36.9612 144.613C37.1658 161.604 43.9415 177.854 55.8647 189.949C67.7869 202.043 83.9289 209.041 100.898 209.471C100.898 209.471 105.701 209.908 111.115 209.783C137.435 209.617 163.161 201.933 185.269 187.637C185.583 187.418 185.897 187.855 185.688 188.174C174.925 199.78 161.763 208.898 147.12 214.893C132.477 220.887 116.704 223.614 100.9 222.884C90.5683 223.072 80.3057 221.163 70.7313 217.272C61.157 213.38 52.4694 207.588 45.1927 200.244C37.9153 192.9 32.1994 184.156 28.3897 174.541C24.58 164.925 22.7556 154.636 23.0263 144.296C23.0312 131.968 25.9086 119.81 31.4297 108.79C36.9509 97.7704 44.9636 88.1911 54.8312 80.8139C68.0921 71.0385 84.1176 65.7428 100.586 65.6938H125.2C134.815 65.6866 144.323 63.6752 153.119 59.7876C161.915 55.9001 169.805 50.2216 176.288 43.1139C176.425 42.9619 176.607 42.8578 176.807 42.817C177.007 42.7736 177.216 42.7944 177.404 42.8763C177.592 42.9583 177.749 43.0973 177.853 43.2736C177.958 43.4507 178.006 43.6559 177.989 43.8618C176.945 54.936 173.262 65.5979 167.249 74.9519C167.16 75.1144 167.12 75.2993 167.134 75.4841C167.148 75.6689 167.216 75.8456 167.328 75.9926C167.44 76.1395 167.593 76.2506 167.767 76.3126C167.94 76.3746 168.129 76.3847 168.308 76.3418C179.67 73.7726 190.271 68.5694 199.258 61.1511C208.245 53.7328 215.367 44.3064 220.05 33.6305C220.169 33.4397 220.333 33.2813 220.528 33.169C220.725 33.0582 220.946 33 221.171 33C221.397 33 221.618 33.0582 221.814 33.169C222.01 33.2806 222.174 33.439 222.292 33.6305C231.939 52.1286 235.192 73.3043 231.544 93.8491ZM100.835 124.745C98.0033 124.744 95.2072 125.373 92.6476 126.584C90.088 127.795 87.8287 129.56 86.0324 131.751C84.2362 133.941 82.9478 136.504 82.26 139.253C81.5722 142.002 81.5022 144.87 82.055 147.649C82.7938 151.367 84.6172 154.782 87.2948 157.463C89.9723 160.143 93.3837 161.969 97.0977 162.709C99.8745 163.262 102.739 163.191 105.485 162.502C108.232 161.813 110.791 160.523 112.979 158.725C115.168 156.927 116.93 154.666 118.14 152.104C119.35 149.541 119.978 146.743 119.977 143.909V126.017C119.96 125.675 119.816 125.351 119.574 125.109C119.332 124.867 119.009 124.723 118.667 124.706L100.835 124.745Z" fill="#512BD4"/>
</g>
<defs>
<clipPath id="clip0_3_146">
<rect width="256" height="256" fill="white"/>
</clipPath>
</defs>
</svg>
