<svg width="256" height="256" viewBox="0 0 256 256" fill="none" xmlns="http://www.w3.org/2000/svg">
<g id="Arch-Dark 8" clip-path="url(#clip0_9_239)">
<g id="Clip path group">
<mask id="mask0_9_239" style="mask-type:luminance" maskUnits="userSpaceOnUse" x="0" y="0" width="256" height="256">
<g id="clip0_33_628">
<path id="Vector" d="M256 0H0V256H256V0Z" fill="white"/>
</g>
</mask>
<g mask="url(#mask0_9_239)">
<g id="Group">
<path id="Vector_2" d="M196 0H60C26.8629 0 0 26.8629 0 60V196C0 229.137 26.8629 256 60 256H196C229.137 256 256 229.137 256 196V60C256 26.8629 229.137 0 196 0Z" fill="#1D2A33"/>
</g>
</g>
</g>
<g id="Frame" clip-path="url(#clip1_9_239)">
<path id="Vector_3" fill-rule="evenodd" clip-rule="evenodd" d="M75.3866 56.3051C65.1159 56.3051 57.5163 65.2944 57.8564 75.0434C58.1829 84.4095 57.7588 96.5396 54.7049 106.432C51.6419 116.353 46.4615 122.638 38 123.445V132.555C46.4615 133.362 51.6419 139.647 54.7049 149.568C57.7588 159.46 58.1829 171.59 57.8564 180.957C57.5163 190.704 65.1159 199.695 75.3881 199.695H180.627C190.898 199.695 198.496 190.706 198.156 180.957C197.829 171.59 198.253 159.46 201.307 149.568C204.372 139.647 209.538 133.362 218 132.555V123.445C209.538 122.638 204.372 116.353 201.307 106.432C198.253 96.5412 197.829 84.4095 198.156 75.0434C198.496 65.2959 190.898 56.3051 180.627 56.3051H75.3851H75.3866ZM160.034 144.571C160.034 157.994 150.021 166.136 133.405 166.136H105.119C104.31 166.136 103.534 165.814 102.961 165.242C102.389 164.67 102.068 163.894 102.068 163.085V92.9152C102.068 92.1061 102.389 91.3301 102.961 90.7579C103.534 90.1858 104.31 89.8644 105.119 89.8644H133.243C147.098 89.8644 156.191 97.3695 156.191 108.893C156.191 116.98 150.074 124.221 142.281 125.489V125.912C152.89 127.076 160.034 134.422 160.034 144.571ZM130.32 99.5356H114.192V122.316H127.776C138.277 122.316 144.067 118.088 144.067 110.529C144.067 103.447 139.088 99.5356 130.32 99.5356ZM114.192 131.356V156.461H130.914C141.846 156.461 147.638 152.074 147.638 143.829C147.638 135.583 141.685 131.354 130.21 131.354L114.192 131.356Z" fill="white"/>
</g>
</g>
<defs>
<clipPath id="clip0_9_239">
<rect width="256" height="256" fill="white"/>
</clipPath>
<clipPath id="clip1_9_239">
<rect width="180" height="144" fill="white" transform="translate(38 56)"/>
</clipPath>
</defs>
</svg>
