<svg width="256" height="256" viewBox="0 0 256 256" fill="none" xmlns="http://www.w3.org/2000/svg">
<path d="M196 0H60C26.8629 0 0 26.8629 0 60V196C0 229.137 26.8629 256 60 256H196C229.137 256 256 229.137 256 196V60C256 26.8629 229.137 0 196 0Z" fill="#F4F2ED"/>
<path d="M152.398 160.205H103.602C90.128 160.205 79.2048 171.128 79.2048 184.602C79.2048 198.077 90.128 209 103.602 209H152.398C165.872 209 176.795 198.077 176.795 184.602C176.795 171.128 165.872 160.205 152.398 160.205Z" fill="#1AD1A5"/>
<path d="M128 150.446C156.027 150.446 178.747 127.726 178.747 99.6988C178.747 71.672 156.027 48.9518 128 48.9518C99.9732 48.9518 77.253 71.672 77.253 99.6988C77.253 127.726 99.9732 150.446 128 150.446Z" fill="black" fill-opacity="0.3"/>
<path d="M128 148.494C154.949 148.494 176.795 126.648 176.795 99.6987C176.795 72.7499 154.949 50.9036 128 50.9036C101.051 50.9036 79.2048 72.7499 79.2048 99.6987C79.2048 126.648 101.051 148.494 128 148.494Z" fill="white"/>
<path d="M128 121.559C140.073 121.559 149.86 111.772 149.86 99.6987C149.86 87.6257 140.073 77.8385 128 77.8385C115.927 77.8385 106.14 87.6257 106.14 99.6987C106.14 111.772 115.927 121.559 128 121.559Z" fill="#FF9903"/>
</svg>
