<svg width="256" height="256" viewBox="0 0 256 256" fill="none" xmlns="http://www.w3.org/2000/svg">
<path d="M196 0H60C26.8629 0 0 26.8629 0 60V196C0 229.137 26.8629 256 60 256H196C229.137 256 256 229.137 256 196V60C256 26.8629 229.137 0 196 0Z" fill="#F4F2ED"/>
<path d="M87.8894 120.125C85.3583 118.519 83.1887 117.095 83.0596 116.965C82.9305 116.836 99.7702 106.008 122.705 91.4759C144.659 77.5916 162.609 66.1422 162.609 66.0386C162.609 65.7277 157.96 62.9301 154.215 61.0133C146.854 57.2313 140.346 55.1073 130.97 53.4753C128.62 53.0868 125.262 53.035 94.6305 52.9573L60.8477 52.8536L60.796 77.8765L60.7185 102.899L55.4238 99.532L50.1291 96.1904L50.0517 69.0693L50 41.9741L88.1477 42.0777C130.17 42.1554 128.542 42.1036 137.04 43.8133C149.463 46.3 161.034 51.4807 171.287 59.1482C173.974 61.1687 178.726 65.1838 179.991 66.5307L180.715 67.3079L136.678 95.1801C112.477 110.541 92.6159 123.078 92.5642 123.078C92.5384 123.052 90.4205 121.731 87.8894 120.125Z" fill="#F58220"/>
<path d="M50 160.017C50 130.28 50.0258 105.982 50.0775 105.982C50.1033 105.982 69.4225 118.208 93.0033 133.129L135.877 160.302L135.955 166.545C135.981 169.99 135.955 172.813 135.903 172.813C135.852 172.813 119.064 162.219 98.6338 149.293C78.204 136.341 61.3384 125.669 61.1576 125.565C60.9252 125.41 60.8477 133.233 60.8477 164.239V203.12H93.0808C126.864 203.12 128.646 203.069 134.018 201.929C134.999 201.722 135.826 201.566 135.903 201.566C135.955 201.566 136.007 204.001 136.007 206.98V212.394L134.276 212.705C127.819 213.845 128.439 213.819 88.3026 213.922L50 214.026V160.017Z" fill="#ED0F69"/>
<path d="M144.272 155.277V100.154L149.515 96.8639L154.732 93.5741L154.809 144.06C154.835 171.855 154.964 194.572 155.068 194.572C155.197 194.572 156.746 193.692 158.528 192.655C175.317 182.631 187.817 166.078 192.699 147.376C194.455 140.563 195.152 135.149 195.152 128C195.152 120.851 194.455 115.437 192.699 108.624C190.116 98.7289 184.64 88.0307 178.235 80.3374L177.331 79.2494L181.774 76.4259C184.227 74.8717 186.293 73.6024 186.371 73.6024C186.448 73.6283 186.965 74.2241 187.533 74.9753C198.639 89.3518 204.812 105.878 205.716 123.596C206.93 148.049 198.019 171.259 180.689 188.614C171.597 197.758 160.853 204.597 148.921 208.871C147.138 209.519 145.382 210.114 144.995 210.218L144.272 210.374V155.277Z" fill="#00ABC5"/>
</svg>
