<svg width="256" height="256" viewBox="0 0 256 256" fill="none" xmlns="http://www.w3.org/2000/svg">
<g id="Arch-Dark 8" clip-path="url(#clip0_9_239)">
<g id="Clip path group">
<mask id="mask0_9_239" style="mask-type:luminance" maskUnits="userSpaceOnUse" x="0" y="0" width="256" height="256">
<g id="clip0_33_628">
<path id="Vector" d="M256 0H0V256H256V0Z" fill="white"/>
</g>
</mask>
<g mask="url(#mask0_9_239)">
<g id="Group">
<path id="Vector_2" d="M196 0H60C26.8629 0 0 26.8629 0 60V196C0 229.137 26.8629 256 60 256H196C229.137 256 256 229.137 256 196V60C256 26.8629 229.137 0 196 0Z" fill="#1D2A33"/>
</g>
</g>
</g>
<path id="Vector_3" d="M224.747 115.103C219.843 111.806 206.96 110.4 197.594 112.919C197.09 103.599 192.278 95.7443 183.475 88.8958L180.218 86.7115L178.047 89.9879C173.78 96.4576 171.981 105.082 172.615 112.922C173.119 117.752 174.799 123.18 178.047 127.119C165.854 134.184 154.618 132.58 104.851 132.58H28.0173C27.7921 143.806 29.5995 165.396 43.345 182.973C44.862 184.915 46.5272 186.794 48.3347 188.603C59.5112 199.781 76.3974 207.979 101.648 208C140.167 208.035 173.172 187.235 193.25 136.948C199.857 137.058 217.295 138.129 225.828 121.659C226.036 121.381 228 117.29 228 117.29L224.747 115.106V115.103ZM78.1604 103.519H56.5541V125.101H78.1604V103.519ZM106.075 103.519H84.4686V125.101H106.075V103.519ZM133.99 103.519H112.383V125.101H133.99V103.519ZM161.904 103.519H140.298V125.101H161.904V103.519ZM50.2518 103.519H28.6395V125.101H50.2458V103.519H50.2518ZM78.1663 76.2581H56.56V97.8397H78.1663V76.2581ZM106.081 76.2581H84.4746V97.8397H106.081V76.2581ZM133.995 76.2581H112.389V97.8397H133.995V76.2581ZM133.987 49H112.38V70.5816H133.987V49Z" fill="#1D63ED"/>
</g>
<defs>
<clipPath id="clip0_9_239">
<rect width="256" height="256" fill="white"/>
</clipPath>
</defs>
</svg>
