<svg width="256" height="256" viewBox="0 0 256 256" fill="none" xmlns="http://www.w3.org/2000/svg">
<g id="Arch-Dark 9" clip-path="url(#clip0_9_245)">
<g id="Clip path group">
<mask id="mask0_9_245" style="mask-type:luminance" maskUnits="userSpaceOnUse" x="0" y="0" width="256" height="256">
<g id="clip0_33_628">
<path id="Vector" d="M256 0H0V256H256V0Z" fill="white"/>
</g>
</mask>
<g mask="url(#mask0_9_245)">
<g id="Group">
<path id="Vector_2" d="M196 0H60C26.8629 0 0 26.8629 0 60V196C0 229.137 26.8629 256 60 256H196C229.137 256 256 229.137 256 196V60C256 26.8629 229.137 0 196 0Z" fill="#F4F2ED"/>
</g>
</g>
</g>
<path id="Vector_3" d="M224.747 114.103C219.843 110.806 206.96 109.4 197.594 111.919C197.09 102.599 192.278 94.7443 183.475 87.8958L180.218 85.7115L178.047 88.9879C173.78 95.4576 171.981 104.082 172.615 111.922C173.119 116.752 174.799 122.18 178.047 126.119C165.854 133.184 154.618 131.58 104.851 131.58H28.0173C27.7921 142.806 29.5995 164.396 43.345 181.973C44.862 183.915 46.5272 185.794 48.3347 187.603C59.5112 198.781 76.3974 206.979 101.648 207C140.167 207.035 173.172 186.235 193.25 135.948C199.857 136.058 217.295 137.129 225.828 120.659C226.036 120.381 228 116.29 228 116.29L224.747 114.106V114.103ZM78.1604 102.519H56.5541V124.101H78.1604V102.519ZM106.075 102.519H84.4686V124.101H106.075V102.519ZM133.99 102.519H112.383V124.101H133.99V102.519ZM161.904 102.519H140.298V124.101H161.904V102.519ZM50.2518 102.519H28.6395V124.101H50.2458V102.519H50.2518ZM78.1663 75.2581H56.56V96.8397H78.1663V75.2581ZM106.081 75.2581H84.4746V96.8397H106.081V75.2581ZM133.995 75.2581H112.389V96.8397H133.995V75.2581ZM133.987 48H112.38V69.5816H133.987V48Z" fill="#1D63ED"/>
</g>
<defs>
<clipPath id="clip0_9_245">
<rect width="256" height="256" fill="white"/>
</clipPath>
</defs>
</svg>
