<svg width="256" height="256" viewBox="0 0 256 256" fill="none" xmlns="http://www.w3.org/2000/svg">
<g id="Arch-Light 1" clip-path="url(#clip0_1_15)">
<g id="Clip path group">
<mask id="mask0_1_15" style="mask-type:luminance" maskUnits="userSpaceOnUse" x="0" y="0" width="256" height="256">
<g id="clip0_33_618">
<path id="Vector" d="M256 0H0V256H256V0Z" fill="white"/>
</g>
</mask>
<g mask="url(#mask0_1_15)">
<g id="Group">
<path id="Vector_2" d="M196 0H60C26.8629 0 0 26.8629 0 60V196C0 229.137 26.8629 256 60 256H196C229.137 256 256 229.137 256 196V60C256 26.8629 229.137 0 196 0Z" fill="#F4F2ED"/>
</g>
</g>
</g>
<g id="Group 5">
<g id="E">
<rect id="Rectangle 1" x="78" y="88" width="14" height="80" fill="#512BD4"/>
<rect id="Rectangle 2" x="78" y="88" width="43" height="12" fill="#512BD4"/>
<rect id="Rectangle 3" x="78" y="122" width="43" height="12" fill="#512BD4"/>
<rect id="Rectangle 4" x="78" y="156" width="43" height="12" fill="#512BD4"/>
</g>
<g id="F">
<rect id="Rectangle 6" x="135" y="88" width="43" height="12" fill="#512BD4"/>
<rect id="Rectangle 9" x="135" y="88" width="14" height="80" fill="#512BD4"/>
<rect id="Rectangle 7" x="135" y="122" width="40" height="12" fill="#512BD4"/>
</g>
</g>
</g>
<defs>
<clipPath id="clip0_1_15">
<rect width="256" height="256" fill="white"/>
</clipPath>
</defs>
</svg>
