<svg width="256" height="256" viewBox="0 0 256 256" fill="none" xmlns="http://www.w3.org/2000/svg">
<g id="Arch-Dark 9" clip-path="url(#clip0_9_245)">
<g id="Clip path group">
<mask id="mask0_9_245" style="mask-type:luminance" maskUnits="userSpaceOnUse" x="0" y="0" width="256" height="256">
<g id="clip0_33_628">
<path id="Vector" d="M256 0H0V256H256V0Z" fill="white"/>
</g>
</mask>
<g mask="url(#mask0_9_245)">
<g id="Group">
<path id="Vector_2" d="M196 0H60C26.8629 0 0 26.8629 0 60V196C0 229.137 26.8629 256 60 256H196C229.137 256 256 229.137 256 196V60C256 26.8629 229.137 0 196 0Z" fill="#F4F2ED"/>
</g>
</g>
</g>
<g id="Group 18">
<path id="logo-center" d="M155.665 111.674L129.075 96.6945C128.41 96.3196 127.59 96.3196 126.924 96.6945L100.334 111.674C99.6688 112.049 99.2581 112.742 99.2581 113.492V143.451C99.2581 144.201 99.6688 144.894 100.334 145.269L126.924 160.249C127.59 160.624 128.41 160.624 129.075 160.249L155.665 145.269C156.331 144.894 156.741 144.201 156.741 143.451V113.492C156.74 112.742 156.33 112.049 155.665 111.674Z" fill="#8080F2"/>
<path id="Vector_3" d="M58.8659 125.32L90.6358 71.3884C91.7899 69.4384 93.9217 68 96.2292 68H159.77C162.078 68 164.21 69.4384 165.365 71.3884L197.134 125.201C198.289 127.152 198.289 129.613 197.134 131.564L165.365 185.053C164.21 187.003 162.078 188 159.77 188H96.2297C93.9221 188 91.7899 187.033 90.6364 185.083L58.8664 131.506C57.7113 129.556 57.7113 127.27 58.8659 125.32ZM85.1732 151.254C85.1732 152.047 85.6623 152.78 86.3667 153.177L126.835 175.959C127.538 176.356 128.42 176.356 129.124 175.959L169.623 153.177C170.327 152.78 170.82 152.047 170.82 151.254V105.688C170.82 104.895 170.334 104.162 169.63 103.765L129.164 80.983C128.46 80.5861 127.579 80.5861 126.875 80.983L86.3733 103.765C85.6689 104.162 85.1732 104.895 85.1732 105.688V151.254Z" fill="#4B32C3"/>
</g>
</g>
<defs>
<clipPath id="clip0_9_245">
<rect width="256" height="256" fill="white"/>
</clipPath>
</defs>
</svg>
