<svg width="256" height="256" viewBox="0 0 256 256" fill="none" xmlns="http://www.w3.org/2000/svg">
<path d="M196 0H60C26.8629 0 0 26.8629 0 60V196C0 229.137 26.8629 256 60 256H196C229.137 256 256 229.137 256 196V60C256 26.8629 229.137 0 196 0Z" fill="#242938"/>
<path fill-rule="evenodd" clip-rule="evenodd" d="M117.569 111.665C96.3232 98.5652 76.176 84.4013 57.8409 69.6749C50.2172 78.0053 44.1712 87.6632 40 98.1741C62.1673 106.811 84.7875 117.368 107.036 129.462C85.3153 141.243 63.2451 151.56 41.5922 160.052C44.9749 170.837 50.2875 180.911 57.2693 189.782C75.7118 174.9 96.015 160.581 117.447 147.34C116.663 172.318 114.418 196.827 110.792 220.003C122.055 221.673 133.529 221.242 144.637 218.732C141.135 195.993 138.961 171.993 138.186 147.545C159.717 160.895 180.092 175.327 198.567 190.315C205.642 181.359 211.012 171.169 214.408 160.257C192.541 151.739 170.231 141.351 148.27 129.462C170.755 117.248 193.615 106.604 216 97.9281C211.811 87.303 205.707 77.5445 197.996 69.1418C179.622 83.9625 159.404 98.225 138.064 111.419C138.71 85.9619 140.872 60.9299 144.473 37.2392C133.471 34.7692 122.112 34.3384 110.955 35.968C114.685 60.1071 116.918 85.6645 117.569 111.665Z" fill="#FF0000"/>
</svg>
