<svg width="256" height="256" viewBox="0 0 256 256" fill="none" xmlns="http://www.w3.org/2000/svg">
<path d="M196 0H60C26.8629 0 0 26.8629 0 60V196C0 229.137 26.8629 256 60 256H196C229.137 256 256 229.137 256 196V60C256 26.8629 229.137 0 196 0Z" fill="#F4F2ED"/>
<path fill-rule="evenodd" clip-rule="evenodd" d="M198 174.667V198H128V174.667H198ZM81.3333 151.333V174.667H58V151.333H81.3333ZM104.667 128V151.333H81.3333V128H104.667ZM128 104.667V128H104.667V104.667H128ZM104.667 81.3333V104.667H81.3333V81.3333H104.667ZM81.3333 58V81.3333H58V58H81.3333Z" fill="url(#paint0_linear_23_12)"/>
<defs>
<linearGradient id="paint0_linear_23_12" x1="2810.01" y1="58.0001" x2="11879.6" y2="14058" gradientUnits="userSpaceOnUse">
<stop stop-color="#FF9357"/>
<stop offset="1" stop-color="#F7CE68"/>
</linearGradient>
</defs>
</svg>
