<svg width="256" height="256" viewBox="0 0 256 256" fill="none" xmlns="http://www.w3.org/2000/svg">
<path d="M196 0H60C26.8629 0 0 26.8629 0 60V196C0 229.137 26.8629 256 60 256H196C229.137 256 256 229.137 256 196V60C256 26.8629 229.137 0 196 0Z" fill="#F4F2ED"/>
<path d="M150.172 23L174.408 36.9366L78.9668 91.821L54.7319 77.8842L150.172 23Z" fill="#172B4D"/>
<path d="M175.385 39.8628L80.545 94.3768L80.5418 121.958L175.382 67.4442L175.385 39.8628Z" fill="#172B4D"/>
<path d="M137.246 93.6897L80.7436 126.168L80.7406 153.75L137.243 121.272L137.246 93.6897Z" fill="#172B4D"/>
<path d="M115.586 137.294L80.61 157.399L80.6068 184.982L115.583 164.876L115.586 137.294Z" fill="#172B4D"/>
<path d="M53.0094 80.5433L77.3869 94.5551L77.3775 122.143L53 108.131L53.0094 80.5433Z" fill="#172B4D"/>
<path d="M53.2419 112.144L77.3237 125.986L77.3143 153.574L53.2325 139.732L53.2419 112.144Z" fill="#172B4D"/>
<path d="M53.23 143.554L77.32 157.4L77.3099 186.808L53.22 172.961L53.23 143.554Z" fill="#172B4D"/>
<path d="M106.911 233L82.6763 219.063L177.034 164.802L201.269 178.738L106.911 233Z" fill="#172B4D"/>
<path d="M80.7556 216.679L175.453 162.247L175.456 134.666L80.7586 189.098L80.7556 216.679Z" fill="#172B4D"/>
<path d="M118.75 162.933L175.252 130.455L175.256 102.873L118.753 135.351L118.75 162.933Z" fill="#172B4D"/>
<path d="M140.411 119.33L175.387 99.2249L175.39 71.6426L140.414 91.7479L140.411 119.33Z" fill="#172B4D"/>
<path d="M202.99 176.265L178.613 162.254L178.622 134.666L203 148.677L202.99 176.265Z" fill="#172B4D"/>
<path d="M202.76 144.488L178.678 130.646L178.687 103.058L202.769 116.9L202.76 144.488Z" fill="#172B4D"/>
<path d="M202.769 113.076L178.679 99.2296L178.689 70.3505L202.779 84.1968L202.769 113.076Z" fill="#172B4D"/>
</svg>
