<svg width="256" height="256" viewBox="0 0 256 256" fill="none" xmlns="http://www.w3.org/2000/svg">
<path d="M196 0H60C26.8629 0 0 26.8629 0 60V196C0 229.137 26.8629 256 60 256H196C229.137 256 256 229.137 256 196V60C256 26.8629 229.137 0 196 0Z" fill="#242938"/>
<path d="M184.533 235.585L181.203 248.182L166.477 252.943L117.609 257.072L101.525 255.808L88.6395 252.69L81.0573 249.867L79.9617 244.854L88.6395 218.1L164.986 207.23L182.605 213.255L184.533 235.585Z" fill="url(#paint0_linear_23_11)"/>
<path d="M195.183 197.16L197.287 206.809L196.06 217.636L192.598 228.97L183.745 241.736L170.684 246.792L153.285 252.606L144.519 248.351L117.083 239.924H108.406L94.4685 244.601L88.7271 249.067L84.5635 251.174L79.7425 250.794L73.5629 237.354L65.1043 207.23L67.4709 194.59L72.9055 191.852L95.9586 190.419L112.964 205.039L182.693 195.012L195.183 197.16Z" fill="url(#paint1_linear_23_11)"/>
<path d="M84.8703 209.126L82.679 202.932L81.4956 195.812L82.0216 191.683L81.0573 190.124L80.0493 195.18L81.145 203.143L83.0296 209.884L84.8703 209.126Z" fill="url(#paint2_linear_23_11)"/>
<path d="M88.9024 207.651L90.8746 212.918L94.4246 223.661L82.0654 226.4L78.2962 222.482L75.1845 215.361L75.2283 210.643L85.4839 206.893L88.9024 207.651Z" fill="url(#paint3_linear_23_11)"/>
<path d="M74.2641 191.515L74.0012 196.486L74.2203 201.711L75.1845 206.682L76.5432 210.305L79.5234 218.353L86.3166 215.024L83.1611 207.735L81.7586 204.407L80.8821 200.236L80.4438 195.096L81.0573 190.124L74.2641 191.515Z" fill="url(#paint4_linear_23_11)"/>
<path d="M80.9697 200.784L74.4394 202.511L74.2641 201.921L80.8821 200.236L80.9697 200.784Z" fill="url(#paint5_linear_23_11)"/>
<path d="M80.5314 195.433L74.0012 197.118V196.486L80.4876 195.096L80.5314 195.433Z" fill="url(#paint6_linear_23_11)"/>
<path d="M81.8462 204.871L75.2722 207.23L75.1845 206.682L81.7586 204.407L81.8462 204.871Z" fill="url(#paint7_linear_23_11)"/>
<path d="M75.9734 213.002L86.3166 209.421L89.5598 218.353L85.9222 224.209L78.866 221.723L75.9734 213.002Z" fill="url(#paint8_linear_23_11)"/>
<path d="M152.627 208.789L154.03 210.643L154.599 212.833L150.436 219.827L152.057 225.936L144.212 233.773L130.582 228.886L129.749 227.285L142.766 230.613L148.639 225.726L146.973 218.943L152.627 208.789Z" fill="url(#paint9_linear_23_11)"/>
<path d="M196.06 195.77L198.12 201.921L197.287 206.809L194.438 197.961L182.824 195.222L175.68 196.276L169.457 198.172L162.401 201.711L156.484 205.882L149.778 211.822L147.587 211.527L144.169 211.148L155.125 199.52L164.154 194.632L171.999 192.315L180.677 191.178L189.486 192.779L196.06 195.77Z" fill="url(#paint10_linear_23_11)"/>
<path d="M152.627 208.789L154.03 210.643L148.288 219.533L150.567 225.684L143.643 232.341L129.749 227.285L129.969 223.956L132.248 217.763L137.989 208.789L141.013 207.483L152.627 208.789Z" fill="url(#paint11_linear_23_11)"/>
<path d="M173.927 190.293L165.162 191.599L158.281 194.717L152.057 198.298L147.236 203.185L142.547 208.283L139.479 213.634L145.615 214.772L155.958 203.901L160.165 200.11L167.353 196.402L175.812 193.748L183.131 192.905L196.06 195.77L186.067 191.304L173.927 190.293Z" fill="url(#paint12_linear_23_11)"/>
<path d="M150.611 211.78L139.742 210.306L134.658 218.353L136.543 222.229L144.256 220.333L150.611 211.78Z" fill="url(#paint13_linear_23_11)"/>
<path d="M182.342 192.989L183.131 192.905L173.84 190.293L173.226 190.377L182.342 192.989Z" fill="#293942"/>
<path d="M175.198 193.916L175.812 193.748L165.162 191.599L164.68 191.852L175.198 193.916Z" fill="#293942"/>
<path d="M166.827 196.697L167.265 196.402L158.675 194.59L158.149 194.801L166.827 196.697Z" fill="#293942"/>
<path d="M159.64 200.531L160.165 200.11L152.057 198.298L151.751 198.719L159.64 200.531Z" fill="#293942"/>
<path d="M155.388 204.491L155.958 203.901L147.85 202.553L147.412 203.017L155.388 204.491Z" fill="#293942"/>
<path d="M73.3 193.453L72.9055 191.852L66.0246 194.717L61.5542 199.056L57.7413 207.23L56.6018 222.903L57.5222 232.341L62.5623 240.935L70.0129 246.623L81.9339 251.763L95.7833 250.626L109.677 245.191L122.518 235.585L111.78 226.737L105.338 219.869L91.05 217.257L84.958 218.016L78.6907 219.617L76.324 212.707L75.1845 208.367L74.2203 201.711L74.0889 194.885L73.3 193.453Z" fill="url(#paint14_linear_23_11)"/>
<path d="M102.489 219.28L85.6154 225.684L79.1728 220.333L79.3481 218.563L102.533 217.763L102.489 219.28Z" fill="url(#paint15_linear_23_11)"/>
<path d="M95.345 213.845L79.3481 218.563L85.7031 223.914L102.533 217.763L95.345 213.845Z" fill="url(#paint16_linear_23_11)"/>
<path d="M72.9055 191.852L65.6302 197.666L63.2635 201.711L62.4308 203.101L61.5104 206.177L58.6616 216.12L56.8209 220.207L55.9006 219.743L57.0401 209.674L60.7216 200.025L66.5505 193.2L72.9055 191.852Z" fill="url(#paint17_linear_23_11)"/>
<path d="M71.021 192.273L64.8851 197.118L62.387 200.952L60.5901 205.165L57.7413 215.277L55.9006 219.743L55.3746 218.479L56.8209 209.884L59.845 200.868L63.2197 195.981L66.5505 193.2L71.021 192.273Z" fill="url(#paint18_linear_23_11)"/>
<path d="M116.207 240.388L107.704 233.773L97.3611 221.26L91.7074 223.324L102.664 235.585L112.525 243.126L116.207 240.388Z" fill="url(#paint19_linear_23_11)"/>
<path d="M195.271 215.783L192.028 224.209L182.474 236.47L168.23 243.59L150.348 251.089L126.55 248.266L107.792 233.731L97.887 221.555L89.6036 215.488L94.9506 213.676L109.151 209.084L119.143 211.822L147.017 216.541L149.559 211.654L157.361 203.48C157.361 203.48 168.054 197.624 171.867 196.781C175.593 195.939 185.016 195.812 185.016 195.812L195.403 204.786L195.271 215.783Z" fill="url(#paint20_linear_23_11)"/>
<path d="M119.056 211.822C119.056 211.822 114.366 214.055 110.378 219.238C107.003 223.662 104.899 230.529 104.899 230.529L97.3173 221.302L89.4284 215.614L98.2815 208.873L108.712 207.988L119.056 211.822Z" fill="url(#paint21_linear_23_11)"/>
<path d="M126.375 211.78L119.099 216.878L119.056 218.774L138.909 224.378L145.615 218.479V216.457L126.375 211.78Z" fill="url(#paint22_linear_23_11)"/>
<path d="M126.375 211.78L119.099 216.878L138.909 222.271L145.615 216.457L126.375 211.78Z" fill="url(#paint23_linear_23_11)"/>
<path d="M68.3913 184.437L72.511 190.335L73.3 193.453L74.9654 196.486L76.8938 198.466L77.6827 201.711L83.424 205.629L93.3728 205.208L108.756 207.946L114.98 209.884L142.854 205.671L157.185 198.761L170.07 193.2L180.589 191.599L189.749 193.074L194.395 195.012L190.713 190.335L192.904 183.13L189.837 181.445L187.119 174.873L186.199 179.339L168.098 183.678L97.6679 186.206L81.9339 184.437H68.3913Z" fill="url(#paint24_linear_23_11)"/>
<path d="M97.0105 190.841L105.338 192.399L119.932 194.127L129.574 193.832L137.594 192.104L140.575 190.672L134.614 191.093L130.363 192.315L118.31 192.189L106.433 191.599L97.0105 190.841Z" fill="url(#paint25_linear_23_11)"/>
<path d="M154.205 191.178L137.857 192.568L125.893 196.528L120.546 200.025L126.243 199.899L137.156 197.245L143.336 197.371L162.445 195.77L170.684 192.526L154.205 191.178Z" fill="url(#paint26_linear_23_11)"/>
<path d="M146.842 203.775L136.499 204.449L127.996 203.986L118.179 205.123L97.8432 201.289L105.162 204.449L116.514 207.904L142.854 205.671L146.842 203.775Z" fill="url(#paint27_linear_23_11)"/>
<path d="M75.9734 189.113L90.7432 195.012L97.9747 198.719L88.2888 195.812L82.9419 193.705L75.9734 189.113Z" fill="url(#paint28_linear_23_11)"/>
<path opacity="0.17" d="M60.3709 75.9045L96.3093 68.8263L143.336 81.4659L173.226 104.765L169.106 136.575L144.388 148.034L134.965 171.207L120.896 172.26L90.2173 171.965L67.5148 168.174L66.6821 168.047C56.7771 157.809 48.0117 137.628 48.2746 117.489C48.3623 106.661 49.3265 98.1502 53.3148 89.4288L60.3709 75.9045Z" fill="#EFEFEF"/>
<path d="M79.129 129.96V133.372L72.2919 132.024L72.1604 128.612L79.129 129.96Z" fill="url(#paint29_linear_23_11)"/>
<path d="M73.6067 43.0835C73.7382 40.0079 71.5907 40.0079 69.5746 43.0414C67.3394 46.4119 65.0605 51.847 64.4469 54.7962C62.0802 65.7927 66.4191 75.2724 77.9018 82.8561C77.9456 82.8561 77.9456 82.8983 77.9456 82.8983C77.9894 82.9404 77.9894 82.9404 77.9894 82.9404C78.7345 83.446 82.1092 79.9912 85.4401 75.3145C88.8148 70.5536 90.9185 66.3404 90.1734 65.8348C90.1296 65.7927 90.0857 65.7927 90.0419 65.7927C81.7586 60.2312 73.037 52.9845 73.6067 43.0835Z" fill="url(#paint30_linear_23_11)"/>
<path d="M193.956 179.086L193.912 183.973C193.869 187.976 165.074 190.925 129.53 190.588C94.0302 190.251 65.2357 186.754 65.3234 182.751L65.3672 177.864L193.956 179.086Z" fill="url(#paint31_linear_23_11)"/>
<path d="M65.3672 177.822C65.3234 181.824 94.1179 185.321 129.574 185.658C165.074 186.038 193.912 183.046 193.956 179.044C194 175.041 165.206 171.544 129.749 171.207C94.2932 170.87 65.4549 173.861 65.3672 177.822Z" fill="url(#paint32_linear_23_11)"/>
<path d="M66.5505 168.005L64.4907 147.655L82.5036 134.468L81.6709 118.121V115.508L67.1203 104.554L58.7493 95.9171L54.4104 88.7125L53.6653 87.1115L54.8049 82.814L63.8333 71.0592L87.982 50.878L125.191 42.1145L157.054 56.1445L195.622 87.0694L194.088 123.471L175.154 161.053L144.037 178.791L111.693 181.15L66.5505 168.005Z" fill="url(#paint33_linear_23_11)"/>
<path d="M190.494 170.786L190.45 177.948C190.406 181.024 163.453 183.215 130.188 182.92C96.9228 182.625 69.9691 179.886 70.0129 176.811L70.0567 169.648L80.4876 171.165L90.5679 172.303L190.494 170.786Z" fill="url(#paint34_linear_23_11)"/>
<path d="M160.648 165.014C178.836 166.362 190.494 168.258 190.45 170.28C190.406 172.302 178.748 173.946 160.648 174.872V165.014Z" fill="#273D44"/>
<path d="M91.1376 175.21L135.096 172.934L139.128 162.865L145.264 147.487L157.361 141.799L171.122 136.87L192.641 151.7L187.908 158.694C187.908 158.694 180.063 166.446 177.214 169.058L169.369 170.912L162.664 172.429L161.13 174.957C182.561 173.946 190.406 171.839 190.45 170.407L190.406 178.159C190.362 181.235 163.409 184.184 130.144 183.847C96.879 183.51 69.9253 181.108 69.9691 178.032L70.0129 169.859C70.1005 169.901 91.0061 174.873 91.1376 175.21Z" fill="url(#paint35_linear_23_11)"/>
<path d="M177.959 99.4984L106.127 60.9055L75.6228 59.8522C82.416 44.8532 104.373 36.3846 129.267 37.6907C171.385 39.9237 205.921 74.7248 205.527 115.34C205.483 123.471 177.959 99.4984 177.959 99.4984Z" fill="url(#paint36_linear_23_11)"/>
<path d="M195.885 41.946C195.928 39.2496 198.032 38.8704 200.136 41.9881C202.722 45.6536 204.694 51.3836 205.264 54.4592C207.543 66.214 202.722 76.0308 190.362 83.8674C190.319 83.8674 189.793 84.2465 189.749 84.2465C188.916 84.7521 184.709 81.2973 181.246 76.2415C177.74 71.1435 176.469 66.4247 177.258 65.9612C177.302 65.9191 177.74 65.5821 177.784 65.5821C186.812 59.9364 195.622 52.479 195.885 41.946Z" fill="url(#paint37_linear_23_11)"/>
<path d="M190.932 154.481C190.932 154.481 188.653 167.205 188.39 168.595C188.127 169.985 188.083 169.943 187.207 170.322C186.155 170.744 183.569 171.207 180.94 171.544C175.768 172.303 162.707 173.272 162.707 173.272V172.303C162.707 172.303 174.059 169.185 178.967 166.151C185.848 161.812 190.932 154.481 190.932 154.481Z" fill="url(#paint38_linear_23_11)"/>
<path d="M85.5278 86.1846L78.0771 83.9937L68.7419 86.9008L75.6666 92.0409L67.0326 93.5577L62.869 98.3186L69.8814 101.352L72.511 104.386C72.511 104.386 76.3679 124.272 76.7623 135.184C77.1568 146.096 75.8858 170.617 75.8858 170.617L89.5598 172.682H119.538L133.562 171.165L142.635 145.254L152.627 140.577C152.627 140.577 155.958 119.048 155.739 116.309C155.52 113.57 151.488 105.397 150.743 104.343C149.866 103.08 143.292 98.3186 143.292 98.3186C143.292 98.3186 131.064 91.1561 126.813 89.513C122.562 87.8698 119.187 87.5749 119.187 87.5749L89.9105 79.5277L85.5278 86.1846Z" fill="url(#paint39_linear_23_11)"/>
<path d="M152.233 143.189C152.233 143.189 156.046 119.048 155.739 116.309C155.344 113.612 151.751 105.734 150.743 104.343C149.735 102.911 143.292 98.3186 143.292 98.3186C143.292 98.3186 130.757 91.0297 126.813 89.513C122.869 87.9962 109.501 85.0891 109.501 85.0891L90.8308 84.2465L85.5277 86.2688C85.5277 86.2688 80.0493 85.4683 77.6388 85.4683C75.2283 85.4683 68.6981 86.985 68.6981 86.985L75.6228 92.1252L66.9888 93.6419L62.8252 98.4028L69.8376 101.436L72.4672 104.47L73.2999 109.315L67.1641 104.723L58.7931 96.0856L54.4104 88.881L53.9283 87.8698L58.048 78.2637L73.037 70.8064L90.0419 69.1632L100.429 69.6267L109.677 70.3429L124.797 74.7668L169.632 91.9566L171.298 104.428L167.353 137.291L152.233 143.189Z" fill="url(#paint40_radial_23_11)"/>
<g opacity="0.9">
<path d="M101.043 163.328L98.9827 164.929L96.3969 160.8L96.1339 161.053L98.7197 166.994L101.174 165.73L104.242 168.3L109.764 165.983L111.254 167.794L116.864 160.084L111.999 164.255L110.334 163.033L104.505 165.772L101.043 163.328Z" fill="#929497"/>
</g>
<path d="M116.689 39.3337L102.445 42.7043L93.6796 47.5073L81.2327 60.1048L75.6666 59.9363C82.4598 44.9373 104.417 36.4687 129.311 37.7748C129.969 37.817 130.626 37.817 131.283 37.9012L116.689 39.3337Z" fill="url(#paint41_linear_23_11)"/>
<g opacity="0.8">
<path d="M88.5957 139.734C86.8864 139.734 85.3524 140.029 84.2129 140.493C84.1691 140.493 84.0814 140.535 84.0376 140.535C82.3722 139.187 81.2765 136.659 81.2765 133.794C81.2765 129.454 83.7308 125.957 86.7549 125.957C89.779 125.957 92.2333 129.454 92.2333 133.794C92.2333 136.279 91.4006 138.47 90.2172 139.903C89.6475 139.819 89.1216 139.734 88.5957 139.734Z" fill="white"/>
<path d="M88.0259 138.26C89.7202 138.26 91.0938 136.128 91.0938 133.499C91.0938 130.869 89.7202 128.738 88.0259 128.738C86.3315 128.738 84.958 130.869 84.958 133.499C84.958 136.128 86.3315 138.26 88.0259 138.26Z" fill="url(#paint42_linear_23_11)"/>
<path d="M89.1654 131.772C89.7705 131.772 90.2611 130.96 90.2611 129.96C90.2611 128.959 89.7705 128.148 89.1654 128.148C88.5603 128.148 88.0697 128.959 88.0697 129.96C88.0697 130.96 88.5603 131.772 89.1654 131.772Z" fill="white"/>
</g>
<g opacity="0.9">
<path d="M121.072 140.703C120.107 140.703 119.187 140.746 118.31 140.83C116.864 139.06 115.944 136.532 115.944 133.752C115.944 128.443 119.187 124.103 123.219 124.103C127.251 124.103 130.494 128.443 130.494 133.752C130.494 136.996 129.223 139.903 127.383 141.63C125.63 141.04 123.438 140.703 121.072 140.703Z" fill="white"/>
<path d="M125.411 139.06C127.589 139.06 129.355 136.57 129.355 133.499C129.355 130.427 127.589 127.938 125.411 127.938C123.232 127.938 121.466 130.427 121.466 133.499C121.466 136.57 123.232 139.06 125.411 139.06Z" fill="url(#paint43_linear_23_11)"/>
<path d="M127.207 131.645C128.006 131.645 128.654 130.702 128.654 129.538C128.654 128.375 128.006 127.432 127.207 127.432C126.409 127.432 125.761 128.375 125.761 129.538C125.761 130.702 126.409 131.645 127.207 131.645Z" fill="white"/>
</g>
<path d="M122.167 116.393C119.362 116.772 116.82 117.784 114.892 119.216C115.812 116.225 118.398 113.907 121.729 113.486C125.016 113.023 128.172 114.624 129.925 117.194C127.689 116.351 125.016 116.014 122.167 116.393Z" fill="#929497"/>
<path d="M86.5796 119.764C84.3006 119.174 82.0216 119.3 80.0932 120.017C81.9339 117.573 84.695 116.309 87.3685 116.941C90.0419 117.573 91.8388 120.059 92.1456 123.05C90.787 121.491 88.8586 120.269 86.5796 119.764Z" fill="url(#paint44_linear_23_11)"/>
<path opacity="0.6" d="M113.752 155.07C114.147 154.944 107.441 155.07 96.879 153.174C96.879 153.174 96.9228 152.374 96.8351 151.447C96.7913 150.899 96.6598 150.31 96.3531 149.846C96.3531 149.846 95.4327 153.259 94.4685 153.849C94.4685 153.849 96.4845 155.745 101.612 156.587C101.612 156.587 98.8074 155.365 97.6241 154.523C97.7555 154.607 109.326 156.545 113.752 155.07Z" fill="#4E4D50"/>
<path opacity="0.21" d="M82.8981 171.038L79.6987 170.575L75.8858 169.859C75.8858 169.859 76.4117 161.095 76.6746 150.352C76.7623 151.152 76.9376 151.953 77.0691 152.711C78.2962 160.969 80.1808 167.921 82.8981 171.038Z" fill="#231F20"/>
<path d="M137.77 149.046L142.459 138.302L145.264 125.747L146.36 114.413L142.898 105.355L139.523 100.594L133.387 96.0014L127.251 92.041L119.012 87.4907C119.012 87.4907 120.064 87.6171 121.422 87.9542C122.255 88.1227 123.219 88.4598 124.052 88.6704C126.506 89.3024 128.654 90.3136 128.654 90.3136L132.905 92.5044L143.161 98.2344C143.161 98.2344 149.998 103.164 150.611 104.259C151.225 105.355 155.213 112.938 155.607 116.225C156.002 119.553 152.496 140.493 152.496 140.493L142.459 145.085L133.519 170.491L124.49 171.713L116.996 172.008L127.909 165.856L137.77 149.046Z" fill="url(#paint45_radial_23_11)"/>
<path opacity="0.21" d="M98.3691 89.6816L91.4882 93.1785L82.1969 100.172L82.7666 92.5044L84.1691 86.4374L85.6592 84.6257L99.4209 88.207L101.043 88.8811L98.3691 89.6816Z" fill="#231F20"/>
<path d="M97.6679 89.1759C97.6679 89.1759 92.6277 90.3135 90.0419 91.6617C87.4123 93.0099 82.3283 97.6866 82.3283 97.6866C82.3283 97.6866 82.8105 90.1449 83.3364 88.6282C83.9938 86.8165 84.9142 83.8251 87.2808 81.2551C88.1574 80.3282 91.5321 77.2947 91.5321 77.2947C91.5321 77.2947 101.7 78.9378 103.891 79.1906C107.354 79.6541 119.143 87.5749 119.143 87.5749" fill="url(#paint46_linear_23_11)"/>
<g opacity="0.8">
<path opacity="0.39" d="M94.337 131.14C94.337 131.14 95.3889 131.477 96.0463 132.024L97.887 133.162L101.393 132.235C101.7 132.193 102.007 132.109 102.357 132.109C104.067 132.109 106.302 133.33 106.302 133.33L107.573 140.24C107.573 140.24 108.23 142.515 109.457 143.863C110.685 145.212 112.788 145.675 112.788 145.675L122.956 147.023C122.956 147.023 127.996 146.897 130.67 146.644C133.343 146.349 136.017 145.212 136.499 143.695C137.025 142.178 138.953 134.594 138.953 134.594L139.479 131.266L141.013 131.308L153.548 133.541L154.161 130.044L144.607 128.232C144.607 128.232 133.606 126.421 127.164 125.957C110.422 124.651 105.951 129.075 105.951 129.075C105.951 129.075 104.11 128.78 102.401 128.78C100.692 128.78 98.7197 129.412 98.7197 129.412C98.7197 129.412 92.9784 127.6 90.2172 127.305C87.4561 127.011 82.2845 127.263 82.2845 127.263L77.7265 128.022L76.1487 128.401L76.4555 131.645C78.3839 130.465 82.9857 129.791 82.9857 129.791C82.9857 129.791 87.1494 129.749 89.6913 130.128C92.3648 130.381 94.337 131.14 94.337 131.14ZM109.414 131.14C109.677 130.634 112.788 129.96 112.788 129.96C112.788 129.96 119.932 128.317 125.016 128.485C130.144 128.612 134.57 130.086 134.57 130.086C134.57 130.086 135.973 130.676 135.973 132.109C136.017 133.499 133.738 141.083 133.519 141.967C133.124 143.231 130.801 143.737 130.801 143.737L123.175 144.2C123.175 144.2 113.489 143.274 112.131 142.347C110.772 141.462 110.246 138.976 110.027 137.164C109.852 135.268 109.238 131.645 109.414 131.14Z" fill="url(#paint47_linear_23_11)"/>
<path opacity="0.39" d="M76.7623 140.282C77.0691 140.661 79.2166 141.504 79.5234 141.63C82.0654 143.063 90.8747 144.158 93.4166 141.672C93.4605 141.63 95.7833 139.861 95.8271 139.819L94.3808 144.537C93.2851 144.79 89.9981 145.254 89.9981 145.254C89.9981 145.254 86.8425 145.549 85.2209 145.38C83.9061 145.338 78.3401 144.158 76.6308 143.568L76.7623 140.282Z" fill="url(#paint48_linear_23_11)"/>
</g>
<path d="M70.6265 128.064C70.232 128.527 71.2401 130.507 71.2401 130.507L72.511 132.193C72.511 132.193 73.782 137.291 74.2203 138.302C74.6586 139.355 75.6228 141.293 76.6746 142.136C77.4197 142.684 82.2845 143.905 83.95 143.99C85.6154 144.074 88.7271 143.863 88.7271 143.863C88.7271 143.863 92.5839 143.484 93.8987 142.431C95.1697 141.378 95.5642 140.535 96.0901 139.313C96.616 138.091 98.1061 131.729 98.1061 131.729C98.1061 131.729 99.3333 130.718 101.043 130.718C102.752 130.718 104.987 131.94 104.987 131.94L106.828 138.934C106.828 138.934 107.135 141.42 108.318 142.726C109.545 144.032 110.246 144.158 112.043 144.664C113.796 145.127 117.785 145.591 120.896 145.591C124.008 145.591 126.506 145.338 128.61 145.212C130.714 145.085 134.044 143.821 134.877 140.914C135.315 139.397 136.63 135.985 136.981 133.162C137.156 131.392 137.507 129.833 137.507 129.833L139.041 129.876L153.811 132.403L154.293 128.991C154.293 128.991 146.842 127.516 143.73 127.095C140.005 126.589 137.507 126.084 135.359 125.747C132.028 125.157 129.311 124.398 125.367 124.103C108.625 122.797 105.25 127.769 105.25 127.769C105.25 127.769 102.445 127.179 100.736 127.179C99.0265 127.179 97.4049 127.98 97.4049 127.98C97.4049 127.98 93.2852 126.168 90.5679 125.789C87.0179 125.283 83.8623 125.283 80.5753 125.494C77.332 125.747 72.511 127.179 72.511 127.179C72.511 127.179 71.0209 127.516 70.6265 128.064ZM108.143 129.707C108.406 129.201 110.465 128.317 111.824 128.022C113.139 127.727 117.916 126.884 123.088 127.095C128.215 127.221 132.642 128.696 132.642 128.696C132.642 128.696 133.738 129.075 133.694 130.507C133.562 133.625 132.116 138.85 131.809 139.692C130.933 142.052 127.996 142.347 127.996 142.347L121.247 142.726C121.247 142.726 112.964 142.768 111.298 141.588C109.983 140.703 109.457 137.501 108.975 135.563C108.493 133.794 107.792 130.508 108.143 129.707ZM75.1845 132.614C74.7901 131.097 74.4395 130.255 75.9296 129.538C77.332 128.822 79.4796 128.401 81.9339 128.19C84.1691 128.022 85.966 127.937 88.508 128.317C91.1376 128.696 93.0222 129.665 93.0222 129.665C93.0222 129.665 95.1697 130.297 95.3012 131.392C95.4327 132.446 93.8987 138.597 92.1895 140.198C89.5598 142.642 80.7944 141.588 78.2963 140.156C76.4117 139.145 75.6666 134.805 75.1845 132.614Z" fill="url(#paint49_linear_23_11)"/>
<path opacity="0.17" d="M60.3709 75.9045L96.3093 68.8263L143.336 81.4659L173.226 104.765L169.106 136.575L144.388 148.034L134.965 171.207L120.896 172.26L90.2173 171.965L67.5148 168.174L66.6821 168.047C56.7771 157.809 48.0117 137.628 48.2746 117.489C48.3623 106.661 49.3265 98.1502 53.3148 89.4288L60.3709 75.9045Z" fill="#EFEFEF"/>
<path d="M166.871 133.962L142.547 145.127L133.606 170.533C133.606 170.533 124.271 171.67 117.083 172.05C109.94 172.513 96.7913 172.134 89.6036 171.755C82.4598 171.376 66.5944 167.921 66.5944 167.921L70.1444 173.524C70.1444 173.524 82.3284 176.6 90.1734 177.19C98.0623 177.78 111.123 178.243 120.809 177.695C130.494 177.19 139.654 176.558 139.654 176.558L148.683 148.414L175.242 136.448L166.871 133.962Z" fill="url(#paint50_linear_23_11)"/>
<path d="M188.39 90.9034C189.793 90.9455 193.518 91.2404 193.518 91.2404L196.893 95.58C202.371 101.394 205.439 112.138 204.256 124.103C203.16 135.479 198.427 145.085 192.335 150.015L190.494 152.205C190.494 152.205 183.131 153.217 181.772 153.132C171.254 152.163 164.548 137.838 165.381 120.522C166.17 103.08 177.872 90.5242 188.39 90.9034Z" fill="url(#paint51_linear_23_11)"/>
<path d="M173.445 120.101C171.736 136.954 178.31 151.321 188.04 152.206C197.769 153.09 207.061 140.156 208.682 123.303C210.391 106.492 203.817 92.0831 194.088 91.1984C184.402 90.3557 175.154 103.29 173.445 120.101Z" fill="url(#paint52_linear_23_11)"/>
<path d="M195.885 108.515L195.534 111.759C199.698 112.138 202.59 117.657 201.977 124.103C201.363 130.55 197.375 135.437 193.211 135.058L192.861 138.302C187.47 137.796 183.788 130.718 184.621 122.502C185.541 114.244 190.494 108.009 195.885 108.515Z" fill="url(#paint53_linear_23_11)"/>
<path d="M101.568 44.4739C140.312 40.8084 170.64 64.6551 181.685 92.7572C177.696 94.2739 174.365 104.301 174.365 104.301L171.21 104.386C171.21 104.386 170.29 104.343 170.29 104.301C151.532 84.9628 125.454 72.3232 89.3407 72.0282C81.0135 71.9861 68.2598 73.7135 58.9685 78.7694L58.9246 78.8115L56.7332 82.6876L54.5419 86.6059L53.9721 87.7856C53.9721 87.7856 51.6931 84.4151 52.745 81.3394C58.7055 66.0034 76.324 46.8333 101.568 44.4739Z" fill="url(#paint54_linear_23_11)"/>
<path d="M101.612 42.4095C140.356 38.744 173.533 64.4024 184.577 92.4623C180.107 94.9902 177.214 99.0349 174.409 104.344C155.476 83.9516 127.339 69.9217 90.0858 69.5846C84.0815 69.5425 75.3598 70.5958 67.4271 73.1237C64.0524 74.177 60.7215 75.6095 57.9166 77.2105C55.5499 78.6009 52.3506 81.7186 52.6135 84.5836C51.211 81.4658 53.6653 77.9268 54.8925 75.7359C62.8252 61.411 79.6987 44.4739 101.612 42.4095Z" fill="url(#paint55_linear_23_11)"/>
<path opacity="0.59" d="M54.8487 75.7781C62.6061 61.4111 79.0851 44.5161 100.517 42.4095C101.612 42.3253 102.708 42.241 103.76 42.1567C103.76 42.1567 85.8345 47.8446 75.0968 57.1557C64.5345 66.3826 60.3271 75.8623 60.3271 75.8623C59.4505 76.2837 58.6178 76.7471 57.8728 77.2106C55.5499 78.6009 52.3944 81.7187 52.7011 84.5837C51.2987 81.3816 53.6654 77.9689 54.8487 75.7781Z" fill="url(#paint56_linear_23_11)"/>
<path opacity="0.45" d="M54.1913 87.2801L58.8808 78.8115L61.0721 77.674L63.9209 76.4521L58.311 87.3643C54.2789 96.2121 52.3943 105.734 52.3067 116.688C52.0437 137.08 60.9406 157.514 70.9771 167.879L72.0727 169.143L67.8215 168.3L66.6382 168.005C56.6018 157.598 48.0116 136.954 48.2308 116.604C48.2746 105.692 50.203 96.1278 54.1913 87.2801Z" fill="#BFBEBE"/>
<path d="M189.398 223.577C191.59 221.049 192.948 219.153 193.649 215.488C194.395 211.822 195.227 208.157 194.175 204.87C193.08 201.542 192.685 200.742 190.625 199.056C188.609 197.413 187.558 196.781 184.972 196.233C182.342 195.728 180.282 195.77 177.346 196.697C173.883 197.75 171.254 200.994 169.106 204.281C167.003 207.609 165.732 209.631 164.855 215.193C163.978 220.754 165.688 225.01 167.046 227.074C168.361 229.181 170.246 230.74 173.314 231.119C176.907 231.54 179.669 230.571 182.079 229.391C184.533 228.127 187.251 226.021 189.398 223.577Z" fill="url(#paint57_linear_23_11)"/>
<path d="M191.239 223.577C193.43 221.049 194.789 219.153 195.49 215.488C196.235 211.822 197.068 208.157 196.016 204.87C194.92 201.542 194.526 200.742 192.466 199.056C190.45 197.413 189.398 196.781 186.812 196.233C184.139 195.728 182.123 195.77 179.186 196.697C175.724 197.75 173.095 200.994 170.947 204.281C168.843 207.609 167.572 209.631 166.696 215.193C165.819 220.754 167.528 225.01 168.887 227.074C170.202 229.181 172.086 230.74 175.154 231.119C178.748 231.54 181.509 230.571 183.92 229.391C186.33 228.169 189.048 226.021 191.239 223.577Z" fill="url(#paint58_linear_23_11)"/>
<path d="M177.433 211.064C180.151 206.092 184.227 203.059 187.996 204.828C189.574 205.629 190.406 206.935 190.625 208.494L188.346 210.263C188.171 208.999 187.733 208.073 186.506 207.483C184.314 206.471 181.597 208.536 179.975 211.569C179.932 211.654 179.8 211.907 179.712 212.075C180.983 211.232 182.956 210.558 184.49 211.275C186.812 212.412 187.777 215.277 185.761 218.943C183.964 222.102 180.72 223.872 177.872 222.524C174.103 220.712 174.76 215.867 177.433 211.064ZM183.394 218.016C184.577 215.909 183.832 214.308 182.474 213.634C181.378 213.128 179.844 213.339 178.617 214.35C177.696 216.246 177.258 218.816 179.23 219.743C180.852 220.628 182.605 219.406 183.394 218.016Z" fill="url(#paint59_linear_23_11)"/>
<path opacity="0.1" d="M66.5505 168.005L70.0129 173.44L69.9691 175.167C67.0327 175.968 65.3672 176.853 65.3234 177.822L65.2795 182.709C65.2795 183.299 65.8493 183.847 66.9888 184.352C67.6462 184.731 68.3475 184.858 68.8734 185.111L72.511 190.293L72.9055 191.81H72.8617L70.9771 192.189L66.4629 193.116L63.0882 195.854L59.7135 200.784L56.6894 209.758L55.287 218.395L55.7691 219.659L56.6894 220.122L56.5141 222.819L57.4345 232.214L62.4746 240.851L62.6061 240.978L62.4746 240.935C62.4746 240.935 69.487 246.286 69.6623 246.455C69.6623 246.455 69.7061 246.497 69.7938 246.497L69.8814 246.539L72.6863 247.761C73.8697 248.266 75.2284 248.898 76.4993 249.446L76.8061 253.238L79.0851 254.755L79.9178 267.689L82.0654 281.34L82.679 291.915L79.6549 294.527L79.6111 295.496L76.9814 298.319L75.4037 300.257H74.5271L70.9333 304.723L70.3197 309.948L72.8617 314.793L80.8382 316.9L82.7228 316.857L91.6636 316.562L98.1938 313.74V313.36L109.808 308.01L119.012 301.142L119.801 289.261L121.072 282.688L121.115 282.646L122.43 277.885L124.359 274.894L128.347 274.936L132.598 285.764L136.762 298.024L136.63 298.066L135.228 301.1L135.535 301.816L135.798 301.184L134.965 303.502L132.072 310.369L131.678 310.453L130.1 314.498L131.678 320.186L136.718 323.767L136.849 323.809V323.851L138.559 324.23L145.045 326L146.141 325.916L146.973 325.874V325.831L154.38 325.031V325.073L154.906 325.031L155.739 324.989L164.329 322.461L167.66 318.163L170.202 315.383L174.146 310.243L176.951 305.482L178.354 289.851L178.748 282.773H178.704L180.72 267.816L180.852 254.081L180.896 254.039L182.999 252.817V245.612L181.641 245.149L182.561 241.778L183.525 241.399L192.378 228.633L195.841 217.299L197.068 206.429L197.901 201.584L195.885 195.475L194.175 194.675L190.494 190.082L191.896 185.279C193.08 184.774 193.693 184.352 193.693 183.636L193.737 179.212C193.737 178.791 193.869 178.327 193.43 177.99C192.992 177.485 191.546 176.768 190.231 176.305L190.275 170.786C190.275 170.786 190.275 170.238 190.231 169.648C190.099 169.269 189.617 168.848 188.127 168.3C188.522 166.109 190.757 154.059 190.757 154.059C190.757 154.059 190.494 154.438 190.099 154.986L192.685 151.194C200.443 148.371 207.455 137.712 208.77 123.808C209.077 120.438 209.077 117.152 208.77 114.076C208.244 107.082 206.316 101.015 203.291 96.8861C201.801 90.9034 199.172 84.4572 196.279 79.0222C201.232 74.4719 204.343 69.9217 205.264 64.4024C205.921 61.1582 205.877 57.7034 205.22 54.0379C204.606 50.9201 202.59 45.148 200.092 41.5668C197.901 38.449 195.885 38.7861 195.841 41.5247C195.841 41.5668 195.841 41.5668 195.841 41.6511C195.709 42.0303 195.534 42.4516 195.534 42.9993C195.49 43.7577 195.49 44.4739 195.359 45.1902C193.869 51.847 188.96 57.0714 183.175 61.411C169.807 47.8866 151.444 38.8704 131.196 37.2693C130.538 37.2272 129.881 37.1851 129.223 37.1429C125.367 36.8902 121.51 37.0166 117.785 37.1851C115.549 37.3115 113.358 37.5643 111.254 37.9013C110.509 37.9856 109.852 38.1541 109.107 38.2805C104.943 39.0389 100.955 40.0922 97.3173 41.3983C96.7037 41.6511 96.0901 41.8617 95.5203 42.1145C94.6876 42.4937 93.8111 42.8308 93.066 43.1678C86.6672 44.8531 80.7944 47.8445 75.6228 51.51C75.1845 50.7095 74.7901 49.8668 74.4394 48.982C74.1326 47.6338 74.0012 46.2856 74.045 44.7688C74.0888 43.7155 73.8697 42.9993 73.4314 42.6622C73.4314 42.6201 73.4314 42.6201 73.4314 42.5358C73.5629 39.4602 71.4154 39.4602 69.3993 42.4937C67.1641 45.8643 64.8851 51.2993 64.2715 54.2485C63.658 57.0293 63.4826 59.6836 63.7456 62.2536C60.0641 66.509 56.9962 70.9328 54.7172 75.146C53.5339 77.3369 51.1672 80.8338 52.5258 83.9937C52.8326 85.342 53.4462 86.4374 53.7092 86.9009L53.7968 87.1536L53.8406 87.2379C53.4024 88.2069 53.0079 89.176 52.5696 90.1871C50.0277 96.1699 48.8882 102.068 48.4061 108.725C48.1431 111.085 48.0555 113.57 48.0117 116.056C47.9678 117.994 48.0555 119.974 48.1431 121.913C48.8882 133.794 52.5259 145.464 57.4345 154.733C57.4783 154.86 57.566 155.07 57.6975 155.197C57.7413 155.239 57.7413 155.323 57.8289 155.45C60.6339 160.758 63.5703 164.845 66.5505 168.005ZM69.8814 101.352L62.869 98.3186L67.0326 93.5577L75.6666 92.041L68.7419 86.9009L78.0771 83.9937L84.4321 85.8054C85.0018 84.4151 85.8345 82.7719 87.3246 81.213C87.3685 81.1709 87.4561 81.0445 87.6314 80.9181C87.6752 80.876 87.6753 80.876 87.6753 80.876C87.7629 80.7917 87.9382 80.6232 88.0697 80.4968C89.3407 79.2328 91.5759 77.2526 91.5759 77.2526C91.5759 77.2526 101.744 78.8958 103.935 79.1486C107.398 79.612 119.187 87.5328 119.187 87.5328C119.187 87.5328 122.518 87.8699 126.813 89.4709C131.064 91.1141 143.292 98.2765 143.292 98.2765C143.292 98.2765 149.866 103.037 150.743 104.301C151.488 105.355 155.476 113.528 155.739 116.267C156.002 119.005 152.627 140.535 152.627 140.535L142.591 145.127L133.519 171.038L119.494 172.555H89.516L75.8419 170.491C75.8419 170.491 77.1129 145.928 76.7185 135.058C76.324 124.146 72.4672 104.259 72.4672 104.259L69.8814 101.352Z" fill="url(#paint60_linear_23_11)"/>
<path opacity="0.1" d="M66.5505 168.005L70.0129 173.44L69.9691 175.167C67.0327 175.968 65.3672 176.853 65.3234 177.822L65.2795 182.709C65.2795 183.299 65.8493 183.847 66.9888 184.352C67.6462 184.731 68.3475 184.858 68.8734 185.111L72.511 190.293L72.9055 191.81H72.8617L70.9771 192.189L66.4629 193.116L63.0882 195.854L59.7135 200.784L56.6894 209.758L55.287 218.395L55.7691 219.659L56.6894 220.122L56.5141 222.819L57.4345 232.214L62.4746 240.851L62.6061 240.978L62.4746 240.935C62.4746 240.935 69.487 246.286 69.6623 246.455C69.6623 246.455 69.7061 246.497 69.7938 246.497L69.8814 246.539L72.6863 247.761C73.8697 248.266 75.2284 248.898 76.4993 249.446L76.8061 253.238L79.0851 254.755L79.9178 267.689L82.0654 281.34L82.679 291.915L79.6549 294.527L79.6111 295.496L76.9814 298.319L75.4037 300.257H74.5271L70.9333 304.723L70.3197 309.948L72.8617 314.793L80.8382 316.9L82.7228 316.857L91.6636 316.562L98.1938 313.74V313.36L109.808 308.01L119.012 301.142L119.801 289.261L121.072 282.688L121.115 282.646L122.43 277.885L124.359 274.894L128.347 274.936L132.598 285.764L136.762 298.024L136.63 298.066L135.228 301.1L135.535 301.816L135.798 301.184L134.965 303.502L132.072 310.369L131.678 310.453L130.1 314.498L131.678 320.186L136.718 323.767L136.849 323.809V323.851L138.559 324.23L145.045 326L146.141 325.916L146.973 325.874V325.831L154.38 325.031V325.073L154.906 325.031L155.739 324.989L164.329 322.461L167.66 318.163L170.202 315.383L174.146 310.243L176.951 305.482L178.354 289.851L178.748 282.773H178.704L180.72 267.816L180.852 254.081L180.896 254.039L182.999 252.817V245.612L181.641 245.149L182.561 241.778L183.525 241.399L192.378 228.633L195.841 217.299L197.068 206.429L197.901 201.584L195.885 195.475L194.175 194.675L190.494 190.082L191.896 185.279C193.08 184.774 193.693 184.352 193.693 183.636L193.737 179.212C193.737 178.791 193.869 178.327 193.43 177.99C192.992 177.485 191.546 176.768 190.231 176.305L190.275 170.786C190.275 170.786 190.275 170.238 190.231 169.648C190.099 169.269 189.617 168.848 188.127 168.3C188.522 166.109 190.757 154.059 190.757 154.059C190.757 154.059 190.494 154.438 190.099 154.986L192.685 151.194C200.443 148.371 207.455 137.712 208.77 123.808C209.077 120.438 209.077 117.152 208.77 114.076C208.244 107.082 206.316 101.015 203.291 96.8861C201.801 90.9034 199.172 84.4572 196.279 79.0222C201.232 74.4719 204.343 69.9217 205.264 64.4024C205.921 61.1582 205.877 57.7034 205.22 54.0379C204.606 50.9201 202.59 45.148 200.092 41.5668C197.901 38.449 195.885 38.7861 195.841 41.5247C195.841 41.5668 195.841 41.5668 195.841 41.6511C195.709 42.0303 195.534 42.4516 195.534 42.9993C195.49 43.7577 195.49 44.4739 195.359 45.1902C193.869 51.847 188.96 57.0714 183.175 61.411C169.807 47.8866 151.444 38.8704 131.196 37.2693C130.538 37.2272 129.881 37.1851 129.223 37.1429C125.367 36.8902 121.51 37.0166 117.785 37.1851C115.549 37.3115 113.358 37.5643 111.254 37.9013C110.509 37.9856 109.852 38.1541 109.107 38.2805C104.943 39.0389 100.955 40.0922 97.3173 41.3983C96.7037 41.6511 96.0901 41.8617 95.5203 42.1145C94.6876 42.4937 93.8111 42.8308 93.066 43.1678C86.6672 44.8531 80.7944 47.8445 75.6228 51.51C75.1845 50.7095 74.7901 49.8668 74.4394 48.982C74.1326 47.6338 74.0012 46.2856 74.045 44.7688C74.0888 43.7155 73.8697 42.9993 73.4314 42.6622C73.4314 42.6201 73.4314 42.6201 73.4314 42.5358C73.5629 39.4602 71.4154 39.4602 69.3993 42.4937C67.1641 45.8643 64.8851 51.2993 64.2715 54.2485C63.658 57.0293 63.4826 59.6836 63.7456 62.2536C60.0641 66.509 56.9962 70.9328 54.7172 75.146C53.5339 77.3369 51.1672 80.8338 52.5258 83.9937C52.8326 85.342 53.4462 86.4374 53.7092 86.9009L53.7968 87.1536L53.8406 87.2379C53.4024 88.2069 53.0079 89.176 52.5696 90.1871C50.0277 96.1699 48.8882 102.068 48.4061 108.725C48.1431 111.085 48.0555 113.57 48.0117 116.056C47.9678 117.994 48.0555 119.974 48.1431 121.913C48.8882 133.794 52.5259 145.464 57.4345 154.733C57.4783 154.86 57.566 155.07 57.6975 155.197C57.7413 155.239 57.7413 155.323 57.8289 155.45C60.6339 160.758 63.5703 164.845 66.5505 168.005ZM69.8814 101.352L62.869 98.3186L67.0326 93.5577L75.6666 92.041L68.7419 86.9009L78.0771 83.9937L84.4321 85.8054C85.0018 84.4151 85.8345 82.7719 87.3246 81.213C87.3685 81.1709 87.4561 81.0445 87.6314 80.9181C87.6752 80.876 87.6753 80.876 87.6753 80.876C87.7629 80.7917 87.9382 80.6232 88.0697 80.4968C89.3407 79.2328 91.5759 77.2526 91.5759 77.2526C91.5759 77.2526 101.744 78.8958 103.935 79.1486C107.398 79.612 119.187 87.5328 119.187 87.5328C119.187 87.5328 122.518 87.8699 126.813 89.4709C131.064 91.1141 143.292 98.2765 143.292 98.2765C143.292 98.2765 149.866 103.037 150.743 104.301C151.488 105.355 155.476 113.528 155.739 116.267C156.002 119.005 152.627 140.535 152.627 140.535L142.591 145.127L133.519 171.038L119.494 172.555H89.516L75.8419 170.491C75.8419 170.491 77.1129 145.928 76.7185 135.058C76.324 124.146 72.4672 104.259 72.4672 104.259L69.8814 101.352Z" fill="url(#paint61_linear_23_11)"/>
<path opacity="0.1" d="M66.5505 168.005L70.0129 173.44L69.9691 175.167C67.0327 175.968 65.3672 176.853 65.3234 177.822L65.2795 182.709C65.2795 183.299 65.8493 183.847 66.9888 184.352C67.6462 184.731 68.3475 184.858 68.8734 185.111L72.511 190.293L72.9055 191.81H72.8617L70.9771 192.189L66.4629 193.116L63.0882 195.854L59.7135 200.784L56.6894 209.758L55.287 218.395L55.7691 219.659L56.6894 220.122L56.5141 222.819L57.4345 232.214L62.4746 240.851L62.6061 240.978L62.4746 240.935C62.4746 240.935 69.487 246.286 69.6623 246.455C69.6623 246.455 69.7061 246.497 69.7938 246.497L69.8814 246.539L72.6863 247.761C73.8697 248.266 75.2284 248.898 76.4993 249.446L76.8061 253.238L79.0851 254.755L79.9178 267.689L82.0654 281.34L82.679 291.915L79.6549 294.527L79.6111 295.496L76.9814 298.319L75.4037 300.257H74.5271L70.9333 304.723L70.3197 309.948L72.8617 314.793L80.8382 316.9L82.7228 316.857L91.6636 316.562L98.1938 313.74V313.36L109.808 308.01L119.012 301.142L119.801 289.261L121.072 282.688L121.115 282.646L122.43 277.885L124.359 274.894L128.347 274.936L132.598 285.764L136.762 298.024L136.63 298.066L135.228 301.1L135.535 301.816L135.798 301.184L134.965 303.502L132.072 310.369L131.678 310.453L130.1 314.498L131.678 320.186L136.718 323.767L136.849 323.809V323.851L138.559 324.23L145.045 326L146.141 325.916L146.973 325.874V325.831L154.38 325.031V325.073L154.906 325.031L155.739 324.989L164.329 322.461L167.66 318.163L170.202 315.383L174.146 310.243L176.951 305.482L178.354 289.851L178.748 282.773H178.704L180.72 267.816L180.852 254.081L180.896 254.039L182.999 252.817V245.612L181.641 245.149L182.561 241.778L183.525 241.399L192.378 228.633L195.841 217.299L197.068 206.429L197.901 201.584L195.885 195.475L194.175 194.675L190.494 190.082L191.896 185.279C193.08 184.774 193.693 184.352 193.693 183.636L193.737 179.212C193.737 178.791 193.869 178.327 193.43 177.99C192.992 177.485 191.546 176.768 190.231 176.305L190.275 170.786C190.275 170.786 190.275 170.238 190.231 169.648C190.099 169.269 189.617 168.848 188.127 168.3C188.522 166.109 190.757 154.059 190.757 154.059C190.757 154.059 190.494 154.438 190.099 154.986L192.685 151.194C200.443 148.371 207.455 137.712 208.77 123.808C209.077 120.438 209.077 117.152 208.77 114.076C208.244 107.082 206.316 101.015 203.291 96.8861C201.801 90.9034 199.172 84.4572 196.279 79.0222C201.232 74.4719 204.343 69.9217 205.264 64.4024C205.921 61.1582 205.877 57.7034 205.22 54.0379C204.606 50.9201 202.59 45.148 200.092 41.5668C197.901 38.449 195.885 38.7861 195.841 41.5247C195.841 41.5668 195.841 41.5668 195.841 41.6511C195.709 42.0303 195.534 42.4516 195.534 42.9993C195.49 43.7577 195.49 44.4739 195.359 45.1902C193.869 51.847 188.96 57.0714 183.175 61.411C169.807 47.8866 151.444 38.8704 131.196 37.2693C130.538 37.2272 129.881 37.1851 129.223 37.1429C125.367 36.8902 121.51 37.0166 117.785 37.1851C115.549 37.3115 113.358 37.5643 111.254 37.9013C110.509 37.9856 109.852 38.1541 109.107 38.2805C104.943 39.0389 100.955 40.0922 97.3173 41.3983C96.7037 41.6511 96.0901 41.8617 95.5203 42.1145C94.6876 42.4937 93.8111 42.8308 93.066 43.1678C86.6672 44.8531 80.7944 47.8445 75.6228 51.51C75.1845 50.7095 74.7901 49.8668 74.4394 48.982C74.1326 47.6338 74.0012 46.2856 74.045 44.7688C74.0888 43.7155 73.8697 42.9993 73.4314 42.6622C73.4314 42.6201 73.4314 42.6201 73.4314 42.5358C73.5629 39.4602 71.4154 39.4602 69.3993 42.4937C67.1641 45.8643 64.8851 51.2993 64.2715 54.2485C63.658 57.0293 63.4826 59.6836 63.7456 62.2536C60.0641 66.509 56.9962 70.9328 54.7172 75.146C53.5339 77.3369 51.1672 80.8338 52.5258 83.9937C52.8326 85.342 53.4462 86.4374 53.7092 86.9009L53.7968 87.1536L53.8406 87.2379C53.4024 88.2069 53.0079 89.176 52.5696 90.1871C50.0277 96.1699 48.8882 102.068 48.4061 108.725C48.1431 111.085 48.0555 113.57 48.0117 116.056C47.9678 117.994 48.0555 119.974 48.1431 121.913C48.8882 133.794 52.5259 145.464 57.4345 154.733C57.4783 154.86 57.566 155.07 57.6975 155.197C57.7413 155.239 57.7413 155.323 57.8289 155.45C60.6339 160.758 63.5703 164.845 66.5505 168.005ZM69.8814 101.352L62.869 98.3186L67.0326 93.5577L75.6666 92.041L68.7419 86.9009L78.0771 83.9937L84.4321 85.8054C85.0018 84.4151 85.8345 82.7719 87.3246 81.213C87.3685 81.1709 87.4561 81.0445 87.6314 80.9181C87.6752 80.876 87.6753 80.876 87.6753 80.876C87.7629 80.7917 87.9382 80.6232 88.0697 80.4968C89.3407 79.2328 91.5759 77.2526 91.5759 77.2526C91.5759 77.2526 101.744 78.8958 103.935 79.1486C107.398 79.612 119.187 87.5328 119.187 87.5328C119.187 87.5328 122.518 87.8699 126.813 89.4709C131.064 91.1141 143.292 98.2765 143.292 98.2765C143.292 98.2765 149.866 103.037 150.743 104.301C151.488 105.355 155.476 113.528 155.739 116.267C156.002 119.005 152.627 140.535 152.627 140.535L142.591 145.127L133.519 171.038L119.494 172.555H89.516L75.8419 170.491C75.8419 170.491 77.1129 145.928 76.7185 135.058C76.324 124.146 72.4672 104.259 72.4672 104.259L69.8814 101.352Z" fill="url(#paint62_linear_23_11)"/>
<defs>
<linearGradient id="paint0_linear_23_11" x1="133.581" y1="255.757" x2="132.405" y2="240.926" gradientUnits="userSpaceOnUse">
<stop offset="0.2638" stop-color="#293942"/>
<stop offset="1" stop-color="#0F1B21"/>
</linearGradient>
<linearGradient id="paint1_linear_23_11" x1="131.184" y1="204.311" x2="131.5" y2="244.757" gradientUnits="userSpaceOnUse">
<stop stop-color="#4E5663"/>
<stop offset="0.2722" stop-color="#A6A8AB"/>
<stop offset="0.8094" stop-color="#A6A8AB"/>
<stop offset="0.9269" stop-color="#CFD0D2"/>
</linearGradient>
<linearGradient id="paint2_linear_23_11" x1="86.7707" y1="191.923" x2="80.4261" y2="205.846" gradientUnits="userSpaceOnUse">
<stop stop-color="#929497"/>
<stop offset="1" stop-color="#293942"/>
</linearGradient>
<linearGradient id="paint3_linear_23_11" x1="85.7525" y1="209.381" x2="83.2415" y2="232.622" gradientUnits="userSpaceOnUse">
<stop stop-color="#5B3528"/>
<stop offset="0.17" stop-color="#5B3427"/>
<stop offset="0.2057" stop-color="#743A21"/>
<stop offset="0.2526" stop-color="#8F411C"/>
<stop offset="0.3006" stop-color="#A24517"/>
<stop offset="0.3499" stop-color="#AD4815"/>
<stop offset="0.4024" stop-color="#B14914"/>
<stop offset="0.5719" stop-color="#5B3528"/>
</linearGradient>
<linearGradient id="paint4_linear_23_11" x1="80.6217" y1="191.425" x2="79.8541" y2="216.208" gradientUnits="userSpaceOnUse">
<stop stop-color="#CFD0D2"/>
<stop offset="1" stop-color="#293942"/>
</linearGradient>
<linearGradient id="paint5_linear_23_11" x1="80.8712" y1="201.717" x2="74.4039" y2="200.954" gradientUnits="userSpaceOnUse">
<stop offset="0.2638" stop-color="#455A65"/>
<stop offset="1" stop-color="#0F1B21"/>
</linearGradient>
<linearGradient id="paint6_linear_23_11" x1="80.3917" y1="196.444" x2="74.086" y2="195.7" gradientUnits="userSpaceOnUse">
<stop offset="0.2638" stop-color="#455A65"/>
<stop offset="1" stop-color="#0F1B21"/>
</linearGradient>
<linearGradient id="paint7_linear_23_11" x1="81.9275" y1="205.523" x2="75.1291" y2="206.153" gradientUnits="userSpaceOnUse">
<stop offset="0.2638" stop-color="#455A65"/>
<stop offset="1" stop-color="#0F1B21"/>
</linearGradient>
<linearGradient id="paint8_linear_23_11" x1="83.3091" y1="210.961" x2="81.4335" y2="228.322" gradientUnits="userSpaceOnUse">
<stop stop-color="#283840"/>
<stop offset="1" stop-color="#0F1B21"/>
</linearGradient>
<linearGradient id="paint9_linear_23_11" x1="154.595" y1="221.286" x2="129.729" y2="221.286" gradientUnits="userSpaceOnUse">
<stop stop-color="#3B2314"/>
<stop offset="1" stop-color="#754C28"/>
</linearGradient>
<linearGradient id="paint10_linear_23_11" x1="198.124" y1="201.505" x2="144.174" y2="201.505" gradientUnits="userSpaceOnUse">
<stop stop-color="#929497"/>
<stop offset="1" stop-color="#293942"/>
</linearGradient>
<linearGradient id="paint11_linear_23_11" x1="140.225" y1="230.179" x2="143.075" y2="207.706" gradientUnits="userSpaceOnUse">
<stop stop-color="#0F1B21"/>
<stop offset="0.17" stop-color="#5B3427"/>
<stop offset="0.1821" stop-color="#683827"/>
<stop offset="0.2245" stop-color="#924625"/>
<stop offset="0.2679" stop-color="#B45124"/>
<stop offset="0.3118" stop-color="#CF5A23"/>
<stop offset="0.3564" stop-color="#E26023"/>
<stop offset="0.4022" stop-color="#ED6422"/>
<stop offset="0.4509" stop-color="#F16522"/>
<stop offset="0.7779" stop-color="#404041"/>
</linearGradient>
<linearGradient id="paint12_linear_23_11" x1="196.039" y1="202.53" x2="139.472" y2="202.53" gradientUnits="userSpaceOnUse">
<stop stop-color="white"/>
<stop offset="1" stop-color="#293942"/>
</linearGradient>
<linearGradient id="paint13_linear_23_11" x1="135.721" y1="221.657" x2="145.671" y2="210.821" gradientUnits="userSpaceOnUse">
<stop offset="0.2638" stop-color="#455A65"/>
<stop offset="1" stop-color="#0F1B21"/>
</linearGradient>
<linearGradient id="paint14_linear_23_11" x1="52.6921" y1="205.244" x2="101.566" y2="244.66" gradientUnits="userSpaceOnUse">
<stop stop-color="#F2C086"/>
<stop offset="0.0910139" stop-color="#BBB3AE"/>
<stop offset="0.3157" stop-color="#CACCCE"/>
<stop offset="0.7498" stop-color="#9EA0A3"/>
</linearGradient>
<linearGradient id="paint15_linear_23_11" x1="102.771" y1="220.553" x2="79.3835" y2="222.514" gradientUnits="userSpaceOnUse">
<stop stop-color="#794D3A"/>
<stop offset="1" stop-color="#36444C"/>
</linearGradient>
<linearGradient id="paint16_linear_23_11" x1="92.1489" y1="217.088" x2="81.6392" y2="227.293" gradientUnits="userSpaceOnUse">
<stop stop-color="#5B3427"/>
<stop offset="0.0618358" stop-color="#663827"/>
<stop offset="0.1709" stop-color="#844126"/>
<stop offset="0.3142" stop-color="#B45124"/>
<stop offset="0.4737" stop-color="#F16522"/>
<stop offset="0.6685" stop-color="#F28F3F"/>
<stop offset="0.8876" stop-color="#ED693C"/>
<stop offset="1" stop-color="#E83E39"/>
</linearGradient>
<linearGradient id="paint17_linear_23_11" x1="55.9736" y1="201.514" x2="70.7122" y2="205.838" gradientUnits="userSpaceOnUse">
<stop stop-color="#CE9179"/>
<stop offset="0.6433" stop-color="#929497"/>
<stop offset="1" stop-color="#293942"/>
</linearGradient>
<linearGradient id="paint18_linear_23_11" x1="55.7961" y1="201.514" x2="69.5371" y2="205.012" gradientUnits="userSpaceOnUse">
<stop stop-color="#F2C086"/>
<stop offset="0.0810818" stop-color="#F3A98C"/>
<stop offset="0.1841" stop-color="#D37A6D"/>
<stop offset="0.4658" stop-color="#CFD0D2"/>
<stop offset="0.7773" stop-color="#CCD1D0"/>
</linearGradient>
<linearGradient id="paint19_linear_23_11" x1="116.205" y1="232.19" x2="91.7604" y2="232.19" gradientUnits="userSpaceOnUse">
<stop stop-color="#4E5663"/>
<stop offset="1" stop-color="#A6A8AB"/>
</linearGradient>
<linearGradient id="paint20_linear_23_11" x1="184.694" y1="240.655" x2="119.305" y2="195.152" gradientUnits="userSpaceOnUse">
<stop stop-color="#F2C086"/>
<stop offset="0.0910139" stop-color="#947F7E"/>
<stop offset="0.3157" stop-color="#CFD0D2"/>
<stop offset="0.7166" stop-color="#A6A8AB"/>
<stop offset="0.7463" stop-color="#AAACAF"/>
<stop offset="0.8691" stop-color="#B5B7B9"/>
<stop offset="1" stop-color="#B9BBBD"/>
</linearGradient>
<linearGradient id="paint21_linear_23_11" x1="119.065" y1="219.236" x2="89.4475" y2="219.236" gradientUnits="userSpaceOnUse">
<stop stop-color="#293942"/>
<stop offset="1" stop-color="#0F1B21"/>
</linearGradient>
<linearGradient id="paint22_linear_23_11" x1="122.75" y1="211.54" x2="141.577" y2="224.414" gradientUnits="userSpaceOnUse">
<stop stop-color="#3B2314"/>
<stop offset="1" stop-color="#754C28"/>
</linearGradient>
<linearGradient id="paint23_linear_23_11" x1="127.041" y1="208.373" x2="137.537" y2="226.01" gradientUnits="userSpaceOnUse">
<stop stop-color="#5B3427"/>
<stop offset="0.1638" stop-color="#914625"/>
<stop offset="0.3408" stop-color="#C55723"/>
<stop offset="0.4745" stop-color="#E56122"/>
<stop offset="0.5481" stop-color="#F16522"/>
<stop offset="0.7011" stop-color="#F28F3F"/>
<stop offset="0.8876" stop-color="#ED693C"/>
<stop offset="1" stop-color="#E83E39"/>
</linearGradient>
<linearGradient id="paint24_linear_23_11" x1="69.9479" y1="188.512" x2="191.242" y2="194.758" gradientUnits="userSpaceOnUse">
<stop offset="0.2638" stop-color="#293942"/>
<stop offset="1" stop-color="#29373E"/>
</linearGradient>
<linearGradient id="paint25_linear_23_11" x1="140.587" y1="192.395" x2="97.0094" y2="192.395" gradientUnits="userSpaceOnUse">
<stop stop-color="#293942"/>
<stop offset="1" stop-color="#0F1B21"/>
</linearGradient>
<linearGradient id="paint26_linear_23_11" x1="170.688" y1="195.61" x2="120.567" y2="195.61" gradientUnits="userSpaceOnUse">
<stop stop-color="#293942"/>
<stop offset="1" stop-color="#162329"/>
</linearGradient>
<linearGradient id="paint27_linear_23_11" x1="146.839" y1="204.603" x2="97.8333" y2="204.603" gradientUnits="userSpaceOnUse">
<stop stop-color="#293942"/>
<stop offset="1" stop-color="#0F1B21"/>
</linearGradient>
<linearGradient id="paint28_linear_23_11" x1="97.9789" y1="193.933" x2="75.9724" y2="193.933" gradientUnits="userSpaceOnUse">
<stop stop-color="#293942"/>
<stop offset="1" stop-color="#0F1B21"/>
</linearGradient>
<linearGradient id="paint29_linear_23_11" x1="79.1439" y1="130.979" x2="72.1332" y2="130.979" gradientUnits="userSpaceOnUse">
<stop offset="0.339" stop-color="#0D1D24"/>
<stop offset="0.7571" stop-color="#322E2F"/>
</linearGradient>
<linearGradient id="paint30_linear_23_11" x1="63.7948" y1="61.7757" x2="90.4927" y2="62.0502" gradientUnits="userSpaceOnUse">
<stop stop-color="#4E5663"/>
<stop offset="0.5816" stop-color="#0D1C21"/>
</linearGradient>
<linearGradient id="paint31_linear_23_11" x1="193.894" y1="185.128" x2="65.2955" y2="183.806" gradientUnits="userSpaceOnUse">
<stop stop-color="#C9A170"/>
<stop offset="0.0950625" stop-color="#B2675C"/>
<stop offset="0.356" stop-color="#273D44"/>
<stop offset="0.4692" stop-color="#3A484E"/>
<stop offset="0.6233" stop-color="#4D5458"/>
<stop offset="0.7821" stop-color="#585B5E"/>
<stop offset="0.9513" stop-color="#5C5D60"/>
</linearGradient>
<linearGradient id="paint32_linear_23_11" x1="61.1221" y1="177.765" x2="195.832" y2="179.15" gradientUnits="userSpaceOnUse">
<stop stop-color="#929592"/>
<stop offset="0.3887" stop-color="#7B797A"/>
<stop offset="1" stop-color="#273D44"/>
</linearGradient>
<linearGradient id="paint33_linear_23_11" x1="89.5285" y1="117.749" x2="55.833" y2="123.651" gradientUnits="userSpaceOnUse">
<stop stop-color="#0F1B21"/>
<stop offset="1" stop-color="#293942"/>
</linearGradient>
<linearGradient id="paint34_linear_23_11" x1="192.275" y1="177.158" x2="70.5868" y2="175.907" gradientUnits="userSpaceOnUse">
<stop stop-color="#F2C086"/>
<stop offset="0.0910139" stop-color="#D37A6D"/>
<stop offset="0.3157" stop-color="#CFD0D2"/>
<stop offset="0.9595" stop-color="#A6A8AB"/>
<stop offset="0.9637" stop-color="#B5ADA3"/>
<stop offset="0.9723" stop-color="#D0B596"/>
<stop offset="0.9812" stop-color="#E3BB8D"/>
<stop offset="0.9903" stop-color="#EEBF87"/>
<stop offset="1" stop-color="#F2C085"/>
</linearGradient>
<linearGradient id="paint35_linear_23_11" x1="194.584" y1="160.73" x2="70.7671" y2="159.457" gradientUnits="userSpaceOnUse">
<stop stop-color="#F2C086"/>
<stop offset="0.0910139" stop-color="#C68269"/>
<stop offset="0.3157" stop-color="#CFD0D2"/>
<stop offset="0.9673" stop-color="#A6A8AB"/>
</linearGradient>
<linearGradient id="paint36_linear_23_11" x1="199.757" y1="45.6872" x2="140.229" y2="89.0858" gradientUnits="userSpaceOnUse">
<stop stop-color="#F2C086"/>
<stop offset="0.0810818" stop-color="#F3A98C"/>
<stop offset="0.1841" stop-color="#A79189"/>
<stop offset="0.6682" stop-color="#BDBFC1"/>
<stop offset="0.8462" stop-color="#CCD1D0"/>
<stop offset="1" stop-color="#A6A8AB"/>
</linearGradient>
<linearGradient id="paint37_linear_23_11" x1="205.858" y1="62.1475" x2="177.173" y2="61.8526" gradientUnits="userSpaceOnUse">
<stop stop-color="#6C6F71"/>
<stop offset="0.4266" stop-color="#4E5663"/>
<stop offset="1" stop-color="#0D1C21"/>
</linearGradient>
<linearGradient id="paint38_linear_23_11" x1="190.782" y1="163.986" x2="162.805" y2="163.698" gradientUnits="userSpaceOnUse">
<stop offset="0.4162" stop-color="#4E5663"/>
<stop offset="0.6682" stop-color="#273D44"/>
<stop offset="1" stop-color="#273D44"/>
</linearGradient>
<linearGradient id="paint39_linear_23_11" x1="75.7515" y1="79.0453" x2="110.973" y2="138.338" gradientUnits="userSpaceOnUse">
<stop stop-color="#273D44"/>
<stop offset="0.2046" stop-color="#BE918A"/>
<stop offset="0.3735" stop-color="#C7C9CB"/>
<stop offset="0.687" stop-color="#CCD1D0"/>
</linearGradient>
<radialGradient id="paint40_radial_23_11" cx="0" cy="0" r="1" gradientUnits="userSpaceOnUse" gradientTransform="translate(113.452 120.796) rotate(-179.456) scale(50.9262 48.9568)">
<stop stop-color="#0F1B21" stop-opacity="0"/>
<stop offset="0.6763" stop-color="#0F1B21" stop-opacity="0.6512"/>
<stop offset="0.7582" stop-color="#19272E" stop-opacity="0.7396"/>
<stop offset="0.8865" stop-color="#24343B" stop-opacity="0.8777"/>
<stop offset="1" stop-color="#283840"/>
</radialGradient>
<linearGradient id="paint41_linear_23_11" x1="138.513" y1="22.7127" x2="98.6838" y2="51.75" gradientUnits="userSpaceOnUse">
<stop stop-color="#F2C086"/>
<stop offset="1" stop-color="#F1F1F2"/>
</linearGradient>
<linearGradient id="paint42_linear_23_11" x1="91.0628" y1="133.495" x2="85.0168" y2="133.495" gradientUnits="userSpaceOnUse">
<stop stop-color="#293942"/>
<stop offset="1" stop-color="#0F1B21"/>
</linearGradient>
<linearGradient id="paint43_linear_23_11" x1="129.341" y1="133.495" x2="121.488" y2="133.495" gradientUnits="userSpaceOnUse">
<stop stop-color="#293942"/>
<stop offset="1" stop-color="#0F1B21"/>
</linearGradient>
<linearGradient id="paint44_linear_23_11" x1="92.1623" y1="119.875" x2="80.0773" y2="119.875" gradientUnits="userSpaceOnUse">
<stop stop-color="#A0A2A4"/>
<stop offset="1" stop-color="#9D867B"/>
</linearGradient>
<radialGradient id="paint45_radial_23_11" cx="0" cy="0" r="1" gradientUnits="userSpaceOnUse" gradientTransform="translate(120.844 135.243) rotate(180) scale(43.0302 58.5024)">
<stop stop-color="#E6E7E8"/>
<stop offset="0.17" stop-color="#E3E4E5"/>
<stop offset="0.3163" stop-color="#D8DBDC"/>
<stop offset="0.4538" stop-color="#C6CBCD"/>
<stop offset="0.586" stop-color="#ADB5B7"/>
<stop offset="0.7143" stop-color="#8D989C"/>
<stop offset="0.8398" stop-color="#66757A"/>
<stop offset="0.9607" stop-color="#384C52"/>
<stop offset="1" stop-color="#273D44"/>
</radialGradient>
<linearGradient id="paint46_linear_23_11" x1="78.7293" y1="85.6665" x2="111.686" y2="92.504" gradientUnits="userSpaceOnUse">
<stop stop-color="#F2C086"/>
<stop offset="0.0810818" stop-color="#F3A98C"/>
<stop offset="0.1841" stop-color="#DF9283"/>
<stop offset="0.4658" stop-color="#CFD0D2"/>
</linearGradient>
<linearGradient id="paint47_linear_23_11" x1="77.4648" y1="136.334" x2="152.074" y2="136.334" gradientUnits="userSpaceOnUse">
<stop stop-color="#E6968B"/>
<stop offset="0.4658" stop-color="#A4A7A9"/>
<stop offset="0.7085" stop-color="#A8ACAD"/>
<stop offset="0.9757" stop-color="#293942"/>
</linearGradient>
<linearGradient id="paint48_linear_23_11" x1="74.83" y1="145.643" x2="105.011" y2="135.838" gradientUnits="userSpaceOnUse">
<stop stop-color="#E6968B"/>
<stop offset="0.4658" stop-color="#A4A7A9"/>
<stop offset="0.7085" stop-color="#A8ACAD"/>
<stop offset="0.9757" stop-color="#293942"/>
</linearGradient>
<linearGradient id="paint49_linear_23_11" x1="154.527" y1="133.842" x2="70.7472" y2="135.989" gradientUnits="userSpaceOnUse">
<stop offset="0.339" stop-color="#0D1D24"/>
<stop offset="0.7571" stop-color="#322E2F"/>
</linearGradient>
<linearGradient id="paint50_linear_23_11" x1="63.5059" y1="154.07" x2="170.114" y2="157.075" gradientUnits="userSpaceOnUse">
<stop offset="0.3806" stop-color="#293942"/>
<stop offset="1" stop-color="#1F2C32"/>
</linearGradient>
<linearGradient id="paint51_linear_23_11" x1="204.251" y1="123.702" x2="165.343" y2="119.82" gradientUnits="userSpaceOnUse">
<stop offset="0.2638" stop-color="#455A65"/>
<stop offset="1" stop-color="#19262C"/>
</linearGradient>
<linearGradient id="paint52_linear_23_11" x1="215.706" y1="105.949" x2="171.641" y2="130.133" gradientUnits="userSpaceOnUse">
<stop stop-color="#F2C086"/>
<stop offset="0.0720205" stop-color="#F2C085"/>
<stop offset="0.1461" stop-color="#E2B39B"/>
<stop offset="0.2024" stop-color="#DAACA6"/>
<stop offset="0.223" stop-color="#D9AEA8"/>
<stop offset="0.5077" stop-color="#D2C7C7"/>
<stop offset="0.6682" stop-color="#CFD0D2"/>
<stop offset="0.7264" stop-color="#C4C7C9"/>
<stop offset="0.8282" stop-color="#A7AEB2"/>
<stop offset="0.9608" stop-color="#78858D"/>
<stop offset="0.9974" stop-color="#6A7982"/>
</linearGradient>
<linearGradient id="paint53_linear_23_11" x1="183.13" y1="121.777" x2="203.306" y2="124.99" gradientUnits="userSpaceOnUse">
<stop stop-color="#4D6370"/>
<stop offset="1" stop-color="#212E34"/>
</linearGradient>
<linearGradient id="paint54_linear_23_11" x1="54.3128" y1="73.4483" x2="179.8" y2="74.7387" gradientUnits="userSpaceOnUse">
<stop stop-color="#5B3528"/>
<stop offset="1" stop-color="#19262C"/>
</linearGradient>
<linearGradient id="paint55_linear_23_11" x1="161.163" y1="119.035" x2="82.2352" y2="43.1413" gradientUnits="userSpaceOnUse">
<stop stop-color="#273D44"/>
<stop offset="0.4874" stop-color="#F16522"/>
<stop offset="0.6685" stop-color="#F28F3F"/>
<stop offset="0.8876" stop-color="#ED693C"/>
<stop offset="1" stop-color="#E83E39"/>
</linearGradient>
<linearGradient id="paint56_linear_23_11" x1="103.586" y1="63.6066" x2="52.455" y2="63.0809" gradientUnits="userSpaceOnUse">
<stop offset="0.0566802" stop-color="#F16522"/>
<stop offset="1" stop-color="#F3DDBD"/>
</linearGradient>
<linearGradient id="paint57_linear_23_11" x1="195.055" y1="222.012" x2="166.294" y2="205.677" gradientUnits="userSpaceOnUse">
<stop stop-color="#F3A98C"/>
<stop offset="0.8597" stop-color="#929497"/>
<stop offset="1" stop-color="#6E7482"/>
</linearGradient>
<linearGradient id="paint58_linear_23_11" x1="196.882" y1="222.004" x2="168.119" y2="205.669" gradientUnits="userSpaceOnUse">
<stop stop-color="#E8CFBE"/>
<stop offset="0.6682" stop-color="#D0D2D3"/>
<stop offset="0.9974" stop-color="#BEB0AD"/>
</linearGradient>
<linearGradient id="paint59_linear_23_11" x1="174.772" y1="214.079" x2="190.965" y2="212.388" gradientUnits="userSpaceOnUse">
<stop stop-color="#4F5764"/>
<stop offset="0.6682" stop-color="#293942"/>
<stop offset="1" stop-color="#0F1C20"/>
</linearGradient>
<linearGradient id="paint60_linear_23_11" x1="168.055" y1="45.749" x2="101.704" y2="243.132" gradientUnits="userSpaceOnUse">
<stop stop-color="#4E5663"/>
<stop offset="0.6682" stop-color="#283841"/>
<stop offset="1" stop-color="#0F1B21"/>
</linearGradient>
<linearGradient id="paint61_linear_23_11" x1="168.055" y1="45.749" x2="101.704" y2="243.132" gradientUnits="userSpaceOnUse">
<stop stop-color="#4E5663"/>
<stop offset="0.6682" stop-color="#283841"/>
<stop offset="1" stop-color="#0F1B21"/>
</linearGradient>
<linearGradient id="paint62_linear_23_11" x1="168.055" y1="45.749" x2="101.704" y2="243.132" gradientUnits="userSpaceOnUse">
<stop stop-color="#4E5663"/>
<stop offset="0.6682" stop-color="#283841"/>
<stop offset="1" stop-color="#0F1B21"/>
</linearGradient>
</defs>
</svg>
