<svg width="256" height="256" viewBox="0 0 256 256" fill="none" xmlns="http://www.w3.org/2000/svg">
<path d="M196 0H60C26.8629 0 0 26.8629 0 60V196C0 229.137 26.8629 256 60 256H196C229.137 256 256 229.137 256 196V60C256 26.8629 229.137 0 196 0Z" fill="#F4F2ED"/>
<path d="M184.533 231.585L181.203 244.182L166.477 248.943L117.609 253.072L101.525 251.808L88.6395 248.69L81.0573 245.867L79.9617 240.854L88.6395 214.1L164.986 203.23L182.605 209.255L184.533 231.585Z" fill="url(#paint0_linear_23_12)"/>
<path d="M195.183 193.16L197.287 202.809L196.06 213.636L192.598 224.97L183.745 237.736L170.684 242.792L153.285 248.606L144.519 244.351L117.083 235.924H108.406L94.4685 240.601L88.7271 245.067L84.5635 247.174L79.7425 246.794L73.5629 233.354L65.1043 203.23L67.4709 190.59L72.9055 187.852L95.9586 186.419L112.964 201.039L182.693 191.012L195.183 193.16Z" fill="url(#paint1_linear_23_12)"/>
<path d="M84.8703 205.126L82.679 198.932L81.4956 191.812L82.0216 187.683L81.0573 186.124L80.0493 191.18L81.145 199.143L83.0296 205.884L84.8703 205.126Z" fill="url(#paint2_linear_23_12)"/>
<path d="M88.9024 203.651L90.8746 208.918L94.4246 219.661L82.0654 222.4L78.2962 218.482L75.1845 211.361L75.2283 206.643L85.4839 202.893L88.9024 203.651Z" fill="url(#paint3_linear_23_12)"/>
<path d="M74.2641 187.515L74.0012 192.486L74.2203 197.711L75.1845 202.682L76.5432 206.305L79.5234 214.353L86.3166 211.024L83.1611 203.735L81.7586 200.407L80.8821 196.236L80.4438 191.096L81.0573 186.124L74.2641 187.515Z" fill="url(#paint4_linear_23_12)"/>
<path d="M80.9697 196.784L74.4394 198.511L74.2641 197.921L80.8821 196.236L80.9697 196.784Z" fill="url(#paint5_linear_23_12)"/>
<path d="M80.5314 191.433L74.0012 193.118V192.486L80.4876 191.096L80.5314 191.433Z" fill="url(#paint6_linear_23_12)"/>
<path d="M81.8462 200.871L75.2722 203.23L75.1845 202.682L81.7586 200.407L81.8462 200.871Z" fill="url(#paint7_linear_23_12)"/>
<path d="M75.9734 209.002L86.3166 205.421L89.5598 214.353L85.9222 220.209L78.866 217.723L75.9734 209.002Z" fill="url(#paint8_linear_23_12)"/>
<path d="M152.627 204.789L154.03 206.643L154.599 208.833L150.436 215.827L152.057 221.936L144.212 229.773L130.582 224.886L129.749 223.285L142.766 226.613L148.639 221.726L146.973 214.943L152.627 204.789Z" fill="url(#paint9_linear_23_12)"/>
<path d="M196.06 191.77L198.12 197.921L197.287 202.809L194.438 193.961L182.824 191.222L175.68 192.276L169.457 194.172L162.401 197.711L156.484 201.882L149.778 207.822L147.587 207.527L144.169 207.148L155.125 195.52L164.154 190.632L171.999 188.315L180.677 187.178L189.486 188.779L196.06 191.77Z" fill="url(#paint10_linear_23_12)"/>
<path d="M152.627 204.789L154.03 206.643L148.288 215.533L150.567 221.684L143.643 228.341L129.749 223.285L129.969 219.956L132.248 213.763L137.989 204.789L141.013 203.483L152.627 204.789Z" fill="url(#paint11_linear_23_12)"/>
<path d="M173.927 186.293L165.162 187.599L158.281 190.717L152.057 194.298L147.236 199.185L142.547 204.283L139.479 209.634L145.615 210.772L155.958 199.901L160.165 196.11L167.353 192.402L175.812 189.748L183.131 188.905L196.06 191.77L186.067 187.304L173.927 186.293Z" fill="url(#paint12_linear_23_12)"/>
<path d="M150.611 207.78L139.742 206.306L134.658 214.353L136.543 218.229L144.256 216.333L150.611 207.78Z" fill="url(#paint13_linear_23_12)"/>
<path d="M182.342 188.989L183.131 188.905L173.84 186.293L173.226 186.377L182.342 188.989Z" fill="#293942"/>
<path d="M175.198 189.916L175.812 189.748L165.162 187.599L164.68 187.852L175.198 189.916Z" fill="#293942"/>
<path d="M166.827 192.697L167.265 192.402L158.675 190.59L158.149 190.801L166.827 192.697Z" fill="#293942"/>
<path d="M159.64 196.531L160.165 196.11L152.057 194.298L151.751 194.719L159.64 196.531Z" fill="#293942"/>
<path d="M155.388 200.491L155.958 199.901L147.85 198.553L147.412 199.017L155.388 200.491Z" fill="#293942"/>
<path d="M73.3 189.453L72.9055 187.852L66.0246 190.717L61.5542 195.056L57.7413 203.23L56.6018 218.903L57.5222 228.341L62.5623 236.935L70.0129 242.623L81.9339 247.763L95.7833 246.626L109.677 241.191L122.518 231.585L111.78 222.737L105.338 215.869L91.05 213.257L84.958 214.016L78.6907 215.617L76.324 208.707L75.1845 204.367L74.2203 197.711L74.0889 190.885L73.3 189.453Z" fill="url(#paint14_linear_23_12)"/>
<path d="M102.489 215.28L85.6154 221.684L79.1728 216.333L79.3481 214.563L102.533 213.763L102.489 215.28Z" fill="url(#paint15_linear_23_12)"/>
<path d="M95.345 209.845L79.3481 214.563L85.7031 219.914L102.533 213.763L95.345 209.845Z" fill="url(#paint16_linear_23_12)"/>
<path d="M72.9055 187.852L65.6302 193.666L63.2635 197.711L62.4308 199.101L61.5104 202.177L58.6616 212.12L56.8209 216.207L55.9006 215.743L57.0401 205.674L60.7216 196.025L66.5505 189.2L72.9055 187.852Z" fill="url(#paint17_linear_23_12)"/>
<path d="M71.021 188.273L64.8851 193.118L62.387 196.952L60.5901 201.165L57.7413 211.277L55.9006 215.743L55.3746 214.479L56.8209 205.884L59.845 196.868L63.2197 191.981L66.5505 189.2L71.021 188.273Z" fill="url(#paint18_linear_23_12)"/>
<path d="M116.207 236.388L107.704 229.773L97.3611 217.26L91.7074 219.324L102.664 231.585L112.525 239.126L116.207 236.388Z" fill="url(#paint19_linear_23_12)"/>
<path d="M195.271 211.783L192.028 220.209L182.474 232.47L168.23 239.59L150.348 247.089L126.55 244.266L107.792 229.731L97.887 217.555L89.6036 211.488L94.9506 209.676L109.151 205.084L119.143 207.822L147.017 212.541L149.559 207.654L157.361 199.48C157.361 199.48 168.054 193.624 171.867 192.781C175.593 191.939 185.016 191.812 185.016 191.812L195.403 200.786L195.271 211.783Z" fill="url(#paint20_linear_23_12)"/>
<path d="M119.056 207.822C119.056 207.822 114.366 210.055 110.378 215.238C107.003 219.662 104.899 226.529 104.899 226.529L97.3173 217.302L89.4284 211.614L98.2815 204.873L108.712 203.988L119.056 207.822Z" fill="url(#paint21_linear_23_12)"/>
<path d="M126.375 207.78L119.099 212.878L119.056 214.774L138.909 220.378L145.615 214.479V212.457L126.375 207.78Z" fill="url(#paint22_linear_23_12)"/>
<path d="M126.375 207.78L119.099 212.878L138.909 218.271L145.615 212.457L126.375 207.78Z" fill="url(#paint23_linear_23_12)"/>
<path d="M68.3913 180.437L72.511 186.335L73.3 189.453L74.9654 192.486L76.8938 194.466L77.6827 197.711L83.424 201.629L93.3728 201.208L108.756 203.946L114.98 205.884L142.854 201.671L157.185 194.761L170.07 189.2L180.589 187.599L189.749 189.074L194.395 191.012L190.713 186.335L192.904 179.13L189.837 177.445L187.119 170.873L186.199 175.339L168.098 179.678L97.6679 182.206L81.9339 180.437H68.3913Z" fill="url(#paint24_linear_23_12)"/>
<path d="M97.0105 186.841L105.338 188.399L119.932 190.127L129.574 189.832L137.594 188.104L140.575 186.672L134.614 187.093L130.363 188.315L118.31 188.189L106.433 187.599L97.0105 186.841Z" fill="url(#paint25_linear_23_12)"/>
<path d="M154.205 187.178L137.857 188.568L125.893 192.528L120.546 196.025L126.243 195.899L137.156 193.245L143.336 193.371L162.445 191.77L170.684 188.526L154.205 187.178Z" fill="url(#paint26_linear_23_12)"/>
<path d="M146.842 199.775L136.499 200.449L127.996 199.986L118.179 201.123L97.8432 197.289L105.162 200.449L116.514 203.904L142.854 201.671L146.842 199.775Z" fill="url(#paint27_linear_23_12)"/>
<path d="M75.9734 185.113L90.7432 191.012L97.9747 194.719L88.2888 191.812L82.9419 189.705L75.9734 185.113Z" fill="url(#paint28_linear_23_12)"/>
<path opacity="0.17" d="M60.3709 71.9045L96.3093 64.8263L143.336 77.4659L173.226 100.765L169.106 132.575L144.388 144.034L134.965 167.207L120.896 168.26L90.2173 167.965L67.5148 164.174L66.6821 164.047C56.7771 153.809 48.0117 133.628 48.2746 113.489C48.3623 102.661 49.3265 94.1502 53.3148 85.4288L60.3709 71.9045Z" fill="#EFEFEF"/>
<path d="M79.129 125.96V129.372L72.2919 128.024L72.1604 124.612L79.129 125.96Z" fill="url(#paint29_linear_23_12)"/>
<path d="M73.6067 39.0835C73.7382 36.0079 71.5907 36.0079 69.5746 39.0414C67.3394 42.4119 65.0605 47.847 64.4469 50.7962C62.0802 61.7927 66.4191 71.2724 77.9018 78.8561C77.9456 78.8561 77.9456 78.8983 77.9456 78.8983C77.9894 78.9404 77.9894 78.9404 77.9894 78.9404C78.7345 79.446 82.1092 75.9912 85.4401 71.3145C88.8148 66.5536 90.9185 62.3404 90.1734 61.8348C90.1296 61.7927 90.0857 61.7927 90.0419 61.7927C81.7586 56.2312 73.037 48.9845 73.6067 39.0835Z" fill="url(#paint30_linear_23_12)"/>
<path d="M193.956 175.086L193.912 179.973C193.869 183.976 165.074 186.925 129.53 186.588C94.0302 186.251 65.2357 182.754 65.3234 178.751L65.3672 173.864L193.956 175.086Z" fill="url(#paint31_linear_23_12)"/>
<path d="M65.3672 173.822C65.3234 177.824 94.1179 181.321 129.574 181.658C165.074 182.038 193.912 179.046 193.956 175.044C194 171.041 165.206 167.544 129.749 167.207C94.2932 166.87 65.4549 169.861 65.3672 173.822Z" fill="url(#paint32_linear_23_12)"/>
<path d="M66.5505 164.005L64.4907 143.655L82.5036 130.468L81.6709 114.121V111.508L67.1203 100.554L58.7493 91.9171L54.4104 84.7125L53.6653 83.1115L54.8049 78.814L63.8333 67.0592L87.982 46.878L125.191 38.1145L157.054 52.1445L195.622 83.0694L194.088 119.471L175.154 157.053L144.037 174.791L111.693 177.15L66.5505 164.005Z" fill="url(#paint33_linear_23_12)"/>
<path d="M190.494 166.786L190.45 173.948C190.406 177.024 163.453 179.215 130.188 178.92C96.9228 178.625 69.9691 175.886 70.0129 172.811L70.0567 165.648L80.4876 167.165L90.5679 168.303L190.494 166.786Z" fill="url(#paint34_linear_23_12)"/>
<path d="M160.648 161.014C178.836 162.362 190.494 164.258 190.45 166.28C190.406 168.302 178.748 169.946 160.648 170.872V161.014Z" fill="#273D44"/>
<path d="M91.1376 171.21L135.096 168.934L139.128 158.865L145.264 143.487L157.361 137.799L171.122 132.87L192.641 147.7L187.908 154.694C187.908 154.694 180.063 162.446 177.214 165.058L169.369 166.912L162.664 168.429L161.13 170.957C182.561 169.946 190.406 167.839 190.45 166.407L190.406 174.159C190.362 177.235 163.409 180.184 130.144 179.847C96.879 179.51 69.9253 177.108 69.9691 174.032L70.0129 165.859C70.1005 165.901 91.0061 170.873 91.1376 171.21Z" fill="url(#paint35_linear_23_12)"/>
<path d="M177.959 95.4984L106.127 56.9055L75.6228 55.8522C82.416 40.8532 104.373 32.3846 129.267 33.6907C171.385 35.9237 205.921 70.7248 205.527 111.34C205.483 119.471 177.959 95.4984 177.959 95.4984Z" fill="url(#paint36_linear_23_12)"/>
<path d="M195.885 37.946C195.928 35.2496 198.032 34.8704 200.136 37.9881C202.722 41.6536 204.694 47.3836 205.264 50.4592C207.543 62.214 202.722 72.0308 190.362 79.8674C190.319 79.8674 189.793 80.2465 189.749 80.2465C188.916 80.7521 184.709 77.2973 181.246 72.2415C177.74 67.1435 176.469 62.4247 177.258 61.9612C177.302 61.9191 177.74 61.5821 177.784 61.5821C186.812 55.9364 195.622 48.479 195.885 37.946Z" fill="url(#paint37_linear_23_12)"/>
<path d="M190.932 150.481C190.932 150.481 188.653 163.205 188.39 164.595C188.127 165.985 188.083 165.943 187.207 166.322C186.155 166.744 183.569 167.207 180.94 167.544C175.768 168.303 162.707 169.272 162.707 169.272V168.303C162.707 168.303 174.059 165.185 178.967 162.151C185.848 157.812 190.932 150.481 190.932 150.481Z" fill="url(#paint38_linear_23_12)"/>
<path d="M85.5278 82.1846L78.0771 79.9937L68.7419 82.9008L75.6666 88.0409L67.0326 89.5577L62.869 94.3186L69.8814 97.3521L72.511 100.386C72.511 100.386 76.3679 120.272 76.7623 131.184C77.1568 142.096 75.8858 166.617 75.8858 166.617L89.5598 168.682H119.538L133.562 167.165L142.635 141.254L152.627 136.577C152.627 136.577 155.958 115.048 155.739 112.309C155.52 109.57 151.488 101.397 150.743 100.343C149.866 99.0795 143.292 94.3186 143.292 94.3186C143.292 94.3186 131.064 87.1561 126.813 85.513C122.562 83.8698 119.187 83.5749 119.187 83.5749L89.9105 75.5277L85.5278 82.1846Z" fill="url(#paint39_linear_23_12)"/>
<path d="M152.233 139.189C152.233 139.189 156.046 115.048 155.739 112.309C155.344 109.612 151.751 101.734 150.743 100.343C149.735 98.9109 143.292 94.3186 143.292 94.3186C143.292 94.3186 130.757 87.0297 126.813 85.513C122.869 83.9962 109.501 81.0891 109.501 81.0891L90.8308 80.2465L85.5277 82.2688C85.5277 82.2688 80.0493 81.4683 77.6388 81.4683C75.2283 81.4683 68.6981 82.985 68.6981 82.985L75.6228 88.1252L66.9888 89.6419L62.8252 94.4028L69.8376 97.4363L72.4672 100.47L73.2999 105.315L67.1641 100.723L58.7931 92.0856L54.4104 84.881L53.9283 83.8698L58.048 74.2637L73.037 66.8064L90.0419 65.1632L100.429 65.6267L109.677 66.3429L124.797 70.7668L169.632 87.9566L171.298 100.428L167.353 133.291L152.233 139.189Z" fill="url(#paint40_radial_23_12)"/>
<g opacity="0.9">
<path d="M101.043 159.328L98.9827 160.929L96.3969 156.8L96.1339 157.053L98.7197 162.994L101.174 161.73L104.242 164.3L109.764 161.983L111.254 163.794L116.864 156.084L111.999 160.255L110.334 159.033L104.505 161.772L101.043 159.328Z" fill="#929497"/>
</g>
<path d="M116.689 35.3337L102.445 38.7043L93.6796 43.5073L81.2327 56.1048L75.6666 55.9363C82.4598 40.9373 104.417 32.4687 129.311 33.7748C129.969 33.817 130.626 33.817 131.283 33.9012L116.689 35.3337Z" fill="url(#paint41_linear_23_12)"/>
<g opacity="0.8">
<path d="M88.5957 135.734C86.8864 135.734 85.3524 136.029 84.2129 136.493C84.1691 136.493 84.0814 136.535 84.0376 136.535C82.3722 135.187 81.2765 132.659 81.2765 129.794C81.2765 125.454 83.7308 121.957 86.7549 121.957C89.779 121.957 92.2333 125.454 92.2333 129.794C92.2333 132.279 91.4006 134.47 90.2172 135.903C89.6475 135.819 89.1216 135.734 88.5957 135.734Z" fill="white"/>
<path d="M88.0259 134.26C89.7202 134.26 91.0938 132.128 91.0938 129.499C91.0938 126.869 89.7202 124.738 88.0259 124.738C86.3315 124.738 84.958 126.869 84.958 129.499C84.958 132.128 86.3315 134.26 88.0259 134.26Z" fill="url(#paint42_linear_23_12)"/>
<path d="M89.1654 127.772C89.7705 127.772 90.2611 126.96 90.2611 125.96C90.2611 124.959 89.7705 124.148 89.1654 124.148C88.5603 124.148 88.0697 124.959 88.0697 125.96C88.0697 126.96 88.5603 127.772 89.1654 127.772Z" fill="white"/>
</g>
<g opacity="0.9">
<path d="M121.072 136.703C120.107 136.703 119.187 136.746 118.31 136.83C116.864 135.06 115.944 132.532 115.944 129.752C115.944 124.443 119.187 120.103 123.219 120.103C127.251 120.103 130.494 124.443 130.494 129.752C130.494 132.996 129.223 135.903 127.383 137.63C125.63 137.04 123.438 136.703 121.072 136.703Z" fill="white"/>
<path d="M125.411 135.06C127.589 135.06 129.355 132.57 129.355 129.499C129.355 126.427 127.589 123.938 125.411 123.938C123.232 123.938 121.466 126.427 121.466 129.499C121.466 132.57 123.232 135.06 125.411 135.06Z" fill="url(#paint43_linear_23_12)"/>
<path d="M127.207 127.645C128.006 127.645 128.654 126.702 128.654 125.538C128.654 124.375 128.006 123.432 127.207 123.432C126.409 123.432 125.761 124.375 125.761 125.538C125.761 126.702 126.409 127.645 127.207 127.645Z" fill="white"/>
</g>
<path d="M122.167 112.393C119.362 112.772 116.82 113.784 114.892 115.216C115.812 112.225 118.398 109.907 121.729 109.486C125.016 109.023 128.172 110.624 129.925 113.194C127.689 112.351 125.016 112.014 122.167 112.393Z" fill="#929497"/>
<path d="M86.5796 115.764C84.3006 115.174 82.0216 115.3 80.0932 116.017C81.9339 113.573 84.695 112.309 87.3685 112.941C90.0419 113.573 91.8388 116.059 92.1456 119.05C90.787 117.491 88.8586 116.269 86.5796 115.764Z" fill="url(#paint44_linear_23_12)"/>
<path opacity="0.6" d="M113.752 151.07C114.147 150.944 107.441 151.07 96.879 149.174C96.879 149.174 96.9228 148.374 96.8351 147.447C96.7913 146.899 96.6598 146.31 96.3531 145.846C96.3531 145.846 95.4327 149.259 94.4685 149.849C94.4685 149.849 96.4845 151.745 101.612 152.587C101.612 152.587 98.8074 151.365 97.6241 150.523C97.7555 150.607 109.326 152.545 113.752 151.07Z" fill="#4E4D50"/>
<path opacity="0.21" d="M82.8981 167.038L79.6987 166.575L75.8858 165.859C75.8858 165.859 76.4117 157.095 76.6746 146.352C76.7623 147.152 76.9376 147.953 77.0691 148.711C78.2962 156.969 80.1808 163.921 82.8981 167.038Z" fill="#231F20"/>
<path d="M137.77 145.046L142.459 134.302L145.264 121.747L146.36 110.413L142.898 101.355L139.523 96.5938L133.387 92.0014L127.251 88.041L119.012 83.4907C119.012 83.4907 120.064 83.6171 121.422 83.9542C122.255 84.1227 123.219 84.4598 124.052 84.6704C126.506 85.3024 128.654 86.3136 128.654 86.3136L132.905 88.5044L143.161 94.2344C143.161 94.2344 149.998 99.1638 150.611 100.259C151.225 101.355 155.213 108.938 155.607 112.225C156.002 115.553 152.496 136.493 152.496 136.493L142.459 141.085L133.519 166.491L124.49 167.713L116.996 168.008L127.909 161.856L137.77 145.046Z" fill="url(#paint45_radial_23_12)"/>
<path opacity="0.21" d="M98.3691 85.6816L91.4882 89.1785L82.1969 96.1724L82.7666 88.5044L84.1691 82.4374L85.6592 80.6257L99.4209 84.207L101.043 84.8811L98.3691 85.6816Z" fill="#231F20"/>
<path d="M97.6679 85.1759C97.6679 85.1759 92.6277 86.3135 90.0419 87.6617C87.4123 89.0099 82.3283 93.6866 82.3283 93.6866C82.3283 93.6866 82.8105 86.1449 83.3364 84.6282C83.9938 82.8165 84.9142 79.8251 87.2808 77.2551C88.1574 76.3282 91.5321 73.2947 91.5321 73.2947C91.5321 73.2947 101.7 74.9378 103.891 75.1906C107.354 75.6541 119.143 83.5749 119.143 83.5749" fill="url(#paint46_linear_23_12)"/>
<g opacity="0.8">
<path opacity="0.39" d="M94.337 127.14C94.337 127.14 95.3889 127.477 96.0463 128.024L97.887 129.162L101.393 128.235C101.7 128.193 102.007 128.109 102.357 128.109C104.067 128.109 106.302 129.33 106.302 129.33L107.573 136.24C107.573 136.24 108.23 138.515 109.457 139.863C110.685 141.212 112.788 141.675 112.788 141.675L122.956 143.023C122.956 143.023 127.996 142.897 130.67 142.644C133.343 142.349 136.017 141.212 136.499 139.695C137.025 138.178 138.953 130.594 138.953 130.594L139.479 127.266L141.013 127.308L153.548 129.541L154.161 126.044L144.607 124.232C144.607 124.232 133.606 122.421 127.164 121.957C110.422 120.651 105.951 125.075 105.951 125.075C105.951 125.075 104.11 124.78 102.401 124.78C100.692 124.78 98.7197 125.412 98.7197 125.412C98.7197 125.412 92.9784 123.6 90.2172 123.305C87.4561 123.011 82.2845 123.263 82.2845 123.263L77.7265 124.022L76.1487 124.401L76.4555 127.645C78.3839 126.465 82.9857 125.791 82.9857 125.791C82.9857 125.791 87.1494 125.749 89.6913 126.128C92.3648 126.381 94.337 127.14 94.337 127.14ZM109.414 127.14C109.677 126.634 112.788 125.96 112.788 125.96C112.788 125.96 119.932 124.317 125.016 124.485C130.144 124.612 134.57 126.086 134.57 126.086C134.57 126.086 135.973 126.676 135.973 128.109C136.017 129.499 133.738 137.083 133.519 137.967C133.124 139.231 130.801 139.737 130.801 139.737L123.175 140.2C123.175 140.2 113.489 139.274 112.131 138.347C110.772 137.462 110.246 134.976 110.027 133.164C109.852 131.268 109.238 127.645 109.414 127.14Z" fill="url(#paint47_linear_23_12)"/>
<path opacity="0.39" d="M76.7623 136.282C77.0691 136.661 79.2166 137.504 79.5234 137.63C82.0654 139.063 90.8747 140.158 93.4166 137.672C93.4605 137.63 95.7833 135.861 95.8271 135.819L94.3808 140.537C93.2851 140.79 89.9981 141.254 89.9981 141.254C89.9981 141.254 86.8425 141.549 85.2209 141.38C83.9061 141.338 78.3401 140.158 76.6308 139.568L76.7623 136.282Z" fill="url(#paint48_linear_23_12)"/>
</g>
<path d="M70.6265 124.064C70.232 124.527 71.2401 126.507 71.2401 126.507L72.511 128.193C72.511 128.193 73.782 133.291 74.2203 134.302C74.6586 135.355 75.6228 137.293 76.6746 138.136C77.4197 138.684 82.2845 139.905 83.95 139.99C85.6154 140.074 88.7271 139.863 88.7271 139.863C88.7271 139.863 92.5839 139.484 93.8987 138.431C95.1697 137.378 95.5642 136.535 96.0901 135.313C96.616 134.091 98.1061 127.729 98.1061 127.729C98.1061 127.729 99.3333 126.718 101.043 126.718C102.752 126.718 104.987 127.94 104.987 127.94L106.828 134.934C106.828 134.934 107.135 137.42 108.318 138.726C109.545 140.032 110.246 140.158 112.043 140.664C113.796 141.127 117.785 141.591 120.896 141.591C124.008 141.591 126.506 141.338 128.61 141.212C130.714 141.085 134.044 139.821 134.877 136.914C135.315 135.397 136.63 131.985 136.981 129.162C137.156 127.392 137.507 125.833 137.507 125.833L139.041 125.876L153.811 128.403L154.293 124.991C154.293 124.991 146.842 123.516 143.73 123.095C140.005 122.589 137.507 122.084 135.359 121.747C132.028 121.157 129.311 120.398 125.367 120.103C108.625 118.797 105.25 123.769 105.25 123.769C105.25 123.769 102.445 123.179 100.736 123.179C99.0265 123.179 97.4049 123.98 97.4049 123.98C97.4049 123.98 93.2852 122.168 90.5679 121.789C87.0179 121.283 83.8623 121.283 80.5753 121.494C77.332 121.747 72.511 123.179 72.511 123.179C72.511 123.179 71.0209 123.516 70.6265 124.064ZM108.143 125.707C108.406 125.201 110.465 124.317 111.824 124.022C113.139 123.727 117.916 122.884 123.088 123.095C128.215 123.221 132.642 124.696 132.642 124.696C132.642 124.696 133.738 125.075 133.694 126.507C133.562 129.625 132.116 134.85 131.809 135.692C130.933 138.052 127.996 138.347 127.996 138.347L121.247 138.726C121.247 138.726 112.964 138.768 111.298 137.588C109.983 136.703 109.457 133.501 108.975 131.563C108.493 129.794 107.792 126.508 108.143 125.707ZM75.1845 128.614C74.7901 127.097 74.4395 126.255 75.9296 125.538C77.332 124.822 79.4796 124.401 81.9339 124.19C84.1691 124.022 85.966 123.937 88.508 124.317C91.1376 124.696 93.0222 125.665 93.0222 125.665C93.0222 125.665 95.1697 126.297 95.3012 127.392C95.4327 128.446 93.8987 134.597 92.1895 136.198C89.5598 138.642 80.7944 137.588 78.2963 136.156C76.4117 135.145 75.6666 130.805 75.1845 128.614Z" fill="url(#paint49_linear_23_12)"/>
<path opacity="0.17" d="M60.3709 71.9045L96.3093 64.8263L143.336 77.4659L173.226 100.765L169.106 132.575L144.388 144.034L134.965 167.207L120.896 168.26L90.2173 167.965L67.5148 164.174L66.6821 164.047C56.7771 153.809 48.0117 133.628 48.2746 113.489C48.3623 102.661 49.3265 94.1502 53.3148 85.4288L60.3709 71.9045Z" fill="#EFEFEF"/>
<path d="M166.871 129.962L142.547 141.127L133.606 166.533C133.606 166.533 124.271 167.67 117.083 168.05C109.94 168.513 96.7913 168.134 89.6036 167.755C82.4598 167.376 66.5944 163.921 66.5944 163.921L70.1444 169.524C70.1444 169.524 82.3284 172.6 90.1734 173.19C98.0623 173.78 111.123 174.243 120.809 173.695C130.494 173.19 139.654 172.558 139.654 172.558L148.683 144.414L175.242 132.448L166.871 129.962Z" fill="url(#paint50_linear_23_12)"/>
<path d="M188.39 86.9034C189.793 86.9455 193.518 87.2404 193.518 87.2404L196.893 91.58C202.371 97.3942 205.439 108.138 204.256 120.103C203.16 131.479 198.427 141.085 192.335 146.015L190.494 148.205C190.494 148.205 183.131 149.217 181.772 149.132C171.254 148.163 164.548 133.838 165.381 116.522C166.17 99.0795 177.872 86.5242 188.39 86.9034Z" fill="url(#paint51_linear_23_12)"/>
<path d="M173.445 116.101C171.736 132.954 178.31 147.321 188.04 148.206C197.769 149.09 207.061 136.156 208.682 119.303C210.391 102.492 203.817 88.0831 194.088 87.1984C184.402 86.3557 175.154 99.2902 173.445 116.101Z" fill="url(#paint52_linear_23_12)"/>
<path d="M195.885 104.515L195.534 107.759C199.698 108.138 202.59 113.657 201.977 120.103C201.363 126.55 197.375 131.437 193.211 131.058L192.861 134.302C187.47 133.796 183.788 126.718 184.621 118.502C185.541 110.244 190.494 104.009 195.885 104.515Z" fill="url(#paint53_linear_23_12)"/>
<path d="M101.568 40.4739C140.312 36.8084 170.64 60.6551 181.685 88.7572C177.696 90.2739 174.365 100.301 174.365 100.301L171.21 100.386C171.21 100.386 170.29 100.343 170.29 100.301C151.532 80.9628 125.454 68.3232 89.3407 68.0282C81.0135 67.9861 68.2598 69.7135 58.9685 74.7694L58.9246 74.8115L56.7332 78.6876L54.5419 82.6059L53.9721 83.7856C53.9721 83.7856 51.6931 80.4151 52.745 77.3394C58.7055 62.0034 76.324 42.8333 101.568 40.4739Z" fill="url(#paint54_linear_23_12)"/>
<path d="M101.612 38.4095C140.356 34.744 173.533 60.4024 184.577 88.4623C180.107 90.9902 177.214 95.0349 174.409 100.344C155.476 79.9516 127.339 65.9217 90.0858 65.5846C84.0815 65.5425 75.3598 66.5958 67.4271 69.1237C64.0524 70.177 60.7215 71.6095 57.9166 73.2105C55.5499 74.6009 52.3506 77.7186 52.6135 80.5836C51.211 77.4658 53.6653 73.9268 54.8925 71.7359C62.8252 57.411 79.6987 40.4739 101.612 38.4095Z" fill="url(#paint55_linear_23_12)"/>
<path opacity="0.59" d="M54.8487 71.7781C62.6061 57.4111 79.0851 40.5161 100.517 38.4095C101.612 38.3253 102.708 38.241 103.76 38.1567C103.76 38.1567 85.8345 43.8446 75.0968 53.1557C64.5345 62.3826 60.3271 71.8623 60.3271 71.8623C59.4505 72.2837 58.6178 72.7471 57.8728 73.2106C55.5499 74.6009 52.3944 77.7187 52.7011 80.5837C51.2987 77.3816 53.6654 73.9689 54.8487 71.7781Z" fill="url(#paint56_linear_23_12)"/>
<path opacity="0.45" d="M54.1913 83.2801L58.8808 74.8115L61.0721 73.674L63.9209 72.4521L58.311 83.3643C54.2789 92.2121 52.3943 101.734 52.3067 112.688C52.0437 133.08 60.9406 153.514 70.9771 163.879L72.0727 165.143L67.8215 164.3L66.6382 164.005C56.6018 153.598 48.0116 132.954 48.2308 112.604C48.2746 101.692 50.203 92.1278 54.1913 83.2801Z" fill="#BFBEBE"/>
<path d="M189.398 219.577C191.59 217.049 192.948 215.153 193.649 211.488C194.395 207.822 195.227 204.157 194.175 200.87C193.08 197.542 192.685 196.742 190.625 195.056C188.609 193.413 187.558 192.781 184.972 192.233C182.342 191.728 180.282 191.77 177.346 192.697C173.883 193.75 171.254 196.994 169.106 200.281C167.003 203.609 165.732 205.631 164.855 211.193C163.978 216.754 165.688 221.01 167.046 223.074C168.361 225.181 170.246 226.74 173.314 227.119C176.907 227.54 179.669 226.571 182.079 225.391C184.533 224.127 187.251 222.021 189.398 219.577Z" fill="url(#paint57_linear_23_12)"/>
<path d="M191.239 219.577C193.43 217.049 194.789 215.153 195.49 211.488C196.235 207.822 197.068 204.157 196.016 200.87C194.92 197.542 194.526 196.742 192.466 195.056C190.45 193.413 189.398 192.781 186.812 192.233C184.139 191.728 182.123 191.77 179.186 192.697C175.724 193.75 173.095 196.994 170.947 200.281C168.843 203.609 167.572 205.631 166.696 211.193C165.819 216.754 167.528 221.01 168.887 223.074C170.202 225.181 172.086 226.74 175.154 227.119C178.748 227.54 181.509 226.571 183.92 225.391C186.33 224.169 189.048 222.021 191.239 219.577Z" fill="url(#paint58_linear_23_12)"/>
<path d="M177.433 207.064C180.151 202.092 184.227 199.059 187.996 200.828C189.574 201.629 190.406 202.935 190.625 204.494L188.346 206.263C188.171 204.999 187.733 204.073 186.506 203.483C184.314 202.471 181.597 204.536 179.975 207.569C179.932 207.654 179.8 207.907 179.712 208.075C180.983 207.232 182.956 206.558 184.49 207.275C186.812 208.412 187.777 211.277 185.761 214.943C183.964 218.102 180.72 219.872 177.872 218.524C174.103 216.712 174.76 211.867 177.433 207.064ZM183.394 214.016C184.577 211.909 183.832 210.308 182.474 209.634C181.378 209.128 179.844 209.339 178.617 210.35C177.696 212.246 177.258 214.816 179.23 215.743C180.852 216.628 182.605 215.406 183.394 214.016Z" fill="url(#paint59_linear_23_12)"/>
<path opacity="0.1" d="M66.5505 164.005L70.0129 169.44L69.9691 171.167C67.0327 171.968 65.3672 172.853 65.3234 173.822L65.2795 178.709C65.2795 179.299 65.8493 179.847 66.9888 180.352C67.6462 180.731 68.3475 180.858 68.8734 181.111L72.511 186.293L72.9055 187.81H72.8617L70.9771 188.189L66.4629 189.116L63.0882 191.854L59.7135 196.784L56.6894 205.758L55.287 214.395L55.7691 215.659L56.6894 216.122L56.5141 218.819L57.4345 228.214L62.4746 236.851L62.6061 236.978L62.4746 236.935C62.4746 236.935 69.487 242.286 69.6623 242.455C69.6623 242.455 69.7061 242.497 69.7938 242.497L69.8814 242.539L72.6863 243.761C73.8697 244.266 75.2284 244.898 76.4993 245.446L76.8061 249.238L79.0851 250.755L79.9178 263.689L82.0654 277.34L82.679 287.915L79.6549 290.527L79.6111 291.496L76.9814 294.319L75.4037 296.257H74.5271L70.9333 300.723L70.3197 305.948L72.8617 310.793L80.8382 312.9L82.7228 312.857L91.6636 312.562L98.1938 309.74V309.36L109.808 304.01L119.012 297.142L119.801 285.261L121.072 278.688L121.115 278.646L122.43 273.885L124.359 270.894L128.347 270.936L132.598 281.764L136.762 294.024L136.63 294.066L135.228 297.1L135.535 297.816L135.798 297.184L134.965 299.502L132.072 306.369L131.678 306.453L130.1 310.498L131.678 316.186L136.718 319.767L136.849 319.809V319.851L138.559 320.23L145.045 322L146.141 321.916L146.973 321.874V321.831L154.38 321.031V321.073L154.906 321.031L155.739 320.989L164.329 318.461L167.66 314.163L170.202 311.383L174.146 306.243L176.951 301.482L178.354 285.851L178.748 278.773H178.704L180.72 263.816L180.852 250.081L180.896 250.039L182.999 248.817V241.612L181.641 241.149L182.561 237.778L183.525 237.399L192.378 224.633L195.841 213.299L197.068 202.429L197.901 197.584L195.885 191.475L194.175 190.675L190.494 186.082L191.896 181.279C193.08 180.774 193.693 180.352 193.693 179.636L193.737 175.212C193.737 174.791 193.869 174.327 193.43 173.99C192.992 173.485 191.546 172.768 190.231 172.305L190.275 166.786C190.275 166.786 190.275 166.238 190.231 165.648C190.099 165.269 189.617 164.848 188.127 164.3C188.522 162.109 190.757 150.059 190.757 150.059C190.757 150.059 190.494 150.438 190.099 150.986L192.685 147.194C200.443 144.371 207.455 133.712 208.77 119.808C209.077 116.438 209.077 113.152 208.77 110.076C208.244 103.082 206.316 97.0151 203.291 92.8861C201.801 86.9034 199.172 80.4572 196.279 75.0222C201.232 70.4719 204.343 65.9217 205.264 60.4024C205.921 57.1582 205.877 53.7034 205.22 50.0379C204.606 46.9201 202.59 41.148 200.092 37.5668C197.901 34.449 195.885 34.7861 195.841 37.5247C195.841 37.5668 195.841 37.5668 195.841 37.6511C195.709 38.0303 195.534 38.4516 195.534 38.9993C195.49 39.7577 195.49 40.4739 195.359 41.1902C193.869 47.847 188.96 53.0714 183.175 57.411C169.807 43.8866 151.444 34.8704 131.196 33.2693C130.538 33.2272 129.881 33.1851 129.223 33.1429C125.367 32.8902 121.51 33.0166 117.785 33.1851C115.549 33.3115 113.358 33.5643 111.254 33.9013C110.509 33.9856 109.852 34.1541 109.107 34.2805C104.943 35.0389 100.955 36.0922 97.3173 37.3983C96.7037 37.6511 96.0901 37.8617 95.5203 38.1145C94.6876 38.4937 93.8111 38.8308 93.066 39.1678C86.6672 40.8531 80.7944 43.8445 75.6228 47.51C75.1845 46.7095 74.7901 45.8668 74.4394 44.982C74.1326 43.6338 74.0012 42.2856 74.045 40.7688C74.0888 39.7155 73.8697 38.9993 73.4314 38.6622C73.4314 38.6201 73.4314 38.6201 73.4314 38.5358C73.5629 35.4602 71.4154 35.4602 69.3993 38.4937C67.1641 41.8643 64.8851 47.2993 64.2715 50.2485C63.658 53.0293 63.4826 55.6836 63.7456 58.2536C60.0641 62.509 56.9962 66.9328 54.7172 71.146C53.5339 73.3369 51.1672 76.8338 52.5258 79.9937C52.8326 81.342 53.4462 82.4374 53.7092 82.9009L53.7968 83.1536L53.8406 83.2379C53.4024 84.2069 53.0079 85.176 52.5696 86.1871C50.0277 92.1699 48.8882 98.0684 48.4061 104.725C48.1431 107.085 48.0555 109.57 48.0117 112.056C47.9678 113.994 48.0555 115.974 48.1431 117.913C48.8882 129.794 52.5259 141.464 57.4345 150.733C57.4783 150.86 57.566 151.07 57.6975 151.197C57.7413 151.239 57.7413 151.323 57.8289 151.45C60.6339 156.758 63.5703 160.845 66.5505 164.005ZM69.8814 97.3521L62.869 94.3186L67.0326 89.5577L75.6666 88.041L68.7419 82.9009L78.0771 79.9937L84.4321 81.8054C85.0018 80.4151 85.8345 78.7719 87.3246 77.213C87.3685 77.1709 87.4561 77.0445 87.6314 76.9181C87.6752 76.876 87.6753 76.876 87.6753 76.876C87.7629 76.7917 87.9382 76.6232 88.0697 76.4968C89.3407 75.2328 91.5759 73.2526 91.5759 73.2526C91.5759 73.2526 101.744 74.8958 103.935 75.1486C107.398 75.612 119.187 83.5328 119.187 83.5328C119.187 83.5328 122.518 83.8699 126.813 85.4709C131.064 87.1141 143.292 94.2765 143.292 94.2765C143.292 94.2765 149.866 99.0374 150.743 100.301C151.488 101.355 155.476 109.528 155.739 112.267C156.002 115.005 152.627 136.535 152.627 136.535L142.591 141.127L133.519 167.038L119.494 168.555H89.516L75.8419 166.491C75.8419 166.491 77.1129 141.928 76.7185 131.058C76.324 120.146 72.4672 100.259 72.4672 100.259L69.8814 97.3521Z" fill="url(#paint60_linear_23_12)"/>
<path opacity="0.1" d="M66.5505 164.005L70.0129 169.44L69.9691 171.167C67.0327 171.968 65.3672 172.853 65.3234 173.822L65.2795 178.709C65.2795 179.299 65.8493 179.847 66.9888 180.352C67.6462 180.731 68.3475 180.858 68.8734 181.111L72.511 186.293L72.9055 187.81H72.8617L70.9771 188.189L66.4629 189.116L63.0882 191.854L59.7135 196.784L56.6894 205.758L55.287 214.395L55.7691 215.659L56.6894 216.122L56.5141 218.819L57.4345 228.214L62.4746 236.851L62.6061 236.978L62.4746 236.935C62.4746 236.935 69.487 242.286 69.6623 242.455C69.6623 242.455 69.7061 242.497 69.7938 242.497L69.8814 242.539L72.6863 243.761C73.8697 244.266 75.2284 244.898 76.4993 245.446L76.8061 249.238L79.0851 250.755L79.9178 263.689L82.0654 277.34L82.679 287.915L79.6549 290.527L79.6111 291.496L76.9814 294.319L75.4037 296.257H74.5271L70.9333 300.723L70.3197 305.948L72.8617 310.793L80.8382 312.9L82.7228 312.857L91.6636 312.562L98.1938 309.74V309.36L109.808 304.01L119.012 297.142L119.801 285.261L121.072 278.688L121.115 278.646L122.43 273.885L124.359 270.894L128.347 270.936L132.598 281.764L136.762 294.024L136.63 294.066L135.228 297.1L135.535 297.816L135.798 297.184L134.965 299.502L132.072 306.369L131.678 306.453L130.1 310.498L131.678 316.186L136.718 319.767L136.849 319.809V319.851L138.559 320.23L145.045 322L146.141 321.916L146.973 321.874V321.831L154.38 321.031V321.073L154.906 321.031L155.739 320.989L164.329 318.461L167.66 314.163L170.202 311.383L174.146 306.243L176.951 301.482L178.354 285.851L178.748 278.773H178.704L180.72 263.816L180.852 250.081L180.896 250.039L182.999 248.817V241.612L181.641 241.149L182.561 237.778L183.525 237.399L192.378 224.633L195.841 213.299L197.068 202.429L197.901 197.584L195.885 191.475L194.175 190.675L190.494 186.082L191.896 181.279C193.08 180.774 193.693 180.352 193.693 179.636L193.737 175.212C193.737 174.791 193.869 174.327 193.43 173.99C192.992 173.485 191.546 172.768 190.231 172.305L190.275 166.786C190.275 166.786 190.275 166.238 190.231 165.648C190.099 165.269 189.617 164.848 188.127 164.3C188.522 162.109 190.757 150.059 190.757 150.059C190.757 150.059 190.494 150.438 190.099 150.986L192.685 147.194C200.443 144.371 207.455 133.712 208.77 119.808C209.077 116.438 209.077 113.152 208.77 110.076C208.244 103.082 206.316 97.0151 203.291 92.8861C201.801 86.9034 199.172 80.4572 196.279 75.0222C201.232 70.4719 204.343 65.9217 205.264 60.4024C205.921 57.1582 205.877 53.7034 205.22 50.0379C204.606 46.9201 202.59 41.148 200.092 37.5668C197.901 34.449 195.885 34.7861 195.841 37.5247C195.841 37.5668 195.841 37.5668 195.841 37.6511C195.709 38.0303 195.534 38.4516 195.534 38.9993C195.49 39.7577 195.49 40.4739 195.359 41.1902C193.869 47.847 188.96 53.0714 183.175 57.411C169.807 43.8866 151.444 34.8704 131.196 33.2693C130.538 33.2272 129.881 33.1851 129.223 33.1429C125.367 32.8902 121.51 33.0166 117.785 33.1851C115.549 33.3115 113.358 33.5643 111.254 33.9013C110.509 33.9856 109.852 34.1541 109.107 34.2805C104.943 35.0389 100.955 36.0922 97.3173 37.3983C96.7037 37.6511 96.0901 37.8617 95.5203 38.1145C94.6876 38.4937 93.8111 38.8308 93.066 39.1678C86.6672 40.8531 80.7944 43.8445 75.6228 47.51C75.1845 46.7095 74.7901 45.8668 74.4394 44.982C74.1326 43.6338 74.0012 42.2856 74.045 40.7688C74.0888 39.7155 73.8697 38.9993 73.4314 38.6622C73.4314 38.6201 73.4314 38.6201 73.4314 38.5358C73.5629 35.4602 71.4154 35.4602 69.3993 38.4937C67.1641 41.8643 64.8851 47.2993 64.2715 50.2485C63.658 53.0293 63.4826 55.6836 63.7456 58.2536C60.0641 62.509 56.9962 66.9328 54.7172 71.146C53.5339 73.3369 51.1672 76.8338 52.5258 79.9937C52.8326 81.342 53.4462 82.4374 53.7092 82.9009L53.7968 83.1536L53.8406 83.2379C53.4024 84.2069 53.0079 85.176 52.5696 86.1871C50.0277 92.1699 48.8882 98.0684 48.4061 104.725C48.1431 107.085 48.0555 109.57 48.0117 112.056C47.9678 113.994 48.0555 115.974 48.1431 117.913C48.8882 129.794 52.5259 141.464 57.4345 150.733C57.4783 150.86 57.566 151.07 57.6975 151.197C57.7413 151.239 57.7413 151.323 57.8289 151.45C60.6339 156.758 63.5703 160.845 66.5505 164.005ZM69.8814 97.3521L62.869 94.3186L67.0326 89.5577L75.6666 88.041L68.7419 82.9009L78.0771 79.9937L84.4321 81.8054C85.0018 80.4151 85.8345 78.7719 87.3246 77.213C87.3685 77.1709 87.4561 77.0445 87.6314 76.9181C87.6752 76.876 87.6753 76.876 87.6753 76.876C87.7629 76.7917 87.9382 76.6232 88.0697 76.4968C89.3407 75.2328 91.5759 73.2526 91.5759 73.2526C91.5759 73.2526 101.744 74.8958 103.935 75.1486C107.398 75.612 119.187 83.5328 119.187 83.5328C119.187 83.5328 122.518 83.8699 126.813 85.4709C131.064 87.1141 143.292 94.2765 143.292 94.2765C143.292 94.2765 149.866 99.0374 150.743 100.301C151.488 101.355 155.476 109.528 155.739 112.267C156.002 115.005 152.627 136.535 152.627 136.535L142.591 141.127L133.519 167.038L119.494 168.555H89.516L75.8419 166.491C75.8419 166.491 77.1129 141.928 76.7185 131.058C76.324 120.146 72.4672 100.259 72.4672 100.259L69.8814 97.3521Z" fill="url(#paint61_linear_23_12)"/>
<path opacity="0.1" d="M66.5505 164.005L70.0129 169.44L69.9691 171.167C67.0327 171.968 65.3672 172.853 65.3234 173.822L65.2795 178.709C65.2795 179.299 65.8493 179.847 66.9888 180.352C67.6462 180.731 68.3475 180.858 68.8734 181.111L72.511 186.293L72.9055 187.81H72.8617L70.9771 188.189L66.4629 189.116L63.0882 191.854L59.7135 196.784L56.6894 205.758L55.287 214.395L55.7691 215.659L56.6894 216.122L56.5141 218.819L57.4345 228.214L62.4746 236.851L62.6061 236.978L62.4746 236.935C62.4746 236.935 69.487 242.286 69.6623 242.455C69.6623 242.455 69.7061 242.497 69.7938 242.497L69.8814 242.539L72.6863 243.761C73.8697 244.266 75.2284 244.898 76.4993 245.446L76.8061 249.238L79.0851 250.755L79.9178 263.689L82.0654 277.34L82.679 287.915L79.6549 290.527L79.6111 291.496L76.9814 294.319L75.4037 296.257H74.5271L70.9333 300.723L70.3197 305.948L72.8617 310.793L80.8382 312.9L82.7228 312.857L91.6636 312.562L98.1938 309.74V309.36L109.808 304.01L119.012 297.142L119.801 285.261L121.072 278.688L121.115 278.646L122.43 273.885L124.359 270.894L128.347 270.936L132.598 281.764L136.762 294.024L136.63 294.066L135.228 297.1L135.535 297.816L135.798 297.184L134.965 299.502L132.072 306.369L131.678 306.453L130.1 310.498L131.678 316.186L136.718 319.767L136.849 319.809V319.851L138.559 320.23L145.045 322L146.141 321.916L146.973 321.874V321.831L154.38 321.031V321.073L154.906 321.031L155.739 320.989L164.329 318.461L167.66 314.163L170.202 311.383L174.146 306.243L176.951 301.482L178.354 285.851L178.748 278.773H178.704L180.72 263.816L180.852 250.081L180.896 250.039L182.999 248.817V241.612L181.641 241.149L182.561 237.778L183.525 237.399L192.378 224.633L195.841 213.299L197.068 202.429L197.901 197.584L195.885 191.475L194.175 190.675L190.494 186.082L191.896 181.279C193.08 180.774 193.693 180.352 193.693 179.636L193.737 175.212C193.737 174.791 193.869 174.327 193.43 173.99C192.992 173.485 191.546 172.768 190.231 172.305L190.275 166.786C190.275 166.786 190.275 166.238 190.231 165.648C190.099 165.269 189.617 164.848 188.127 164.3C188.522 162.109 190.757 150.059 190.757 150.059C190.757 150.059 190.494 150.438 190.099 150.986L192.685 147.194C200.443 144.371 207.455 133.712 208.77 119.808C209.077 116.438 209.077 113.152 208.77 110.076C208.244 103.082 206.316 97.0151 203.291 92.8861C201.801 86.9034 199.172 80.4572 196.279 75.0222C201.232 70.4719 204.343 65.9217 205.264 60.4024C205.921 57.1582 205.877 53.7034 205.22 50.0379C204.606 46.9201 202.59 41.148 200.092 37.5668C197.901 34.449 195.885 34.7861 195.841 37.5247C195.841 37.5668 195.841 37.5668 195.841 37.6511C195.709 38.0303 195.534 38.4516 195.534 38.9993C195.49 39.7577 195.49 40.4739 195.359 41.1902C193.869 47.847 188.96 53.0714 183.175 57.411C169.807 43.8866 151.444 34.8704 131.196 33.2693C130.538 33.2272 129.881 33.1851 129.223 33.1429C125.367 32.8902 121.51 33.0166 117.785 33.1851C115.549 33.3115 113.358 33.5643 111.254 33.9013C110.509 33.9856 109.852 34.1541 109.107 34.2805C104.943 35.0389 100.955 36.0922 97.3173 37.3983C96.7037 37.6511 96.0901 37.8617 95.5203 38.1145C94.6876 38.4937 93.8111 38.8308 93.066 39.1678C86.6672 40.8531 80.7944 43.8445 75.6228 47.51C75.1845 46.7095 74.7901 45.8668 74.4394 44.982C74.1326 43.6338 74.0012 42.2856 74.045 40.7688C74.0888 39.7155 73.8697 38.9993 73.4314 38.6622C73.4314 38.6201 73.4314 38.6201 73.4314 38.5358C73.5629 35.4602 71.4154 35.4602 69.3993 38.4937C67.1641 41.8643 64.8851 47.2993 64.2715 50.2485C63.658 53.0293 63.4826 55.6836 63.7456 58.2536C60.0641 62.509 56.9962 66.9328 54.7172 71.146C53.5339 73.3369 51.1672 76.8338 52.5258 79.9937C52.8326 81.342 53.4462 82.4374 53.7092 82.9009L53.7968 83.1536L53.8406 83.2379C53.4024 84.2069 53.0079 85.176 52.5696 86.1871C50.0277 92.1699 48.8882 98.0684 48.4061 104.725C48.1431 107.085 48.0555 109.57 48.0117 112.056C47.9678 113.994 48.0555 115.974 48.1431 117.913C48.8882 129.794 52.5259 141.464 57.4345 150.733C57.4783 150.86 57.566 151.07 57.6975 151.197C57.7413 151.239 57.7413 151.323 57.8289 151.45C60.6339 156.758 63.5703 160.845 66.5505 164.005ZM69.8814 97.3521L62.869 94.3186L67.0326 89.5577L75.6666 88.041L68.7419 82.9009L78.0771 79.9937L84.4321 81.8054C85.0018 80.4151 85.8345 78.7719 87.3246 77.213C87.3685 77.1709 87.4561 77.0445 87.6314 76.9181C87.6752 76.876 87.6753 76.876 87.6753 76.876C87.7629 76.7917 87.9382 76.6232 88.0697 76.4968C89.3407 75.2328 91.5759 73.2526 91.5759 73.2526C91.5759 73.2526 101.744 74.8958 103.935 75.1486C107.398 75.612 119.187 83.5328 119.187 83.5328C119.187 83.5328 122.518 83.8699 126.813 85.4709C131.064 87.1141 143.292 94.2765 143.292 94.2765C143.292 94.2765 149.866 99.0374 150.743 100.301C151.488 101.355 155.476 109.528 155.739 112.267C156.002 115.005 152.627 136.535 152.627 136.535L142.591 141.127L133.519 167.038L119.494 168.555H89.516L75.8419 166.491C75.8419 166.491 77.1129 141.928 76.7185 131.058C76.324 120.146 72.4672 100.259 72.4672 100.259L69.8814 97.3521Z" fill="url(#paint62_linear_23_12)"/>
<defs>
<linearGradient id="paint0_linear_23_12" x1="133.581" y1="251.757" x2="132.405" y2="236.926" gradientUnits="userSpaceOnUse">
<stop offset="0.2638" stop-color="#293942"/>
<stop offset="1" stop-color="#0F1B21"/>
</linearGradient>
<linearGradient id="paint1_linear_23_12" x1="131.184" y1="200.311" x2="131.5" y2="240.757" gradientUnits="userSpaceOnUse">
<stop stop-color="#4E5663"/>
<stop offset="0.2722" stop-color="#A6A8AB"/>
<stop offset="0.8094" stop-color="#A6A8AB"/>
<stop offset="0.9269" stop-color="#CFD0D2"/>
</linearGradient>
<linearGradient id="paint2_linear_23_12" x1="86.7707" y1="187.923" x2="80.4261" y2="201.846" gradientUnits="userSpaceOnUse">
<stop stop-color="#929497"/>
<stop offset="1" stop-color="#293942"/>
</linearGradient>
<linearGradient id="paint3_linear_23_12" x1="85.7525" y1="205.381" x2="83.2415" y2="228.622" gradientUnits="userSpaceOnUse">
<stop stop-color="#5B3528"/>
<stop offset="0.17" stop-color="#5B3427"/>
<stop offset="0.2057" stop-color="#743A21"/>
<stop offset="0.2526" stop-color="#8F411C"/>
<stop offset="0.3006" stop-color="#A24517"/>
<stop offset="0.3499" stop-color="#AD4815"/>
<stop offset="0.4024" stop-color="#B14914"/>
<stop offset="0.5719" stop-color="#5B3528"/>
</linearGradient>
<linearGradient id="paint4_linear_23_12" x1="80.6217" y1="187.425" x2="79.8541" y2="212.208" gradientUnits="userSpaceOnUse">
<stop stop-color="#CFD0D2"/>
<stop offset="1" stop-color="#293942"/>
</linearGradient>
<linearGradient id="paint5_linear_23_12" x1="80.8712" y1="197.717" x2="74.4039" y2="196.954" gradientUnits="userSpaceOnUse">
<stop offset="0.2638" stop-color="#455A65"/>
<stop offset="1" stop-color="#0F1B21"/>
</linearGradient>
<linearGradient id="paint6_linear_23_12" x1="80.3917" y1="192.444" x2="74.086" y2="191.7" gradientUnits="userSpaceOnUse">
<stop offset="0.2638" stop-color="#455A65"/>
<stop offset="1" stop-color="#0F1B21"/>
</linearGradient>
<linearGradient id="paint7_linear_23_12" x1="81.9275" y1="201.523" x2="75.1291" y2="202.153" gradientUnits="userSpaceOnUse">
<stop offset="0.2638" stop-color="#455A65"/>
<stop offset="1" stop-color="#0F1B21"/>
</linearGradient>
<linearGradient id="paint8_linear_23_12" x1="83.3091" y1="206.961" x2="81.4335" y2="224.322" gradientUnits="userSpaceOnUse">
<stop stop-color="#283840"/>
<stop offset="1" stop-color="#0F1B21"/>
</linearGradient>
<linearGradient id="paint9_linear_23_12" x1="154.595" y1="217.286" x2="129.729" y2="217.286" gradientUnits="userSpaceOnUse">
<stop stop-color="#3B2314"/>
<stop offset="1" stop-color="#754C28"/>
</linearGradient>
<linearGradient id="paint10_linear_23_12" x1="198.124" y1="197.505" x2="144.174" y2="197.505" gradientUnits="userSpaceOnUse">
<stop stop-color="#929497"/>
<stop offset="1" stop-color="#293942"/>
</linearGradient>
<linearGradient id="paint11_linear_23_12" x1="140.225" y1="226.179" x2="143.075" y2="203.706" gradientUnits="userSpaceOnUse">
<stop stop-color="#0F1B21"/>
<stop offset="0.17" stop-color="#5B3427"/>
<stop offset="0.1821" stop-color="#683827"/>
<stop offset="0.2245" stop-color="#924625"/>
<stop offset="0.2679" stop-color="#B45124"/>
<stop offset="0.3118" stop-color="#CF5A23"/>
<stop offset="0.3564" stop-color="#E26023"/>
<stop offset="0.4022" stop-color="#ED6422"/>
<stop offset="0.4509" stop-color="#F16522"/>
<stop offset="0.7779" stop-color="#404041"/>
</linearGradient>
<linearGradient id="paint12_linear_23_12" x1="196.039" y1="198.53" x2="139.472" y2="198.53" gradientUnits="userSpaceOnUse">
<stop stop-color="white"/>
<stop offset="1" stop-color="#293942"/>
</linearGradient>
<linearGradient id="paint13_linear_23_12" x1="135.721" y1="217.657" x2="145.671" y2="206.821" gradientUnits="userSpaceOnUse">
<stop offset="0.2638" stop-color="#455A65"/>
<stop offset="1" stop-color="#0F1B21"/>
</linearGradient>
<linearGradient id="paint14_linear_23_12" x1="52.6921" y1="201.244" x2="101.566" y2="240.66" gradientUnits="userSpaceOnUse">
<stop stop-color="#F2C086"/>
<stop offset="0.0910139" stop-color="#BBB3AE"/>
<stop offset="0.3157" stop-color="#CACCCE"/>
<stop offset="0.7498" stop-color="#9EA0A3"/>
</linearGradient>
<linearGradient id="paint15_linear_23_12" x1="102.771" y1="216.553" x2="79.3835" y2="218.514" gradientUnits="userSpaceOnUse">
<stop stop-color="#794D3A"/>
<stop offset="1" stop-color="#36444C"/>
</linearGradient>
<linearGradient id="paint16_linear_23_12" x1="92.1489" y1="213.088" x2="81.6392" y2="223.293" gradientUnits="userSpaceOnUse">
<stop stop-color="#5B3427"/>
<stop offset="0.0618358" stop-color="#663827"/>
<stop offset="0.1709" stop-color="#844126"/>
<stop offset="0.3142" stop-color="#B45124"/>
<stop offset="0.4737" stop-color="#F16522"/>
<stop offset="0.6685" stop-color="#F28F3F"/>
<stop offset="0.8876" stop-color="#ED693C"/>
<stop offset="1" stop-color="#E83E39"/>
</linearGradient>
<linearGradient id="paint17_linear_23_12" x1="55.9736" y1="197.514" x2="70.7122" y2="201.838" gradientUnits="userSpaceOnUse">
<stop stop-color="#CE9179"/>
<stop offset="0.6433" stop-color="#929497"/>
<stop offset="1" stop-color="#293942"/>
</linearGradient>
<linearGradient id="paint18_linear_23_12" x1="55.7961" y1="197.514" x2="69.5371" y2="201.012" gradientUnits="userSpaceOnUse">
<stop stop-color="#F2C086"/>
<stop offset="0.0810818" stop-color="#F3A98C"/>
<stop offset="0.1841" stop-color="#D37A6D"/>
<stop offset="0.4658" stop-color="#CFD0D2"/>
<stop offset="0.7773" stop-color="#CCD1D0"/>
</linearGradient>
<linearGradient id="paint19_linear_23_12" x1="116.205" y1="228.19" x2="91.7604" y2="228.19" gradientUnits="userSpaceOnUse">
<stop stop-color="#4E5663"/>
<stop offset="1" stop-color="#A6A8AB"/>
</linearGradient>
<linearGradient id="paint20_linear_23_12" x1="184.694" y1="236.655" x2="119.305" y2="191.152" gradientUnits="userSpaceOnUse">
<stop stop-color="#F2C086"/>
<stop offset="0.0910139" stop-color="#947F7E"/>
<stop offset="0.3157" stop-color="#CFD0D2"/>
<stop offset="0.7166" stop-color="#A6A8AB"/>
<stop offset="0.7463" stop-color="#AAACAF"/>
<stop offset="0.8691" stop-color="#B5B7B9"/>
<stop offset="1" stop-color="#B9BBBD"/>
</linearGradient>
<linearGradient id="paint21_linear_23_12" x1="119.065" y1="215.236" x2="89.4475" y2="215.236" gradientUnits="userSpaceOnUse">
<stop stop-color="#293942"/>
<stop offset="1" stop-color="#0F1B21"/>
</linearGradient>
<linearGradient id="paint22_linear_23_12" x1="122.75" y1="207.54" x2="141.577" y2="220.414" gradientUnits="userSpaceOnUse">
<stop stop-color="#3B2314"/>
<stop offset="1" stop-color="#754C28"/>
</linearGradient>
<linearGradient id="paint23_linear_23_12" x1="127.041" y1="204.373" x2="137.537" y2="222.01" gradientUnits="userSpaceOnUse">
<stop stop-color="#5B3427"/>
<stop offset="0.1638" stop-color="#914625"/>
<stop offset="0.3408" stop-color="#C55723"/>
<stop offset="0.4745" stop-color="#E56122"/>
<stop offset="0.5481" stop-color="#F16522"/>
<stop offset="0.7011" stop-color="#F28F3F"/>
<stop offset="0.8876" stop-color="#ED693C"/>
<stop offset="1" stop-color="#E83E39"/>
</linearGradient>
<linearGradient id="paint24_linear_23_12" x1="69.9479" y1="184.512" x2="191.242" y2="190.758" gradientUnits="userSpaceOnUse">
<stop offset="0.2638" stop-color="#293942"/>
<stop offset="1" stop-color="#29373E"/>
</linearGradient>
<linearGradient id="paint25_linear_23_12" x1="140.587" y1="188.395" x2="97.0094" y2="188.395" gradientUnits="userSpaceOnUse">
<stop stop-color="#293942"/>
<stop offset="1" stop-color="#0F1B21"/>
</linearGradient>
<linearGradient id="paint26_linear_23_12" x1="170.688" y1="191.61" x2="120.567" y2="191.61" gradientUnits="userSpaceOnUse">
<stop stop-color="#293942"/>
<stop offset="1" stop-color="#162329"/>
</linearGradient>
<linearGradient id="paint27_linear_23_12" x1="146.839" y1="200.603" x2="97.8333" y2="200.603" gradientUnits="userSpaceOnUse">
<stop stop-color="#293942"/>
<stop offset="1" stop-color="#0F1B21"/>
</linearGradient>
<linearGradient id="paint28_linear_23_12" x1="97.9789" y1="189.933" x2="75.9724" y2="189.933" gradientUnits="userSpaceOnUse">
<stop stop-color="#293942"/>
<stop offset="1" stop-color="#0F1B21"/>
</linearGradient>
<linearGradient id="paint29_linear_23_12" x1="79.1439" y1="126.979" x2="72.1332" y2="126.979" gradientUnits="userSpaceOnUse">
<stop offset="0.339" stop-color="#0D1D24"/>
<stop offset="0.7571" stop-color="#322E2F"/>
</linearGradient>
<linearGradient id="paint30_linear_23_12" x1="63.7948" y1="57.7757" x2="90.4927" y2="58.0502" gradientUnits="userSpaceOnUse">
<stop stop-color="#4E5663"/>
<stop offset="0.5816" stop-color="#0D1C21"/>
</linearGradient>
<linearGradient id="paint31_linear_23_12" x1="193.894" y1="181.128" x2="65.2955" y2="179.806" gradientUnits="userSpaceOnUse">
<stop stop-color="#C9A170"/>
<stop offset="0.0950625" stop-color="#B2675C"/>
<stop offset="0.356" stop-color="#273D44"/>
<stop offset="0.4692" stop-color="#3A484E"/>
<stop offset="0.6233" stop-color="#4D5458"/>
<stop offset="0.7821" stop-color="#585B5E"/>
<stop offset="0.9513" stop-color="#5C5D60"/>
</linearGradient>
<linearGradient id="paint32_linear_23_12" x1="61.1221" y1="173.765" x2="195.832" y2="175.15" gradientUnits="userSpaceOnUse">
<stop stop-color="#929592"/>
<stop offset="0.3887" stop-color="#7B797A"/>
<stop offset="1" stop-color="#273D44"/>
</linearGradient>
<linearGradient id="paint33_linear_23_12" x1="89.5285" y1="113.749" x2="55.833" y2="119.651" gradientUnits="userSpaceOnUse">
<stop stop-color="#0F1B21"/>
<stop offset="1" stop-color="#293942"/>
</linearGradient>
<linearGradient id="paint34_linear_23_12" x1="192.275" y1="173.158" x2="70.5868" y2="171.907" gradientUnits="userSpaceOnUse">
<stop stop-color="#F2C086"/>
<stop offset="0.0910139" stop-color="#D37A6D"/>
<stop offset="0.3157" stop-color="#CFD0D2"/>
<stop offset="0.9595" stop-color="#A6A8AB"/>
<stop offset="0.9637" stop-color="#B5ADA3"/>
<stop offset="0.9723" stop-color="#D0B596"/>
<stop offset="0.9812" stop-color="#E3BB8D"/>
<stop offset="0.9903" stop-color="#EEBF87"/>
<stop offset="1" stop-color="#F2C085"/>
</linearGradient>
<linearGradient id="paint35_linear_23_12" x1="194.584" y1="156.73" x2="70.7671" y2="155.457" gradientUnits="userSpaceOnUse">
<stop stop-color="#F2C086"/>
<stop offset="0.0910139" stop-color="#C68269"/>
<stop offset="0.3157" stop-color="#CFD0D2"/>
<stop offset="0.9673" stop-color="#A6A8AB"/>
</linearGradient>
<linearGradient id="paint36_linear_23_12" x1="199.757" y1="41.6872" x2="140.229" y2="85.0858" gradientUnits="userSpaceOnUse">
<stop stop-color="#F2C086"/>
<stop offset="0.0810818" stop-color="#F3A98C"/>
<stop offset="0.1841" stop-color="#A79189"/>
<stop offset="0.6682" stop-color="#BDBFC1"/>
<stop offset="0.8462" stop-color="#CCD1D0"/>
<stop offset="1" stop-color="#A6A8AB"/>
</linearGradient>
<linearGradient id="paint37_linear_23_12" x1="205.858" y1="58.1475" x2="177.173" y2="57.8526" gradientUnits="userSpaceOnUse">
<stop stop-color="#6C6F71"/>
<stop offset="0.4266" stop-color="#4E5663"/>
<stop offset="1" stop-color="#0D1C21"/>
</linearGradient>
<linearGradient id="paint38_linear_23_12" x1="190.782" y1="159.986" x2="162.805" y2="159.698" gradientUnits="userSpaceOnUse">
<stop offset="0.4162" stop-color="#4E5663"/>
<stop offset="0.6682" stop-color="#273D44"/>
<stop offset="1" stop-color="#273D44"/>
</linearGradient>
<linearGradient id="paint39_linear_23_12" x1="75.7515" y1="75.0453" x2="110.973" y2="134.338" gradientUnits="userSpaceOnUse">
<stop stop-color="#273D44"/>
<stop offset="0.2046" stop-color="#BE918A"/>
<stop offset="0.3735" stop-color="#C7C9CB"/>
<stop offset="0.687" stop-color="#CCD1D0"/>
</linearGradient>
<radialGradient id="paint40_radial_23_12" cx="0" cy="0" r="1" gradientUnits="userSpaceOnUse" gradientTransform="translate(113.452 116.796) rotate(-179.456) scale(50.9262 48.9568)">
<stop stop-color="#0F1B21" stop-opacity="0"/>
<stop offset="0.6763" stop-color="#0F1B21" stop-opacity="0.6512"/>
<stop offset="0.7582" stop-color="#19272E" stop-opacity="0.7396"/>
<stop offset="0.8865" stop-color="#24343B" stop-opacity="0.8777"/>
<stop offset="1" stop-color="#283840"/>
</radialGradient>
<linearGradient id="paint41_linear_23_12" x1="138.513" y1="18.7127" x2="98.6838" y2="47.75" gradientUnits="userSpaceOnUse">
<stop stop-color="#F2C086"/>
<stop offset="1" stop-color="#F1F1F2"/>
</linearGradient>
<linearGradient id="paint42_linear_23_12" x1="91.0628" y1="129.495" x2="85.0168" y2="129.495" gradientUnits="userSpaceOnUse">
<stop stop-color="#293942"/>
<stop offset="1" stop-color="#0F1B21"/>
</linearGradient>
<linearGradient id="paint43_linear_23_12" x1="129.341" y1="129.495" x2="121.488" y2="129.495" gradientUnits="userSpaceOnUse">
<stop stop-color="#293942"/>
<stop offset="1" stop-color="#0F1B21"/>
</linearGradient>
<linearGradient id="paint44_linear_23_12" x1="92.1623" y1="115.875" x2="80.0773" y2="115.875" gradientUnits="userSpaceOnUse">
<stop stop-color="#A0A2A4"/>
<stop offset="1" stop-color="#9D867B"/>
</linearGradient>
<radialGradient id="paint45_radial_23_12" cx="0" cy="0" r="1" gradientUnits="userSpaceOnUse" gradientTransform="translate(120.844 131.243) rotate(180) scale(43.0302 58.5024)">
<stop stop-color="#E6E7E8"/>
<stop offset="0.17" stop-color="#E3E4E5"/>
<stop offset="0.3163" stop-color="#D8DBDC"/>
<stop offset="0.4538" stop-color="#C6CBCD"/>
<stop offset="0.586" stop-color="#ADB5B7"/>
<stop offset="0.7143" stop-color="#8D989C"/>
<stop offset="0.8398" stop-color="#66757A"/>
<stop offset="0.9607" stop-color="#384C52"/>
<stop offset="1" stop-color="#273D44"/>
</radialGradient>
<linearGradient id="paint46_linear_23_12" x1="78.7293" y1="81.6665" x2="111.686" y2="88.504" gradientUnits="userSpaceOnUse">
<stop stop-color="#F2C086"/>
<stop offset="0.0810818" stop-color="#F3A98C"/>
<stop offset="0.1841" stop-color="#DF9283"/>
<stop offset="0.4658" stop-color="#CFD0D2"/>
</linearGradient>
<linearGradient id="paint47_linear_23_12" x1="77.4648" y1="132.334" x2="152.074" y2="132.334" gradientUnits="userSpaceOnUse">
<stop stop-color="#E6968B"/>
<stop offset="0.4658" stop-color="#A4A7A9"/>
<stop offset="0.7085" stop-color="#A8ACAD"/>
<stop offset="0.9757" stop-color="#293942"/>
</linearGradient>
<linearGradient id="paint48_linear_23_12" x1="74.83" y1="141.643" x2="105.011" y2="131.838" gradientUnits="userSpaceOnUse">
<stop stop-color="#E6968B"/>
<stop offset="0.4658" stop-color="#A4A7A9"/>
<stop offset="0.7085" stop-color="#A8ACAD"/>
<stop offset="0.9757" stop-color="#293942"/>
</linearGradient>
<linearGradient id="paint49_linear_23_12" x1="154.527" y1="129.842" x2="70.7472" y2="131.989" gradientUnits="userSpaceOnUse">
<stop offset="0.339" stop-color="#0D1D24"/>
<stop offset="0.7571" stop-color="#322E2F"/>
</linearGradient>
<linearGradient id="paint50_linear_23_12" x1="63.5059" y1="150.07" x2="170.114" y2="153.075" gradientUnits="userSpaceOnUse">
<stop offset="0.3806" stop-color="#293942"/>
<stop offset="1" stop-color="#1F2C32"/>
</linearGradient>
<linearGradient id="paint51_linear_23_12" x1="204.251" y1="119.702" x2="165.343" y2="115.82" gradientUnits="userSpaceOnUse">
<stop offset="0.2638" stop-color="#455A65"/>
<stop offset="1" stop-color="#19262C"/>
</linearGradient>
<linearGradient id="paint52_linear_23_12" x1="215.706" y1="101.949" x2="171.641" y2="126.133" gradientUnits="userSpaceOnUse">
<stop stop-color="#F2C086"/>
<stop offset="0.0720205" stop-color="#F2C085"/>
<stop offset="0.1461" stop-color="#E2B39B"/>
<stop offset="0.2024" stop-color="#DAACA6"/>
<stop offset="0.223" stop-color="#D9AEA8"/>
<stop offset="0.5077" stop-color="#D2C7C7"/>
<stop offset="0.6682" stop-color="#CFD0D2"/>
<stop offset="0.7264" stop-color="#C4C7C9"/>
<stop offset="0.8282" stop-color="#A7AEB2"/>
<stop offset="0.9608" stop-color="#78858D"/>
<stop offset="0.9974" stop-color="#6A7982"/>
</linearGradient>
<linearGradient id="paint53_linear_23_12" x1="183.13" y1="117.777" x2="203.306" y2="120.99" gradientUnits="userSpaceOnUse">
<stop stop-color="#4D6370"/>
<stop offset="1" stop-color="#212E34"/>
</linearGradient>
<linearGradient id="paint54_linear_23_12" x1="54.3128" y1="69.4483" x2="179.8" y2="70.7387" gradientUnits="userSpaceOnUse">
<stop stop-color="#5B3528"/>
<stop offset="1" stop-color="#19262C"/>
</linearGradient>
<linearGradient id="paint55_linear_23_12" x1="161.163" y1="115.035" x2="82.2352" y2="39.1413" gradientUnits="userSpaceOnUse">
<stop stop-color="#273D44"/>
<stop offset="0.4874" stop-color="#F16522"/>
<stop offset="0.6685" stop-color="#F28F3F"/>
<stop offset="0.8876" stop-color="#ED693C"/>
<stop offset="1" stop-color="#E83E39"/>
</linearGradient>
<linearGradient id="paint56_linear_23_12" x1="103.586" y1="59.6066" x2="52.455" y2="59.0809" gradientUnits="userSpaceOnUse">
<stop offset="0.0566802" stop-color="#F16522"/>
<stop offset="1" stop-color="#F3DDBD"/>
</linearGradient>
<linearGradient id="paint57_linear_23_12" x1="195.055" y1="218.012" x2="166.294" y2="201.677" gradientUnits="userSpaceOnUse">
<stop stop-color="#F3A98C"/>
<stop offset="0.8597" stop-color="#929497"/>
<stop offset="1" stop-color="#6E7482"/>
</linearGradient>
<linearGradient id="paint58_linear_23_12" x1="196.882" y1="218.004" x2="168.119" y2="201.669" gradientUnits="userSpaceOnUse">
<stop stop-color="#E8CFBE"/>
<stop offset="0.6682" stop-color="#D0D2D3"/>
<stop offset="0.9974" stop-color="#BEB0AD"/>
</linearGradient>
<linearGradient id="paint59_linear_23_12" x1="174.772" y1="210.079" x2="190.965" y2="208.388" gradientUnits="userSpaceOnUse">
<stop stop-color="#4F5764"/>
<stop offset="0.6682" stop-color="#293942"/>
<stop offset="1" stop-color="#0F1C20"/>
</linearGradient>
<linearGradient id="paint60_linear_23_12" x1="168.055" y1="41.749" x2="101.704" y2="239.132" gradientUnits="userSpaceOnUse">
<stop stop-color="#4E5663"/>
<stop offset="0.6682" stop-color="#283841"/>
<stop offset="1" stop-color="#0F1B21"/>
</linearGradient>
<linearGradient id="paint61_linear_23_12" x1="168.055" y1="41.749" x2="101.704" y2="239.132" gradientUnits="userSpaceOnUse">
<stop stop-color="#4E5663"/>
<stop offset="0.6682" stop-color="#283841"/>
<stop offset="1" stop-color="#0F1B21"/>
</linearGradient>
<linearGradient id="paint62_linear_23_12" x1="168.055" y1="41.749" x2="101.704" y2="239.132" gradientUnits="userSpaceOnUse">
<stop stop-color="#4E5663"/>
<stop offset="0.6682" stop-color="#283841"/>
<stop offset="1" stop-color="#0F1B21"/>
</linearGradient>
</defs>
</svg>
