<svg width="256" height="256" viewBox="0 0 256 256" fill="none" xmlns="http://www.w3.org/2000/svg">
<g id="Arch-Dark 6" clip-path="url(#clip0_9_152)">
<g id="Clip path group">
<mask id="mask0_9_152" style="mask-type:luminance" maskUnits="userSpaceOnUse" x="0" y="0" width="256" height="256">
<g id="clip0_33_628">
<path id="Vector" d="M256 0H0V256H256V0Z" fill="white"/>
</g>
</mask>
<g mask="url(#mask0_9_152)">
<g id="Group">
<path id="Vector_2" d="M196 0H60C26.8629 0 0 26.8629 0 60V196C0 229.137 26.8629 256 60 256H196C229.137 256 256 229.137 256 196V60C256 26.8629 229.137 0 196 0Z" fill="#242938"/>
</g>
</g>
</g>
<g id="framer-motion 4" clip-path="url(#clip1_9_152)">
<g id="Group 6">
<path id="Vector 1" d="M128 128L48 48V208L88 168L128 208L168 168L208 207.78V48L128 128Z" fill="white"/>
</g>
</g>
</g>
<defs>
<clipPath id="clip0_9_152">
<rect width="256" height="256" fill="white"/>
</clipPath>
<clipPath id="clip1_9_152">
<rect width="160" height="160" fill="white" transform="translate(48 48)"/>
</clipPath>
</defs>
</svg>
