<svg width="256" height="256" viewBox="0 0 256 256" fill="none" xmlns="http://www.w3.org/2000/svg">
<g id="Arch-Light 3" clip-path="url(#clip0_9_34)">
<g id="Clip path group">
<mask id="mask0_9_34" style="mask-type:luminance" maskUnits="userSpaceOnUse" x="0" y="0" width="256" height="256">
<g id="clip0_33_618">
<path id="Vector" d="M256 0H0V256H256V0Z" fill="white"/>
</g>
</mask>
<g mask="url(#mask0_9_34)">
<g id="Group">
<path id="Vector_2" d="M196 0H60C26.8629 0 0 26.8629 0 60V196C0 229.137 26.8629 256 60 256H196C229.137 256 256 229.137 256 196V60C256 26.8629 229.137 0 196 0Z" fill="#F4F2ED"/>
</g>
</g>
</g>
<g id="gsap-greensock 2">
<path id="Vector_3" d="M68.1193 115.102C62.3128 117.994 46.9445 131.013 43.9845 134.871C40.9106 138.728 40.0001 132.701 43.1875 122.696C45.6914 114.619 52.0675 103.649 62.7683 94.2471C69.0292 88.8225 82.8046 80.9874 91.2284 76.4061C92.9365 75.4414 115.022 65.5568 134.716 60.6145C136.424 60.1321 132.668 63.628 132.098 65.5568C129.138 74.7182 70.0537 114.016 70.0537 114.016L68.1193 115.102ZM151.337 225.642C152.362 232.152 151.451 232.634 145.076 233.478C138.701 234.322 134.034 231.79 132.326 230.103C130.618 228.414 130.277 224.678 131.985 221.303C133.01 219.133 134.034 218.41 134.604 215.758C135.173 213.226 135.628 212.623 136.083 211.659C136.538 210.815 136.653 209.971 136.766 204.064C136.88 198.158 136.766 187.067 137.336 182.367C137.905 177.545 157.6 184.536 157.6 184.536C157.6 184.536 152.932 196.832 151.68 199.845C150.427 202.86 150.541 208.645 150.541 209.851C150.541 211.056 150.086 213.467 149.744 213.587C149.403 213.708 150.883 216.842 150.199 218.651C149.744 220.338 151.224 224.678 151.337 225.642ZM158.851 41.327C158.168 36.7463 158.851 27.7044 159.762 26.2586C162.608 22.1596 177.635 21.6779 180.823 26.4995C182.189 28.6691 182.075 33.7321 181.847 36.9872C181.62 40.2416 180.823 47.2334 180.709 49.5243C180.596 51.2122 164.088 53.8636 160.445 49.2829C159.42 48.0779 158.851 41.327 158.851 41.327ZM192.321 213.949C199.265 219.254 204.616 220.218 208.145 222.146C211.674 224.076 210.763 227.813 204.843 228.897C200.062 229.861 192.548 227.933 187.539 227.933C182.53 227.933 171.374 228.536 168.414 226.366C164.999 223.835 166.478 219.133 166.478 219.133C167.389 216.481 169.666 210.574 168.983 205.752C168.3 200.931 167.389 198.279 165.681 193.818C163.974 189.358 162.722 178.389 164.316 177.786C165.91 177.183 165.454 177.786 167.503 178.268C169.552 178.749 171.829 179.473 176.269 179.473C180.709 179.473 185.604 178.749 187.312 178.388C189.019 178.027 190.385 177.664 189.816 181.402C189.247 185.139 187.539 192.13 187.425 197.555C187.312 202.98 187.312 209.248 187.653 210.333C187.994 211.418 190.499 212.623 192.321 213.949Z" fill="#010101"/>
<path id="Vector_4" d="M167.959 53.3819C155.436 64.8342 131.187 67.9679 95.2139 82.6747C85.9925 86.4115 61.4028 97.6224 55.4829 109.316C75.4051 97.1406 82.8051 113.896 84.3985 131.134C85.8779 147.287 93.5059 155.726 113.087 155.243C133.237 154.762 139.384 167.177 144.962 181.764C155.777 125.951 173.081 115.102 184.237 105.579C207.917 85.2059 178.773 49.2829 167.959 53.3819Z" fill="#8AC640"/>
<path id="Vector_5" d="M167.959 53.3819C137.904 64.4721 108.191 67.2447 73.2421 90.0281C64.9317 95.4528 47.3999 107.748 43.9845 131.255C56.7343 116.307 86.2194 97.5022 122.308 85.5681C140.522 79.5404 153.842 75.5628 170.008 68.9326C168.87 61.217 168.87 58.2035 167.959 53.3819Z" fill="#8AC640"/>
<path id="Vector_6" d="M206.323 119.441C206.323 119.441 204.16 127.277 199.834 129.809C199.834 129.809 196.647 131.014 190.272 127.277C188.45 126.193 187.084 122.456 187.198 121.25C187.312 118.356 189.019 117.031 189.019 117.031C189.019 117.031 190.841 113.776 193.004 113.896C195.167 114.016 198.81 114.378 199.949 113.293C200.973 112.088 206.551 115.463 206.323 119.441ZM159.876 43.6174C159.876 43.6174 159.421 49.7659 158.624 53.6228C158.51 54.3466 155.095 54.7076 152.59 55.793C157.371 70.2583 186.173 70.1376 189.93 63.0256C188.109 61.6999 184.466 59.6505 182.758 58.9273C181.05 58.2035 181.164 58.3242 181.05 54.949C180.937 51.5733 180.709 45.3053 180.481 43.6174C180.253 41.9295 162.608 41.9295 159.876 43.6174Z" fill="#010101"/>
<path id="Vector_7" d="M161.014 43.6174C161.014 43.6174 161.014 47.1133 160.673 50.4885C160.559 52.0556 160.445 53.0197 160.218 54.2253C160.104 54.9491 164.088 57.8413 165.227 64.2306C170.691 77.1288 183.328 70.7401 188.564 64.5922C186.743 63.2659 183.783 61.4579 180.368 60.0115C178.66 59.2877 179.457 57.7212 179.343 54.346C179.229 50.9708 178.774 46.0279 178.546 44.2199C178.318 42.4119 163.747 41.9296 161.014 43.6174Z" fill="#F0EFEF"/>
<g id="Group_2">
<path id="Vector_8" d="M159.876 43.6174C159.876 43.6174 159.762 45.7876 159.421 48.3188C160.9 49.8854 162.836 52.0556 164.316 53.3819C165.341 54.3466 167.845 54.2258 170.122 54.2258C172.171 54.2258 173.993 54.4667 174.79 53.9849C176.612 53.0203 179.229 50.6098 180.709 48.8012C180.596 46.6316 180.482 44.5821 180.369 43.6174C180.253 41.9295 162.608 41.9295 159.876 43.6174Z" fill="#010101"/>
<path id="Vector_9" d="M170.236 52.7788C168.869 52.7788 167.275 52.6587 166.023 52.4172C165.454 52.2971 164.885 51.9355 164.429 51.694C163.632 51.0909 162.835 50.3683 161.925 49.6445C160.103 48.1981 159.99 47.3542 159.99 46.9931C160.787 39.3983 159.762 33.0096 159.762 33.0096C159.762 33.0096 158.965 29.7546 163.291 28.9106C167.616 28.0667 170.235 27.9465 170.235 27.9465C170.235 27.9465 172.967 27.9465 177.179 28.9106C181.505 29.7546 180.708 33.0096 180.708 33.0096C180.708 33.0096 179.684 39.3983 180.481 46.9931C180.481 47.3542 180.367 48.1981 178.545 49.6445C176.951 50.8501 175.699 52.1757 174.447 52.4172C173.195 52.6587 171.601 52.7788 170.236 52.7788Z" fill="#010101"/>
<path id="Vector_10" d="M170.236 24.8123C162.722 24.8123 161.242 26.9819 159.079 29.393C158.624 29.9954 158.965 33.6121 159.762 41.3271H160.787C160.787 41.3271 160.103 39.1568 160.217 36.6256C160.331 34.0944 160.787 34.2151 160.445 33.6121C159.99 32.8883 159.079 31.6827 161.128 30.4778C163.177 29.2722 166.365 31.4418 170.236 31.5626C174.106 31.4418 177.407 29.2722 179.456 30.4778C181.505 31.6827 180.595 32.8883 180.14 33.6121C179.684 34.3353 180.253 34.0938 180.367 36.6256C180.481 39.1568 179.798 41.3271 179.798 41.3271H180.822C181.505 33.6121 181.961 30.2369 181.619 29.6338C179.684 26.9819 177.749 24.9324 170.236 24.8123ZM206.323 119.803C206.323 119.803 204.16 127.156 199.948 129.687C199.037 129.206 199.151 128.482 198.354 127.397C198.126 127.036 197.329 126.794 196.988 126.433C196.647 126.071 196.761 125.468 196.191 124.986C195.736 124.504 195.394 124.866 194.939 124.504C194.484 124.022 194.369 123.419 194.028 123.058C193.8 122.817 192.89 122.697 192.662 122.455C192.093 121.852 187.084 120.767 187.312 119.562C187.767 117.753 188.678 116.427 188.678 116.427C188.678 116.427 190.841 113.052 193.003 113.172C195.166 113.293 197.216 113.776 198.354 112.691C199.607 111.485 206.665 115.945 206.323 119.803Z" fill="#010101"/>
<path id="Vector_11" d="M191.524 66.5215C191.524 66.5215 198.696 64.7129 203.591 69.6558C208.487 74.7188 208.145 80.9868 206.665 84.8443C207.917 86.4115 210.194 90.7507 208.487 95.9345C216 102.685 212.699 113.052 205.982 119.923C205.982 119.923 204.388 113.655 198.013 113.293C198.241 110.883 192.093 108.953 194.939 102.685C190.613 101.6 190.727 98.4657 190.044 94.6088C189.475 90.7507 191.524 66.5215 191.524 66.5215Z" fill="#010101"/>
</g>
<path id="Vector_12" d="M188.905 69.8966C188.905 69.8966 197.216 65.4367 202.111 70.4997C207.006 75.5628 205.64 81.1075 204.16 84.965C205.412 86.5316 208.372 90.9927 206.551 96.2961C206.209 97.5016 203.705 97.5016 201.883 100.636C206.436 97.8626 209.282 98.5864 210.307 102.082C211.901 107.506 208.371 114.016 205.298 117.632C205.298 117.512 205.184 117.391 205.184 117.271C204.729 119.079 204.16 122.575 200.745 126.432C199.037 128.361 197.671 128.12 195.735 127.638C193.459 127.035 192.662 125.949 189.474 124.142C187.653 123.057 188.677 121.731 188.677 120.646C188.677 120.405 188.905 120.043 189.247 119.561C189.474 118.958 190.157 117.995 191.182 116.909C191.182 116.909 192.662 114.74 194.825 114.86C196.988 114.98 199.265 114.499 199.834 113.896C199.834 109.677 195.281 109.556 196.874 102.323C196.988 101.962 197.558 101.359 199.379 101.118C196.646 100.515 195.394 100.394 193.459 98.4657C192.093 97.14 191.068 95.4521 190.726 93.2825C190.044 89.5457 188.905 69.8966 188.905 69.8966Z" fill="#F0EFEF"/>
<path id="Vector_13" d="M164.885 62.3024C164.202 61.3377 160.673 56.5162 153.956 54.5874C152.02 53.9843 150.768 55.6722 148.833 56.8778C148.264 56.5162 145.759 55.3106 144.393 56.154C143.027 56.9973 142.117 57.8418 140.75 58.4443C140.067 58.0827 138.246 58.0827 136.766 58.6852C135.286 59.1675 133.009 60.2523 130.846 63.3866C129.48 68.5704 154.98 64.7123 154.98 64.7123L164.885 62.3024Z" fill="#010101"/>
<path id="Vector_14" d="M165.113 62.3024C161.469 60.9762 162.039 56.5162 153.956 55.793C152.362 55.6723 151.337 56.9979 150.199 57.8419C150.768 58.4449 151.337 59.409 151.679 60.3731C150.654 59.1681 148.833 57.6004 147.011 57.2388C145.303 56.8778 144.165 58.2035 142.343 59.1681C142.684 59.5292 143.026 60.1322 143.481 60.856C141.887 59.7712 140.749 59.4096 138.586 60.253C137.106 60.7347 134.26 62.061 132.097 65.316C130.731 70.4998 155.094 64.7129 155.094 64.7129L165.113 62.3024Z" fill="#8AC640"/>
<path id="Vector_15" d="M186.515 64.2311C186.515 64.2311 186.515 62.9049 186.401 61.6999C186.401 61.459 185.49 60.856 185.49 60.6151L185.263 60.3736C185.263 60.3736 187.084 59.2888 188.45 59.8919C189.93 60.3736 190.727 62.4231 190.727 62.4231C193.345 61.459 193.573 62.5439 194.825 63.9903C197.558 63.3872 197.899 64.472 199.607 67.1246C199.607 67.1246 197.558 66.763 193.573 67.4856C189.702 68.088 186.515 64.1104 186.515 64.2311Z" fill="#010101"/>
<path id="Vector_16" d="M186.059 63.6281C186.059 63.6281 186.742 63.025 186.514 62.9043C187.766 62.1811 189.474 61.3378 190.271 63.6281C192.89 62.6634 193.231 63.9897 194.483 65.4367C197.671 63.8696 197.898 65.7977 198.126 66.6417C197.102 66.6417 195.622 66.7624 193.573 67.0033C189.702 67.6063 185.945 63.5074 186.059 63.6281Z" fill="#8AC640"/>
<path id="Vector_17" d="M147.353 60.6146C147.353 60.6146 153.842 63.0251 159.307 62.6634C164.771 62.1817 174.106 61.6994 179.115 64.8337C179.115 64.8337 184.238 62.9043 189.019 64.2306C193.801 65.5563 202.567 74.2359 199.949 83.3973C199.721 84.0004 198.241 84.9645 196.533 85.5676C196.533 85.5676 197.444 89.6659 195.85 93.0411C194.256 96.2961 190.727 102.565 190.613 111.244C190.5 112.69 190.272 115.704 190.044 117.15C181.164 116.789 167.504 113.293 154.07 113.534C154.184 111.968 154.298 111.003 154.412 109.436H154.753C154.07 105.458 153.842 103.408 153.159 100.394C148.833 97.5016 144.279 94.1265 140.409 87.7372C136.652 81.3479 147.353 60.6146 147.353 60.6146ZM191.296 125.71C191.296 125.71 198.355 152.471 190.044 163.682C190.044 163.682 191.296 168.865 188.45 174.411C187.995 176.821 187.425 178.991 187.084 181.402C185.604 191.407 183.099 195.626 182.416 211.659L175.585 211.539C175.585 211.539 174.788 199.966 172.398 193.818C171.033 190.323 165.681 185.621 165.91 180.92C166.137 177.304 166.82 174.29 172.627 169.468C173.081 162.477 166.479 155.846 167.504 129.808L191.296 125.71Z" fill="#010101"/>
<path id="Vector_18" d="M189.247 124.624C191.069 136.92 195.281 155.123 187.653 164.043C188.103 166.304 188.142 168.636 187.767 170.914C187.539 172.36 187.084 173.927 186.515 175.614C185.376 178.508 184.921 182.727 184.579 185.258C183.099 195.264 183.099 195.746 182.416 211.779L175.585 211.658C175.585 211.658 174.788 200.086 172.398 193.938C171.033 190.443 168.186 187.429 167.959 182.728C167.731 179.112 170.122 171.879 175.814 172.12C175.472 157.534 169.097 160.427 167.39 130.049L189.247 124.624ZM147.353 60.6146C147.353 60.6146 149.858 61.4585 152.59 61.6994C155.322 61.9402 158.282 61.6994 160.9 61.5786C166.365 61.0969 174.106 60.4938 179.229 63.6281C179.229 63.6281 182.075 62.6635 185.149 62.9043C186.515 63.0251 187.881 64.2306 189.475 64.7129C194.484 66.0386 199.265 74.8384 197.102 82.7949C196.874 83.3979 195.28 82.7949 193.459 83.3979C193.8 85.0858 194.028 88.9433 192.206 93.0417C190.271 97.1406 187.767 102.445 188.222 112.571C176.268 111.968 170.918 111.124 159.078 110.521C158.054 106.061 157.37 101.601 157.257 99.3103C158.851 98.4663 159.76 97.7437 161.014 96.2967C157.599 96.8998 156.232 96.6583 154.183 95.4528C152.134 94.2472 148.491 90.3897 146.669 87.8585C146.442 87.617 145.19 91.5947 142.344 91.716C141.319 90.1489 145.645 85.6883 144.848 84.001C142.002 77.8526 147.353 60.6146 147.353 60.6146Z" fill="#F0EFEF"/>
<path id="Vector_19" d="M190.157 114.619C190.157 114.619 190.385 118.959 190.385 120.044C190.385 121.249 191.296 124.865 191.409 126.553C190.157 128.843 184.693 134.027 174.788 135.956C164.998 138.125 152.02 121.852 152.02 121.852C152.362 120.285 153.5 115.704 154.297 113.293C154.411 113.052 154.639 112.449 154.639 112.208C155.664 110.641 190.157 114.619 190.157 114.619Z" fill="#010101"/>
<path id="Vector_20" d="M187.653 114.981C187.653 117.995 188.108 120.165 188.45 122.094C189.019 125.589 189.93 127.88 189.93 130.17C189.93 137.161 181.278 135.956 173.991 136.197C164.201 138.368 155.891 122.094 155.891 122.094C156.574 119.321 157.029 116.187 158.054 113.535C158.167 112.088 158.395 110.28 158.509 109.436C172.397 109.436 182.188 110.28 187.88 110.882C188.108 112.208 187.881 114.499 187.653 114.981Z" fill="#F0EFEF"/>
<path id="Vector_21" d="M176.724 130.531C176.724 130.531 170.69 116.307 152.589 120.526C148.264 133.425 142.457 148.252 146.214 164.285C142.457 169.709 138.131 172.723 138.131 182.728C138.131 192.733 138.587 194.421 138.587 194.421L151.906 195.145C151.906 195.145 156.232 189.239 157.94 182.849C158.395 181.041 158.851 177.786 158.509 174.05C158.964 173.326 160.9 171.639 161.128 168.384C161.128 168.384 167.616 164.768 171.373 155.968C174.903 148.011 173.992 141.14 176.724 130.531Z" fill="#010101"/>
<path id="Vector_22" d="M176.724 130.531C176.383 129.206 171.829 116.187 154.98 120.044C145.076 148.011 148.719 159.583 150.199 164.646C143.482 173.686 140.408 175.615 141.775 193.938H150.655C154.753 187.067 155.664 184.536 155.891 175.495C155.891 175.133 154.639 176.218 153.728 177.424C154.412 173.687 156.347 172.964 157.827 170.673C158.51 169.709 159.079 168.262 159.079 166.333C167.048 160.668 170.008 153.555 171.715 146.202C173.082 141.14 174.675 132.822 176.724 130.531Z" fill="#F0EFEF"/>
<g id="Group_3">
<path id="Vector_23" d="M148.605 111.124C148.605 111.124 151.679 111.244 154.412 112.208C157.03 113.172 157.03 113.775 158.055 114.981C159.079 116.187 161.584 117.995 161.129 119.803C160.901 120.767 160.332 121.008 159.535 121.852C159.193 122.214 156.688 125.107 156.119 125.468C155.778 125.709 155.322 126.071 154.981 126.312L153.273 127.518C152.135 128.121 151.338 128.482 150.086 128.362C150.086 128.362 147.24 128.241 145.418 126.192C145.418 126.192 145.19 125.227 145.646 124.746C145.646 124.746 143.255 122.575 142.572 121.129C141.888 119.683 141.888 117.634 142.344 116.549C142.572 115.463 147.011 112.449 148.605 111.124ZM151.452 228.415L151.11 231.429C151.11 231.429 150.086 232.755 142.458 232.635C134.717 232.514 132.668 229.983 131.985 228.657L131.53 225.522C131.53 225.522 133.01 223.232 133.352 223.232C135.856 223.473 144.394 227.089 150.314 228.053C150.882 228.053 150.996 228.294 151.452 228.415ZM167.959 222.267C167.959 223.593 167.845 223.593 167.845 224.919C169.21 226.004 172.627 226.607 179.115 226.486C188.564 226.245 197.33 229.5 208.031 227.571L208.145 225.401L207.12 225.281L169.21 222.026L167.959 222.267Z" fill="#010101"/>
<path id="Vector_24" d="M176.269 226.486H179.115C185.263 226.245 191.069 227.692 197.33 228.053C200.631 227.933 204.73 227.089 204.388 224.558L172.057 221.664C170.122 223.954 171.601 225.883 176.269 226.486ZM139.156 175.736C140.181 176.46 147.125 180.799 158.396 180.196C158.168 182.487 158.282 186.947 153.273 194.782C150.768 198.64 148.605 205.391 148.15 213.95C148.264 215.878 149.288 217.566 147.922 220.098C148.377 221.664 150.199 224.798 151.11 226.727C152.02 228.656 152.476 230.826 146.442 230.947C140.294 231.067 130.39 230.344 131.756 225.281C132.44 222.629 134.375 219.857 134.603 218.771C134.83 217.686 134.83 214.432 136.765 212.262C138.473 206.235 137.904 200.448 137.563 195.024C136.993 189.358 136.879 180.317 139.156 175.736ZM149.744 77.4909C157.827 66.0386 150.996 56.8777 138.018 59.6498C132.781 60.7347 127.545 64.5927 127.203 71.5839C125.496 71.8248 121.625 72.0657 119.69 79.5398C118.21 85.326 117.413 86.4109 114.794 89.3037C113.087 91.3532 114.908 95.5723 116.16 98.5864C120.373 108.953 133.35 109.917 142.116 117.753C145.076 116.909 148.15 113.414 149.061 111.124C141.661 101.841 143.254 98.2248 140.294 93.4032C143.482 92.1971 150.768 87.4963 149.744 77.4909Z" fill="#010101"/>
</g>
<path id="Vector_25" d="M148.15 76.7677C148.605 76.0439 149.402 74.4774 149.744 73.8743C149.858 73.7536 151.11 76.0439 151.224 75.9238C154.297 70.6193 155.094 62.9043 151.565 62.1811C150.768 62.0603 149.288 61.6993 148.036 61.2164C145.759 60.3725 143.71 60.3725 140.067 61.0963C135.058 62.0603 130.049 65.9178 130.049 71.4632C130.049 71.8248 133.577 72.9096 134.602 77.3702C132.894 74.8384 129.934 72.0657 126.405 74.4768C122.648 77.008 124.584 82.7942 119.575 88.8214C117.867 90.8708 118.095 93.2819 119.916 98.1035C122.876 105.698 136.879 109.797 144.506 117.029C146.328 116.185 147.58 114.257 148.491 112.81C143.368 107.145 141.318 101.84 139.839 97.9828C138.017 93.5228 135.968 90.9916 131.983 87.6152C134.033 88.4592 135.627 89.3031 136.537 90.0263C137.561 90.7495 139.041 90.8702 140.408 90.3879C145.304 88.5811 147.922 81.3478 148.15 76.7677Z" fill="#F0EFEF"/>
<path id="Vector_26" d="M197.671 78.6965C197.33 83.2772 194.142 80.9868 192.435 80.1429C189.019 78.5758 185.604 77.491 181.619 77.491C177.635 77.491 172.512 77.8526 168.073 79.0581C161.925 80.8661 160.103 80.746 157.371 79.299C154.639 77.7318 149.858 73.8743 149.858 73.8743C149.858 73.8743 149.744 75.0799 150.883 76.647C152.362 78.5758 155.664 80.9868 160.104 82.5534C162.267 83.2772 163.975 82.7943 165.91 82.3125C176.042 79.6606 186.743 79.1782 195.736 84.9645C196.192 85.2054 197.786 84.4822 198.469 83.3973C199.379 81.8308 197.671 78.6965 197.671 78.6965Z" fill="#010101"/>
<path id="Vector_27" d="M145.873 124.624C146.784 125.227 147.922 125.589 149.174 126.674C149.174 126.674 148.15 126.674 147.695 126.192C147.125 125.83 145.987 124.746 145.873 124.624Z" fill="#0A1825"/>
<path id="Vector_28" d="M178.773 29.0314C178.432 27.9466 175.927 26.0172 170.121 26.0172C163.86 26.0172 162.039 28.0667 161.925 29.1515C161.925 29.5131 161.47 33.3712 161.356 34.9377C161.356 34.9377 161.356 36.8665 161.469 39.7593C161.583 41.6881 162.039 42.7729 162.266 45.3047C162.494 47.9561 163.177 49.6439 164.429 51.8141C164.999 52.1752 165.453 52.5374 166.023 52.6581C168.3 53.1398 172.284 53.2606 174.447 52.6581C175.699 52.2965 177.293 50.0061 177.635 47.9566C178.09 45.4254 178.545 43.6168 178.659 42.0503C178.887 40.4837 179.001 36.9872 179.114 36.0226C179.456 33.3712 178.887 29.2722 178.773 29.0314Z" fill="#F0EFEF"/>
<path id="Vector_29" d="M166.82 178.027C166.82 178.027 172.854 180.799 187.767 178.388C187.767 178.388 183.555 200.81 185.491 212.02C185.491 212.02 187.426 214.914 201.77 220.459C201.77 220.459 208.145 222.146 207.918 225.522C207.918 225.522 208.145 226.245 200.404 226.004C192.663 225.763 185.377 224.316 180.254 224.316C175.131 224.316 169.667 224.557 168.756 222.99C167.732 221.544 168.984 217.807 170.464 215.636C172.058 213.347 171.602 211.658 171.489 207.56C171.146 196.832 163.405 185.742 166.82 178.027Z" fill="#010101"/>
<path id="Vector_30" d="M165.568 180.076C164.771 181.282 165.681 185.862 166.819 190.322C167.958 194.782 170.463 197.435 171.032 204.788C171.601 212.02 171.715 212.985 169.779 217.204C167.844 221.422 167.275 225.28 173.991 225.401C180.708 225.522 184.351 225.28 191.182 226.366C198.013 227.45 200.403 227.812 204.16 227.21C207.917 226.607 208.714 225.28 207.12 224.075C205.526 222.87 198.923 221.544 196.077 219.132C193.345 216.963 185.604 213.346 185.49 212.382C185.149 209.127 185.035 197.314 185.604 193.456C186.173 189.598 186.97 184.053 187.198 182.607C187.426 181.16 188.564 179.713 186.628 180.196C184.693 180.677 177.407 181.763 171.943 181.401C166.479 181.04 165.91 179.714 165.568 180.076Z" fill="#8AC640"/>
<path id="Vector_31" opacity="0.3" d="M169.439 217.325C171.373 218.289 174.22 219.013 176.383 219.013C176.383 219.013 175.585 222.991 176.838 225.401C178.09 227.813 167.731 226.366 167.731 226.366L167.276 217.807L169.439 217.325ZM199.607 227.692C201.428 227.089 202.681 224.919 201.201 222.87C199.607 220.821 198.241 220.459 200.29 220.339C202.339 220.218 209.853 225.04 209.853 225.04L205.982 228.777L199.607 227.692ZM165.226 184.777C167.845 185.742 171.829 185.983 175.244 185.862C178.659 185.742 183.782 185.259 187.084 184.054C190.385 182.848 189.019 185.38 189.019 185.38L187.198 187.188C187.198 187.188 182.872 188.996 175.814 188.876C167.504 188.755 164.999 187.791 164.999 187.791L165.226 184.777ZM165.454 190.805C168.073 191.769 172.056 192.01 175.472 191.89C178.887 191.769 183.441 191.769 186.742 190.443C188.108 189.961 187.312 192.01 187.312 192.01L186.742 193.095C186.742 193.095 182.302 194.783 175.358 194.662C167.048 194.542 165.568 193.818 165.568 193.818L165.454 190.805Z" fill="#010101"/>
<path id="Vector_32" d="M157.94 106.302C157.94 107.146 166.82 111.847 171.715 112.812C176.61 113.776 186.856 112.812 188.45 112.45L188.222 114.138C188.222 114.138 176.041 116.067 166.706 113.415C157.371 110.763 158.396 110.16 158.396 110.16L157.94 106.302Z" fill="#010101"/>
<path id="Vector_33" d="M138.928 209.128C140.294 209.851 145.19 211.177 148.377 210.454C148.832 210.333 148.377 202.136 149.63 198.399C151.451 193.215 154.411 188.996 155.777 179.835C150.995 179.353 145.531 178.027 142.685 177.062C139.042 188.876 140.295 199.002 138.928 209.128ZM146.556 216.722C147.353 216.963 147.922 217.927 148.15 217.326C148.605 216.24 147.353 214.191 147.239 212.745V212.624C146.215 211.66 139.27 211.539 139.726 212.021C138.929 213.588 137.677 213.347 137.222 216.482C136.994 218.048 138.816 216.722 140.523 216.602C137.449 218.771 133.921 221.545 133.351 223.955C132.668 227.33 133.806 228.295 137.222 230.104C140.182 230.827 143.711 230.947 146.443 230.827C149.517 230.224 150.086 228.657 149.175 226.487C147.808 223.232 146.898 219.013 146.556 216.722Z" fill="#F0EFEF"/>
<path id="Vector_34" d="M147.808 60.1322C151.565 62.4226 156.802 61.8201 158.737 61.6993C159.193 61.6993 163.747 60.8554 163.974 60.9755C164.429 61.0963 164.429 61.4579 164.429 61.4579C164.429 61.4579 162.722 62.422 158.851 62.6628C155.208 62.9037 150.882 62.6628 148.492 61.4579C145.645 60.1322 147.808 60.1322 147.808 60.1322ZM186.515 62.4226C187.198 62.9043 191.638 64.7129 193.573 66.8825C195.281 68.8119 194.37 68.6911 194.028 68.2088C193.573 67.6057 190.044 65.0745 188.678 64.472C187.312 63.8696 185.604 62.7842 185.604 62.5433C185.604 62.3024 186.515 62.4226 186.515 62.4226Z" fill="#010101"/>
<path id="Vector_35" d="M147.239 112.449C150.54 112.208 153.956 113.052 156.119 115.463C157.257 116.668 159.079 117.994 158.851 119.2C158.851 119.561 158.168 120.526 157.599 121.249C157.258 121.731 156.233 122.816 155.891 123.178C155.436 123.539 153.842 124.866 153.501 125.107C153.159 125.348 152.704 125.951 152.362 126.071C151.224 126.674 149.972 126.192 148.833 125.589C147.695 124.986 149.061 124.866 147.809 123.902C144.735 121.611 143.027 120.044 144.28 115.584C144.393 114.74 145.645 113.775 147.239 112.449Z" fill="#F0EFEF"/>
<path id="Vector_36" opacity="0.4" d="M118.21 84.8443C107.964 89.1842 81.8935 102.927 74.4941 107.146C80.6415 111.244 83.4875 121.129 84.3985 131.134C84.512 132.099 84.626 132.943 84.74 133.907C84.8535 134.751 84.9675 135.353 85.0809 135.716C85.0809 135.836 85.0809 136.077 85.1949 136.197C91.9119 116.79 115.932 96.2967 116.843 94.7295C117.298 94.0063 116.274 90.872 117.868 87.8591C119.917 84.0004 123.902 82.3125 118.21 84.8443ZM142.572 175.857C147.808 164.767 147.922 154.159 147.808 141.742C147.808 136.558 151.337 129.205 149.516 131.254C142.685 139.33 125.496 154.52 113.087 155.363C130.504 154.761 137.335 164.043 142.572 175.857Z" fill="#010101"/>
<path id="Vector_37" d="M64.4757 117.392C70.9646 112.449 104.548 93.524 112.631 90.8715C120.714 88.0988 118.209 84.8438 118.209 84.8438C118.209 84.8438 85.4224 99.7914 65.8416 112.69" fill="#010101"/>
<path id="Vector_38" opacity="0.4" d="M160.103 82.554C157.485 81.4692 155.436 84.7242 156.119 87.8585C156.802 90.9928 162.95 94.4881 162.608 105.94C162.38 115.343 160.445 119.2 160.445 119.2L156.119 113.415C156.119 113.415 155.436 100.395 153.956 98.4663C152.476 96.5375 147.808 93.0416 145.987 91.2336C144.165 89.425 148.036 87.0145 147.808 83.6388C147.581 80.3843 149.744 73.8749 149.744 73.8749L160.103 82.554ZM175.927 133.906C175.7 142.947 177.635 156.328 178.432 162.717C179.229 169.106 180.253 169.589 178.432 172.482C176.61 175.255 174.22 179.835 174.22 179.835L166.365 179.112C166.365 179.112 172.626 170.673 172.967 169.106C173.308 167.54 169.779 155.606 169.779 155.606L175.927 133.906ZM160.787 49.5244C162.381 53.2605 164.316 54.9484 167.389 56.0338C169.21 56.757 176.382 57.7217 179.229 54.3459C180.481 52.7788 179.684 48.5597 179.684 48.5597L173.195 54.1045L164.429 52.4172L163.405 49.6445L160.787 49.5244Z" fill="#010101"/>
<g id="Vector_39">
<path d="M161.469 57.8419C164.429 59.8913 171.829 61.8201 173.878 62.1817C175.927 62.6634 179.228 59.8913 180.822 59.1681C182.53 58.3242 185.49 57.8419 188.905 61.0969C189.247 61.4585 188.108 63.0256 188.108 63.0256C187.994 62.9049 187.311 62.9049 186.4 62.4226C185.49 61.9408 184.693 61.5786 183.327 61.6994C177.634 62.4226 176.724 64.472 171.715 63.2659C166.706 62.0598 165.454 61.0963 160.559 61.3372" fill="#8AC640"/>
<path d="M161.469 57.8419C164.429 59.8913 171.829 61.8201 173.878 62.1817C175.927 62.6634 179.228 59.8913 180.822 59.1681C182.53 58.3242 185.49 57.8419 188.905 61.0969C189.247 61.4585 188.108 63.0256 188.108 63.0256C187.994 62.9049 187.311 62.9049 186.4 62.4226C185.49 61.9408 184.693 61.5786 183.327 61.6994C177.634 62.4226 176.724 64.472 171.715 63.2659C166.706 62.0598 165.454 61.0963 160.559 61.3372" stroke="#010101" stroke-width="10.8638" stroke-miterlimit="10" stroke-linejoin="round"/>
</g>
<path id="Vector_40" d="M160.445 58.2034C164.202 59.8913 171.487 61.6993 173.536 62.1817C175.585 62.664 178.887 60.4938 180.481 59.409C183.327 57.4802 186.97 59.0474 188.678 61.0969C189.816 62.4225 190.272 63.2665 190.272 63.6281C190.272 64.1098 188.906 63.6281 188.906 63.6281C188.109 63.2665 187.198 63.1463 186.515 62.6634C185.604 62.1817 184.693 61.4585 183.328 61.5786C177.635 62.3024 176.497 64.3513 171.602 63.1457C166.707 61.9402 165.455 60.8554 160.218 61.2164" fill="#8AC640"/>
<path id="Vector_41" d="M142.799 170.793C142.572 170.553 143.027 170.312 142.799 170.312C141.32 170.312 139.27 169.106 138.131 167.418C133.236 159.945 126.064 155.002 113.086 155.364C93.6188 155.846 85.8774 147.408 84.3979 131.255C83.6009 122.455 81.324 113.896 76.6565 109.074L73.924 110.883C79.1604 115.704 80.8684 123.54 82.0069 134.269C83.8284 150.422 96.1233 157.896 110.468 158.137C125.381 158.378 130.731 161.633 136.309 169.589C138.131 172.12 140.18 172.964 141.774 173.326L142.799 170.793Z" fill="#010101"/>
<path id="Vector_42" opacity="0.4" d="M195.622 93.2825C195.964 95.0905 196.874 98.5864 198.696 100.274C199.493 101.118 199.607 101.359 198.924 101.359C198.24 101.359 193.231 101.118 193.231 101.118L191.865 98.5864L195.622 93.2825Z" fill="#010101"/>
</g>
</g>
<defs>
<clipPath id="clip0_9_34">
<rect width="256" height="256" fill="white"/>
</clipPath>
</defs>
</svg>
