<svg width="256" height="256" viewBox="0 0 256 256" fill="none" xmlns="http://www.w3.org/2000/svg">
<g id="Arch-Dark 9" clip-path="url(#clip0_9_245)">
<g id="Clip path group">
<mask id="mask0_9_245" style="mask-type:luminance" maskUnits="userSpaceOnUse" x="0" y="0" width="256" height="256">
<g id="clip0_33_628">
<path id="Vector" d="M256 0H0V256H256V0Z" fill="white"/>
</g>
</mask>
<g mask="url(#mask0_9_245)">
<g id="Group">
<path id="Vector_2" d="M196 0H60C26.8629 0 0 26.8629 0 60V196C0 229.137 26.8629 256 60 256H196C229.137 256 256 229.137 256 196V60C256 26.8629 229.137 0 196 0Z" fill="#F4F2ED"/>
</g>
</g>
</g>
<g id="Frame">
<g id="Group_2">
<path id="Vector_3" opacity="0.993" d="M130.4 48.16C130.823 48.1056 131.196 48.2123 131.52 48.48C143.422 63.006 154.622 78.046 165.12 93.6C172.892 105.302 179.506 117.675 184.96 130.72C193.671 153.953 189.137 174.167 171.36 191.36C155.805 204.506 137.885 209.626 117.6 206.72C93.3526 201.776 76.8725 187.75 68.16 164.64C65.8906 157.117 65.1439 149.437 65.92 141.6C67.2123 128.111 70.4123 115.098 75.52 102.56C77.6483 97.4445 80.4218 92.7514 83.84 88.48C86.6288 91.8016 89.2954 95.2151 91.84 98.72C93.0182 99.9517 94.2448 101.125 95.52 102.24C105.253 82.9235 116.88 64.8969 130.4 48.16Z" fill="#FF5B11"/>
</g>
<g id="Group_3">
<path id="Vector_4" d="M128.16 74.08C139.902 87.6992 150.515 102.206 160 117.6C162.974 122.694 165.427 128.027 167.36 133.6C171.387 149.443 167.067 162.509 154.4 172.8C142.149 181.42 128.709 183.98 114.08 180.48C98.3043 175.585 89.1843 164.971 86.72 148.64C86.1219 143.491 86.6554 138.477 88.32 133.6C90.6938 127.572 93.5738 121.812 96.96 116.32C100.16 111.627 103.36 106.933 106.56 102.24C113.829 92.8928 121.029 83.5062 128.16 74.08Z" fill="#FF9758"/>
</g>
</g>
</g>
<defs>
<clipPath id="clip0_9_245">
<rect width="256" height="256" fill="white"/>
</clipPath>
</defs>
</svg>
