<svg width="256" height="256" viewBox="0 0 256 256" fill="none" xmlns="http://www.w3.org/2000/svg">
<path d="M196 0H60C26.8629 0 0 26.8629 0 60V196C0 229.137 26.8629 256 60 256H196C229.137 256 256 229.137 256 196V60C256 26.8629 229.137 0 196 0Z" fill="#F4F2ED"/>
<path d="M128 204.145C169.96 204.145 203.975 170.054 203.975 128C203.975 85.9465 169.96 51.8555 128 51.8555C86.0402 51.8555 52.0252 85.9465 52.0252 128C52.0252 170.054 86.0402 204.145 128 204.145Z" fill="white"/>
<path d="M128 48C83.8172 48 48 83.8172 48 128C48 172.183 83.8172 208 128 208C172.183 208 208 172.183 208 128C208 83.8172 172.183 48 128 48ZM128 56.1356C167.69 56.1356 199.865 88.3104 199.865 128C199.865 167.69 167.69 199.865 128 199.865C88.3104 199.865 56.1356 167.69 56.1356 128C56.1356 88.3104 88.3104 56.1356 128 56.1356Z" fill="#4000BF"/>
<path fill-rule="evenodd" clip-rule="evenodd" d="M129.006 71.1326C160.407 71.1326 185.862 96.5928 185.862 128C185.862 159.407 160.407 184.868 129.006 184.868C97.6059 184.868 72.1509 159.407 72.1509 128C72.1509 120.324 73.6713 113.004 76.4273 106.323C80.4514 111.804 86.9409 115.363 94.2613 115.363C106.473 115.363 116.372 105.462 116.372 93.2476C116.372 85.9257 112.814 79.4348 107.334 75.4099C114.013 72.6533 121.332 71.1326 129.006 71.1326Z" fill="url(#paint0_linear_23_12)"/>
<defs>
<linearGradient id="paint0_linear_23_12" x1="129.006" y1="184.868" x2="129.006" y2="71.1326" gradientUnits="userSpaceOnUse">
<stop stop-color="#7400E1"/>
<stop offset="1" stop-color="#4000BF"/>
</linearGradient>
</defs>
</svg>
