<svg width="256" height="256" viewBox="0 0 256 256" fill="none" xmlns="http://www.w3.org/2000/svg">
<path d="M196 0H60C26.8629 0 0 26.8629 0 60V196C0 229.137 26.8629 256 60 256H196C229.137 256 256 229.137 256 196V60C256 26.8629 229.137 0 196 0Z" fill="#242938"/>
<path d="M239.968 55.7479C239.355 55.2418 238.578 54.9764 237.782 55.0017C235.611 55.0017 232.804 56.4942 231.3 57.2404C231.038 57.3747 230.836 57.4867 230.693 57.5464C228.168 58.7857 225.413 59.492 222.602 59.621C219.712 59.7105 217.219 59.8822 213.993 60.2105C194.785 62.1806 186.259 76.837 178.018 91.0084C173.526 98.7172 168.9 106.68 162.545 112.859C161.231 114.132 159.833 115.316 158.36 116.403C151.788 121.284 143.532 124.739 137.079 127.202C130.896 129.552 124.144 131.679 117.617 133.724C111.628 135.597 106.006 137.366 100.819 139.291C98.4759 140.157 96.4848 140.821 94.7332 141.403C90.0098 142.97 86.5964 144.104 81.6259 147.492C79.6872 148.821 77.7409 150.253 76.386 151.328C72.4386 154.475 68.9449 158.148 66.0036 162.246C63.4829 166.021 60.5726 169.522 57.3203 172.693C56.2723 173.716 54.4084 174.186 51.6163 174.186C48.3451 174.186 44.3778 173.514 40.1784 172.798C35.8592 172.052 31.3828 171.305 27.5502 171.305C24.4287 171.305 22.0483 171.813 20.2593 172.843C20.2593 172.843 17.2651 174.589 16 176.842L17.2426 177.41C19.1696 178.447 20.9557 179.726 22.5574 181.216C24.2206 182.751 26.0747 184.068 28.0742 185.133C28.713 185.387 29.2917 185.771 29.7734 186.26C29.2494 187.006 28.4784 188.014 27.6775 189.066C23.246 194.842 20.6635 198.491 22.1456 200.476C22.8376 200.838 23.6104 201.017 24.3913 200.999C34.0477 200.999 39.2277 198.499 45.7925 195.335C47.6939 194.417 49.6551 193.469 51.9008 192.499C55.7334 190.842 59.8654 188.193 64.237 185.395C70.0308 181.663 76.0193 177.842 81.8206 175.992C86.5996 174.536 91.5783 173.839 96.5746 173.925C102.735 173.925 109.173 174.745 115.401 175.537C120.049 176.134 124.855 176.745 129.571 177.029C131.405 177.141 133.104 177.193 134.751 177.193C136.959 177.202 139.166 177.085 141.361 176.842L141.885 176.663C145.193 174.634 146.743 170.283 148.247 166.074C149.213 163.373 150.022 160.94 151.279 159.358C151.356 159.279 151.442 159.209 151.534 159.149C151.594 159.116 151.663 159.103 151.731 159.114C151.799 159.125 151.861 159.158 151.908 159.208C151.908 159.208 151.908 159.208 151.908 159.328C151.114 175.783 144.497 186.23 137.775 195.514L133.284 200.312C133.284 200.312 139.564 200.312 143.135 198.939C156.175 195.044 166.026 186.484 173.189 172.82C174.957 169.312 176.536 165.712 177.92 162.037C178.04 161.731 179.178 161.171 179.066 162.783C179.066 163.253 178.998 163.776 178.961 164.276C178.961 164.604 178.916 164.932 178.901 165.261C178.714 167.499 178.152 172.402 178.152 172.402L182.18 170.253C191.911 164.111 199.396 151.791 205.055 132.582C207.421 124.59 209.15 116.642 210.677 109.635C212.504 101.247 214.083 94.0083 215.917 91.2099C218.746 86.8219 223.066 83.8518 227.243 80.9713L228.949 79.7922C234.189 76.1132 239.429 71.867 240.582 63.9567V63.7776C241.48 57.9419 240.769 56.4419 239.968 55.7479Z" fill="white"/>
</svg>
