<svg width="256" height="256" viewBox="0 0 256 256" fill="none" xmlns="http://www.w3.org/2000/svg">
<path d="M196 0H60C26.8629 0 0 26.8629 0 60V196C0 229.137 26.8629 256 60 256H196C229.137 256 256 229.137 256 196V60C256 26.8629 229.137 0 196 0Z" fill="#F4F2ED"/>
<path d="M238.968 55.7481C238.355 55.2413 237.578 54.9758 236.782 55.0017C234.611 55.0017 231.804 56.4944 230.3 57.2407C230.038 57.3825 229.836 57.487 229.693 57.5467C227.168 58.7862 224.413 59.4925 221.602 59.6215C218.712 59.7111 216.219 59.8827 212.993 60.2186C193.77 62.2113 185.244 76.8393 177.003 91.0196C172.511 98.7217 167.885 106.693 161.53 112.872C160.216 114.143 158.818 115.325 157.345 116.41C150.773 121.291 142.517 124.746 136.064 127.209C129.881 129.56 123.129 131.687 116.602 133.732C110.613 135.605 104.991 137.382 99.804 139.3C97.461 140.165 95.4698 140.792 93.7182 141.412C88.9948 142.979 85.5814 144.113 80.611 147.509C78.6722 148.83 76.726 150.263 75.3711 151.345C71.4292 154.491 67.9406 158.162 65.0036 162.257C62.4848 166.034 59.5743 169.536 56.3203 172.705C55.2723 173.728 53.4084 174.198 50.6163 174.198C47.3451 174.198 43.3778 173.526 39.1784 172.817C34.8592 172.071 30.3828 171.325 26.5502 171.325C23.4287 171.325 21.0483 171.825 19.2593 172.862C19.2593 172.862 16.2651 174.609 15 176.862L16.2426 177.422C18.1668 178.456 19.9524 179.727 21.5574 181.206C23.2206 182.742 25.0747 184.059 27.0742 185.124C27.713 185.378 28.2917 185.762 28.7734 186.251C28.2494 186.998 27.4784 188.005 26.6775 189.057C22.246 194.834 19.6635 198.484 21.1456 200.469C21.8362 200.835 22.6096 201.017 23.3913 200.999C33.0477 200.999 38.2277 198.491 44.7925 195.327C46.6939 194.409 48.6551 193.461 50.9008 192.491C54.7334 190.834 58.8654 188.192 63.237 185.386C69.0308 181.654 75.0193 177.84 80.8206 175.982C85.6004 174.53 90.5786 173.832 95.5746 173.914C101.735 173.914 108.173 174.735 114.401 175.534C119.049 176.124 123.855 176.736 128.571 177.027C130.405 177.139 132.104 177.191 133.751 177.191C135.959 177.2 138.166 177.083 140.361 176.84L140.885 176.661C144.193 174.631 145.743 170.28 147.247 166.078C148.213 163.369 149.022 160.936 150.279 159.361C150.358 159.285 150.443 159.215 150.534 159.152C150.594 159.118 150.665 159.107 150.733 159.119C150.801 159.131 150.863 159.167 150.908 159.219C150.908 159.219 150.908 159.257 150.908 159.331C150.114 175.795 143.497 186.236 136.775 195.521L132.284 200.32C132.284 200.32 138.564 200.32 142.135 198.946C155.175 195.058 165.026 186.49 172.189 172.825C173.955 169.318 175.535 165.721 176.92 162.048C177.04 161.742 178.178 161.175 178.066 162.757C178.066 163.227 177.998 163.742 177.961 164.249C177.961 164.57 177.916 164.899 177.901 165.227C177.714 167.466 177.152 172.37 177.152 172.37L181.18 170.22C190.911 164.085 198.396 151.756 204.055 132.553C206.421 124.552 208.15 116.604 209.677 109.596C211.504 101.214 213.083 93.9751 214.917 91.1763C217.746 86.7805 222.066 83.8101 226.243 80.9292L227.949 79.75C233.189 76.0706 238.429 71.824 239.582 63.9129V63.7338C240.48 57.9497 239.769 56.4422 238.968 55.7481Z" fill="#003545"/>
</svg>
