<svg width="256" height="256" viewBox="0 0 256 256" fill="none" xmlns="http://www.w3.org/2000/svg">
<path d="M196 0H60C26.8629 0 0 26.8629 0 60V196C0 229.137 26.8629 256 60 256H196C229.137 256 256 229.137 256 196V60C256 26.8629 229.137 0 196 0Z" fill="#F4F2ED"/>
<g clip-path="url(#clip0_23_12)">
<mask id="mask0_23_12" style="mask-type:luminance" maskUnits="userSpaceOnUse" x="-515" y="88" width="1362" height="80">
<path d="M-514.868 167.577C-514.868 167.577 -514.868 149.799 -514.868 127.788C-514.868 105.778 -514.868 88 -514.868 88H846.026C846.026 88 846.026 105.778 846.026 127.788C846.026 149.799 846.026 167.577 846.026 167.577C437.877 167.577 -106.57 167.577 -514.868 167.577Z" fill="white"/>
</mask>
<g mask="url(#mask0_23_12)">
<path d="M184.667 130.751H208.974C200.474 133.432 197.789 138.794 196.298 154.032C195.254 164.896 190.035 167.718 190.035 167.718C186.158 167.718 182.281 152.056 178.851 135.407C180.193 132.586 181.982 131.175 184.667 130.751Z" fill="#EB7077"/>
<path d="M189.886 167.577H165.579C169.903 167.577 172.886 159.817 174.675 149.94C175.868 143.309 177.061 138.512 178.702 135.266C182.132 151.915 186.009 167.577 189.886 167.577Z" fill="#EB7077"/>
<path d="M178.702 135.266C176.912 138.37 175.719 143.309 174.675 149.94C172.886 159.817 169.903 167.577 165.579 167.577C160.956 166.589 157.228 149.94 152.307 124.543C152.158 123.697 152.009 122.991 151.86 122.145C155.588 103.802 159.465 88 163.342 88H164.684C169.307 88.9877 173.035 105.637 177.956 131.034C178.254 132.586 178.403 133.855 178.702 135.266Z" fill="#F6A2AD"/>
<path d="M140.377 88.1411H163.342C159.465 88.1411 155.439 103.944 151.86 122.286C148.43 105.072 144.404 88.1411 140.377 88.1411Z" fill="#EB7077"/>
<path d="M151.86 122.286C151.561 124.12 151.114 125.954 150.816 127.929C145.298 156.43 142.018 166.871 138.14 167.718C133.816 167.718 129.64 149.235 126.211 131.175C126.211 130.892 126.061 130.61 126.061 130.328C126.211 129.481 126.36 128.776 126.509 127.929C132.026 99.2875 135.307 88.9877 139.035 88.1411H140.377C144.404 88.1411 148.43 105.072 151.86 122.286Z" fill="#EB7077"/>
<path d="M138.14 167.577H113.833C118.009 167.577 122.184 149.94 125.912 130.187C125.912 130.469 126.061 130.751 126.061 131.033C129.64 149.235 133.965 167.577 138.14 167.577Z" fill="#EB7077"/>
<path d="M126.061 130.328C122.184 150.081 118.009 167.718 113.982 167.718C109.211 166.589 105.632 149.94 100.561 124.684C100.412 123.838 100.263 123.132 100.114 122.286C103.842 103.944 107.719 88.1411 111.596 88.1411H112.939C117.561 89.1288 121.14 105.496 126.061 130.328Z" fill="#F6A2AD"/>
<path d="M88.6316 88.1411H111.596C107.719 88.1411 103.842 103.944 100.114 122.286C96.6842 105.072 92.6579 88.1411 88.6316 88.1411Z" fill="#EB7077"/>
<path d="M100.114 122.286C99.8158 124.12 99.3684 125.954 99.0702 127.929C93.5526 156.43 90.2719 166.871 86.3947 167.718C82.0702 167.718 83.7105 167.012 81.0263 155.584C78.3421 144.155 76.2544 137.383 73.4211 133.855C73.8684 131.88 74.1667 129.905 74.614 127.929C80.2807 99.2875 83.5614 88.9877 87.2895 88.1411H88.6316C92.6579 88.1411 96.6842 105.072 100.114 122.286Z" fill="#EB7077"/>
<path d="M86.3947 167.577H62.0877C65.9649 167.577 69.8421 151.915 73.5702 133.714C76.2544 137.242 78.3421 144.014 81.1754 155.443C83.8596 166.871 82.0702 167.577 86.3947 167.577Z" fill="#EB7077"/>
<path d="M73.5702 133.714C69.8421 151.915 65.9649 167.577 62.0877 167.577C61.6404 167.012 58.9562 167.577 56.4211 153.467C54.1842 140.487 50.1579 132.303 43.5965 130.751H67.9035C70.2895 130.892 71.9298 131.739 73.5702 133.714Z" fill="#F6A2AD"/>
</g>
<mask id="mask1_23_12" style="mask-type:luminance" maskUnits="userSpaceOnUse" x="-515" y="87" width="1362" height="81">
<path d="M-514.868 167.436C-514.868 167.436 -514.868 149.658 -514.868 127.647C-514.868 105.637 -514.868 87.8589 -514.868 87.8589H846.026C846.026 87.8589 846.026 105.637 846.026 127.647C846.026 149.658 846.026 167.436 846.026 167.436C437.877 167.436 -106.57 167.436 -514.868 167.436Z" fill="white"/>
</mask>
<g mask="url(#mask1_23_12)">
<path d="M184.667 130.61H208.974C200.474 133.291 197.789 138.653 196.298 153.891C195.254 164.755 190.035 167.577 190.035 167.577C186.158 167.577 182.281 151.915 178.851 135.266C180.193 132.444 181.982 131.034 184.667 130.61Z" fill="#EB7077"/>
<path d="M189.886 167.436H165.579C169.903 167.436 172.886 159.676 174.675 149.799C175.868 143.168 177.061 138.37 178.702 135.125C182.132 151.774 186.009 167.436 189.886 167.436Z" fill="#EB7077"/>
<path d="M178.702 135.125C176.912 138.229 175.719 143.168 174.675 149.799C172.886 159.675 169.903 167.436 165.579 167.436C160.956 166.448 157.228 149.799 152.307 124.402C152.158 123.556 152.009 122.85 151.86 122.004C155.588 103.802 159.465 88 163.342 88H164.684C169.307 88.9877 173.035 105.637 177.956 131.034C178.254 132.303 178.403 133.714 178.702 135.125Z" fill="#F6A2AD"/>
<path d="M140.377 88H163.342C159.465 88 155.439 103.802 151.86 122.145C148.43 104.931 144.404 88 140.377 88Z" fill="#EB7077"/>
<path d="M151.86 122.145C151.561 123.979 151.114 125.813 150.816 127.788C145.298 156.289 142.018 166.73 138.14 167.577C133.816 167.577 129.64 149.093 126.211 131.034C126.211 130.751 126.061 130.469 126.061 130.187C126.211 129.34 126.36 128.635 126.509 127.788C132.026 99.1464 135.307 88.8466 139.035 88H140.377C144.404 88 148.43 104.931 151.86 122.145Z" fill="#EB7077"/>
<path d="M138.14 167.436H113.833C118.009 167.436 122.184 149.799 125.912 130.046C125.912 130.328 126.061 130.61 126.061 130.892C129.64 149.094 133.965 167.436 138.14 167.436Z" fill="#EB7077"/>
<path d="M126.061 130.187C122.184 149.94 118.009 167.577 113.982 167.577C109.36 166.589 105.632 149.94 100.711 124.543C100.561 123.697 100.412 122.991 100.263 122.145C103.842 103.802 107.719 88 111.596 88H112.939C117.561 88.9877 121.14 105.213 126.061 130.187Z" fill="#F6A2AD"/>
<path d="M88.6316 88H111.596C107.719 88 103.842 103.802 100.114 122.145C96.6842 104.931 92.6579 88 88.6316 88Z" fill="#EB7077"/>
<path d="M100.114 122.145C99.8158 123.979 99.3684 125.813 99.0702 127.788C93.5526 156.289 90.2719 166.73 86.3947 167.577C82.0702 167.577 83.7105 166.871 81.0263 155.443C78.3421 144.014 76.2544 137.242 73.4211 133.714C73.8684 131.739 74.1667 129.764 74.614 127.788C80.2807 99.1464 83.5614 88.8466 87.2895 88H88.6316C92.6579 88 96.6842 104.931 100.114 122.145Z" fill="#EB7077"/>
<path d="M86.3947 167.436H62.0877C65.9649 167.436 69.8421 151.774 73.5702 133.573C76.2544 137.101 78.3421 143.873 81.1754 155.302C83.8596 166.73 82.0702 167.436 86.3947 167.436Z" fill="#EB7077"/>
<path d="M73.5702 133.573C69.8421 151.774 65.9649 167.436 62.0877 167.436C61.6404 166.871 58.9562 167.436 56.4211 153.326C54.1842 140.346 50.1579 132.162 43.5965 130.61H67.9035C70.2895 130.61 71.9298 131.598 73.5702 133.573Z" fill="#F6A2AD"/>
</g>
</g>
<defs>
<clipPath id="clip0_23_12">
<rect width="170" height="80" fill="white" transform="translate(43 88)"/>
</clipPath>
</defs>
</svg>
