<svg width="256" height="256" viewBox="0 0 256 256" fill="none" xmlns="http://www.w3.org/2000/svg">
<path d="M196 0H60C26.8629 0 0 26.8629 0 60V196C0 229.137 26.8629 256 60 256H196C229.137 256 256 229.137 256 196V60C256 26.8629 229.137 0 196 0Z" fill="#242938"/>
<path d="M98.005 157.97V183L117.975 182.975V157.995L108.005 168.02L98.005 157.97Z" fill="#B71C1C"/>
<path d="M240.93 115.205C240.045 114.1 236.73 113.435 236.73 113.435L232.75 121.395L233.19 112.55C233.19 112.55 209.085 102.82 189.85 98.175C170.615 93.53 156.95 91.72 149.61 91.545C144.3 91.415 134.125 91.985 134.125 91.985L142.75 100.165C142.75 100.165 131.915 95.74 127.935 94.195C123.955 92.65 117.765 92.645 114.665 92.425C111.57 92.205 108.915 93.53 108.915 93.53C108.915 93.53 106.04 95.74 112.675 110.555C118.115 122.705 131.27 130.38 135.835 132.755C106.25 126.335 102.945 97.73 102.945 97.73C102.945 97.73 84.93 97.545 59.16 106.575C30.04 116.78 12.72 136.43 12.72 136.43C12.72 136.43 35.72 128.69 55.18 133.995C74.64 139.3 82.665 152.935 82.665 152.935L83.2 137.9H97.88L109.135 151.465L117.925 138.08H132.78C132.78 138.08 132.855 138.08 132.96 138.075V167.97C132.96 167.97 143.03 159.645 149.82 156.33C158.885 151.905 179.895 153.235 179.895 153.235C179.895 153.235 179.56 150.885 178.32 148.4C176.56 144.88 181.185 143.725 181.185 143.725C181.185 143.725 222.575 134.66 227.215 133.775C231.86 132.89 235.175 130.9 236.28 129.795C237.385 128.69 240.48 120.95 241.145 120.065C241.815 119.185 241.815 116.31 240.93 115.205ZM114 99.945C115.105 98.175 118.425 97.51 123.51 99.945C129.51 102.815 136.78 112.33 136.78 112.33L130.59 109.455L133.685 114.985L128.155 111.89L133.02 118.965L129.705 118.08L134.13 125.375C114.885 114.32 112.895 101.715 114 99.945ZM197.59 110.78L194.275 113.21C194.275 113.21 181.005 114.98 177.47 114.76C173.93 114.54 171.72 109.23 171.72 109.23L164.425 104.805L197.59 110.78ZM172.6 141.74C170.165 143.73 172.38 148.595 172.38 148.595C169.065 146.165 165.08 141.52 168.62 138.865C172.16 136.21 198.03 132.895 198.03 132.895C198.03 132.895 175.03 139.75 172.6 141.74Z" fill="#B71C1C"/>
</svg>
