<svg width="256" height="256" viewBox="0 0 256 256" fill="none" xmlns="http://www.w3.org/2000/svg">
<path d="M196 0H60C26.8629 0 0 26.8629 0 60V196C0 229.137 26.8629 256 60 256H196C229.137 256 256 229.137 256 196V60C256 26.8629 229.137 0 196 0Z" fill="#242938"/>
<path d="M105.476 96L69.12 159.943H36L64.3874 110.014C68.7878 102.274 79.7693 96 88.9155 96H105.476ZM186.695 111.986C186.695 103.157 194.109 96 203.255 96C212.401 96 219.815 103.157 219.815 111.986C219.815 120.814 212.401 127.972 203.255 127.972C194.109 127.972 186.695 120.814 186.695 111.986ZM111.685 96H144.805L108.451 159.943H75.3306L111.685 96ZM150.803 96H183.923L155.535 145.929C151.135 153.67 140.154 159.943 131.007 159.943H114.447L150.803 96Z" fill="white"/>
</svg>
