<svg width="256" height="256" viewBox="0 0 256 256" fill="none" xmlns="http://www.w3.org/2000/svg">
<path d="M196 0H60C26.8629 0 0 26.8629 0 60V196C0 229.137 26.8629 256 60 256H196C229.137 256 256 229.137 256 196V60C256 26.8629 229.137 0 196 0Z" fill="#242938"/>
<g clip-path="url(#clip0_23_11)">
<path d="M159.96 108.016H194.273V114.27H180.661V147.167H173.855V114.27H159.96V108.016Z" fill="white"/>
<path d="M103.526 108.016V114.27H76.0211V124.329H98.1405V130.583H76.0211V140.914H103.526V147.167H69.215V114.27H69.2122V108.016H103.526Z" fill="white"/>
<path d="M120.66 108.033H111.753L143.656 147.184H152.589L136.635 127.622L152.563 108.063L143.656 108.076L132.176 122.153L120.66 108.033Z" fill="white"/>
<path d="M129.8 135.998L125.34 130.523L111.728 147.214H120.66L129.8 135.998Z" fill="white"/>
<path fill-rule="evenodd" clip-rule="evenodd" d="M69.4535 147.167L37.5076 108H29V147.151H35.806V116.369L60.9034 147.167H69.4535Z" fill="white"/>
<path d="M195.803 146.928C195.305 146.928 194.881 146.758 194.526 146.417C194.171 146.076 193.995 145.663 194 145.174C193.995 144.698 194.171 144.29 194.526 143.949C194.881 143.608 195.305 143.438 195.803 143.438C196.283 143.438 196.702 143.608 197.057 143.949C197.417 144.29 197.597 144.698 197.602 145.174C197.597 145.497 197.514 145.793 197.348 146.058C197.178 146.327 196.961 146.538 196.688 146.691C196.421 146.848 196.126 146.928 195.803 146.928Z" fill="white"/>
<path d="M207.42 130.435H210.436V141.908C210.432 142.962 210.2 143.864 209.749 144.622C209.292 145.38 208.66 145.959 207.849 146.367C207.042 146.771 206.097 146.978 205.022 146.978C204.04 146.978 203.159 146.803 202.375 146.462C201.591 146.121 200.968 145.609 200.512 144.936C200.05 144.263 199.824 143.424 199.824 142.419H202.846C202.85 142.859 202.952 143.24 203.145 143.559C203.339 143.877 203.606 144.12 203.947 144.29C204.293 144.461 204.69 144.546 205.137 144.546C205.621 144.546 206.037 144.447 206.373 144.245C206.71 144.048 206.968 143.752 207.148 143.357C207.323 142.967 207.415 142.482 207.42 141.908V130.435Z" fill="white"/>
<path d="M222.846 134.922C222.772 134.226 222.449 133.683 221.887 133.298C221.319 132.907 220.586 132.714 219.686 132.714C219.055 132.714 218.511 132.809 218.059 132.993C217.607 133.181 217.256 133.432 217.016 133.751C216.777 134.069 216.657 134.433 216.648 134.841C216.648 135.182 216.73 135.478 216.892 135.725C217.053 135.976 217.27 136.187 217.551 136.358C217.828 136.533 218.137 136.676 218.474 136.793C218.815 136.909 219.156 137.008 219.497 137.089L221.07 137.47C221.702 137.614 222.316 137.807 222.901 138.054C223.487 138.296 224.017 138.605 224.482 138.978C224.948 139.35 225.317 139.799 225.589 140.324C225.861 140.849 226 141.463 226 142.172C226 143.128 225.751 143.967 225.248 144.694C224.746 145.416 224.022 145.982 223.072 146.39C222.126 146.794 220.983 147 219.636 147C218.336 147 217.201 146.803 216.247 146.408C215.288 146.017 214.54 145.443 214.001 144.689C213.461 143.936 213.17 143.016 213.129 141.935H216.117C216.159 142.5 216.343 142.971 216.657 143.352C216.975 143.729 217.39 144.007 217.898 144.196C218.41 144.38 218.981 144.474 219.613 144.474C220.273 144.474 220.854 144.375 221.356 144.182C221.854 143.989 222.246 143.72 222.527 143.37C222.813 143.025 222.956 142.617 222.961 142.15C222.956 141.724 222.827 141.369 222.578 141.091C222.325 140.813 221.974 140.58 221.527 140.391C221.075 140.203 220.549 140.032 219.949 139.884L218.04 139.408C216.661 139.063 215.568 138.538 214.77 137.834C213.968 137.129 213.572 136.196 213.572 135.025C213.572 134.065 213.839 133.221 214.379 132.499C214.913 131.777 215.647 131.216 216.574 130.816C217.506 130.413 218.557 130.215 219.728 130.215C220.918 130.215 221.96 130.413 222.859 130.816C223.758 131.216 224.464 131.772 224.976 132.481C225.488 133.19 225.756 134.002 225.77 134.922H222.846Z" fill="white"/>
</g>
<defs>
<clipPath id="clip0_23_11">
<rect width="197" height="39" fill="white" transform="translate(29 108)"/>
</clipPath>
</defs>
</svg>
