<svg width="256" height="256" viewBox="0 0 256 256" fill="none" xmlns="http://www.w3.org/2000/svg">
<g id="Arch-Dark 6" clip-path="url(#clip0_9_152)">
<g id="Clip path group">
<mask id="mask0_9_152" style="mask-type:luminance" maskUnits="userSpaceOnUse" x="0" y="0" width="256" height="256">
<g id="clip0_33_628">
<path id="Vector" d="M256 0H0V256H256V0Z" fill="white"/>
</g>
</mask>
<g mask="url(#mask0_9_152)">
<g id="Group">
<path id="Vector_2" d="M196 0H60C26.8629 0 0 26.8629 0 60V196C0 229.137 26.8629 256 60 256H196C229.137 256 256 229.137 256 196V60C256 26.8629 229.137 0 196 0Z" fill="#242938"/>
</g>
</g>
</g>
<g id="square">
<path id="Vector_3" fill-rule="evenodd" clip-rule="evenodd" d="M128 52C137.389 52 145 44.389 145 35C145 25.611 137.389 18 128 18C118.611 18 111 25.611 111 35C111 44.389 118.611 52 128 52ZM128 45C133.523 45 138 40.523 138 35C138 29.477 133.523 25 128 25C122.477 25 118 29.477 118 35C118 40.523 122.477 45 128 45Z" fill="#FF915C"/>
<g id="Mask group">
<mask id="mask1_9_152" style="mask-type:luminance" maskUnits="userSpaceOnUse" x="107" y="14" width="42" height="42">
<g id="Group_2">
<path id="Vector_4" d="M107 14H149V56H107V14Z" fill="white"/>
<path id="Vector_5" fill-rule="evenodd" clip-rule="evenodd" d="M128 52C137.389 52 145 44.389 145 35C145 25.611 137.389 18 128 18C118.611 18 111 25.611 111 35C111 44.389 118.611 52 128 52ZM128 45C133.523 45 138 40.523 138 35C138 29.477 133.523 25 128 25C122.477 25 118 29.477 118 35C118 40.523 122.477 45 128 45Z" fill="black"/>
</g>
</mask>
<g mask="url(#mask1_9_152)">
<path id="Vector_6" d="M141 35C141 42.18 135.18 48 128 48V56C139.598 56 149 46.598 149 35H141ZM128 22C135.18 22 141 27.82 141 35H149C149 23.402 139.598 14 128 14V22ZM115 35C115 27.82 120.82 22 128 22V14C116.402 14 107 23.402 107 35H115ZM128 48C120.82 48 115 42.18 115 35H107C107 46.598 116.402 56 128 56V48ZM134 35C134 36.5913 133.368 38.1174 132.243 39.2426C131.117 40.3679 129.591 41 128 41V49C135.732 49 142 42.732 142 35H134ZM128 29C129.591 29 131.117 29.6321 132.243 30.7574C133.368 31.8826 134 33.4087 134 35H142C142 27.268 135.732 21 128 21V29ZM122 35C122 33.4087 122.632 31.8826 123.757 30.7574C124.883 29.6321 126.409 29 128 29V21C120.268 21 114 27.268 114 35H122ZM128 41C126.409 41 124.883 40.3679 123.757 39.2426C122.632 38.1174 122 36.5913 122 35H114C114 42.732 120.268 49 128 49V41Z" fill="#2B3C5A"/>
</g>
</g>
<g id="Clip path group_2">
<mask id="mask2_9_152" style="mask-type:luminance" maskUnits="userSpaceOnUse" x="28" y="28" width="200" height="200">
<g id="b">
<path id="Vector_7" d="M188 28H68C45.9086 28 28 45.9086 28 68V188C28 210.091 45.9086 228 68 228H188C210.091 228 228 210.091 228 188V68C228 45.9086 210.091 28 188 28Z" fill="white"/>
</g>
</mask>
<g mask="url(#mask2_9_152)">
<g id="Group_3">
<path id="Vector_8" d="M188 28H68C45.9086 28 28 45.9086 28 68V188C28 210.091 45.9086 228 68 228H188C210.091 228 228 210.091 228 188V68C228 45.9086 210.091 28 188 28Z" fill="#91EDE9"/>
<path id="Vector_9" d="M28 28H228V228H28V28Z" fill="#91EDE9"/>
<path id="Vector_10" d="M237 231H21V187.5C21 187.5 40.176 171.698 49.5 171C61.344 170.114 64.277 174.594 76 176.5C88.326 178.504 96.245 165.602 108.5 168C120.993 170.444 137.172 179.859 147.5 179.5C169.343 178.741 168.054 174.627 186 178.5C193.627 180.146 201.768 164.084 214.5 166.5C220.949 167.724 237 169 237 169V231Z" fill="#48ACBA"/>
<path id="Vector_11" fill-rule="evenodd" clip-rule="evenodd" d="M135.017 50.489C140.905 47.817 145 41.887 145 35C145 25.611 137.389 18 128 18C118.611 18 111 25.611 111 35C111 41.887 115.095 47.817 120.983 50.489L120.552 63H120.5L96.774 64.79C96.0194 64.847 95.3141 65.1871 94.7997 65.7422C94.2853 66.2972 93.9996 67.0262 94 67.783V74.223C94 74.9788 94.2854 75.7067 94.7989 76.2613C95.3125 76.8158 96.0164 77.1561 96.77 77.214L120 79L118.896 120.769C118.563 133.381 116.508 148.836 104.186 151.543C102.821 151.843 101.419 152 100 152C92.614 152 84.09 142.907 78.63 133.583C80.7943 132.644 83.0098 131.829 85.266 131.14C86.563 130.744 86.824 128.918 85.692 128.17C77.51 122.762 71.02 115.504 67.038 107.108C66.491 105.954 64.838 105.87 64.287 107.022C62.8922 109.933 61.716 112.943 60.768 116.028C58.007 125.03 57.303 134.419 58.695 143.659L58.788 144.256C58.981 145.459 60.471 145.885 61.347 145.038C62.9981 143.442 64.7468 141.951 66.583 140.572C76.627 172.191 110.218 188 128 188C145.786 188 179.39 172.183 189.424 140.548C191.259 141.931 193.006 143.426 194.655 145.026C195.531 145.876 197.025 145.45 197.217 144.245C197.249 144.05 197.279 143.854 197.308 143.659C198.694 134.419 197.993 125.03 195.244 116.028C194.303 112.949 193.134 109.944 191.749 107.038C191.199 105.882 189.542 105.966 188.996 107.123C185.03 115.514 178.571 122.767 170.43 128.172C169.301 128.921 169.562 130.743 170.857 131.14C173.078 131.821 175.259 132.626 177.39 133.551C171.929 142.886 163.395 152 156 152C154.582 152 153.18 151.843 151.816 151.544C139.492 148.837 137.437 133.381 137.104 120.769L136 79L159.23 77.213C159.984 77.1551 160.688 76.8148 161.201 76.2603C161.715 75.7057 162 74.9778 162 74.222V67.782C162 67.0256 161.714 66.2971 161.2 65.7424C160.685 65.1878 159.98 64.848 159.226 64.791L135.5 63H135.448L135.017 50.489ZM138 35C138 40.523 133.523 45 128 45C122.477 45 118 40.523 118 35C118 29.477 122.477 25 128 25C133.523 25 138 29.477 138 35Z" fill="#FF915C"/>
<g id="Mask group_2">
<mask id="mask3_9_152" style="mask-type:luminance" maskUnits="userSpaceOnUse" x="54" y="14" width="148" height="178">
<g id="Group_4">
<path id="Vector_12" d="M54 14H202V192H54V14Z" fill="white"/>
<path id="Vector_13" fill-rule="evenodd" clip-rule="evenodd" d="M135.017 50.489C140.905 47.817 145 41.887 145 35C145 25.611 137.389 18 128 18C118.611 18 111 25.611 111 35C111 41.887 115.095 47.817 120.983 50.489L120.552 63H120.5L96.774 64.79C96.0194 64.847 95.3141 65.1871 94.7997 65.7422C94.2853 66.2972 93.9996 67.0262 94 67.783V74.223C94 74.9788 94.2854 75.7067 94.7989 76.2613C95.3125 76.8158 96.0164 77.1561 96.77 77.214L120 79L118.896 120.769C118.563 133.381 116.508 148.836 104.186 151.543C102.821 151.843 101.419 152 100 152C92.614 152 84.09 142.907 78.63 133.583C80.7943 132.644 83.0098 131.829 85.266 131.14C86.563 130.744 86.824 128.918 85.692 128.17C77.51 122.762 71.02 115.504 67.038 107.108C66.491 105.954 64.838 105.87 64.287 107.022C62.8922 109.933 61.716 112.943 60.768 116.028C58.007 125.03 57.303 134.419 58.695 143.659L58.788 144.256C58.981 145.459 60.471 145.885 61.347 145.038C62.9981 143.442 64.7468 141.951 66.583 140.572C76.627 172.191 110.218 188 128 188C145.786 188 179.39 172.183 189.424 140.548C191.259 141.931 193.006 143.426 194.655 145.026C195.531 145.876 197.025 145.45 197.217 144.245C197.249 144.05 197.279 143.854 197.308 143.659C198.694 134.419 197.993 125.03 195.244 116.028C194.303 112.949 193.134 109.944 191.749 107.038C191.199 105.882 189.542 105.966 188.996 107.123C185.03 115.514 178.571 122.767 170.43 128.172C169.301 128.921 169.562 130.743 170.857 131.14C173.078 131.821 175.259 132.626 177.39 133.551C171.929 142.886 163.395 152 156 152C154.582 152 153.18 151.843 151.816 151.544C139.492 148.837 137.437 133.381 137.104 120.769L136 79L159.23 77.213C159.984 77.1551 160.688 76.8148 161.201 76.2603C161.715 75.7057 162 74.9778 162 74.222V67.782C162 67.0256 161.714 66.2971 161.2 65.7424C160.685 65.1878 159.98 64.848 159.226 64.791L135.5 63H135.448L135.017 50.489ZM138 35C138 40.523 133.523 45 128 45C122.477 45 118 40.523 118 35C118 29.477 122.477 25 128 25C133.523 25 138 29.477 138 35Z" fill="black"/>
</g>
</mask>
<g mask="url(#mask3_9_152)">
<path id="Vector_14" d="M135.017 50.489L133.364 46.846L130.927 47.952L131.019 50.627L135.017 50.489ZM120.983 50.489L124.981 50.627L125.073 47.952L122.636 46.846L120.983 50.489ZM120.552 63V67H124.416L124.549 63.138L120.552 63ZM120.5 63V59H120.349L120.199 59.011L120.5 63ZM120 79L123.999 79.106L124.099 75.304L120.307 75.012L120 79ZM78.629 133.583L77.036 129.914L72.896 131.711L75.178 135.605L78.629 133.583ZM66.583 140.572L70.395 139.361L68.688 133.984L64.179 137.375L66.583 140.572ZM189.424 140.548L191.833 137.355L187.321 133.951L185.612 139.338L189.424 140.548ZM177.39 133.551L180.842 135.571L183.119 131.679L178.984 129.882L177.39 133.551ZM136 79L135.693 75.012L131.901 75.303L132.001 79.106L136 79ZM135.5 63L135.801 59.011L135.651 59H135.5V63ZM135.448 63L131.451 63.138L131.584 67H135.448V63ZM136.67 54.131C143.934 50.835 149 43.513 149 35H141C141 40.26 137.875 44.8 133.364 46.846L136.67 54.131ZM149 35C149 23.402 139.598 14 128 14V22C135.18 22 141 27.82 141 35H149ZM128 14C116.402 14 107 23.402 107 35H115C115 27.82 120.82 22 128 22V14ZM107 35C107 43.513 112.066 50.835 119.33 54.131L122.636 46.846C118.125 44.8 115 40.26 115 35H107ZM116.986 50.351L116.554 62.862L124.549 63.138L124.981 50.627L116.986 50.351ZM120.552 59H120.5V67H120.552V59ZM120.199 59.011L96.474 60.802L97.075 68.779L120.801 66.989L120.199 59.011ZM96.474 60.802C94.7137 60.9349 93.0677 61.728 91.8674 63.0223C90.667 64.3167 90 66.0167 90 67.782H98C98 68.0342 97.9046 68.2771 97.7331 68.462C97.5615 68.6468 97.3265 68.7601 97.075 68.779L96.474 60.802ZM90 67.782V74.222H98V67.782H90ZM90 74.222C89.9998 75.9857 90.6654 77.6844 91.8637 78.9785C93.0619 80.2726 94.7045 81.0667 96.463 81.202L97.077 73.225C97.3281 73.2444 97.5627 73.3578 97.7338 73.5427C97.9049 73.7275 98 73.9701 98 74.222H90ZM96.463 81.202L119.693 82.988L120.307 75.012L97.077 73.225L96.463 81.201V81.202ZM116.001 78.894L114.897 120.663L122.895 120.875L123.999 79.106L116.001 78.894ZM114.897 120.663C114.733 126.892 114.141 133.366 112.276 138.507C110.446 143.553 107.658 146.685 103.327 147.637L105.044 155.45C113.035 153.695 117.436 147.745 119.797 141.234C122.124 134.818 122.726 127.259 122.895 120.875L114.897 120.663ZM103.327 147.637C102.234 147.878 101.119 147.999 100 148V156C101.714 156 103.404 155.81 105.044 155.45L103.327 147.637ZM100 148C97.837 148 94.81 146.574 91.302 143.345C87.922 140.235 84.662 135.967 82.08 131.561L75.178 135.605C78.058 140.523 81.79 145.464 85.884 149.231C89.85 152.88 94.777 156 100 156V148ZM80.222 137.252C82.2478 136.373 84.3218 135.61 86.434 134.966L84.097 127.315C81.6961 128.047 79.3386 128.915 77.036 129.914L80.222 137.252ZM86.434 134.966C90.985 133.576 91.837 127.436 87.898 124.833L83.487 131.507C83.1137 131.263 82.8167 130.92 82.6299 130.515C82.4431 130.11 82.3742 129.661 82.431 129.219C82.5009 128.777 82.6945 128.363 82.9892 128.027C83.284 127.69 83.668 127.443 84.097 127.315L86.434 134.966ZM87.898 124.833C80.272 119.793 74.295 113.075 70.652 105.394L63.424 108.822C67.744 117.932 74.749 125.732 83.487 131.507L87.897 124.832L87.898 124.833ZM70.652 105.394C68.859 101.612 62.878 100.7 60.678 105.295L67.895 108.749C67.6794 109.195 67.3396 109.568 66.9164 109.825C66.4933 110.082 66.0048 110.211 65.51 110.197C65.0701 110.179 64.6433 110.042 64.2757 109.8C63.9082 109.557 63.6137 109.219 63.424 108.822L70.652 105.394ZM60.678 105.295C59.1979 108.385 57.9498 111.58 56.944 114.855L64.592 117.201C65.4818 114.306 66.5859 111.481 67.895 108.749L60.678 105.295ZM56.944 114.855C54.009 124.425 53.257 134.418 54.74 144.255L62.65 143.063C61.348 134.42 62.005 125.635 64.592 117.201L56.944 114.855ZM54.74 144.255L54.838 144.891L62.737 143.622C62.707 143.436 62.678 143.249 62.65 143.063L54.74 144.255ZM54.838 144.891C55.601 149.644 61.192 150.752 64.127 147.913L58.566 142.163C58.8771 141.864 59.2621 141.652 59.6816 141.55C60.1012 141.448 60.5402 141.46 60.954 141.583C61.4116 141.723 61.8209 141.988 62.1359 142.349C62.4509 142.709 62.6591 143.15 62.737 143.622L54.838 144.891ZM64.127 147.913C65.6598 146.432 67.2839 145.048 68.988 143.768L64.179 137.375C62.2106 138.853 60.336 140.452 58.566 142.163L64.127 147.913ZM62.771 141.783C68.131 158.658 79.734 171.193 92.174 179.473C104.537 187.702 118.14 192 128 192V184C120.079 184 107.994 180.393 96.606 172.813C85.294 165.283 75.078 154.104 70.395 139.361L62.771 141.783ZM128 192C137.863 192 151.469 187.7 163.836 179.467C176.278 171.182 187.881 158.641 193.237 141.757L185.612 139.338C180.933 154.089 170.717 165.274 159.402 172.807C148.012 180.391 135.923 184 128 184V192ZM187.015 143.741C188.717 145.024 190.338 146.411 191.869 147.895L197.442 142.156C195.674 140.441 193.801 138.837 191.833 137.355L187.015 143.741ZM191.869 147.895C194.803 150.743 200.407 149.639 201.167 144.876L193.267 143.614C193.345 143.141 193.553 142.699 193.868 142.339C194.184 141.978 194.594 141.712 195.052 141.572C195.466 141.449 195.906 141.438 196.326 141.541C196.746 141.644 197.131 141.856 197.442 142.156L191.869 147.895ZM201.167 144.876C201.2 144.668 201.233 144.46 201.264 144.252L193.352 143.066C193.325 143.248 193.297 143.431 193.267 143.614L201.167 144.876ZM201.264 144.252C202.739 134.419 201.991 124.428 199.07 114.86L191.419 117.196C193.995 125.633 194.649 134.42 193.352 143.066L201.264 144.252ZM199.07 114.86C198.071 111.592 196.831 108.403 195.361 105.319L188.138 108.757C189.438 111.485 190.535 114.306 191.419 117.196L199.07 114.86ZM195.361 105.319C193.166 100.709 187.17 101.624 185.379 105.414L192.612 108.832C192.423 109.23 192.128 109.569 191.76 109.812C191.392 110.055 190.965 110.193 190.524 110.21C190.028 110.224 189.539 110.094 189.116 109.836C188.693 109.579 188.353 109.204 188.138 108.757L195.361 105.319ZM185.379 105.414C181.751 113.092 175.803 119.804 168.217 124.839L172.642 131.504C181.34 125.731 188.31 117.935 192.612 108.832L185.379 105.414ZM168.217 124.839C164.29 127.446 165.143 133.571 169.684 134.964L172.03 127.316C172.458 127.444 172.842 127.691 173.136 128.028C173.43 128.364 173.624 128.777 173.694 129.219C173.751 129.66 173.682 130.109 173.496 130.513C173.31 130.917 173.014 131.26 172.642 131.504L168.217 124.839ZM169.684 134.964C171.762 135.601 173.802 136.354 175.796 137.219L178.984 129.882C176.716 128.897 174.394 128.04 172.03 127.316L169.684 134.964ZM173.937 131.531C171.357 135.942 168.094 140.218 164.71 143.334C161.197 146.57 158.166 148 156 148V156C161.229 156 166.162 152.873 170.13 149.218C174.228 145.444 177.962 140.495 180.842 135.571L173.937 131.531ZM156 148C154.877 148 153.762 147.876 152.674 147.637L150.958 155.451C152.597 155.811 154.286 156 156 156V148ZM152.674 147.637C148.343 146.686 145.554 143.554 143.724 138.507C141.859 133.366 141.267 126.891 141.103 120.663L133.105 120.874C133.274 127.259 133.876 134.818 136.203 141.235C138.565 147.746 142.966 153.695 150.958 155.451L152.674 147.637ZM141.103 120.663L139.999 78.894L132.001 79.106L133.105 120.874L141.103 120.663ZM136.307 82.988L159.537 81.201L158.923 73.225L135.693 75.012L136.307 82.988ZM159.537 81.201C161.295 81.0657 162.938 80.2716 164.136 78.9775C165.335 77.6834 166 75.9847 166 74.221H158C158 73.9693 158.095 73.7269 158.267 73.5423C158.438 73.3577 158.672 73.2444 158.923 73.225L159.537 81.201ZM166 74.221V67.782H158V74.221H166ZM166 67.782C166 66.0167 165.333 64.3167 164.133 63.0223C162.932 61.728 161.287 60.9349 159.527 60.802L158.925 68.779C158.674 68.7601 158.438 68.6468 158.267 68.462C158.095 68.2771 158 68.0342 158 67.782H166ZM159.527 60.802L135.801 59.011L135.199 66.989L158.925 68.779L159.527 60.802ZM135.5 59H135.448V67H135.5V59ZM139.446 62.862L139.014 50.351L131.019 50.627L131.451 63.138L139.446 62.862ZM128 49C135.732 49 142 42.732 142 35H134C134 36.5913 133.368 38.1174 132.243 39.2426C131.117 40.3679 129.591 41 128 41V49ZM114 35C114 42.732 120.268 49 128 49V41C126.409 41 124.883 40.3679 123.757 39.2426C122.632 38.1174 122 36.5913 122 35H114ZM128 21C120.268 21 114 27.268 114 35H122C122 33.4087 122.632 31.8826 123.757 30.7574C124.883 29.6321 126.409 29 128 29V21ZM142 35C142 27.268 135.732 21 128 21V29C129.591 29 131.117 29.6321 132.243 30.7574C133.368 31.8826 134 33.4087 134 35H142Z" fill="#2B3C5A"/>
</g>
</g>
<path id="Vector_15" d="M94 75.148C94 75.6519 94.1903 76.1373 94.5327 76.507C94.8752 76.8767 95.3446 77.1034 95.847 77.142L120 79L126.634 72.366C126.746 72.2542 126.822 72.1117 126.853 71.9565C126.884 71.8013 126.868 71.6404 126.808 71.4942C126.747 71.348 126.645 71.223 126.513 71.135C126.382 71.0471 126.227 71.0001 126.069 71H94V75.148Z" fill="#8A380F"/>
<path id="Vector_16" fill-rule="evenodd" clip-rule="evenodd" d="M190.124 106.814C190.514 106.229 191.388 106.282 191.691 106.915C193.102 109.86 194.289 112.906 195.244 116.028C197.993 125.03 198.694 134.419 197.308 143.659C197.279 143.854 197.249 144.05 197.217 144.245C197.025 145.45 195.531 145.876 194.655 145.026C191.315 141.795 187.59 138.987 183.564 136.665C183.233 136.473 182.985 136.166 182.866 135.802C182.748 135.439 182.767 135.044 182.922 134.694C186.29 127.111 188.771 118.022 189.975 107.224C189.992 107.078 190.043 106.937 190.124 106.814Z" fill="#8A380F"/>
<path id="Vector_17" d="M135 50L135.5 63L129.682 68.43C129.043 69.026 128 68.573 128 67.699V50H135ZM192 128C188 168 148 188 128 188V72.5C128 72.1022 128.158 71.7206 128.439 71.4393C128.721 71.158 129.102 71 129.5 71H162V74.285C162 75.0289 161.724 75.7462 161.225 76.2978C160.725 76.8494 160.039 77.1959 159.299 77.27L136 79L137.104 120.769C137.437 133.381 139.473 148.871 151.802 151.554C153.147 151.847 154.531 152 155.933 152C154.548 152.066 153.172 152.554 152.281 153.616C147.414 159.414 141.886 165.261 133.707 167.901C155.207 168.901 184.817 154.274 190 107L192 128Z" fill="#8A380F"/>
<path id="Vector_18" fill-rule="evenodd" clip-rule="evenodd" d="M129.998 47.898C128.899 48.01 128 48.895 128 50C128 51.105 128.898 52.012 129.995 51.883C133.788 51.4342 137.32 49.7216 140.021 47.021C143.189 43.8523 144.979 39.5609 145 35.08C145 35.0694 144.998 35.0588 144.994 35.0489C144.99 35.039 144.984 35.03 144.977 35.0225C144.969 35.0149 144.96 35.0089 144.95 35.0049C144.94 35.0009 144.93 34.9989 144.919 34.999C144.9 34.9991 144.881 35.0061 144.867 35.0188C144.852 35.0315 144.843 35.0489 144.84 35.068C143.787 41.798 137.674 47.105 129.998 47.898Z" fill="#8A380F"/>
<path id="Vector_19" d="M230 231H18V191C18 191 37.676 180.198 47 179.5C58.844 178.614 61.277 187.43 73 189.336C85.326 191.34 89.745 179.102 102 181.5C114.493 183.944 124.672 195.859 135 195.5C156.843 194.741 158.054 184.127 176 188C183.627 189.646 185.5 193.5 203.5 189.336C221.5 185.172 230 191 230 191V231Z" fill="#2B3C5A"/>
</g>
</g>
</g>
</g>
</g>
<defs>
<clipPath id="clip0_9_152">
<rect width="256" height="256" fill="white"/>
</clipPath>
</defs>
</svg>
