<svg width="256" height="256" viewBox="0 0 256 256" fill="none" xmlns="http://www.w3.org/2000/svg">
<g id="Arch-Dark 9" clip-path="url(#clip0_9_245)">
<g id="Clip path group">
<mask id="mask0_9_245" style="mask-type:luminance" maskUnits="userSpaceOnUse" x="0" y="0" width="256" height="256">
<g id="clip0_33_628">
<path id="Vector" d="M256 0H0V256H256V0Z" fill="white"/>
</g>
</mask>
<g mask="url(#mask0_9_245)">
<g id="Group">
<path id="Vector_2" d="M196 0H60C26.8629 0 0 26.8629 0 60V196C0 229.137 26.8629 256 60 256H196C229.137 256 256 229.137 256 196V60C256 26.8629 229.137 0 196 0Z" fill="#F4F2ED"/>
</g>
</g>
</g>
<path id="Vector_3" d="M154.086 71.1123C143.089 67.8995 131.871 67.4628 120.44 68.5026C114.043 69.1786 107.893 70.4701 101.961 72.7363C89.1392 77.6346 79.5123 86.1178 73.7718 98.8913C69.6563 108.049 68.1689 117.776 68.0139 127.757C67.8501 138.304 69.1497 148.706 71.2149 159.019C73.0868 168.367 75.5797 177.531 79.1399 186.378C79.4782 187.218 79.8995 187.502 80.8023 187.5C92.0622 187.475 103.323 187.475 114.583 187.475C117.916 187.475 121.25 187.475 124.583 187.475C124.839 187.475 125.094 187.461 125.387 187.444C125.537 187.436 125.697 187.427 125.872 187.419C125.804 187.255 125.744 187.105 125.687 186.964C125.576 186.687 125.479 186.446 125.37 186.209C124.556 184.438 123.725 182.674 122.893 180.91C121.091 177.083 119.288 173.257 117.658 169.355C112.713 157.524 108.926 145.342 107.77 132.447C107.261 126.758 107.331 121.1 108.884 115.556C110.658 109.219 114.465 104.745 120.777 102.875C126.573 101.158 132.45 101.169 138.215 103.065C143.36 104.757 146.714 108.331 148.141 113.683C149.237 117.793 149.236 121.947 148.408 126.091C147.769 129.281 146.484 132.192 144.171 134.521C140.021 138.698 134.84 139.659 129.279 139.338C128.29 139.281 127.304 139.172 126.287 139.057C125.811 139.005 125.329 138.951 124.836 138.901C124.85 139.061 124.858 139.208 124.866 139.346C124.88 139.618 124.892 139.854 124.947 140.079C125.184 141.047 125.41 142.02 125.636 142.992C126.18 145.334 126.724 147.676 127.423 149.969C128.797 154.472 130.394 158.866 132.204 163.157C145.111 162.132 156.998 158.869 169.615 151.167C169.804 151.045 169.977 150.935 170.149 150.826C175.569 147.395 179.955 142.944 182.98 137.196C187.879 127.887 188.833 117.933 187.378 107.659C185.876 97.0553 181.197 88.155 173.143 81.1737C167.557 76.3315 161.097 73.1604 154.086 71.1123Z" fill="black"/>
</g>
<defs>
<clipPath id="clip0_9_245">
<rect width="256" height="256" fill="white"/>
</clipPath>
</defs>
</svg>
