<svg width="256" height="256" viewBox="0 0 256 256" fill="none" xmlns="http://www.w3.org/2000/svg">
<path d="M196 0H60C26.8629 0 0 26.8629 0 60V196C0 229.137 26.8629 256 60 256H196C229.137 256 256 229.137 256 196V60C256 26.8629 229.137 0 196 0Z" fill="#242938"/>
<path d="M87.3242 141.796C79.0771 144.136 73.6666 148.24 70.1024 152.34C73.5162 149.353 78.0889 146.611 84.2573 144.863C90.5664 143.075 95.9488 143.087 100.396 143.946V140.468C96.6022 140.121 92.2528 140.397 87.3242 141.796ZM69.7254 112.561L39.0973 120.63C39.0973 120.63 39.6555 121.418 40.6891 122.47L66.6579 115.627C66.6579 115.627 66.2899 120.369 63.0942 124.611C69.1392 120.038 69.7254 112.561 69.7254 112.561ZM95.3632 184.542C52.2612 196.151 29.4574 146.2 22.5533 120.274C19.3636 108.307 17.9711 99.2428 17.6 93.3939C17.5601 92.7865 17.5786 92.2745 17.6215 91.8054C15.3856 91.9404 14.3151 93.1027 14.5329 96.4614C14.9041 102.307 16.2965 111.37 19.4863 123.341C26.3873 149.264 49.1942 199.215 92.2963 187.606C101.678 185.078 108.726 180.475 114.017 174.598C109.14 179.003 103.037 182.472 95.3632 184.542ZM103.463 81.9904V85.0579H120.369C120.022 83.9718 119.673 82.9932 119.326 81.9904H103.463Z" fill="#2D4552"/>
<path d="M124.148 107.254C131.751 109.413 135.772 114.744 137.898 119.461L146.375 121.869C146.375 121.869 145.219 105.359 130.285 101.117C116.314 97.1475 107.717 108.879 106.671 110.397C110.735 107.502 116.67 105.131 124.148 107.254ZM191.63 119.537C177.647 115.55 169.053 127.306 168.022 128.803C172.09 125.911 178.021 123.54 185.496 125.672C193.087 127.834 197.105 133.158 199.236 137.879L207.726 140.296C207.726 140.296 206.551 123.782 191.63 119.537ZM183.208 163.069L112.686 143.354C112.686 143.354 113.45 147.224 116.379 152.236L175.755 168.835C180.643 166.007 183.208 163.069 183.208 163.069ZM134.315 205.505C78.4755 190.534 85.2262 119.387 94.2618 85.6736C97.9821 71.7798 101.807 61.453 104.979 54.5305C103.086 54.141 101.519 55.1378 99.9699 58.2877C96.6022 65.118 92.2957 76.2393 88.128 91.808C79.095 125.521 72.3443 196.666 128.181 211.636C154.5 218.687 175.003 207.971 190.287 191.142C175.779 204.282 157.257 211.649 134.315 205.505Z" fill="#2D4552"/>
<path d="M103.463 167.869V153.512L63.5727 164.824C63.5727 164.824 66.5203 147.697 87.3242 141.796C93.6333 140.008 99.0163 140.02 103.463 140.879V81.9904H123.436C121.261 75.2704 119.158 70.0966 117.391 66.5017C114.468 60.5517 111.471 64.496 104.669 70.1856C99.8778 74.1881 87.769 82.727 69.5475 87.6371C51.3258 92.5504 36.5946 91.2473 30.4481 90.183C21.7345 88.6796 17.1768 86.766 17.6031 93.3939C17.9742 99.2396 19.3667 108.303 22.5565 120.274C29.4574 146.197 52.2643 196.148 95.3664 184.539C106.625 181.505 114.572 175.509 120.081 167.866H103.463V167.869ZM39.0943 120.63L69.7254 112.561C69.7254 112.561 68.8326 124.344 57.3496 127.371C45.8633 130.395 39.0943 120.63 39.0943 120.63Z" fill="#E2574C"/>
<path d="M218.743 82.6714C210.781 84.0672 191.679 85.8061 168.072 79.4784C144.458 73.1546 128.791 62.0944 122.584 56.8957C113.784 49.5254 109.914 44.4034 106.104 52.1509C102.737 58.9844 98.4301 70.1056 94.2618 85.6743C85.2294 119.388 78.4787 190.532 134.315 205.503C190.14 220.461 219.859 155.469 228.892 121.752C233.06 106.187 234.888 94.4 235.391 86.8C235.965 78.1908 230.051 80.69 218.743 82.6714ZM106.558 110.564C106.558 110.564 115.357 96.8781 130.282 101.12C145.215 105.362 146.372 121.872 146.372 121.872L106.558 110.564ZM142.989 171.976C116.738 164.287 112.689 143.354 112.689 143.354L183.208 163.069C183.208 163.066 168.973 179.57 142.989 171.976ZM167.921 128.957C167.921 128.957 176.708 115.281 191.63 119.535C206.551 123.783 207.726 140.293 207.726 140.293L167.921 128.957Z" fill="#2EAD33"/>
<path d="M89.5232 157.466L63.5727 164.821C63.5727 164.821 66.3917 148.762 85.5085 142.397L70.8141 87.2512L69.5443 87.6371C51.3228 92.5511 36.5915 91.2474 30.4451 90.1831C21.7315 88.6803 17.1738 86.7661 17.6001 93.3946C17.9712 99.2403 19.3636 108.303 22.5534 120.275C29.4544 146.197 52.2613 196.148 95.3632 184.539L96.633 184.14L89.5232 157.466ZM39.0943 120.63L69.7254 112.561C69.7254 112.561 68.8326 124.344 57.3496 127.372C45.8634 130.396 39.0943 120.63 39.0943 120.63Z" fill="#D65348"/>
<path d="M144.173 172.264L142.986 171.976C116.735 164.287 112.686 143.354 112.686 143.354L149.05 153.518L168.301 79.5399L168.068 79.4784C144.455 73.1546 128.788 62.0944 122.58 56.8957C113.781 49.5254 109.91 44.4034 106.101 52.1509C102.737 58.9844 98.4301 70.1056 94.2618 85.6743C85.2294 119.388 78.4787 190.532 134.315 205.502L135.459 205.76L144.173 172.264ZM106.558 110.564C106.558 110.564 115.357 96.8781 130.282 101.12C145.215 105.362 146.372 121.872 146.372 121.872L106.558 110.564Z" fill="#1D8D22"/>
<path d="M90.8454 157.089L83.8861 159.064C85.5302 168.332 88.4282 177.227 92.9766 185.085C93.7683 184.91 94.5536 184.76 95.36 184.539C97.4733 183.969 99.433 183.263 101.32 182.493C96.2374 174.951 92.8755 166.265 90.8454 157.089ZM88.128 91.8087C84.5517 105.157 81.3523 124.369 82.233 143.639C83.8093 142.955 85.4746 142.317 87.3242 141.793L88.6125 141.505C87.0419 120.921 90.4371 99.9457 94.2618 85.6743C95.2314 82.0641 96.2035 78.706 97.1725 75.5745C95.6115 76.5677 93.9309 77.586 92.0166 78.6349C90.7258 82.6196 89.4221 86.9748 88.128 91.8087Z" fill="#C04B41"/>
</svg>
