<svg width="256" height="256" viewBox="0 0 256 256" fill="none" xmlns="http://www.w3.org/2000/svg">
<path d="M196 0H60C26.8629 0 0 26.8629 0 60V196C0 229.137 26.8629 256 60 256H196C229.137 256 256 229.137 256 196V60C256 26.8629 229.137 0 196 0Z" fill="#242938"/>
<path fill-rule="evenodd" clip-rule="evenodd" d="M85.3744 116.707C85.5623 116.849 85.8883 116.941 85.5623 117.22C85.3283 117.546 85.0483 117.826 84.8623 118.2C84.6762 118.527 84.5362 118.619 84.2562 118.387C84.6283 117.78 85.0005 117.219 85.3727 116.705L85.3744 116.707ZM179.112 165.615C179.112 165.753 179.158 165.845 179.158 165.987C179.252 165.801 179.252 165.707 179.3 165.615H179.112ZM169.599 184.233L161.483 139.247C161.345 139.203 161.159 139.111 160.831 139.017C160.925 139.203 160.973 139.343 161.019 139.483C161.249 139.437 161.345 139.437 161.437 139.391C161.437 139.345 161.437 139.299 161.485 139.249L169.601 184.238L169.599 184.233ZM161.205 129.121C161.159 129.259 161.159 129.401 161.159 129.541C161.159 129.399 161.159 129.257 161.208 129.119L161.205 129.121ZM161.251 130.053C161.205 130.053 161.205 130.053 161.159 130.003V130.049C161.208 130.095 161.208 130.095 161.254 130.049L161.251 130.053ZM161.159 130.425V130.097C161.022 130.143 160.882 130.143 160.694 130.191C160.928 130.279 161.162 130.329 161.162 130.421L161.159 130.425Z" fill="#DD3735"/>
<path fill-rule="evenodd" clip-rule="evenodd" d="M197.486 119.087C197.394 117.266 197.348 115.446 197.16 113.627C196.834 111.153 196.508 108.633 195.948 106.207C195.528 104.2 194.831 102.286 194.13 100.373C193.244 98.1332 192.357 95.8469 191.237 93.7006C189.419 90.2472 187.041 87.1658 184.849 83.9462C183.399 81.892 181.535 80.2131 180.135 78.1128C179.343 76.8997 178.177 75.8743 177.011 74.9428C175.145 73.4464 173.186 72.0916 171.228 70.7864C169.75 69.7508 168.224 68.7852 166.656 67.8927C165.398 67.1896 164.046 66.63 162.739 66.0226C161.247 65.3231 159.801 64.4819 158.123 64.156C157.701 64.0675 157.329 63.9258 156.909 63.7841C155.837 63.4122 154.811 62.9925 153.737 62.6649C152.107 62.1513 150.52 61.5457 148.84 61.1242C147.214 60.7045 145.534 60.4264 143.854 60.1909C141.989 59.9164 140.079 59.819 138.211 59.6366C137.019 59.4827 135.821 59.374 134.621 59.3107C132.849 59.2187 131.03 59.2187 129.258 59.1726C128.372 59.1248 127.44 59.0309 126.554 59.0788C125.202 59.1248 123.85 59.2647 122.496 59.4507C121.191 59.5923 119.885 59.8225 118.627 60.012C117.091 60.198 115.552 60.2918 114.012 60.4796C112.566 60.6673 111.074 60.9471 109.63 61.1809C109.116 61.2747 108.602 61.4607 108.088 61.5528C106.972 61.7865 105.806 61.8804 104.686 62.254C102.683 62.8632 100.675 63.5645 98.717 64.3083C96.897 65.0557 95.1248 65.849 93.4005 66.7823C91.6283 67.7599 89.9483 68.9252 88.2701 70.0479C86.6582 71.1259 85.0858 72.2618 83.5562 73.4534C82.0676 74.6223 80.6676 75.9274 79.3137 77.2344C78.5694 77.9782 77.9615 78.8672 77.2615 79.7066C76.0972 81.0614 74.9311 82.3666 73.8111 83.7674C72.8825 84.9362 72.039 86.1475 71.1529 87.3624C69.5704 89.5052 68.2182 91.7933 66.96 94.0813C66.4461 95.0146 65.98 95.9479 65.5139 96.8794C64.8139 98.2784 64.0678 99.6332 63.4157 101.08C62.9478 102.061 62.5757 103.134 62.2957 104.208C61.6453 106.496 60.9914 108.83 60.3853 111.114C59.8253 113.168 59.6853 115.315 59.641 117.415C59.5932 119.282 59.7792 121.102 59.9653 122.969C60.0132 123.436 59.7349 123.996 60.2914 124.368C60.1053 124.881 60.2453 125.165 60.5218 125.253C60.1992 125.767 60.6635 126.096 60.4792 126.564C60.4314 126.656 60.621 126.842 60.7096 126.982C60.7096 127.123 60.6653 127.309 60.7096 127.449C60.7592 127.869 60.9453 128.289 60.9453 128.756C60.9453 129.082 61.2235 129.456 61.3175 129.783C61.3635 129.922 61.3175 130.155 61.2235 130.249C60.9435 130.575 60.9896 130.855 61.4096 131.043C61.6453 131.648 61.5514 131.928 61.5053 132.211C61.5975 132.629 61.4575 132.769 61.5053 132.863C61.8775 133.61 62.0192 134.45 62.0635 135.289C62.0635 135.477 62.1575 135.665 62.2514 135.897C62.2975 135.897 62.2514 136.782 62.2514 136.782C62.4818 136.644 62.6714 136.598 62.9035 136.504C63.0453 137.11 63.1835 137.673 63.3696 138.186C63.6035 138.558 63.6035 138.743 63.5114 138.789C63.6975 139.628 63.7896 140.421 64.1139 141.215C64.1139 140.329 64.0253 139.444 63.8835 138.603C64.5357 138.836 65.0957 139.068 65.4696 139.068C65.5175 138.927 65.5635 138.743 65.6114 138.649C65.3314 138.371 65.0975 137.951 64.8175 137.671C64.9114 138.043 64.8175 138.185 64.8175 138.326C64.6314 138.231 64.3975 138.137 64.1653 138.043C64.3514 137.813 64.5375 137.577 64.8175 137.299C64.8175 136.878 64.5871 136.502 63.9314 136.55C64.2114 136.458 64.4914 136.32 64.8175 136.224C65.3314 135.946 64.7714 135.433 64.7714 134.779C64.8175 133.988 64.3514 133.194 64.2114 132.353C63.9775 131.048 64.0253 129.087 63.8853 127.78C63.6053 127.547 63.3714 128.152 63.3253 128.2C63.4671 129.319 63.6053 130.439 63.6975 131.56C63.4192 130.626 63.2314 129.599 62.9992 128.478C62.9514 128.806 62.9053 128.946 62.9053 129.133C62.6749 129.364 62.8592 129.647 62.9992 129.973C62.6732 129.831 62.2992 129.881 62.2992 129.881V131.188C61.8349 130.72 61.6967 130.348 61.461 130.019C61.3689 129.647 61.3192 129.275 61.2306 128.903C61.3192 128.668 61.2306 128.528 61.2306 128.39C61.1759 128.016 61.1286 127.642 61.0889 127.267C61.1349 127.221 61.0428 126.523 61.0428 126.523C61.4149 126.567 61.6506 126.612 61.8828 126.612C61.4167 126.01 61.741 125.634 61.9306 125.26C62.0245 125.073 62.3506 125.03 62.4445 124.839C62.8167 124.139 63.4245 123.582 63.4245 122.693C63.4245 122.273 63.5663 121.807 63.6106 121.386C63.7045 120.592 63.7967 119.799 63.841 119.005C63.9367 117.978 63.841 116.951 64.0767 115.972C64.4524 114.343 64.9185 112.708 65.4306 111.073C65.8028 109.905 66.2245 108.789 66.6889 107.62C67.3889 105.8 68.0428 103.979 68.9289 102.254C70.1871 99.7324 71.6332 97.3062 73.0332 94.834C73.9192 93.2932 74.8514 91.8464 75.8332 90.3535C76.7635 88.9066 77.6939 87.4137 78.7696 86.059C80.2463 84.148 81.9019 82.3821 83.7139 80.7851C85.58 79.1063 87.3521 77.3796 89.3564 75.8389C91.9622 73.8269 94.7384 72.0457 97.6537 70.5155C100.034 69.2581 102.504 68.2735 104.976 67.3402C106.562 66.7345 108.287 66.4547 109.92 65.9411C111.785 65.3337 113.651 65.0557 115.609 65.0079C116.867 64.96 118.081 64.8201 119.339 64.6802C120.459 64.5917 121.578 64.496 122.792 64.3561C122.65 64.5421 122.604 64.636 122.558 64.728C122.047 65.4754 121.487 66.2227 120.973 66.9683C120.553 67.5757 120.087 68.2292 119.667 68.8348C118.919 69.8177 118.126 70.797 117.427 71.8242C116.355 73.3649 115.375 74.9517 114.255 76.4906C113.139 77.9835 111.925 79.3843 110.759 80.8294C109.22 82.8376 107.774 84.8902 106.236 86.8966C104.836 88.8092 103.348 90.6333 101.994 92.5459C100.782 94.223 99.7076 95.9992 98.5415 97.7224C96.8172 100.29 95.0911 102.808 93.3668 105.376C92.0132 107.331 90.645 109.275 89.2625 111.21C89.1686 111.351 89.0286 111.394 88.8904 111.488C88.5182 112.094 88.5182 112.421 88.3764 112.701C88.0043 113.4 87.6321 114.1 87.2104 114.755C86.9764 115.127 86.6504 115.453 86.3704 115.827C86.3243 115.267 87.1147 114.987 86.7425 114.286C86.5121 114.661 86.2764 114.987 86.0443 115.361L85.4843 116.477C85.6704 116.618 85.9982 116.712 85.6704 116.99C85.5286 117.226 85.3904 117.504 85.2504 117.739C85.4522 117.621 85.6272 117.461 85.7643 117.272C85.7643 117.785 85.4843 118.203 85.2504 118.623C85.0643 118.995 84.5982 119.278 84.2721 119.556C84.3182 119.604 84.6443 119.744 84.6921 119.79C85.1121 119.648 85.2521 119.418 85.3 119.556C85.4418 119.37 85.58 119.23 85.6261 119.09C85.8104 118.623 86.0904 118.251 86.5564 118.063C86.7443 117.969 86.8825 117.83 87.0225 117.691C88.4225 116.243 89.8686 114.844 91.1268 113.303C93.0868 110.921 94.859 108.451 96.7268 106.025C97.5172 104.997 98.4511 103.97 99.2894 102.989C99.4276 104.062 99.3354 105.088 99.2894 106.071C99.1476 107.795 99.0554 109.524 98.9172 111.295C98.8694 111.994 98.9172 112.694 98.8694 113.395C98.8694 113.581 98.7276 113.721 98.7276 113.909C98.7276 114.374 98.8694 114.888 98.8694 115.356C98.7276 117.082 98.5397 118.761 98.3997 120.488C98.3519 120.86 98.538 121.235 98.6301 121.563C98.3997 124.081 98.9137 126.743 98.4919 129.403C98.818 128.889 98.9119 128.563 98.9119 128.237C98.9562 127.958 98.9119 127.678 98.9119 127.352V126.884C98.9562 126.043 99.1423 125.158 99.0501 124.317C98.9562 123.383 98.9562 122.498 99.144 121.611C99.238 121.239 99.098 120.771 99.3319 120.304V121.003C99.2858 123.659 99.3797 126.321 99.0076 128.981C98.9597 129.215 99.1494 129.636 98.6354 129.589C98.2137 130.428 98.7276 131.035 98.2633 131.501C98.1676 131.595 98.3519 132.015 98.3997 132.295C98.2119 132.856 98.2119 132.856 98.4919 132.902C98.538 133.929 98.6337 134.861 98.678 135.842C99.4223 134.071 99.0501 132.247 99.3797 130.426C99.4258 131.174 99.4737 131.921 99.4258 132.711C99.4258 133.927 99.3797 135.093 99.3337 136.306C99.3337 136.54 99.2858 136.773 99.2397 137.007C99.098 137.662 99.0537 138.314 98.8197 138.92C98.6337 139.387 98.7276 140.088 98.7276 140.646V142.423C98.9137 143.216 98.6797 143.636 98.8197 144.101C98.678 144.571 98.6337 144.711 98.678 144.851L98.8197 145.55C99.7537 145.456 99.3337 146.157 99.7058 146.529C99.4258 146.905 99.5197 147.043 99.5197 147.232C99.5197 147.652 99.4754 148.026 99.4276 148.446C99.4276 149.519 99.3815 150.592 99.3815 151.619C99.3815 151.761 99.4276 151.897 99.4276 152.037C99.4276 152.133 99.3815 153.347 99.3815 153.347C99.4754 153.486 99.3815 153.626 99.2397 153.765C99.1954 153.765 99.0554 147.838 99.0554 147.838H98.3554C98.2633 150.636 98.4972 153.156 97.9833 155.772C97.4233 155.816 97.239 155.91 96.6294 155.91C95.1833 155.91 93.7372 155.91 92.2911 155.956C90.5651 155.956 88.8886 156.002 87.1608 156.002C86.3243 156.002 85.4382 156.098 84.5982 156.098C83.4782 156.098 82.3121 155.956 81.1957 155.956C79.4678 155.956 77.7896 156.098 76.0635 156.144C74.8053 156.19 73.5471 156.19 72.2889 156.238C71.4471 156.282 70.6053 156.326 69.7689 156.422C69.3967 156.468 69.0689 156.608 68.6028 156.748C68.461 156.748 68.1367 156.702 67.8585 156.748C67.3889 156.842 66.9724 157.12 66.5028 157.215C65.8028 157.357 65.6167 157.541 65.7089 158.242V158.708C65.6628 158.8 66.7367 158.566 66.7367 158.566C66.641 158.566 66.5949 158.846 66.4532 159.08C66.8289 158.938 67.061 158.846 67.2949 158.754C67.9949 159.082 68.601 158.896 69.1592 159.037C70.9775 159.501 72.8418 159.693 74.7061 159.875C75.92 159.969 77.0861 160.017 78.2982 160.061C80.0225 160.155 81.7486 160.249 83.4729 160.249C84.919 160.249 86.319 160.107 87.7615 160.107C89.764 160.107 91.7737 160.199 93.778 160.249C94.198 160.249 94.664 160.199 95.1301 160.199H98.5326C101.567 160.107 104.597 160.058 107.629 159.969C109.357 159.919 111.129 159.827 112.853 159.78L118.17 159.638C120.222 159.592 122.274 159.592 124.28 159.549C125.818 159.549 127.311 159.496 128.852 159.452C130.575 159.406 132.347 159.266 134.073 159.174C135.007 159.126 135.941 159.032 136.873 158.94C137.993 158.848 139.159 158.71 140.276 158.662C141.956 158.566 143.682 158.52 145.362 158.427C147.46 158.288 149.558 158.102 151.703 158.055C153.663 157.963 155.667 158.009 157.627 157.963C159.353 157.915 161.079 157.821 162.851 157.775L165.793 157.633C165.793 157.633 167.749 157.587 168.729 157.491C170.408 157.399 172.086 157.213 173.766 157.167C174.836 157.12 175.91 157.167 176.982 157.12C178.707 157.074 180.479 156.978 182.205 156.978C182.855 156.978 183.555 157.074 184.395 157.12C184.023 157.447 183.789 157.633 183.509 157.867C183.695 157.913 183.881 158.009 184.069 158.101C183.852 158.254 183.591 158.335 183.325 158.331C183.229 158.566 183.135 158.66 183.041 159.128H183.881C183.555 159.128 183.275 159.548 182.949 159.827C182.577 159.732 182.249 159.827 182.063 160.341C182.389 160.525 182.343 160.665 182.297 160.854C181.737 161.039 181.317 161.226 181.553 161.832C181.363 161.924 181.131 162.018 180.897 162.158C180.667 162.53 180.245 162.624 180.337 163.137C180.525 163.181 180.709 163.279 180.851 163.321C180.617 163.415 180.385 163.555 180.151 163.647C179.313 164.161 179.687 164.395 179.873 164.628C179.731 164.722 179.593 164.814 179.453 164.862C179.545 165.282 179.683 165.376 179.731 165.376C179.493 165.556 179.259 165.742 179.031 165.935C178.889 166.355 178.703 166.541 178.517 166.821C178.331 167.101 178.237 167.476 178.003 167.754C177.025 168.829 176.325 170.092 175.067 170.929C174.599 171.257 174.18 171.677 173.76 172.098C172.92 172.89 172.174 173.777 171.288 174.524C170.117 175.494 168.903 176.412 167.652 177.276C166.115 178.35 164.577 179.423 163.037 180.45C162.197 181.008 161.265 181.427 160.379 181.941C159.493 182.455 158.653 182.922 157.767 183.434C157.207 183.806 156.693 184.319 156.087 184.603C154.549 185.258 152.915 185.816 151.33 186.423C149.789 187.078 148.672 187.636 147.506 188.056C146.434 188.428 145.314 188.711 144.196 188.942C143.824 189.037 143.402 188.942 142.982 188.989C142.188 189.131 141.396 189.319 140.602 189.411C138.55 189.691 136.497 189.878 134.447 190.158C133.233 190.3 132.067 190.53 130.855 190.672C130.017 190.718 129.131 190.626 128.291 190.626C127.685 190.626 127.032 190.767 126.425 190.673C125.446 190.532 124.466 190.302 123.486 190.114C123.256 190.068 122.926 189.972 122.742 190.068C122.37 190.256 122.04 189.976 121.666 190.068C121.436 190.116 121.202 189.926 120.968 189.926C120.78 189.882 120.546 189.976 120.312 189.926C119.798 189.788 119.334 189.602 118.771 189.648C118.216 189.694 117.654 189.414 117.052 189.276C116.21 189.089 115.421 188.904 114.578 188.715C114.252 188.613 113.939 188.472 113.647 188.295C112.433 188.295 111.639 188.249 110.893 187.968C110.241 187.737 109.635 187.41 108.935 187.504C108.751 187.55 108.611 187.457 108.421 187.457C108.279 187.27 108.143 186.896 108.005 186.896C107.073 186.944 106.513 186.152 105.719 185.917C105.3 185.775 104.974 185.309 104.554 185.169C103.527 184.75 102.69 183.864 101.524 183.724C101.152 183.677 100.78 183.491 100.358 183.352C100.5 183.537 100.588 183.677 100.73 183.816C99.378 183.161 98.1197 182.417 96.8597 181.716C96.6754 181.67 96.5354 181.486 96.3954 181.39L95.1372 180.551C94.4372 180.693 94.1572 180.409 93.9676 180.317C92.7094 179.432 91.2651 178.87 90.0511 177.891C89.5372 177.469 88.9347 177.19 88.5625 176.676C87.9068 175.883 87.1147 175.323 86.2286 174.857C85.5304 174.485 84.8782 174.064 84.2261 173.644C83.8982 173.41 83.5704 173.131 83.5704 172.617C83.5704 172.289 83.4321 171.962 83.0121 172.15C82.8261 171.87 82.64 171.544 82.4061 171.45C81.8461 171.22 81.4739 170.795 81.0539 170.423C80.6339 170.051 80.3096 169.537 79.7957 169.351C78.8618 168.98 78.3018 168.186 77.7435 167.533C76.4357 165.992 75.2696 164.31 74.0575 162.68C73.9635 162.539 73.7775 162.445 73.6375 162.305C73.8235 162.818 74.0575 163.238 74.2896 163.704C73.8253 163.518 73.4992 163.19 73.2192 162.864C73.1714 162.912 76.4357 168.278 76.4357 168.278C76.7192 168.698 76.9496 169.119 77.2296 169.539C76.9487 169.565 76.6662 169.508 76.4173 169.376C76.1685 169.243 75.9641 169.04 75.8296 168.792C75.4114 168.048 74.9435 167.58 74.0114 167.676C73.9125 167.339 73.8355 166.996 73.781 166.649C73.5914 166.649 73.4532 166.649 73.1253 166.601C73.781 167.628 74.3392 168.514 74.9453 169.541C74.7096 169.399 74.5732 169.307 74.4757 169.261C75.3139 170.147 75.92 171.268 76.9921 171.829C77.2261 172.9 78.4382 173.414 78.7182 174.441C78.4878 174.393 78.2964 174.347 78.0625 174.299C77.6904 173.834 77.2704 173.368 76.8521 172.854C76.9443 173.18 77.0825 173.46 77.2704 173.694C77.8304 174.393 78.3443 175.093 78.9964 175.7C79.2304 175.938 79.5564 176.031 79.5564 176.451C79.9286 176.637 80.0704 176.681 80.2086 176.681C80.3043 176.965 80.1643 177.384 80.7225 177.291C81.0947 177.99 81.4668 177.99 81.9808 177.758C82.5886 178.365 82.9164 178.413 83.3347 178.041C83.3347 178.272 83.3808 178.505 83.3808 178.693C83.5668 178.599 83.5225 178.459 83.5225 178.226C83.7529 178.412 83.8947 178.505 83.9868 178.597C84.4529 179.253 84.8729 179.858 85.5251 180.372C86.4111 181.119 87.2051 181.913 88.0415 182.612C89.6754 183.967 91.4972 185.088 93.3137 186.113C95.5537 187.374 97.6997 188.727 99.984 189.939C102.734 191.387 105.673 192.368 108.703 193.068C109.823 193.302 110.895 193.534 112.017 193.812C112.992 194.095 113.973 194.515 114.953 194.747C116.446 195.074 117.984 195.354 119.476 195.632C119.8 195.68 120.132 195.728 120.504 195.774C120.92 195.868 121.432 195.68 121.526 195.822C121.76 196.194 121.946 196.006 122.226 195.96C122.552 195.866 122.926 195.866 123.298 195.866C124.605 195.912 125.863 196.192 127.169 196.1C127.452 196.1 127.871 195.864 128.105 196.33C128.523 196.144 128.757 196.144 128.943 196.1C128.992 196.518 128.943 196.518 128.854 196.564C128.758 196.61 128.618 196.657 128.432 196.797C130.111 197.123 131.697 197.169 133.093 196.797C135.521 196.983 137.619 196.704 139.625 196.004C139.811 196.238 139.951 196.564 140.231 196.098C140.324 195.956 140.557 195.908 140.745 195.862C141.164 195.768 141.677 195.583 142.05 195.721C142.471 195.862 142.611 195.49 142.936 195.49C143.497 195.49 144.01 195.443 144.524 195.349C144.804 195.303 145.084 195.163 145.41 195.069C145.09 194.911 144.738 194.83 144.382 194.833C144.944 194.554 145.456 194.32 145.97 194.09C145.876 194.228 145.782 194.414 145.597 194.414H146.248C146.106 194.414 145.92 194.833 145.688 195.113C147.364 194.694 148.903 194.32 150.396 193.944C149.883 192.967 150.955 193.294 151.329 192.733C150.863 192.875 150.396 193.013 149.929 193.105C151.515 192.313 153.147 191.614 154.731 190.914C154.501 191.194 154.217 191.334 153.801 191.57C154.081 191.614 154.267 191.614 154.407 191.658C155.151 191.894 154.967 191.194 155.199 190.773C156.085 190.773 156.457 190.635 156.877 190.493C157.343 190.351 157.809 190.213 158.277 190.027C159.022 189.701 159.722 189.283 160.468 188.911C160.609 188.862 160.84 188.911 161.028 188.911C161.542 188.582 161.726 188.302 161.866 188.348C162.522 188.442 162.982 188.207 163.17 187.604C163.496 187.369 163.73 187.183 163.962 187.041C164.987 186.482 165.965 185.922 166.993 185.362C167.365 185.362 167.553 185.362 167.645 185.315C168.254 185.031 168.814 184.709 169.373 184.381C169.212 184.315 169.057 184.238 168.907 184.151C169.371 184.056 169.509 184.009 169.793 183.916C170.909 182.605 172.451 181.72 173.615 180.692C174.129 180.646 174.129 180.507 174.129 180.414C174.313 180.181 174.501 179.901 174.732 179.713C175.759 178.78 176.876 177.987 177.81 177.007C179.162 175.651 180.468 174.25 181.68 172.803C182.797 171.496 183.92 170.191 184.852 168.744C186.158 166.738 187.277 164.683 188.443 162.581C189.283 161.09 190.029 159.597 190.871 158.104C190.959 157.963 191.149 157.777 191.289 157.777C192.547 157.635 193.809 157.546 195.021 157.405C195.301 157.359 195.627 157.174 195.907 157.033C195.765 156.799 195.673 156.519 195.535 156.285C195.347 156.002 195.067 155.772 194.879 155.489C194.695 155.258 194.555 154.975 194.415 154.697C194.273 154.467 194.135 154.279 193.995 154.042C193.711 153.528 193.433 153.015 193.197 152.458C193.151 152.317 193.056 152.087 193.105 151.945C193.945 150.126 194.271 148.166 195.064 146.345C195.856 144.479 196.091 142.378 196.464 140.372C196.79 138.459 196.977 136.547 197.208 134.634C197.35 133.281 197.536 131.974 197.58 130.621C197.864 128.475 197.768 126.466 197.722 124.458C197.676 122.687 197.58 120.867 197.491 119.092L197.486 119.087ZM80.4797 176.533C80.1537 176.161 79.8737 175.739 79.5476 175.367L79.6894 175.226C80.198 175.787 80.7119 176.347 81.224 176.954C80.944 176.812 80.618 176.72 80.4797 176.533ZM81.224 176.954C81.3658 176.906 81.5076 176.906 81.6458 176.86C81.7876 177.094 81.8797 177.374 82.018 177.654C81.3658 177.606 81.0397 177.326 81.2258 176.954H81.224ZM129.728 196.227V196.085C130.614 195.993 131.452 195.9 132.338 195.807V195.944C131.452 196.085 130.614 196.174 129.728 196.224V196.227ZM141.477 195.014C140.827 195.156 140.127 195.25 139.475 195.343C139.241 195.39 138.961 195.623 138.869 195.202C138.775 195.25 138.681 195.25 138.589 195.297C138.819 195.995 139.381 195.436 139.847 195.715C138.819 195.857 137.844 195.949 136.863 196.087V195.995C137.146 195.949 137.47 195.901 137.749 195.853V195.715C137.284 195.66 136.817 195.629 136.349 195.621C136.212 195.621 136.024 195.809 135.884 195.855C135.698 195.901 135.512 195.949 135.278 195.949C134.486 195.995 133.694 195.995 132.946 196.041C132.898 196.041 132.804 195.995 132.758 195.995V195.853C135.883 195.436 138.961 195.016 142.085 194.596C142.133 194.688 142.133 194.782 142.179 194.874C141.899 194.874 141.713 194.972 141.479 195.016L141.477 195.014ZM142.179 194.55C143.253 194.408 144.235 194.316 145.259 194.178C143.115 194.784 142.413 194.876 142.179 194.55ZM101.559 100.327C103.048 98.2731 104.59 96.2188 106.082 94.1203C106.548 93.5093 106.92 92.8558 107.386 92.2502C107.528 92.0624 107.714 91.9704 107.946 91.7826L107.9 91.6941C108.086 91.4586 108.272 91.2691 108.366 91.0849C108.604 90.713 108.744 90.2915 108.93 89.8718C108.98 89.7996 109.043 89.7377 109.116 89.6894C109.772 90.0152 109.772 89.3175 110.002 89.082C110.422 88.6144 110.842 88.1026 111.214 87.6351C111.494 87.2632 111.774 86.9356 112.008 86.5159C112.054 86.3742 111.914 86.144 111.866 85.9545H111.728C111.87 85.8624 112.008 85.7243 112.148 85.6286C112.194 85.6286 112.194 85.6286 112.24 85.5826C112.52 85.1611 112.8 84.7414 113.08 84.3677C113.638 83.6239 114.245 82.8766 114.897 82.2249C114.805 82.4551 114.711 82.6907 114.617 82.8766C114.665 82.8766 114.665 82.9244 114.711 82.9244C115.271 82.1771 115.877 81.4776 116.437 80.7285C116.389 80.6842 116.343 80.6364 116.295 80.6364C116.065 80.8701 115.877 81.1039 115.643 81.3377C115.597 81.2898 115.551 81.2438 115.501 81.2438C115.971 80.6364 116.437 80.0307 116.901 79.3312C116.995 79.4729 117.089 79.657 117.273 80.0307C117.463 79.5649 117.649 79.2391 117.787 78.9115C117.649 79.0531 117.463 79.1913 117.323 79.333L117.181 79.1913L118.021 77.9339C118.907 76.673 119.793 75.3661 120.679 74.1052C121.007 73.6394 121.424 73.2657 121.707 72.7982C122.593 71.0273 123.993 69.6247 125.064 67.9919C125.297 67.666 125.624 67.3862 125.904 67.1064C126.134 66.8231 126.324 66.9187 126.51 67.1525C127.768 68.7392 129.026 70.372 130.284 71.9588C131.22 73.1276 132.152 74.2433 133.038 75.4581C134.11 76.9528 135.136 78.4457 136.21 79.9386C137.423 81.6653 138.635 83.3919 139.801 85.1629C141.573 87.7786 143.251 90.3925 145.023 93.0046C146.329 94.9172 147.635 96.7855 148.894 98.6981H146.512C144.322 98.6539 142.082 98.4679 139.891 98.56C136.907 98.7017 133.876 99.0275 130.892 99.2613C127.114 99.5889 123.29 99.6332 119.515 99.6332C118.159 99.6332 116.807 99.8227 115.457 99.9166C113.823 100.009 112.237 100.102 110.605 100.147C108.691 100.242 106.83 100.288 104.916 100.336C103.842 100.382 102.724 100.336 101.558 100.336L101.559 100.327ZM155.048 121.791V122.213C155.002 122.213 154.956 122.26 154.862 122.26C154.676 121.605 154.49 120.904 154.256 120.25C153.79 118.896 153.276 117.541 152.436 116.33C151.501 115.024 150.664 113.673 149.728 112.318C149.498 111.991 149.168 111.711 148.888 111.433C147.908 110.358 146.928 109.237 145.67 108.445C143.816 107.283 141.866 106.283 139.84 105.456C139.277 105.215 138.732 104.934 138.209 104.617H139.326L147.301 104.475C149.027 104.431 150.707 104.431 152.431 104.337C152.849 104.337 153.083 104.478 153.317 104.85C153.735 105.55 154.155 106.249 154.621 106.951C154.669 107.043 154.763 107.181 154.763 107.323C154.763 108.35 154.763 109.423 154.809 110.45C154.853 111.523 154.951 112.55 154.993 113.624C154.993 114.697 154.899 115.816 154.947 116.935C154.995 118.524 155.041 120.158 155.041 121.788L155.048 121.791ZM104.868 106.164C107.06 106.071 109.157 105.931 111.305 105.837C112.979 105.743 114.707 105.695 116.384 105.603C117.084 105.559 117.737 105.514 118.436 105.603C117.691 105.978 116.944 106.352 116.291 106.818C115.451 107.378 114.661 108.123 113.819 108.73C112.977 109.336 112.231 110.083 111.533 110.877C110.647 111.948 109.667 112.882 108.733 113.909C108.077 114.656 107.333 115.356 106.775 116.149C105.983 117.176 105.283 118.292 104.537 119.461C104.771 115.026 105.051 110.641 104.863 106.161L104.868 106.164ZM135.323 151.058C133.829 151.43 132.292 151.851 130.75 152.037C129.446 152.225 128.092 152.179 126.74 152.179C125.541 152.179 124.342 152.132 123.146 152.037C121.794 151.899 120.442 151.759 119.136 151.152C118.014 150.638 116.85 150.172 115.733 149.611C114.61 149.051 113.491 148.399 112.65 147.372C112.047 146.623 111.205 146.018 110.459 145.364C110.601 145.924 110.925 146.391 111.439 146.717C111.205 146.997 110.879 146.859 110.411 146.11C110.273 146.204 110.133 146.251 110.039 146.297C110.181 145.97 110.319 145.642 110.459 145.364C110.273 144.992 110.039 144.571 109.853 144.195C109.481 143.59 109.109 142.938 108.781 142.33C108.687 142.189 108.687 142.051 108.595 141.911C108.362 141.642 108.143 141.361 107.939 141.07C107.567 140.512 107.241 139.906 106.775 139.345C106.775 139.486 106.823 139.624 106.823 139.812C106.775 139.812 106.729 139.858 106.729 139.858L105.747 137.478C105.701 137.478 105.701 137.478 105.655 137.524L106.493 140.606C106.447 140.606 106.401 140.65 106.351 140.65C106.215 140.466 106.075 140.278 105.979 140.048C105.887 139.672 105.607 139.672 105.377 139.812C105.235 139.906 105.141 140.232 105.189 140.372C105.517 141.165 105.889 141.959 106.263 142.752C106.355 143.032 106.449 143.266 106.589 143.545C106.637 143.639 106.777 143.731 106.777 143.871C106.965 144.243 107.105 144.615 107.337 144.944C107.757 145.504 108.223 146.064 108.643 146.623C109.059 147.183 109.431 147.792 109.805 148.35C109.851 148.444 109.991 148.444 110.036 148.492C110.271 149.191 111.064 149.703 111.624 149.423C111.765 150.496 112.93 150.87 113.396 151.897C112.938 151.71 112.487 151.508 112.044 151.29C111.996 151.336 111.996 151.382 111.948 151.476C112.508 151.755 113.068 152.035 113.578 152.361C114.048 152.644 114.514 152.922 114.934 153.247C115.494 153.76 116.148 154.043 116.936 154.228C116.921 154.159 116.89 154.094 116.848 154.038C118.152 154.646 119.506 155.299 120.53 155.809C115.68 155.905 110.504 155.999 105.139 156.092C105.139 155.207 105.093 154.366 105.093 153.479C105.093 153.107 105.185 152.779 105.137 152.405C104.996 150.263 104.996 148.113 104.717 146.012C104.439 143.774 104.439 141.58 104.487 139.336C104.531 138.126 104.439 136.867 104.391 135.652C104.391 134.019 104.391 132.429 104.441 130.8C104.441 130.566 104.535 130.38 104.629 130.145H104.771C104.815 130.24 104.771 130.38 104.859 130.428C105.001 130.57 105.235 130.8 105.329 130.754C105.607 130.566 106.027 130.382 106.121 130.099C106.351 129.541 106.447 128.933 106.447 128.374C106.447 127.956 106.635 127.676 106.819 127.394C106.915 127.253 106.961 127.115 107.055 126.929C106.869 126.787 106.683 126.695 106.449 126.509C106.637 125.995 106.591 125.388 107.291 125.11C107.383 125.062 107.383 124.827 107.432 124.688C107.477 124.311 107.521 123.891 107.571 123.52C107.663 123.661 107.712 123.706 107.801 123.798C107.827 123.747 107.859 123.699 107.897 123.656C107.897 123.472 107.851 123.098 107.897 123.098C108.457 123.004 108.223 122.399 108.503 122.119C108.547 122.069 108.455 121.929 108.455 121.835C108.455 121.743 108.455 121.605 108.501 121.605C109.151 121.464 109.059 120.764 109.479 120.436C109.621 120.343 109.665 120.206 109.851 119.971C110.224 120.622 109.571 120.95 109.525 121.416C110.316 120.95 110.55 119.831 110.084 119.503C110.27 119.361 110.456 119.177 110.597 118.99C111.111 118.43 111.668 117.916 112.136 117.357C112.464 116.939 112.65 116.425 112.976 116.006C113.164 115.772 113.536 115.586 113.816 115.444C114.656 114.98 115.446 114.467 115.96 113.673C116.054 113.579 116.194 113.487 116.332 113.393C116.474 113.3 116.754 113.3 116.8 113.16C116.848 113.068 116.708 112.834 116.614 112.694C116.798 112.6 116.986 112.414 117.358 112.226C117.216 112.506 117.172 112.694 117.078 112.882L117.309 113.112C117.73 112.786 118.383 112.414 118.803 112.134C118.803 112.09 118.569 111.904 118.569 111.904C118.29 112.046 117.87 112.276 117.452 112.464C117.541 112.322 117.541 112.23 117.594 112.184C118.244 111.764 118.896 111.344 119.596 111.015C121.227 110.271 122.861 109.524 124.493 108.824C124.773 108.683 125.149 108.778 125.473 108.778C125.611 108.778 125.703 108.778 125.845 108.732C126.589 108.499 127.337 108.265 128.083 108.077C128.408 107.985 128.78 107.939 129.111 107.939C130.506 107.983 131.906 107.983 133.304 108.077C133.91 108.123 134.47 108.263 135.03 108.449C135.748 108.698 136.449 108.994 137.128 109.334C137.921 109.759 138.667 110.223 139.414 110.737C140.767 111.622 142.025 112.604 143.377 113.397C144.683 114.19 145.709 115.263 146.549 116.478C147.577 117.923 148.741 119.23 149.207 121.003L149.906 124.085C150.047 124.644 150.373 125.204 150.233 125.855C149.998 127.024 149.812 128.237 149.626 129.404C149.533 129.874 149.439 130.343 149.487 130.803C149.576 132.256 149.018 133.513 148.459 134.82C148.272 135.24 147.992 135.661 147.759 136.127C147.874 136.207 147.999 136.271 148.132 136.315L148.552 135.475C148.599 135.475 148.599 135.475 148.646 135.523C148.412 136.175 148.226 136.876 147.99 137.529C147.433 138.976 146.873 140.469 146.173 141.868C145.801 142.662 145.146 143.315 144.681 144.064C144.217 144.716 143.843 145.415 143.377 146.023C142.957 146.536 142.539 147.05 141.977 147.422C140.719 148.355 139.413 149.288 138.06 150.036C137.222 150.549 136.242 150.829 135.31 151.063L135.323 151.058ZM110.465 148.578L110.418 148.626C110.321 148.58 110.181 148.534 110.089 148.44L108.969 146.758C108.877 146.62 108.827 146.48 108.877 146.294C109.391 147.087 109.906 147.835 110.465 148.578ZM139.475 154.971C141.571 154.086 143.297 152.829 144.88 151.38C145.115 151.146 145.348 150.914 145.628 150.725C147.588 149.513 149.03 147.833 150.338 145.966C151.83 143.82 152.81 141.394 154.024 139.107C154.106 138.931 154.199 138.759 154.302 138.594C154.208 143.914 154.816 149.14 155.514 154.414C150.246 154.6 144.882 154.785 139.473 154.973L139.475 154.971ZM186.761 153.572C186.715 153.666 186.619 153.76 186.575 153.856C186.527 153.76 186.527 153.62 186.481 153.431C186.201 154.18 185.595 153.806 185.175 153.806C182.658 153.854 180.092 153.854 177.572 153.854C175.148 153.854 172.678 153.854 170.253 153.896C169.459 153.896 168.619 154.082 167.826 154.13C165.915 154.222 164.003 154.272 162.091 154.316C161.949 154.316 161.811 154.086 161.577 153.898C161.495 154.045 161.401 154.186 161.297 154.318C161.247 154.226 161.155 154.134 161.061 153.994C161.015 154.136 160.967 154.274 160.919 154.366H160.785C160.691 153.714 160.505 153.108 160.505 152.453C160.505 151.054 160.647 149.655 160.691 148.252C160.739 147.601 160.691 146.995 160.691 146.386C160.879 146.528 161.019 146.621 161.205 146.758C161.297 146.575 161.391 146.436 161.485 146.297C161.485 146.297 161.391 146.248 161.297 146.156C161.386 146.108 161.481 146.014 161.481 145.968C161.527 145.826 161.623 145.688 161.623 145.596C161.623 145.268 161.527 144.989 161.481 144.711C161.527 144.711 161.573 144.711 161.623 144.661L161.901 146.06H162.043C161.855 145.736 162.461 145.454 161.949 145.083C161.903 145.035 161.995 144.755 161.995 144.615C161.853 144.337 161.765 144.057 161.623 143.683C161.669 143.637 161.809 143.59 161.949 143.542C161.763 143.45 161.623 143.358 161.483 143.312C161.949 142.89 161.949 142.656 161.529 142.191C161.625 142.146 161.717 142.146 161.717 142.102C161.717 141.681 161.717 141.261 161.625 140.845C161.531 140.374 161.767 139.818 161.065 139.534C161.111 139.676 161.159 139.768 161.251 139.906C161.251 139.906 161.109 139.954 160.971 140.048C160.365 139.486 160.741 138.737 160.599 137.9C160.925 137.993 161.159 138.087 161.391 138.183C161.297 137.854 161.065 137.48 160.925 137.06H160.735V133.979C160.735 134.027 161.061 134.027 161.249 134.074C161.249 134.027 161.293 133.981 161.293 133.933C161.152 133.747 160.966 133.561 160.779 133.327L160.873 133.233C160.501 132.769 160.687 132.117 160.687 131.976V128.708C161.155 129.176 160.457 129.782 161.155 130.061V129.596H161.107C161.061 128.896 161.061 128.197 161.015 127.495H160.923C160.875 127.591 160.875 127.637 160.827 127.731H160.735L161.015 116.578C161.481 117.183 161.993 117.746 162.319 118.348C163.393 120.311 164.792 121.991 166.098 123.764C167.218 125.305 168.242 126.984 169.27 128.57C170.528 130.483 171.74 132.396 173 134.308C173.932 135.757 174.914 137.204 175.889 138.604C176.775 139.862 177.711 141.077 178.643 142.292C179.433 143.365 180.273 144.438 181.065 145.511C181.999 146.818 182.931 148.123 183.865 149.384C184.33 150.036 184.844 150.689 185.354 151.343C185.637 151.715 186.056 151.998 186.336 152.228C186.291 152.228 186.244 152.228 186.151 152.182C186.293 152.368 186.382 152.508 186.477 152.602C186.991 152.882 187.037 153.162 186.757 153.583L186.761 153.572ZM189.139 141.909V141.581C189.139 141.673 189.185 141.813 189.139 141.909ZM190.725 121.331C190.677 121.331 190.399 121.047 190.353 121.001C190.305 121.143 190.353 121.281 190.259 121.469C190.211 121.331 189.887 121.377 189.887 121.239C189.839 121.89 190.165 122.544 190.117 123.197C190.259 123.103 190.817 123.056 190.957 122.917C191.005 122.964 191.099 123.01 191.145 123.01C190.211 123.711 190.445 124.409 190.865 125.206C190.957 125.39 191.237 125.763 190.957 126.137C190.865 126.231 191.005 126.509 191.051 126.744H191.188V126.833L190.768 126.975C190.676 126.833 190.117 126.557 190.117 126.319V128.703C190.584 128.845 190.584 129.497 190.77 129.824C190.851 129.71 190.915 129.585 190.959 129.452L191.007 129.495C190.959 129.775 190.913 130.054 190.819 130.336C190.727 130.754 190.633 131.128 190.589 131.547C190.589 131.593 190.677 131.689 190.677 131.733C190.167 132.902 190.447 134.205 190.261 135.417C190.119 136.302 190.261 137.241 190.167 138.172C190.071 138.966 189.884 139.805 189.699 140.599C189.651 140.74 189.557 140.784 189.327 140.878C189.419 140.319 189.373 139.945 189.279 139.431C189.23 139.431 188.624 139.106 188.576 139.106C188.576 139.761 188.948 140.646 189.09 141.39C188.948 141.344 188.39 141.018 188.345 141.018C188.25 141.578 188.25 142.325 188.204 142.931C188.156 143.398 187.737 143.816 187.69 144.33C187.69 144.613 188.016 144.797 187.97 145.265H188.342C188.342 144.333 188.764 143.494 188.764 142.513H188.902C188.95 142.607 189.09 142.701 189.044 142.747C188.95 143.26 188.76 143.82 188.81 144.333C188.81 144.613 189.04 144.893 188.951 145.219C188.856 145.502 188.81 145.78 188.762 146.2C188.714 145.966 188.668 145.874 188.668 145.734C188.622 145.734 188.202 145.686 188.154 145.686C188.108 145.966 188.482 146.246 188.434 146.48C188.388 146.526 188.342 146.526 188.248 146.574L186.71 144.332C185.494 142.561 184.282 140.784 183.07 138.966C182.755 138.52 182.474 138.053 182.228 137.567C180.786 135.083 179.181 132.697 177.425 130.424C176.075 128.7 174.997 126.829 173.739 125.014C172.577 123.288 171.411 121.607 170.245 119.879C169.825 119.321 169.312 118.807 168.938 118.2C167.728 116.287 166.652 114.327 165.444 112.414C164.416 110.826 163.299 109.285 162.226 107.746C161.853 107.232 161.481 106.671 161.106 106.111C161.047 106.014 161.015 105.903 161.013 105.789C160.919 104.762 160.826 103.735 160.779 102.755C160.779 101.822 160.873 100.889 160.873 99.9077V99.0683C160.873 98.8345 160.918 98.6486 160.918 98.413C160.962 98.3687 161.01 98.2749 161.056 98.2288C159.704 98.2288 158.304 98.1793 156.952 98.2288C156.066 98.2731 155.599 97.8995 154.993 97.246C153.221 95.2395 151.915 92.9532 150.377 90.8069C148.927 88.7647 147.45 86.7415 145.947 84.7379C144.733 83.105 143.519 81.5183 142.308 79.8855C140.954 78.0189 139.65 76.1524 138.25 74.2858C136.554 72.0355 134.844 69.7958 133.12 67.5669C132.322 66.5397 131.436 65.5604 130.55 64.4854C131.158 64.5811 131.72 64.6731 132.278 64.721L134.518 64.8626C136.196 64.999 137.874 65.0929 139.551 65.3231C140.951 65.5126 142.351 65.7924 143.797 66.0244C146.877 66.5379 149.907 67.3791 152.846 68.3585C154.572 68.9181 156.248 69.6654 157.932 70.3649C161.706 71.9056 165.298 73.7722 168.843 75.7309C169.959 76.3383 170.615 77.3176 171.451 78.2049C172.665 79.4658 173.879 80.7249 175.044 82.0301C176.394 83.5708 177.652 85.1576 178.96 86.7443C180.124 88.1434 181.335 89.5424 182.504 90.945C182.876 91.3647 183.16 91.8783 183.483 92.344C184.227 93.465 185.069 94.54 185.721 95.7513C186.185 96.6403 186.465 97.6675 186.791 98.6468C187.255 100.094 187.723 101.493 188.191 102.94C188.515 104.013 188.794 105.135 189.028 106.251C189.215 107 189.169 107.792 189.4 108.536C189.683 109.52 189.4 110.59 189.683 111.573C189.728 111.667 189.772 111.807 189.822 111.9C190.008 112.085 190.148 112.272 189.868 112.552C189.823 112.598 189.823 112.782 189.868 112.924C189.963 112.832 190.009 112.738 190.103 112.598C190.103 112.692 190.148 112.74 190.148 112.784C190.148 112.968 190.1 113.156 190.148 113.342C190.148 113.434 190.24 113.572 190.286 113.668C190.38 113.572 190.472 113.526 190.658 113.385C191.078 114.973 191.126 116.56 191.126 118.193C191.126 119.733 191.404 121.274 190.754 122.767C190.892 122.253 190.566 121.784 190.706 121.318L190.725 121.331Z" fill="#DD3A0A"/>
<path fill-rule="evenodd" clip-rule="evenodd" d="M160.927 139.479C160.971 139.479 161.019 139.527 161.019 139.527L160.971 139.474C160.971 139.43 160.971 139.43 160.925 139.474L160.927 139.479ZM168.293 185.587C167.779 185.959 167.266 186.287 166.613 186.427C166.564 186.381 166.564 186.333 166.518 186.285C167.032 185.959 167.59 185.633 168.104 185.306C168.152 185.394 168.246 185.49 168.292 185.584L168.293 185.587ZM80.8519 122.351C81.3658 121.701 81.8797 121.047 82.4362 120.394C82.4805 120.44 82.8527 120.536 82.9005 120.58C82.3866 121.235 81.6866 122.121 81.1744 122.82C81.0787 122.726 80.9387 122.4 80.8466 122.353L80.8519 122.351ZM67.6051 145.222C67.2329 144.429 66.8608 143.588 66.4886 142.796C66.6184 142.714 66.7592 142.651 66.9068 142.609C67.4208 143.352 67.6511 144.238 68.0268 145.035C68.0268 145.035 67.6547 145.221 67.6068 145.221L67.6051 145.222ZM79.4997 122.82C79.2197 123.242 78.9397 123.709 78.6597 124.131C78.6137 124.081 78.0997 124.315 78.0537 124.269C78.3337 123.849 79.0319 123.1 79.3119 122.682C79.3597 122.728 79.4058 122.776 79.4997 122.824V122.82ZM163.305 187.504C163.349 187.504 163.349 187.458 163.397 187.458C163.723 187.504 164.095 187.55 164.469 187.55C163.859 187.969 163.486 187.921 163.299 187.504H163.305ZM79.5883 124.781C79.638 124.639 79.7301 124.501 79.824 124.361C79.9162 124.361 80.0544 124.313 80.0544 124.313C80.244 123.987 80.244 123.753 80.4301 123.474C80.384 123.428 80.3362 123.428 80.2883 123.38C80.0101 123.571 79.7301 123.805 79.4501 123.991C79.544 124.083 79.544 124.132 79.544 124.224C79.1719 124.177 79.0301 124.366 78.844 124.876C78.798 125.018 78.564 125.064 78.3301 125.248C78.284 125.344 78.238 125.577 78.144 125.809L78.1919 125.859C78.098 125.953 77.958 126.001 77.958 126.001C77.678 126.279 77.3519 126.514 77.0719 126.792C77.0258 126.934 76.9797 127.072 76.9797 127.212C77.3076 126.886 77.8658 126.279 78.2858 125.905L78.3337 125.953C78.5197 125.673 78.6597 125.393 78.8476 125.113C78.8919 125.16 78.8919 125.206 78.9397 125.255C78.798 125.627 78.6597 126.045 78.5197 126.419C78.4223 126.465 78.2823 126.56 78.2823 126.513C78.0962 126.654 77.9562 126.838 77.7683 126.978L76.9301 127.538C76.464 127.958 75.998 128.329 75.484 128.751C75.158 129.265 74.8319 129.73 74.4562 130.338C75.018 130.196 75.158 130.432 75.1119 130.899C75.764 130.991 75.8119 130.479 75.998 130.106C76.044 130.01 76.0919 129.822 76.184 129.776C76.604 129.404 77.0701 129.079 77.5362 128.705C77.6301 128.611 77.6301 128.422 77.6301 128.283C77.6301 128.237 77.3944 128.237 77.2544 128.19C77.6744 127.722 78.2823 126.932 78.7005 126.419C78.9344 126.277 79.1666 126.089 79.1666 125.949C79.1205 125.436 79.4466 125.298 79.8223 125.11C79.6344 124.968 79.5866 124.832 79.5866 124.786L79.5883 124.781Z" fill="#DD3735"/>
<path fill-rule="evenodd" clip-rule="evenodd" d="M80.524 124.267C80.338 124.593 80.1519 124.873 79.9658 125.2L79.6858 125.059C79.4997 126.13 78.8458 127.063 78.1937 127.249C78.3797 127.343 78.5658 127.437 78.7076 127.391C78.8458 127.343 78.938 127.108 79.0319 126.969L80.2901 125.149L80.7119 124.448L80.5258 124.262L80.524 124.267ZM64.9964 144.753C65.2304 144.753 65.4643 144.799 65.7408 144.799C65.7408 144.613 65.9764 144.658 65.9764 144.473H66.1182C66.1182 144.707 66.1643 144.893 66.1643 145.129H65.1861C65.1382 145.081 64.9504 144.799 64.9964 144.753ZM64.6243 142.607C64.4825 142.465 64.2521 142.327 64.2521 142.187C64.2043 142.003 64.3443 141.771 64.4825 141.537C64.5782 141.863 64.6243 142.143 64.7164 142.47C64.6686 142.515 64.6225 142.563 64.6225 142.609L64.6243 142.607ZM65.7904 139.619C65.9764 140.09 66.1625 140.604 66.3504 141.071C66.2181 141.115 66.0928 141.178 65.9782 141.257C65.7921 140.79 65.5582 140.276 65.3721 139.81C65.4981 139.72 65.641 139.657 65.7921 139.623L65.7904 139.619ZM169.603 184.236C169.833 184.144 170.113 184.095 170.489 184.006C170.067 184.33 169.741 184.564 169.461 184.844C169.413 184.798 169.367 184.75 169.32 184.75C169.413 184.564 169.507 184.424 169.603 184.236ZM112.281 85.6287C112.559 85.441 112.795 85.3011 113.073 85.1151L113.165 85.2072C112.882 85.5791 112.651 85.951 112.324 86.4203C112.277 86.0962 112.277 85.9067 112.23 85.6765C112.184 85.6765 112.23 85.6765 112.277 85.6305L112.281 85.6287ZM125.944 109.241C126.364 109.053 126.784 108.869 127.296 108.633C127.25 108.913 127.25 109.101 127.25 109.288C127.1 109.234 126.942 109.202 126.783 109.193C126.503 109.241 125.989 109.614 125.755 109.66C125.71 109.66 125.944 109.288 125.944 109.241ZM160.927 148.814C161.019 149.28 161.905 149.513 161.019 149.979C161.161 150.077 161.297 150.121 161.437 150.217C161.437 150.264 161.391 150.358 161.345 150.404C161.251 150.449 161.065 150.542 160.973 150.493C160.925 150.493 160.831 150.309 160.831 150.215C160.831 149.795 160.879 149.375 160.925 148.816L160.927 148.814Z" fill="#DD3735"/>
</svg>
