<svg width="256" height="256" viewBox="0 0 256 256" fill="none" xmlns="http://www.w3.org/2000/svg">
<path d="M196 0H60C26.8629 0 0 26.8629 0 60V196C0 229.137 26.8629 256 60 256H196C229.137 256 256 229.137 256 196V60C256 26.8629 229.137 0 196 0Z" fill="#F4F2ED"/>
<path d="M128.5 35L209 81.5V174.5L128.5 221L48 174.5V81.5L128.5 35Z" fill="#673AB8"/>
<path d="M72.0611 171.346C81.2252 183.284 113.956 173.555 145.167 149.616C176.378 125.677 194.25 96.5923 185.086 84.6542C175.922 72.7162 143.191 82.445 111.98 106.384C80.7694 130.323 62.8969 159.408 72.0611 171.346Z" stroke="white" stroke-width="5.8"/>
<path d="M185.086 171.346C194.25 159.408 176.378 130.323 145.167 106.384C113.956 82.4451 81.2252 72.7163 72.061 84.6544C62.8969 96.5924 80.7694 125.677 111.98 149.616C143.191 173.555 175.922 183.284 185.086 171.346Z" stroke="white" stroke-width="5.8"/>
<path d="M128.574 140.352C135.398 140.352 140.93 134.822 140.93 128C140.93 121.178 135.398 115.648 128.574 115.648C121.749 115.648 116.217 121.178 116.217 128C116.217 134.822 121.749 140.352 128.574 140.352Z" fill="white"/>
</svg>
