<svg width="256" height="256" viewBox="0 0 256 256" fill="none" xmlns="http://www.w3.org/2000/svg">
<g id="Arch-Dark 8" clip-path="url(#clip0_9_239)">
<g id="Clip path group">
<mask id="mask0_9_239" style="mask-type:luminance" maskUnits="userSpaceOnUse" x="0" y="0" width="256" height="256">
<g id="clip0_33_628">
<path id="Vector" d="M256 0H0V256H256V0Z" fill="white"/>
</g>
</mask>
<g mask="url(#mask0_9_239)">
<g id="Group">
<path id="Vector_2" d="M196 0H60C26.8629 0 0 26.8629 0 60V196C0 229.137 26.8629 256 60 256H196C229.137 256 256 229.137 256 196V60C256 26.8629 229.137 0 196 0Z" fill="#1D2A33"/>
</g>
</g>
</g>
<g id="Frame">
<g id="Group_2">
<path id="Vector_3" d="M173 78.25H165.5C163.429 78.25 161.75 79.9289 161.75 82C161.75 84.0711 163.429 85.75 165.5 85.75H173C175.071 85.75 176.75 84.0711 176.75 82C176.75 79.9289 175.071 78.25 173 78.25Z" fill="#56B3B4"/>
<path id="Vector_4" d="M90.5 198.25H53C50.9289 198.25 49.25 199.929 49.25 202C49.25 204.071 50.9289 205.75 53 205.75H90.5C92.5711 205.75 94.25 204.071 94.25 202C94.25 199.929 92.5711 198.25 90.5 198.25Z" fill="#EA5E5E"/>
<path id="Vector_5" d="M165.5 138.25H143C140.929 138.25 139.25 139.929 139.25 142C139.25 144.071 140.929 145.75 143 145.75H165.5C167.571 145.75 169.25 144.071 169.25 142C169.25 139.929 167.571 138.25 165.5 138.25Z" fill="#BF85BF"/>
<path id="Vector_6" d="M128 138.25H98C95.9289 138.25 94.25 139.929 94.25 142C94.25 144.071 95.9289 145.75 98 145.75H128C130.071 145.75 131.75 144.071 131.75 142C131.75 139.929 130.071 138.25 128 138.25Z" fill="#EA5E5E"/>
<path id="Vector_7" d="M83 138.25H53C50.9289 138.25 49.25 139.929 49.25 142C49.25 144.071 50.9289 145.75 53 145.75H83C85.0711 145.75 86.75 144.071 86.75 142C86.75 139.929 85.0711 138.25 83 138.25Z" fill="#56B3B4"/>
<path id="Vector_8" d="M90.5 168.25H53C50.9289 168.25 49.25 169.929 49.25 172C49.25 174.071 50.9289 175.75 53 175.75H90.5C92.5711 175.75 94.25 174.071 94.25 172C94.25 169.929 92.5711 168.25 90.5 168.25Z" fill="#BF85BF"/>
<path id="Vector_9" d="M90.5 108.25H53C50.9289 108.25 49.25 109.929 49.25 112C49.25 114.071 50.9289 115.75 53 115.75H90.5C92.5711 115.75 94.25 114.071 94.25 112C94.25 109.929 92.5711 108.25 90.5 108.25Z" fill="#BF85BF"/>
<path id="Vector_10" d="M165.5 63.25H90.5C88.4289 63.25 86.75 64.9289 86.75 67C86.75 69.0711 88.4289 70.75 90.5 70.75H165.5C167.571 70.75 169.25 69.0711 169.25 67C169.25 64.9289 167.571 63.25 165.5 63.25Z" fill="#F7BA3E"/>
<path id="Vector_11" d="M75.5 63.25H53C50.9289 63.25 49.25 64.9289 49.25 67C49.25 69.0711 50.9289 70.75 53 70.75H75.5C77.5711 70.75 79.25 69.0711 79.25 67C79.25 64.9289 77.5711 63.25 75.5 63.25Z" fill="#EA5E5E"/>
<path id="Vector_12" d="M90.5 183.25H83C80.9289 183.25 79.25 184.929 79.25 187C79.25 189.071 80.9289 190.75 83 190.75H90.5C92.5711 190.75 94.25 189.071 94.25 187C94.25 184.929 92.5711 183.25 90.5 183.25Z" fill="#F7BA3E"/>
<path id="Vector_13" d="M90.5 93.25H83C80.9289 93.25 79.25 94.9289 79.25 97C79.25 99.0711 80.9289 100.75 83 100.75H90.5C92.5711 100.75 94.25 99.0711 94.25 97C94.25 94.9289 92.5711 93.25 90.5 93.25Z" fill="#56B3B4"/>
<path id="Vector_14" d="M68 183.25H53C50.9289 183.25 49.25 184.929 49.25 187C49.25 189.071 50.9289 190.75 53 190.75H68C70.0711 190.75 71.75 189.071 71.75 187C71.75 184.929 70.0711 183.25 68 183.25Z" fill="#56B3B4"/>
<path id="Vector_15" d="M68 93.25H53C50.9289 93.25 49.25 94.9289 49.25 97C49.25 99.0711 50.9289 100.75 53 100.75H68C70.0711 100.75 71.75 99.0711 71.75 97C71.75 94.9289 70.0711 93.25 68 93.25Z" fill="#F7BA3E"/>
<path id="Vector_16" opacity="0.5" d="M158 183.25H150.5C148.429 183.25 146.75 184.929 146.75 187C146.75 189.071 148.429 190.75 150.5 190.75H158C160.071 190.75 161.75 189.071 161.75 187C161.75 184.929 160.071 183.25 158 183.25Z" fill="#4D616E"/>
<path id="Vector_17" opacity="0.5" d="M135.5 183.25H105.5C103.429 183.25 101.75 184.929 101.75 187C101.75 189.071 103.429 190.75 105.5 190.75H135.5C137.571 190.75 139.25 189.071 139.25 187C139.25 184.929 137.571 183.25 135.5 183.25Z" fill="#4D616E"/>
<path id="Vector_18" opacity="0.5" d="M203 183.25H173C170.929 183.25 169.25 184.929 169.25 187C169.25 189.071 170.929 190.75 173 190.75H203C205.071 190.75 206.75 189.071 206.75 187C206.75 184.929 205.071 183.25 203 183.25Z" fill="#4D616E"/>
<path id="Vector_19" d="M173 123.25H113C110.929 123.25 109.25 124.929 109.25 127C109.25 129.071 110.929 130.75 113 130.75H173C175.071 130.75 176.75 129.071 176.75 127C176.75 124.929 175.071 123.25 173 123.25Z" fill="#56B3B4"/>
<path id="Vector_20" d="M98 123.25H75.5C73.4289 123.25 71.75 124.929 71.75 127C71.75 129.071 73.4289 130.75 75.5 130.75H98C100.071 130.75 101.75 129.071 101.75 127C101.75 124.929 100.071 123.25 98 123.25Z" fill="#F7BA3E"/>
<path id="Vector_21" d="M60.5 123.25H53C50.9289 123.25 49.25 124.929 49.25 127C49.25 129.071 50.9289 130.75 53 130.75H60.5C62.5711 130.75 64.25 129.071 64.25 127C64.25 124.929 62.5711 123.25 60.5 123.25Z" fill="#EA5E5E"/>
<path id="Vector_22" d="M150.5 78.25H120.5C118.429 78.25 116.75 79.9289 116.75 82C116.75 84.0711 118.429 85.75 120.5 85.75H150.5C152.571 85.75 154.25 84.0711 154.25 82C154.25 79.9289 152.571 78.25 150.5 78.25Z" fill="#BF85BF"/>
<path id="Vector_23" d="M105.5 78.25H53C50.9289 78.25 49.25 79.9289 49.25 82C49.25 84.0711 50.9289 85.75 53 85.75H105.5C107.571 85.75 109.25 84.0711 109.25 82C109.25 79.9289 107.571 78.25 105.5 78.25Z" fill="#56B3B4"/>
<path id="Vector_24" d="M143 153.25H75.5C73.4289 153.25 71.75 154.929 71.75 157C71.75 159.071 73.4289 160.75 75.5 160.75H143C145.071 160.75 146.75 159.071 146.75 157C146.75 154.929 145.071 153.25 143 153.25Z" fill="#F7BA3E"/>
<path id="Vector_25" d="M60.5 153.25H53C50.9289 153.25 49.25 154.929 49.25 157C49.25 159.071 50.9289 160.75 53 160.75H60.5C62.5711 160.75 64.25 159.071 64.25 157C64.25 154.929 62.5711 153.25 60.5 153.25Z" fill="#BF85BF"/>
<path id="Vector_26" d="M180.5 93.25H143C140.929 93.25 139.25 94.9289 139.25 97C139.25 99.0711 140.929 100.75 143 100.75H180.5C182.571 100.75 184.25 99.0711 184.25 97C184.25 94.9289 182.571 93.25 180.5 93.25Z" fill="#EA5E5E"/>
<path id="Vector_27" d="M180.5 108.25H143C140.929 108.25 139.25 109.929 139.25 112C139.25 114.071 140.929 115.75 143 115.75H180.5C182.571 115.75 184.25 114.071 184.25 112C184.25 109.929 182.571 108.25 180.5 108.25Z" fill="#F7BA3E"/>
<path id="Vector_28" d="M143 48.25H53C50.9289 48.25 49.25 49.9289 49.25 52C49.25 54.0711 50.9289 55.75 53 55.75H143C145.071 55.75 146.75 54.0711 146.75 52C146.75 49.9289 145.071 48.25 143 48.25Z" fill="#56B3B4"/>
<path id="Vector_29" opacity="0.5" d="M203 48.25H158C155.929 48.25 154.25 49.9289 154.25 52C154.25 54.0711 155.929 55.75 158 55.75H203C205.071 55.75 206.75 54.0711 206.75 52C206.75 49.9289 205.071 48.25 203 48.25Z" fill="#4D616E"/>
<path id="Vector_30" opacity="0.5" d="M173 153.25H158C155.929 153.25 154.25 154.929 154.25 157C154.25 159.071 155.929 160.75 158 160.75H173C175.071 160.75 176.75 159.071 176.75 157C176.75 154.929 175.071 153.25 173 153.25Z" fill="#4D616E"/>
<path id="Vector_31" opacity="0.5" d="M203 153.25H188C185.929 153.25 184.25 154.929 184.25 157C184.25 159.071 185.929 160.75 188 160.75H203C205.071 160.75 206.75 159.071 206.75 157C206.75 154.929 205.071 153.25 203 153.25Z" fill="#4D616E"/>
<path id="Vector_32" opacity="0.5" d="M203 138.25H180.5C178.429 138.25 176.75 139.929 176.75 142C176.75 144.071 178.429 145.75 180.5 145.75H203C205.071 145.75 206.75 144.071 206.75 142C206.75 139.929 205.071 138.25 203 138.25Z" fill="#4D616E"/>
<path id="Vector_33" opacity="0.5" d="M203 63.25H180.5C178.429 63.25 176.75 64.9289 176.75 67C176.75 69.0711 178.429 70.75 180.5 70.75H203C205.071 70.75 206.75 69.0711 206.75 67C206.75 64.9289 205.071 63.25 203 63.25Z" fill="#4D616E"/>
<path id="Vector_34" opacity="0.5" d="M203 123.25H188C185.929 123.25 184.25 124.929 184.25 127C184.25 129.071 185.929 130.75 188 130.75H203C205.071 130.75 206.75 129.071 206.75 127C206.75 124.929 205.071 123.25 203 123.25Z" fill="#4D616E"/>
<path id="Vector_35" opacity="0.5" d="M203 78.25H188C185.929 78.25 184.25 79.9289 184.25 82C184.25 84.0711 185.929 85.75 188 85.75H203C205.071 85.75 206.75 84.0711 206.75 82C206.75 79.9289 205.071 78.25 203 78.25Z" fill="#4D616E"/>
<path id="Vector_36" opacity="0.5" d="M203 93.25H195.5C193.429 93.25 191.75 94.9289 191.75 97C191.75 99.0711 193.429 100.75 195.5 100.75H203C205.071 100.75 206.75 99.0711 206.75 97C206.75 94.9289 205.071 93.25 203 93.25Z" fill="#4D616E"/>
<path id="Vector_37" opacity="0.5" d="M203 108.25H195.5C193.429 108.25 191.75 109.929 191.75 112C191.75 114.071 193.429 115.75 195.5 115.75H203C205.071 115.75 206.75 114.071 206.75 112C206.75 109.929 205.071 108.25 203 108.25Z" fill="#4D616E"/>
<path id="Vector_38" opacity="0.5" d="M203 168.25H135.5C133.429 168.25 131.75 169.929 131.75 172C131.75 174.071 133.429 175.75 135.5 175.75H203C205.071 175.75 206.75 174.071 206.75 172C206.75 169.929 205.071 168.25 203 168.25Z" fill="#4D616E"/>
<path id="Vector_39" opacity="0.5" d="M120.5 168.25H105.5C103.429 168.25 101.75 169.929 101.75 172C101.75 174.071 103.429 175.75 105.5 175.75H120.5C122.571 175.75 124.25 174.071 124.25 172C124.25 169.929 122.571 168.25 120.5 168.25Z" fill="#4D616E"/>
<path id="Vector_40" opacity="0.5" d="M203 198.25H165.5C163.429 198.25 161.75 199.929 161.75 202C161.75 204.071 163.429 205.75 165.5 205.75H203C205.071 205.75 206.75 204.071 206.75 202C206.75 199.929 205.071 198.25 203 198.25Z" fill="#4D616E"/>
<path id="Vector_41" opacity="0.5" d="M150.5 198.25H105.5C103.429 198.25 101.75 199.929 101.75 202C101.75 204.071 103.429 205.75 105.5 205.75H150.5C152.571 205.75 154.25 204.071 154.25 202C154.25 199.929 152.571 198.25 150.5 198.25Z" fill="#4D616E"/>
<path id="Vector_42" opacity="0.5" d="M128 93.25H105.5C103.429 93.25 101.75 94.9289 101.75 97C101.75 99.0711 103.429 100.75 105.5 100.75H128C130.071 100.75 131.75 99.0711 131.75 97C131.75 94.9289 130.071 93.25 128 93.25Z" fill="#4D616E"/>
<path id="Vector_43" opacity="0.5" d="M128 108.25H105.5C103.429 108.25 101.75 109.929 101.75 112C101.75 114.071 103.429 115.75 105.5 115.75H128C130.071 115.75 131.75 114.071 131.75 112C131.75 109.929 130.071 108.25 128 108.25Z" fill="#4D616E"/>
</g>
</g>
</g>
<defs>
<clipPath id="clip0_9_239">
<rect width="256" height="256" fill="white"/>
</clipPath>
</defs>
</svg>
