<svg width="256" height="256" viewBox="0 0 256 256" fill="none" xmlns="http://www.w3.org/2000/svg">
<g id="Arch-Dark 9" clip-path="url(#clip0_9_245)">
<g id="Clip path group">
<mask id="mask0_9_245" style="mask-type:luminance" maskUnits="userSpaceOnUse" x="0" y="0" width="256" height="256">
<g id="clip0_33_628">
<path id="Vector" d="M256 0H0V256H256V0Z" fill="white"/>
</g>
</mask>
<g mask="url(#mask0_9_245)">
<g id="Group">
<path id="Vector_2" d="M196 0H60C26.8629 0 0 26.8629 0 60V196C0 229.137 26.8629 256 60 256H196C229.137 256 256 229.137 256 196V60C256 26.8629 229.137 0 196 0Z" fill="#F4F2ED"/>
</g>
</g>
</g>
<g id="Frame">
<g id="Group_2">
<path id="Vector_3" d="M173 73.25H165.5C163.429 73.25 161.75 74.9289 161.75 77C161.75 79.0711 163.429 80.75 165.5 80.75H173C175.071 80.75 176.75 79.0711 176.75 77C176.75 74.9289 175.071 73.25 173 73.25Z" fill="#56B3B4"/>
<path id="Vector_4" d="M90.5 193.25H53C50.9289 193.25 49.25 194.929 49.25 197C49.25 199.071 50.9289 200.75 53 200.75H90.5C92.5711 200.75 94.25 199.071 94.25 197C94.25 194.929 92.5711 193.25 90.5 193.25Z" fill="#EA5E5E"/>
<path id="Vector_5" d="M165.5 133.25H143C140.929 133.25 139.25 134.929 139.25 137C139.25 139.071 140.929 140.75 143 140.75H165.5C167.571 140.75 169.25 139.071 169.25 137C169.25 134.929 167.571 133.25 165.5 133.25Z" fill="#BF85BF"/>
<path id="Vector_6" d="M128 133.25H98C95.9289 133.25 94.25 134.929 94.25 137C94.25 139.071 95.9289 140.75 98 140.75H128C130.071 140.75 131.75 139.071 131.75 137C131.75 134.929 130.071 133.25 128 133.25Z" fill="#EA5E5E"/>
<path id="Vector_7" d="M83 133.25H53C50.9289 133.25 49.25 134.929 49.25 137C49.25 139.071 50.9289 140.75 53 140.75H83C85.0711 140.75 86.75 139.071 86.75 137C86.75 134.929 85.0711 133.25 83 133.25Z" fill="#56B3B4"/>
<path id="Vector_8" d="M90.5 163.25H53C50.9289 163.25 49.25 164.929 49.25 167C49.25 169.071 50.9289 170.75 53 170.75H90.5C92.5711 170.75 94.25 169.071 94.25 167C94.25 164.929 92.5711 163.25 90.5 163.25Z" fill="#BF85BF"/>
<path id="Vector_9" d="M90.5 103.25H53C50.9289 103.25 49.25 104.929 49.25 107C49.25 109.071 50.9289 110.75 53 110.75H90.5C92.5711 110.75 94.25 109.071 94.25 107C94.25 104.929 92.5711 103.25 90.5 103.25Z" fill="#BF85BF"/>
<path id="Vector_10" d="M165.5 58.25H90.5C88.4289 58.25 86.75 59.9289 86.75 62C86.75 64.0711 88.4289 65.75 90.5 65.75H165.5C167.571 65.75 169.25 64.0711 169.25 62C169.25 59.9289 167.571 58.25 165.5 58.25Z" fill="#F7BA3E"/>
<path id="Vector_11" d="M75.5 58.25H53C50.9289 58.25 49.25 59.9289 49.25 62C49.25 64.0711 50.9289 65.75 53 65.75H75.5C77.5711 65.75 79.25 64.0711 79.25 62C79.25 59.9289 77.5711 58.25 75.5 58.25Z" fill="#EA5E5E"/>
<path id="Vector_12" d="M90.5 178.25H83C80.9289 178.25 79.25 179.929 79.25 182C79.25 184.071 80.9289 185.75 83 185.75H90.5C92.5711 185.75 94.25 184.071 94.25 182C94.25 179.929 92.5711 178.25 90.5 178.25Z" fill="#F7BA3E"/>
<path id="Vector_13" d="M90.5 88.25H83C80.9289 88.25 79.25 89.9289 79.25 92C79.25 94.0711 80.9289 95.75 83 95.75H90.5C92.5711 95.75 94.25 94.0711 94.25 92C94.25 89.9289 92.5711 88.25 90.5 88.25Z" fill="#56B3B4"/>
<path id="Vector_14" d="M68 178.25H53C50.9289 178.25 49.25 179.929 49.25 182C49.25 184.071 50.9289 185.75 53 185.75H68C70.0711 185.75 71.75 184.071 71.75 182C71.75 179.929 70.0711 178.25 68 178.25Z" fill="#56B3B4"/>
<path id="Vector_15" d="M68 88.25H53C50.9289 88.25 49.25 89.9289 49.25 92C49.25 94.0711 50.9289 95.75 53 95.75H68C70.0711 95.75 71.75 94.0711 71.75 92C71.75 89.9289 70.0711 88.25 68 88.25Z" fill="#F7BA3E"/>
<path id="Vector_16" opacity="0.5" d="M158 178.25H150.5C148.429 178.25 146.75 179.929 146.75 182C146.75 184.071 148.429 185.75 150.5 185.75H158C160.071 185.75 161.75 184.071 161.75 182C161.75 179.929 160.071 178.25 158 178.25Z" fill="#4D616E"/>
<path id="Vector_17" opacity="0.5" d="M135.5 178.25H105.5C103.429 178.25 101.75 179.929 101.75 182C101.75 184.071 103.429 185.75 105.5 185.75H135.5C137.571 185.75 139.25 184.071 139.25 182C139.25 179.929 137.571 178.25 135.5 178.25Z" fill="#4D616E"/>
<path id="Vector_18" opacity="0.5" d="M203 178.25H173C170.929 178.25 169.25 179.929 169.25 182C169.25 184.071 170.929 185.75 173 185.75H203C205.071 185.75 206.75 184.071 206.75 182C206.75 179.929 205.071 178.25 203 178.25Z" fill="#4D616E"/>
<path id="Vector_19" d="M173 118.25H113C110.929 118.25 109.25 119.929 109.25 122C109.25 124.071 110.929 125.75 113 125.75H173C175.071 125.75 176.75 124.071 176.75 122C176.75 119.929 175.071 118.25 173 118.25Z" fill="#56B3B4"/>
<path id="Vector_20" d="M98 118.25H75.5C73.4289 118.25 71.75 119.929 71.75 122C71.75 124.071 73.4289 125.75 75.5 125.75H98C100.071 125.75 101.75 124.071 101.75 122C101.75 119.929 100.071 118.25 98 118.25Z" fill="#F7BA3E"/>
<path id="Vector_21" d="M60.5 118.25H53C50.9289 118.25 49.25 119.929 49.25 122C49.25 124.071 50.9289 125.75 53 125.75H60.5C62.5711 125.75 64.25 124.071 64.25 122C64.25 119.929 62.5711 118.25 60.5 118.25Z" fill="#EA5E5E"/>
<path id="Vector_22" d="M150.5 73.25H120.5C118.429 73.25 116.75 74.9289 116.75 77C116.75 79.0711 118.429 80.75 120.5 80.75H150.5C152.571 80.75 154.25 79.0711 154.25 77C154.25 74.9289 152.571 73.25 150.5 73.25Z" fill="#BF85BF"/>
<path id="Vector_23" d="M105.5 73.25H53C50.9289 73.25 49.25 74.9289 49.25 77C49.25 79.0711 50.9289 80.75 53 80.75H105.5C107.571 80.75 109.25 79.0711 109.25 77C109.25 74.9289 107.571 73.25 105.5 73.25Z" fill="#56B3B4"/>
<path id="Vector_24" d="M143 148.25H75.5C73.4289 148.25 71.75 149.929 71.75 152C71.75 154.071 73.4289 155.75 75.5 155.75H143C145.071 155.75 146.75 154.071 146.75 152C146.75 149.929 145.071 148.25 143 148.25Z" fill="#F7BA3E"/>
<path id="Vector_25" d="M60.5 148.25H53C50.9289 148.25 49.25 149.929 49.25 152C49.25 154.071 50.9289 155.75 53 155.75H60.5C62.5711 155.75 64.25 154.071 64.25 152C64.25 149.929 62.5711 148.25 60.5 148.25Z" fill="#BF85BF"/>
<path id="Vector_26" d="M180.5 88.25H143C140.929 88.25 139.25 89.9289 139.25 92C139.25 94.0711 140.929 95.75 143 95.75H180.5C182.571 95.75 184.25 94.0711 184.25 92C184.25 89.9289 182.571 88.25 180.5 88.25Z" fill="#EA5E5E"/>
<path id="Vector_27" d="M180.5 103.25H143C140.929 103.25 139.25 104.929 139.25 107C139.25 109.071 140.929 110.75 143 110.75H180.5C182.571 110.75 184.25 109.071 184.25 107C184.25 104.929 182.571 103.25 180.5 103.25Z" fill="#F7BA3E"/>
<path id="Vector_28" d="M143 43.25H53C50.9289 43.25 49.25 44.9289 49.25 47C49.25 49.0711 50.9289 50.75 53 50.75H143C145.071 50.75 146.75 49.0711 146.75 47C146.75 44.9289 145.071 43.25 143 43.25Z" fill="#56B3B4"/>
<path id="Vector_29" opacity="0.5" d="M203 43.25H158C155.929 43.25 154.25 44.9289 154.25 47C154.25 49.0711 155.929 50.75 158 50.75H203C205.071 50.75 206.75 49.0711 206.75 47C206.75 44.9289 205.071 43.25 203 43.25Z" fill="#4D616E"/>
<path id="Vector_30" opacity="0.5" d="M173 148.25H158C155.929 148.25 154.25 149.929 154.25 152C154.25 154.071 155.929 155.75 158 155.75H173C175.071 155.75 176.75 154.071 176.75 152C176.75 149.929 175.071 148.25 173 148.25Z" fill="#4D616E"/>
<path id="Vector_31" opacity="0.5" d="M203 148.25H188C185.929 148.25 184.25 149.929 184.25 152C184.25 154.071 185.929 155.75 188 155.75H203C205.071 155.75 206.75 154.071 206.75 152C206.75 149.929 205.071 148.25 203 148.25Z" fill="#4D616E"/>
<path id="Vector_32" opacity="0.5" d="M203 133.25H180.5C178.429 133.25 176.75 134.929 176.75 137C176.75 139.071 178.429 140.75 180.5 140.75H203C205.071 140.75 206.75 139.071 206.75 137C206.75 134.929 205.071 133.25 203 133.25Z" fill="#4D616E"/>
<path id="Vector_33" opacity="0.5" d="M203 58.25H180.5C178.429 58.25 176.75 59.9289 176.75 62C176.75 64.0711 178.429 65.75 180.5 65.75H203C205.071 65.75 206.75 64.0711 206.75 62C206.75 59.9289 205.071 58.25 203 58.25Z" fill="#4D616E"/>
<path id="Vector_34" opacity="0.5" d="M203 118.25H188C185.929 118.25 184.25 119.929 184.25 122C184.25 124.071 185.929 125.75 188 125.75H203C205.071 125.75 206.75 124.071 206.75 122C206.75 119.929 205.071 118.25 203 118.25Z" fill="#4D616E"/>
<path id="Vector_35" opacity="0.5" d="M203 73.25H188C185.929 73.25 184.25 74.9289 184.25 77C184.25 79.0711 185.929 80.75 188 80.75H203C205.071 80.75 206.75 79.0711 206.75 77C206.75 74.9289 205.071 73.25 203 73.25Z" fill="#4D616E"/>
<path id="Vector_36" opacity="0.5" d="M203 88.25H195.5C193.429 88.25 191.75 89.9289 191.75 92C191.75 94.0711 193.429 95.75 195.5 95.75H203C205.071 95.75 206.75 94.0711 206.75 92C206.75 89.9289 205.071 88.25 203 88.25Z" fill="#4D616E"/>
<path id="Vector_37" opacity="0.5" d="M203 103.25H195.5C193.429 103.25 191.75 104.929 191.75 107C191.75 109.071 193.429 110.75 195.5 110.75H203C205.071 110.75 206.75 109.071 206.75 107C206.75 104.929 205.071 103.25 203 103.25Z" fill="#4D616E"/>
<path id="Vector_38" opacity="0.5" d="M203 163.25H135.5C133.429 163.25 131.75 164.929 131.75 167C131.75 169.071 133.429 170.75 135.5 170.75H203C205.071 170.75 206.75 169.071 206.75 167C206.75 164.929 205.071 163.25 203 163.25Z" fill="#4D616E"/>
<path id="Vector_39" opacity="0.5" d="M120.5 163.25H105.5C103.429 163.25 101.75 164.929 101.75 167C101.75 169.071 103.429 170.75 105.5 170.75H120.5C122.571 170.75 124.25 169.071 124.25 167C124.25 164.929 122.571 163.25 120.5 163.25Z" fill="#4D616E"/>
<path id="Vector_40" opacity="0.5" d="M203 193.25H165.5C163.429 193.25 161.75 194.929 161.75 197C161.75 199.071 163.429 200.75 165.5 200.75H203C205.071 200.75 206.75 199.071 206.75 197C206.75 194.929 205.071 193.25 203 193.25Z" fill="#4D616E"/>
<path id="Vector_41" opacity="0.5" d="M150.5 193.25H105.5C103.429 193.25 101.75 194.929 101.75 197C101.75 199.071 103.429 200.75 105.5 200.75H150.5C152.571 200.75 154.25 199.071 154.25 197C154.25 194.929 152.571 193.25 150.5 193.25Z" fill="#4D616E"/>
<path id="Vector_42" opacity="0.5" d="M128 88.25H105.5C103.429 88.25 101.75 89.9289 101.75 92C101.75 94.0711 103.429 95.75 105.5 95.75H128C130.071 95.75 131.75 94.0711 131.75 92C131.75 89.9289 130.071 88.25 128 88.25Z" fill="#4D616E"/>
<path id="Vector_43" opacity="0.5" d="M128 103.25H105.5C103.429 103.25 101.75 104.929 101.75 107C101.75 109.071 103.429 110.75 105.5 110.75H128C130.071 110.75 131.75 109.071 131.75 107C131.75 104.929 130.071 103.25 128 103.25Z" fill="#4D616E"/>
</g>
</g>
</g>
<defs>
<clipPath id="clip0_9_245">
<rect width="256" height="256" fill="white"/>
</clipPath>
</defs>
</svg>
