<svg width="256" height="256" viewBox="0 0 256 256" fill="none" xmlns="http://www.w3.org/2000/svg">
<g id="Arch-Dark 10" clip-path="url(#clip0_9_252)">
<g id="Clip path group">
<mask id="mask0_9_252" style="mask-type:luminance" maskUnits="userSpaceOnUse" x="0" y="0" width="256" height="256">
<g id="clip0_33_628">
<path id="Vector" d="M256 0H0V256H256V0Z" fill="white"/>
</g>
</mask>
<g mask="url(#mask0_9_252)">
<g id="Group">
<path id="Vector_2" d="M196 0H60C26.8629 0 0 26.8629 0 60V196C0 229.137 26.8629 256 60 256H196C229.137 256 256 229.137 256 196V60C256 26.8629 229.137 0 196 0Z" fill="#242938"/>
</g>
</g>
</g>
<g id="Group 9">
<g id="test 3">
<path id="Vector_3" d="M171.674 118.973L157.627 116.041L168.553 130.703V176.156L206.013 146.831V96.9802L188.844 102.845L171.674 118.973Z" fill="#50B484"/>
<path id="Vector_4" d="M84.2654 118.973L98.313 116.041L87.3871 130.703V176.156L49.9261 146.831V96.9802L67.0957 102.845L84.2654 118.973Z" fill="#50B484"/>
<path id="Vector_5" fill-rule="evenodd" clip-rule="evenodd" d="M92.0699 133.635L104.557 116.041L112.361 120.44H143.578L151.383 116.041L163.87 133.635V199.616L154.505 212.812L143.578 223.075H112.361L101.435 212.812L92.0699 199.616V133.635Z" fill="#50B484"/>
<path id="Vector_6" d="M168.553 204.014L188.844 184.953V165.892L168.553 182.021V204.014Z" fill="#50B484"/>
<path id="Vector_7" d="M87.3872 204.014L67.0958 184.953V165.892L87.3872 182.021V204.014Z" fill="#50B484"/>
<path id="Vector_8" fill-rule="evenodd" clip-rule="evenodd" d="M148.261 31H143.579V59.2691L152.169 39.7185L148.261 31ZM140.559 66.1414L137.335 67.6555V31H131.092V87.687L140.559 66.1414ZM131.092 100.46L155.004 46.0418L160.748 58.8582L142.018 114.575H131.092V100.46ZM124.848 87.9V31H118.604V67.6555L116.006 66.4349L124.848 87.9ZM112.361 57.5875V31H107.679L104.411 38.2891L112.361 57.5875ZM101.512 44.7563L124.848 101.404V114.575H115.483L95.1915 58.8582L101.512 44.7563Z" fill="#354154"/>
<path id="Vector_9" fill-rule="evenodd" clip-rule="evenodd" d="M48.3653 91.1151L115.483 114.575H117.044L96.7525 58.8583L39 54.4596L48.3653 91.1151ZM209.135 91.1151L142.018 114.575H140.457L159.188 58.8583L218.501 54.4596L209.135 91.1151Z" fill="#50B484"/>
<path id="Vector_10" d="M163.87 54.4595L196.648 51.5271L174.796 31H152.944L163.87 54.4595Z" fill="#354154"/>
<path id="Vector_11" d="M92.0694 54.4595L59.2913 51.5271L81.1435 31H102.996L92.0694 54.4595Z" fill="#354154"/>
<path id="Vector_12" d="M63.3831 56.3501L97.1042 58.7876L117.337 114.606H115.262L93.4727 107.05L63.3831 56.3501Z" fill="#354154"/>
<path id="Vector_13" d="M193.599 56.3501L158.84 58.7876L139.645 114.606L142.239 114.558L162.472 107.538L193.599 56.3501Z" fill="#354154"/>
<path id="Vector_14" d="M101.773 119.725L104.367 115.825L113.187 119.725H144.314L151.058 115.825L154.171 119.725L127.972 161.65L101.773 119.725Z" fill="#354154"/>
<path id="Vector_15" fill-rule="evenodd" clip-rule="evenodd" d="M101.409 31L127.824 95.1238L156 31H101.409Z" fill="#50B484"/>
</g>
</g>
</g>
<defs>
<clipPath id="clip0_9_252">
<rect width="256" height="256" fill="white"/>
</clipPath>
</defs>
</svg>
