<svg width="256" height="256" viewBox="0 0 256 256" fill="none" xmlns="http://www.w3.org/2000/svg">
<g id="Arch-Dark 11" clip-path="url(#clip0_9_259)">
<g id="Clip path group">
<mask id="mask0_9_259" style="mask-type:luminance" maskUnits="userSpaceOnUse" x="0" y="0" width="256" height="256">
<g id="clip0_33_628">
<path id="Vector" d="M256 0H0V256H256V0Z" fill="white"/>
</g>
</mask>
<g mask="url(#mask0_9_259)">
<g id="Group">
<path id="Vector_2" d="M196 0H60C26.8629 0 0 26.8629 0 60V196C0 229.137 26.8629 256 60 256H196C229.137 256 256 229.137 256 196V60C256 26.8629 229.137 0 196 0Z" fill="#F4F2ED"/>
</g>
</g>
</g>
<g id="Group 10">
<g id="test 4">
<path id="Vector_3" d="M171.674 119.973L157.627 117.041L168.553 131.703V177.156L206.013 147.831V97.9802L188.844 103.845L171.674 119.973Z" fill="#50B484"/>
<path id="Vector_4" d="M84.2654 119.973L98.313 117.041L87.3871 131.703V177.156L49.9261 147.831V97.9802L67.0957 103.845L84.2654 119.973Z" fill="#50B484"/>
<path id="Vector_5" fill-rule="evenodd" clip-rule="evenodd" d="M92.0699 134.635L104.557 117.041L112.361 121.44H143.578L151.383 117.041L163.87 134.635V200.616L154.505 213.812L143.578 224.075H112.361L101.435 213.812L92.0699 200.616V134.635Z" fill="#50B484"/>
<path id="Vector_6" d="M168.553 205.014L188.844 185.953V166.892L168.553 183.021V205.014Z" fill="#50B484"/>
<path id="Vector_7" d="M87.3872 205.014L67.0958 185.953V166.892L87.3872 183.021V205.014Z" fill="#50B484"/>
<path id="Vector_8" fill-rule="evenodd" clip-rule="evenodd" d="M148.261 32H143.579V60.2691L152.169 40.7185L148.261 32ZM140.559 67.1414L137.335 68.6555V32H131.092V88.687L140.559 67.1414ZM131.092 101.46L155.004 47.0418L160.748 59.8582L142.018 115.575H131.092V101.46ZM124.848 88.9V32H118.604V68.6555L116.006 67.4349L124.848 88.9ZM112.361 58.5875V32H107.679L104.411 39.2891L112.361 58.5875ZM101.512 45.7563L124.848 102.404V115.575H115.483L95.1915 59.8582L101.512 45.7563Z" fill="#354154"/>
<path id="Vector_9" fill-rule="evenodd" clip-rule="evenodd" d="M48.3653 92.1151L115.483 115.575H117.044L96.7525 59.8583L39 55.4596L48.3653 92.1151ZM209.135 92.1151L142.018 115.575H140.457L159.188 59.8583L218.501 55.4596L209.135 92.1151Z" fill="#50B484"/>
<path id="Vector_10" d="M163.87 55.4595L196.648 52.5271L174.796 32H152.944L163.87 55.4595Z" fill="#354154"/>
<path id="Vector_11" d="M92.0694 55.4595L59.2913 52.5271L81.1435 32H102.996L92.0694 55.4595Z" fill="#354154"/>
<path id="Vector_12" d="M63.3831 57.3501L97.1042 59.7876L117.337 115.606H115.262L93.4727 108.05L63.3831 57.3501Z" fill="#354154"/>
<path id="Vector_13" d="M193.599 57.3501L158.84 59.7876L139.645 115.606L142.239 115.558L162.472 108.538L193.599 57.3501Z" fill="#354154"/>
<path id="Vector_14" d="M101.773 120.725L104.367 116.825L113.187 120.725H144.314L151.058 116.825L154.171 120.725L127.972 162.65L101.773 120.725Z" fill="#354154"/>
<path id="Vector_15" fill-rule="evenodd" clip-rule="evenodd" d="M101.409 32L127.824 96.1238L156 32H101.409Z" fill="#50B484"/>
</g>
</g>
</g>
<defs>
<clipPath id="clip0_9_259">
<rect width="256" height="256" fill="white"/>
</clipPath>
</defs>
</svg>
