<svg width="256" height="256" viewBox="0 0 256 256" fill="none" xmlns="http://www.w3.org/2000/svg">
<path d="M196 0H60C26.8629 0 0 26.8629 0 60V196C0 229.137 26.8629 256 60 256H196C229.137 256 256 229.137 256 196V60C256 26.8629 229.137 0 196 0Z" fill="#242938"/>
<path d="M123.667 231C90.1614 231 63 201.802 63 165.783C63 129.763 90.1614 100.565 123.667 100.565V231Z" fill="white"/>
<path d="M123.667 31H63V91.8696H123.667V31Z" fill="white"/>
<path d="M162.667 91.8696C179.419 91.8696 193 78.2435 193 61.4348C193 44.6261 179.419 31 162.667 31C145.914 31 132.333 44.6261 132.333 61.4348C132.333 78.2435 145.914 91.8696 162.667 91.8696Z" fill="white"/>
</svg>
