<svg width="256" height="256" viewBox="0 0 256 256" fill="none" xmlns="http://www.w3.org/2000/svg">
<path d="M196 0H60C26.8629 0 0 26.8629 0 60V196C0 229.137 26.8629 256 60 256H196C229.137 256 256 229.137 256 196V60C256 26.8629 229.137 0 196 0Z" fill="#F4F2ED"/>
<path d="M123.667 228C90.1614 228 63 198.802 63 162.783C63 126.763 90.1614 97.5652 123.667 97.5652V228Z" fill="black"/>
<path d="M123.667 28H63V88.8696H123.667V28Z" fill="black"/>
<path d="M162.667 88.8696C179.419 88.8696 193 75.2435 193 58.4348C193 41.6261 179.419 28 162.667 28C145.914 28 132.333 41.6261 132.333 58.4348C132.333 75.2435 145.914 88.8696 162.667 88.8696Z" fill="black"/>
</svg>
