<svg width="256" height="256" viewBox="0 0 256 256" fill="none" xmlns="http://www.w3.org/2000/svg">
<g id="Arch-Dark 8" clip-path="url(#clip0_9_239)">
<g id="Clip path group">
<mask id="mask0_9_239" style="mask-type:luminance" maskUnits="userSpaceOnUse" x="0" y="0" width="256" height="256">
<g id="clip0_33_628">
<path id="Vector" d="M256 0H0V256H256V0Z" fill="white"/>
</g>
</mask>
<g mask="url(#mask0_9_239)">
<g id="Group">
<path id="Vector_2" d="M196 0H60C26.8629 0 0 26.8629 0 60V196C0 229.137 26.8629 256 60 256H196C229.137 256 256 229.137 256 196V60C256 26.8629 229.137 0 196 0Z" fill="#242938"/>
</g>
<g id="Group 7">
<g id="test 1">
<path id="Vector_3" d="M127.435 133.112C131.676 133.112 131.676 126.663 127.435 126.663C123.194 126.663 123.194 133.112 127.435 133.112Z" fill="#231F20"/>
<path id="Vector_4" d="M232.585 129.415C232.958 112.863 217.444 98.6104 192.217 91.538C198.809 67.8703 194.634 48.2224 180.702 39.9462C166.221 31.3475 145.85 37.3666 126.974 55.2087C109.306 37.7965 89.8364 31.498 75.5308 39.1723C60.6978 47.126 55.8414 67.3973 62.1921 92.3119C37.9539 98.5674 22.6375 111.917 22.2639 127.867C21.8904 144.42 37.4045 158.672 62.6316 165.744C56.0611 189.412 60.2144 209.06 74.1464 217.336C78.4974 219.916 83.4417 221.227 88.8475 221.227C101.044 221.227 114.888 214.37 127.853 202.095C140.356 214.456 153.871 221.356 165.935 221.356C170.792 221.356 175.274 220.26 179.296 218.11C194.129 210.156 198.985 189.885 192.634 164.97C216.873 158.715 232.189 145.365 232.541 129.415H232.585Z" fill="#F5F0D6" stroke="#231F20" stroke-width="1.2" stroke-linejoin="round"/>
<g id="Group_2">
<path id="Vector_5" d="M178.307 156.63C172.044 157.511 165.342 157.898 158.398 157.748C154.223 157.662 150.135 157.361 146.202 156.909C145.213 156.802 144.246 156.673 143.279 156.522C139.036 158.837 134.316 160.192 129.467 160.485C124.618 160.779 119.764 160.005 115.261 158.22C113.679 157.597 112.141 156.845 110.668 155.985C112.545 160.589 114.71 165.076 117.151 169.42C120.491 175.375 124.205 180.856 128.094 185.715C143.521 204.954 162.111 214.8 173.934 208.458C186.064 201.945 187.339 180.405 178.307 156.608V156.63Z" fill="#E9203D" stroke="#231F20" stroke-width="1.2" stroke-linejoin="round"/>
<path id="Vector_6" d="M177.648 99.5348C175.155 105.578 172.157 111.409 168.682 116.969C166.062 121.206 163.17 125.277 160.024 129.157C159.848 138.573 155.431 147.709 147.52 153.749C146.334 154.652 145.059 155.49 143.719 156.264C143.565 156.35 143.411 156.436 143.235 156.522L146.158 156.909C150.091 157.382 154.179 157.662 158.354 157.748C165.298 157.898 172 157.49 178.263 156.63C203.007 153.169 221.026 142.356 221.334 129.179C221.641 115.636 203.204 103.813 177.604 99.5563L177.648 99.5348Z" fill="#E9203D" stroke="#231F20" stroke-width="1.2" stroke-linejoin="round"/>
<path id="Vector_7" d="M174.857 49.3187C163.034 42.2893 143.323 52.0058 126.776 71.5462C130.87 76.6782 134.53 82.1277 137.719 87.8406C139.741 91.4305 141.521 95.0205 143.081 98.6104C143.477 99.4918 143.85 100.395 144.202 101.276C148.817 103.963 152.794 107.811 155.673 112.691C157.826 116.345 159.167 120.236 159.738 124.191C159.98 125.847 160.09 127.523 160.046 129.179C160.639 128.426 161.254 127.674 161.848 126.9C164.221 123.783 166.528 120.472 168.704 116.99C172.308 111.186 175.296 105.296 177.67 99.5563C186.987 76.8558 186.416 56.1976 174.901 49.3402L174.857 49.3187ZM117.151 169.42C115.129 165.83 113.349 162.24 111.789 158.65C111.397 157.77 111.023 156.881 110.668 155.985C106.054 153.298 102.076 149.45 99.1977 144.57C97.0441 140.916 95.7037 137.025 95.1323 133.069C94.8876 131.418 94.7847 129.75 94.8247 128.082C94.2313 128.835 93.6161 129.587 93.0227 130.361C90.584 133.56 88.2962 136.867 86.1666 140.271C82.7048 145.837 79.7066 151.667 77.2009 157.705C67.8836 180.405 68.4549 201.063 79.9697 207.921C91.7922 214.95 111.504 205.234 128.051 185.693C123.957 180.561 120.297 175.112 117.107 169.399L117.151 169.42Z" fill="#E9203D" stroke="#231F20" stroke-width="1.2" stroke-linejoin="round"/>
<path id="Vector_8" d="M108.669 100.373C104.735 99.9002 100.648 99.6208 96.4728 99.5348C89.5287 99.3843 82.8264 99.7927 76.5636 100.653C51.82 104.114 33.8007 114.926 33.493 128.104C33.1854 141.647 51.6222 153.47 77.2229 157.726C79.7151 151.683 82.7139 145.852 86.1886 140.292C88.8088 136.055 91.7006 131.984 94.8466 128.104C95.0224 118.688 99.4394 109.552 107.35 103.512C108.537 102.609 109.811 101.77 111.152 100.997C111.306 100.911 111.46 100.825 111.635 100.739L108.713 100.352L108.669 100.373Z" fill="#E9203D" stroke="#231F20" stroke-width="1.2" stroke-linejoin="round"/>
<path id="Vector_9" d="M143.081 98.6104C141.521 95.042 139.741 91.4306 137.719 87.8406C134.527 82.1293 130.867 76.68 126.776 71.5462C111.35 52.3067 92.759 42.4613 80.9366 48.8028C68.8065 55.3163 67.532 76.8558 76.5636 100.653C82.8264 99.7712 89.5287 99.3843 96.4728 99.5348C100.648 99.6208 104.735 99.9217 108.669 100.373C109.658 100.481 110.625 100.61 111.591 100.76C115.834 98.4451 120.554 97.0908 125.403 96.7969C130.252 96.503 135.107 97.277 139.609 99.0618C141.191 99.6852 142.73 100.438 144.202 101.297C143.85 100.416 143.477 99.5347 143.081 98.6319V98.6104Z" fill="#E9203D" stroke="#231F20" stroke-width="1.2" stroke-linejoin="round"/>
</g>
<path id="Vector_10" d="M127.435 174.88C153.541 174.88 174.703 154.178 174.703 128.641C174.703 103.104 153.541 82.4019 127.435 82.4019C101.33 82.4019 80.1675 103.104 80.1675 128.641C80.1675 154.178 101.33 174.88 127.435 174.88Z" fill="#231F20" stroke="#231F20" stroke-width="1.23" stroke-linejoin="round"/>
<path id="Vector_11" d="M86.0128 126.233C86.0128 126.47 86.1007 126.685 86.2985 126.921C86.4743 127.136 86.716 127.265 87.0456 127.308C87.595 127.373 88.1443 127.459 88.7157 127.523C89.0233 127.566 89.2211 127.48 89.3969 127.265C89.5947 127.007 89.6826 126.685 89.6606 126.319C89.6166 125.395 89.5947 124.514 89.5727 123.589V123.31C89.6606 123.245 89.7265 123.224 89.8144 123.159C90.1001 122.987 90.3858 122.794 90.6714 122.6C90.9132 122.45 91.023 122.364 91.2648 122.192C91.3527 122.45 91.3966 122.579 91.5065 122.837C91.7482 123.482 91.9899 124.557 92.2316 126.212C92.2976 126.642 92.4514 127.05 92.7151 127.437C92.9348 127.76 93.2205 127.932 93.6161 127.953L95.6377 128.082C96.0113 128.104 96.297 127.975 96.5167 127.631C96.7804 127.222 96.8903 126.749 96.8464 126.212C96.5387 123.847 95.8795 121.784 94.9785 120.3L94.8027 120.021C94.8906 119.913 94.9126 119.849 95.0005 119.741C95.9234 118.43 96.3849 116.388 96.3849 113.679C96.3849 111.917 96.2311 110.261 95.9454 108.778C95.6597 107.316 95.0884 106.177 94.2753 105.446C93.9896 105.188 93.7259 105.081 93.4403 105.102C93.0447 105.145 92.5832 105.425 92.0339 105.962C90.5396 107.596 89.0014 109.38 87.4851 111.315C87.2214 111.659 86.9137 112.282 86.6061 113.163C86.2985 114.002 86.1446 114.754 86.1227 115.421C85.9908 118.968 86.0128 122.622 86.0567 126.233H86.0128ZM89.4189 113.163L89.6167 113.013C90.144 112.562 90.5616 112.368 90.9132 112.347H91.2648C91.3087 112.454 91.3527 112.519 91.3966 112.648C91.7043 113.314 91.8801 114.238 91.902 115.378V116.753C91.902 117.57 91.3966 118.409 90.5176 119.14C90.4956 119.14 90.4737 119.161 90.4517 119.183C90.0561 119.354 89.8584 119.44 89.4408 119.591V118.839C89.4189 117.054 89.3969 115.206 89.3969 113.378V113.142L89.4189 113.163ZM98.9999 104.414C98.934 111.057 99.0438 117.936 99.3954 124.535C99.4613 125.631 99.725 126.534 100.165 127.287C100.538 127.91 100.934 128.297 101.241 128.297C105.307 128.383 109.372 128.34 113.437 128.211C113.613 128.19 113.855 128.082 114.097 127.609C114.338 127.136 114.448 126.599 114.426 125.997L114.36 122.6C114.36 121.977 114.206 121.44 113.943 120.988C113.679 120.537 113.415 120.451 113.24 120.451C110.647 120.752 108.032 121.117 105.438 121.483C105.197 121.526 105.087 121.526 104.845 121.569V120.988C104.801 119.505 104.757 118 104.735 116.452V116.001C106.951 115.485 109.178 115.019 111.416 114.604C111.701 114.496 111.943 114.238 112.163 113.765C112.404 113.206 112.536 112.583 112.536 111.895V110.046C112.536 109.359 112.405 108.757 112.141 108.305C111.877 107.832 111.657 107.832 111.525 107.832C109.46 108.391 107.372 109.058 105.351 109.788C105.065 109.896 104.933 109.939 104.647 110.046V109.337C104.647 107.682 104.625 105.962 104.603 104.199V103.834C104.757 103.769 104.823 103.726 104.955 103.662C107.548 102.458 110.229 101.426 112.932 100.588C113.262 100.437 113.525 100.051 113.767 99.4701C114.053 98.7608 114.184 97.9869 114.184 97.17V92.7632C114.184 91.9033 114.053 91.1724 113.789 90.592C113.613 90.2266 113.437 90.0546 113.24 90.0761C108.757 91.9893 104.867 94.6334 101 97.5139C100.802 97.6859 100.34 98.2878 99.769 100.094C99.3295 101.469 99.0658 102.931 99.0658 104.393L98.9999 104.414ZM133.588 100.824C133.39 97.3849 132.885 93.7305 131.325 90.678C130.138 88.3779 128.49 87.2171 126.556 87.2386C125.919 87.2386 125.282 87.2386 124.622 87.3031C122.667 87.389 121.019 88.7003 119.854 91.1079C118.294 94.3109 117.832 98.0729 117.656 101.62C117.503 109.445 117.437 117.334 117.305 125.116C117.305 125.911 117.481 126.62 117.898 127.265C118.272 127.824 118.733 128.082 119.327 128.061L122.117 127.932C122.689 127.91 123.128 127.609 123.48 127.007C123.897 126.319 124.073 125.524 124.073 124.707C124.073 123.116 124.095 121.483 124.117 119.849V119.311C124.337 119.311 124.447 119.311 124.666 119.268C125.326 119.225 126.007 119.182 126.688 119.161C126.908 119.161 127.018 119.161 127.237 119.14V119.698C127.281 121.332 127.347 122.966 127.369 124.535C127.369 125.374 127.589 126.126 128.029 126.792C128.402 127.373 128.842 127.631 129.435 127.609C130.358 127.588 131.325 127.523 132.292 127.459C132.929 127.437 133.39 127.136 133.764 126.513C134.182 125.825 134.357 125.094 134.335 124.299C134.028 116.538 133.808 108.692 133.544 100.889L133.588 100.824ZM126.424 112.024C125.897 112.046 125.392 112.067 124.864 112.11C124.622 112.11 124.513 112.132 124.271 112.153V111.573C124.337 109.101 124.403 106.542 124.469 103.877C124.535 102.501 124.579 101.383 124.601 100.545C124.644 99.5776 124.776 98.9542 125.04 98.5888C125.106 98.5028 125.128 98.4383 125.194 98.3523C125.479 98.3523 125.611 98.3523 125.897 98.3308C125.963 98.4383 125.985 98.4813 126.051 98.5673C126.183 98.7822 126.38 99.1907 126.468 100.459C126.512 101.254 126.6 102.351 126.644 103.791C126.754 106.414 126.82 108.993 126.908 111.465V112.024C126.688 112.024 126.578 112.024 126.337 112.046L126.424 112.024ZM140.444 124.836C141.477 126.147 142.73 126.814 144.29 126.9C145.74 126.857 146.443 126.835 147.894 126.814C148.927 126.728 149.85 126.448 150.641 125.997C151.41 125.567 151.981 124.965 152.377 124.213C152.794 123.439 153.036 122.364 153.08 120.967C153.08 120.085 153.08 119.634 153.036 118.753C152.882 117.248 152.201 116.947 151.937 116.861C150.575 116.517 149.168 116.194 147.806 115.937C147.586 115.937 147.41 115.98 147.278 116.108C146.993 116.345 146.839 116.861 146.839 117.527C146.839 118.559 146.817 119.075 146.575 119.376L146.531 119.419C146.268 119.698 145.916 119.827 145.586 119.763C145.257 119.72 144.993 119.505 144.817 119.183C144.488 118.581 144.334 117.57 144.246 116.56C144.136 115.528 144.07 114.453 144.004 113.4C144.004 111.293 143.96 110.24 143.938 108.133C143.96 106.994 144.026 105.898 144.092 104.844C144.18 103.554 144.312 102.673 144.598 102.179C144.751 101.921 145.015 101.792 145.323 101.813C145.696 101.835 146.07 102.114 146.356 102.587V102.63C146.531 102.996 146.575 103.554 146.619 104.672C146.685 105.962 147.125 106.908 147.872 107.273C149.256 107.768 150.663 108.327 152.003 108.929C152.267 109.015 152.377 108.95 152.399 108.929C152.487 108.864 152.684 108.649 152.728 107.832C152.706 106.843 152.684 106.328 152.662 105.339C152.53 103.662 152.223 102.157 151.761 100.867C151.278 99.5346 150.641 98.2878 149.872 97.17C149.036 95.9662 148.092 94.9559 147.059 94.1605C145.938 93.4081 144.773 92.6772 143.631 92.0323C142.224 91.3874 141.082 91.6884 140.115 92.9782C139.082 94.3539 138.335 96.3531 137.895 98.8897C137.456 101.405 137.214 103.941 137.214 106.328C137.214 108.477 137.214 110.627 137.258 112.669C137.302 114.926 137.588 117.226 138.049 119.483C138.511 121.655 139.302 123.46 140.378 124.858L140.444 124.836ZM156.002 107.316C156.925 107.918 157.87 108.542 158.815 109.208C158.925 109.273 158.969 109.316 159.079 109.38V109.66C159.299 114.776 159.496 119.913 159.628 125.03C159.628 125.46 159.804 125.889 160.112 126.276C160.397 126.62 160.749 126.792 161.232 126.814C162.155 126.835 162.595 126.857 163.496 126.9C163.957 126.9 164.287 126.814 164.551 126.534C164.792 126.276 164.902 126.018 164.902 125.739C164.705 121.891 164.463 118.022 164.199 114.152C164.177 113.765 164.155 113.572 164.133 113.163C164.463 113.443 164.639 113.572 164.968 113.851C165.737 114.475 166.528 115.141 167.385 115.872C167.517 115.98 167.605 116.023 167.649 116.044V115.958C167.583 115.378 167.561 115.098 167.517 114.518C167.495 114.281 167.385 113.959 167.166 113.529C166.946 113.077 166.682 112.669 166.375 112.282C162.837 108.176 159.145 104.199 155.145 100.502C155.014 100.394 154.926 100.373 154.926 100.373C154.926 100.373 154.904 100.373 154.86 100.416C154.75 100.545 154.618 100.824 154.64 101.469L154.75 104.436C154.75 104.973 154.904 105.532 155.145 106.091C155.365 106.607 155.651 106.972 155.981 107.23L156.002 107.316ZM96.275 152.266C96.253 152.137 96.2311 152.072 96.1871 151.922C96.297 151.857 96.3409 151.814 96.4728 151.75C97.0002 151.427 97.3737 150.589 97.5935 149.342C97.8132 148.009 97.9011 146.505 97.8132 144.935C97.7253 143.517 97.6374 142.076 97.5276 140.701C97.4177 139.174 97.1101 137.562 96.6706 135.95C96.2311 134.381 95.5938 133.048 94.7368 131.973C93.9676 130.984 93.0447 130.404 91.924 130.146C91.2647 130.038 90.6055 129.931 89.9902 129.823C89.0673 129.737 88.3201 129.888 87.7268 130.318C87.1335 130.748 86.7599 131.264 86.5402 131.908C86.2985 132.639 86.1886 133.349 86.2106 134.101C86.2106 134.811 86.2545 135.584 86.2985 136.337C86.3424 137.154 86.5402 138.143 86.8698 139.325C87.1994 140.529 87.7488 141.861 88.5399 143.431C89.3969 145.129 90.4077 146.698 91.5504 148.074C91.6164 148.138 91.6383 148.181 91.7042 148.246C91.7042 148.31 91.7042 148.332 91.7482 148.396C92.0119 149.471 92.2756 150.611 92.5613 151.771C92.7151 152.459 93.0227 153.276 93.4622 154.157C93.9017 155.06 94.3852 155.727 94.8466 156.157C95.5059 156.737 96.1651 157.339 96.8244 157.833C96.9782 157.962 97.0661 157.984 97.11 157.984L97.176 157.855C97.3298 157.446 97.3078 156.823 97.132 156.071C96.8464 154.738 96.5607 153.448 96.275 152.223V152.266ZM92.9568 143.044C92.9348 143.732 92.825 144.205 92.6272 144.484C92.5832 144.527 92.5832 144.57 92.5393 144.613C92.4734 144.613 92.4514 144.634 92.3855 144.656C92.2976 144.677 92.1877 144.699 92.0778 144.677C91.7482 144.634 91.3746 144.377 91.1109 143.818C90.8472 143.28 90.7154 142.571 90.6055 141.969C90.4956 141.302 90.4077 140.679 90.3418 140.056C90.2759 139.088 90.21 138.142 90.166 137.197C90.166 136.616 90.166 136.057 90.21 135.52C90.2539 134.746 90.3638 134.295 90.5835 134.058C90.7374 133.886 90.9791 133.822 91.2208 133.865C91.5284 133.908 91.8361 134.123 92.0119 134.424C92.2316 134.768 92.3635 135.283 92.5173 136.143C92.6272 136.788 92.7151 137.433 92.781 138.078L92.9788 141.174V143.044H92.9568ZM114.382 134.445C114.382 133.693 114.162 132.983 113.767 132.36C113.393 131.801 112.976 131.543 112.404 131.543H109.855C109.35 131.543 108.976 131.758 108.691 132.231C108.361 132.768 108.229 133.37 108.251 134.037C108.537 139.067 108.801 144.269 108.954 149.278C108.976 150.31 108.954 151.363 108.911 152.373C108.867 153.663 108.779 154.458 108.515 154.91C108.361 155.168 108.075 155.318 107.768 155.297C107.372 155.254 106.999 154.953 106.801 154.48C106.515 153.835 106.361 152.932 106.208 151.707C106.076 150.654 105.966 149.6 105.878 148.59C105.636 143.71 105.329 138.766 105.153 133.929C105.131 133.284 104.933 132.661 104.559 132.102C104.23 131.608 103.834 131.35 103.329 131.328C102.56 131.285 101.791 131.242 101.044 131.178C100.604 131.156 100.296 131.285 100.055 131.651C99.769 132.059 99.6591 132.532 99.7031 133.048C99.9887 137.24 100.165 141.603 100.45 145.795C100.56 147.451 100.89 149.321 101.395 151.47C101.879 153.577 102.626 155.727 103.615 157.855C104.647 160.091 105.834 161.789 107.153 162.907C107.966 163.508 108.801 164.067 109.614 164.605C110.822 165.25 111.723 165.056 112.514 163.938C113.393 162.713 114.053 160.821 114.404 158.5C114.756 156.114 114.954 153.749 114.91 151.492C114.8 145.86 114.514 140.077 114.426 134.445H114.382ZM133.171 130.812C128.556 131.07 123.941 131.328 119.327 131.457C118.997 131.479 118.557 131.951 118.14 132.79C117.656 133.779 117.393 135.004 117.415 136.466C117.547 144.377 117.854 152.481 117.986 160.477C117.986 161.144 117.986 161.488 118.008 162.154C118.074 164.003 118.338 165.701 118.843 167.163C119.502 169.119 119.986 169.377 120.074 169.399C124.644 170.194 127.897 170.237 132.511 169.592C132.775 169.463 133.061 169.076 133.303 168.474C133.61 167.722 133.764 166.905 133.786 166.067L133.918 161.746C133.94 160.95 133.83 160.284 133.566 159.747C133.325 159.209 133.061 159.166 132.951 159.166C130.182 159.639 127.391 159.833 124.688 159.747H124.161V152.825H124.776C126.93 152.868 129.105 152.739 131.259 152.502C131.545 152.416 131.786 152.137 132.006 151.664C132.27 151.083 132.424 150.417 132.424 149.708V147.837C132.424 147.15 132.314 146.569 132.05 146.096C131.786 145.623 131.523 145.537 131.347 145.516C129.105 145.731 126.842 145.86 124.622 145.86H124.073V145.322C124.073 143.56 124.029 141.818 124.029 140.099V139.518H124.622C127.413 139.454 130.248 139.282 133.061 139.002C133.193 138.959 133.522 138.852 133.83 138.25C134.094 137.734 134.225 137.154 134.225 136.53V133.069C134.225 132.446 134.094 131.908 133.83 131.457C133.566 130.984 133.281 130.898 133.083 130.877L133.171 130.812ZM151.036 160.284C151.673 159.811 152.223 159.059 152.662 158.048C153.102 157.038 153.322 156.178 153.322 155.426C153.19 152.502 152.596 150.331 151.498 148.59L151.322 148.31C151.41 148.181 151.432 148.117 151.52 148.009C152.794 145.989 153.497 143.581 153.563 140.83C153.629 139.088 153.475 137.519 153.146 136.036C152.838 134.639 152.135 133.306 150.992 131.951C149.915 130.64 148.619 129.974 147.169 129.931C144.598 130.081 142.027 130.253 139.521 130.404C139.148 130.447 138.664 130.941 138.225 131.822C137.697 132.833 137.39 134.123 137.368 135.627C137.214 145.129 137.192 154.867 136.884 164.476C136.84 165.551 137.016 166.454 137.39 167.184C137.763 167.915 138.159 167.829 138.489 167.7C139.368 167.335 140.269 166.926 141.191 166.475C141.785 166.174 142.312 165.508 142.774 164.497C143.235 163.423 143.477 162.412 143.477 161.445C143.565 159.467 143.631 157.575 143.697 155.727V155.49C144.598 154.566 145.059 154.093 145.938 153.169L146.158 154.093C146.443 155.254 146.685 157.253 146.817 160.112C146.861 160.972 147.037 161.703 147.366 162.219C147.498 162.434 147.652 162.692 148.355 162.219C149.256 161.617 150.157 160.95 151.058 160.284H151.036ZM147.235 143.796C147.169 144.978 146.465 146.096 145.103 147.107C145.059 147.128 145.059 147.15 145.015 147.171L143.916 147.494V146.763C143.982 143.818 144.026 140.851 144.07 137.906V137.476L144.51 137.369C145.279 137.175 145.872 137.175 146.312 137.369C146.399 137.412 146.421 137.433 146.509 137.455C146.531 137.541 146.553 137.584 146.597 137.648C147.037 138.766 147.257 140.099 147.278 141.732C147.278 142.549 147.278 142.958 147.235 143.775V143.796ZM168.88 130.941C168.88 130.619 168.858 130.447 168.836 130.124C168.836 129.974 168.77 129.78 168.484 129.544C168.242 129.329 167.891 129.221 167.429 129.221H165.364C164.902 129.221 164.573 129.372 164.309 129.673C164.045 129.995 163.913 130.361 163.935 130.726V131.436C164.001 133.091 163.782 134.875 163.21 137.068C163.188 137.175 163.166 137.218 163.144 137.326C162.793 137.455 162.617 137.519 162.243 137.648C162.177 137.433 162.133 137.347 162.068 137.132C161.474 135.369 161.145 133.456 161.123 131.608C161.123 131.307 161.101 131.156 161.079 130.855C161.079 130.404 160.947 130.06 160.639 129.737C160.513 129.591 160.354 129.475 160.175 129.396C159.997 129.318 159.802 129.281 159.606 129.286H159.518C158.749 129.307 157.936 129.35 157.145 129.372C156.596 129.393 156.178 129.608 155.871 130.06C155.519 130.533 155.343 131.092 155.343 131.651V133.198C155.343 134.961 155.893 137.154 156.925 139.497C158.222 142.42 159.057 143.087 159.475 143.216C159.606 143.259 159.694 143.28 159.826 143.345V143.732C159.826 146.075 159.782 148.547 159.716 151.105C159.716 151.771 159.804 152.223 160.024 152.352C160.2 152.459 160.595 152.223 161.079 151.793C161.87 151.062 162.683 150.267 163.496 149.493C164.111 148.912 164.595 148.203 164.968 147.408C165.32 146.655 165.474 146.032 165.474 145.494C165.452 143.603 165.452 141.754 165.408 139.991V139.819C165.452 139.755 165.474 139.733 165.518 139.669C166.155 138.83 166.924 137.261 167.847 134.982C168.66 132.962 168.99 131.758 168.924 130.92L168.88 130.941Z" fill="#FBB928"/>
</g>
</g>
</g>
</g>
</g>
<defs>
<clipPath id="clip0_9_239">
<rect width="256" height="256" fill="white"/>
</clipPath>
</defs>
</svg>
