<svg width="256" height="256" viewBox="0 0 256 256" fill="none" xmlns="http://www.w3.org/2000/svg">
<g id="Arch-Dark 9" clip-path="url(#clip0_9_245)">
<g id="Clip path group">
<mask id="mask0_9_245" style="mask-type:luminance" maskUnits="userSpaceOnUse" x="0" y="0" width="256" height="256">
<g id="clip0_33_628">
<path id="Vector" d="M256 0H0V256H256V0Z" fill="white"/>
</g>
</mask>
<g mask="url(#mask0_9_245)">
<g id="Group">
<path id="Vector_2" d="M196 0H60C26.8629 0 0 26.8629 0 60V196C0 229.137 26.8629 256 60 256H196C229.137 256 256 229.137 256 196V60C256 26.8629 229.137 0 196 0Z" fill="#F4F2ED"/>
</g>
<g id="Group 8">
<g id="test 2">
<path id="Vector_3" d="M128.435 133.112C132.676 133.112 132.676 126.663 128.435 126.663C124.194 126.663 124.194 133.112 128.435 133.112Z" fill="#231F20"/>
<path id="Vector_4" d="M233.585 129.415C233.958 112.863 218.444 98.6104 193.217 91.538C199.809 67.8703 195.634 48.2224 181.702 39.9462C167.221 31.3475 146.85 37.3666 127.974 55.2087C110.306 37.7965 90.8364 31.498 76.5308 39.1723C61.6978 47.126 56.8414 67.3973 63.1921 92.3119C38.9539 98.5674 23.6375 111.917 23.2639 127.867C22.8903 144.42 38.4045 158.672 63.6316 165.744C57.0611 189.412 61.2144 209.06 75.1464 217.336C79.4974 219.916 84.4417 221.227 89.8475 221.227C102.044 221.227 115.888 214.37 128.853 202.095C141.356 214.456 154.871 221.356 166.935 221.356C171.792 221.356 176.274 220.26 180.296 218.11C195.129 210.156 199.985 189.885 193.634 164.97C217.873 158.715 233.189 145.365 233.541 129.415H233.585Z" fill="#F5F0D6" stroke="#231F20" stroke-width="1.2" stroke-linejoin="round"/>
<g id="Group_2">
<path id="Vector_5" d="M179.307 156.63C173.044 157.511 166.342 157.898 159.398 157.748C155.223 157.662 151.135 157.361 147.202 156.909C146.213 156.802 145.246 156.673 144.279 156.522C140.036 158.837 135.316 160.192 130.467 160.485C125.618 160.779 120.764 160.005 116.261 158.22C114.679 157.597 113.141 156.845 111.668 155.985C113.545 160.589 115.71 165.076 118.151 169.42C121.491 175.375 125.205 180.856 129.094 185.715C144.521 204.954 163.111 214.8 174.934 208.458C187.064 201.945 188.339 180.405 179.307 156.608V156.63Z" fill="#E9203D" stroke="#231F20" stroke-width="1.2" stroke-linejoin="round"/>
<path id="Vector_6" d="M178.648 99.5348C176.155 105.578 173.157 111.409 169.682 116.969C167.062 121.206 164.17 125.277 161.024 129.157C160.848 138.573 156.431 147.709 148.52 153.749C147.334 154.652 146.059 155.49 144.719 156.264C144.565 156.35 144.411 156.436 144.235 156.522L147.158 156.909C151.091 157.382 155.179 157.662 159.354 157.748C166.298 157.898 173 157.49 179.263 156.63C204.007 153.169 222.026 142.356 222.334 129.179C222.641 115.636 204.204 103.813 178.604 99.5563L178.648 99.5348Z" fill="#E9203D" stroke="#231F20" stroke-width="1.2" stroke-linejoin="round"/>
<path id="Vector_7" d="M175.857 49.3187C164.034 42.2893 144.323 52.0058 127.776 71.5462C131.87 76.6782 135.53 82.1277 138.719 87.8406C140.741 91.4305 142.521 95.0205 144.081 98.6104C144.477 99.4918 144.85 100.395 145.202 101.276C149.817 103.963 153.794 107.811 156.673 112.691C158.826 116.345 160.167 120.236 160.738 124.191C160.98 125.847 161.09 127.523 161.046 129.179C161.639 128.426 162.254 127.674 162.848 126.9C165.221 123.783 167.528 120.472 169.704 116.99C173.308 111.186 176.296 105.296 178.67 99.5563C187.987 76.8558 187.416 56.1976 175.901 49.3402L175.857 49.3187ZM118.151 169.42C116.129 165.83 114.349 162.24 112.789 158.65C112.397 157.77 112.023 156.881 111.668 155.985C107.054 153.298 103.076 149.45 100.198 144.57C98.0441 140.916 96.7037 137.025 96.1323 133.069C95.8876 131.418 95.7847 129.75 95.8247 128.082C95.2313 128.835 94.6161 129.587 94.0227 130.361C91.584 133.56 89.2962 136.867 87.1666 140.271C83.7048 145.837 80.7066 151.667 78.2009 157.705C68.8836 180.405 69.4549 201.063 80.9697 207.921C92.7922 214.95 112.504 205.234 129.051 185.693C124.957 180.561 121.297 175.112 118.107 169.399L118.151 169.42Z" fill="#E9203D" stroke="#231F20" stroke-width="1.2" stroke-linejoin="round"/>
<path id="Vector_8" d="M109.669 100.373C105.735 99.9002 101.648 99.6208 97.4728 99.5348C90.5287 99.3843 83.8264 99.7927 77.5636 100.653C52.82 104.114 34.8007 114.926 34.493 128.104C34.1854 141.647 52.6222 153.47 78.2229 157.726C80.7151 151.683 83.7139 145.852 87.1886 140.292C89.8088 136.055 92.7006 131.984 95.8466 128.104C96.0224 118.688 100.439 109.552 108.35 103.512C109.537 102.609 110.811 101.77 112.152 100.997C112.306 100.911 112.46 100.825 112.635 100.739L109.713 100.352L109.669 100.373Z" fill="#E9203D" stroke="#231F20" stroke-width="1.2" stroke-linejoin="round"/>
<path id="Vector_9" d="M144.081 98.6104C142.521 95.042 140.741 91.4306 138.719 87.8406C135.527 82.1293 131.867 76.68 127.776 71.5462C112.35 52.3067 93.759 42.4613 81.9366 48.8028C69.8065 55.3163 68.532 76.8558 77.5636 100.653C83.8264 99.7712 90.5287 99.3843 97.4728 99.5348C101.648 99.6208 105.735 99.9217 109.669 100.373C110.658 100.481 111.625 100.61 112.591 100.76C116.834 98.4451 121.554 97.0908 126.403 96.7969C131.252 96.503 136.107 97.277 140.609 99.0618C142.191 99.6852 143.73 100.438 145.202 101.297C144.85 100.416 144.477 99.5347 144.081 98.6319V98.6104Z" fill="#E9203D" stroke="#231F20" stroke-width="1.2" stroke-linejoin="round"/>
</g>
<path id="Vector_10" d="M128.435 174.88C154.541 174.88 175.703 154.178 175.703 128.641C175.703 103.104 154.541 82.4019 128.435 82.4019C102.33 82.4019 81.1675 103.104 81.1675 128.641C81.1675 154.178 102.33 174.88 128.435 174.88Z" fill="#231F20" stroke="#231F20" stroke-width="1.23" stroke-linejoin="round"/>
<path id="Vector_11" d="M87.0128 126.233C87.0128 126.47 87.1007 126.685 87.2985 126.921C87.4743 127.136 87.716 127.265 88.0456 127.308C88.595 127.373 89.1443 127.459 89.7157 127.523C90.0233 127.566 90.2211 127.48 90.3969 127.265C90.5947 127.007 90.6826 126.685 90.6606 126.319C90.6166 125.395 90.5947 124.514 90.5727 123.589V123.31C90.6606 123.245 90.7265 123.224 90.8144 123.159C91.1001 122.987 91.3858 122.794 91.6714 122.6C91.9132 122.45 92.023 122.364 92.2648 122.192C92.3527 122.45 92.3966 122.579 92.5065 122.837C92.7482 123.482 92.9899 124.557 93.2316 126.212C93.2976 126.642 93.4514 127.05 93.7151 127.437C93.9348 127.76 94.2205 127.932 94.6161 127.953L96.6377 128.082C97.0113 128.104 97.297 127.975 97.5167 127.631C97.7804 127.222 97.8903 126.749 97.8464 126.212C97.5387 123.847 96.8795 121.784 95.9785 120.3L95.8027 120.021C95.8906 119.913 95.9126 119.849 96.0005 119.741C96.9234 118.43 97.3849 116.388 97.3849 113.679C97.3849 111.917 97.2311 110.261 96.9454 108.778C96.6597 107.316 96.0884 106.177 95.2753 105.446C94.9896 105.188 94.7259 105.081 94.4403 105.102C94.0447 105.145 93.5832 105.425 93.0339 105.962C91.5396 107.596 90.0014 109.38 88.4851 111.315C88.2214 111.659 87.9137 112.282 87.6061 113.163C87.2985 114.002 87.1446 114.754 87.1227 115.421C86.9908 118.968 87.0128 122.622 87.0567 126.233H87.0128ZM90.4189 113.163L90.6167 113.013C91.144 112.562 91.5616 112.368 91.9132 112.347H92.2648C92.3087 112.454 92.3527 112.519 92.3966 112.648C92.7043 113.314 92.8801 114.238 92.902 115.378V116.753C92.902 117.57 92.3966 118.409 91.5176 119.14C91.4956 119.14 91.4737 119.161 91.4517 119.183C91.0561 119.354 90.8584 119.44 90.4408 119.591V118.839C90.4189 117.054 90.3969 115.206 90.3969 113.378V113.142L90.4189 113.163ZM99.9999 104.414C99.934 111.057 100.044 117.936 100.395 124.535C100.461 125.631 100.725 126.534 101.165 127.287C101.538 127.91 101.934 128.297 102.241 128.297C106.307 128.383 110.372 128.34 114.437 128.211C114.613 128.19 114.855 128.082 115.097 127.609C115.338 127.136 115.448 126.599 115.426 125.997L115.36 122.6C115.36 121.977 115.206 121.44 114.943 120.988C114.679 120.537 114.415 120.451 114.24 120.451C111.647 120.752 109.032 121.117 106.438 121.483C106.197 121.526 106.087 121.526 105.845 121.569V120.988C105.801 119.505 105.757 118 105.735 116.452V116.001C107.951 115.485 110.178 115.019 112.416 114.604C112.701 114.496 112.943 114.238 113.163 113.765C113.404 113.206 113.536 112.583 113.536 111.895V110.046C113.536 109.359 113.405 108.757 113.141 108.305C112.877 107.832 112.657 107.832 112.525 107.832C110.46 108.391 108.372 109.058 106.351 109.788C106.065 109.896 105.933 109.939 105.647 110.046V109.337C105.647 107.682 105.625 105.962 105.603 104.199V103.834C105.757 103.769 105.823 103.726 105.955 103.662C108.548 102.458 111.229 101.426 113.932 100.588C114.262 100.437 114.525 100.051 114.767 99.4701C115.053 98.7608 115.184 97.9869 115.184 97.17V92.7632C115.184 91.9033 115.053 91.1724 114.789 90.592C114.613 90.2266 114.437 90.0546 114.24 90.0761C109.757 91.9893 105.867 94.6334 102 97.5139C101.802 97.6859 101.34 98.2878 100.769 100.094C100.329 101.469 100.066 102.931 100.066 104.393L99.9999 104.414ZM134.588 100.824C134.39 97.3849 133.885 93.7305 132.325 90.678C131.138 88.3779 129.49 87.2171 127.556 87.2386C126.919 87.2386 126.282 87.2386 125.622 87.3031C123.667 87.389 122.019 88.7003 120.854 91.1079C119.294 94.3109 118.832 98.0729 118.656 101.62C118.503 109.445 118.437 117.334 118.305 125.116C118.305 125.911 118.481 126.62 118.898 127.265C119.272 127.824 119.733 128.082 120.327 128.061L123.117 127.932C123.689 127.91 124.128 127.609 124.48 127.007C124.897 126.319 125.073 125.524 125.073 124.707C125.073 123.116 125.095 121.483 125.117 119.849V119.311C125.337 119.311 125.447 119.311 125.666 119.268C126.326 119.225 127.007 119.182 127.688 119.161C127.908 119.161 128.018 119.161 128.237 119.14V119.698C128.281 121.332 128.347 122.966 128.369 124.535C128.369 125.374 128.589 126.126 129.029 126.792C129.402 127.373 129.842 127.631 130.435 127.609C131.358 127.588 132.325 127.523 133.292 127.459C133.929 127.437 134.39 127.136 134.764 126.513C135.182 125.825 135.357 125.094 135.335 124.299C135.028 116.538 134.808 108.692 134.544 100.889L134.588 100.824ZM127.424 112.024C126.897 112.046 126.392 112.067 125.864 112.11C125.622 112.11 125.513 112.132 125.271 112.153V111.573C125.337 109.101 125.403 106.542 125.469 103.877C125.535 102.501 125.579 101.383 125.601 100.545C125.644 99.5776 125.776 98.9542 126.04 98.5888C126.106 98.5028 126.128 98.4383 126.194 98.3523C126.479 98.3523 126.611 98.3523 126.897 98.3308C126.963 98.4383 126.985 98.4813 127.051 98.5673C127.183 98.7822 127.38 99.1907 127.468 100.459C127.512 101.254 127.6 102.351 127.644 103.791C127.754 106.414 127.82 108.993 127.908 111.465V112.024C127.688 112.024 127.578 112.024 127.337 112.046L127.424 112.024ZM141.444 124.836C142.477 126.147 143.73 126.814 145.29 126.9C146.74 126.857 147.443 126.835 148.894 126.814C149.927 126.728 150.85 126.448 151.641 125.997C152.41 125.567 152.981 124.965 153.377 124.213C153.794 123.439 154.036 122.364 154.08 120.967C154.08 120.085 154.08 119.634 154.036 118.753C153.882 117.248 153.201 116.947 152.937 116.861C151.575 116.517 150.168 116.194 148.806 115.937C148.586 115.937 148.41 115.98 148.278 116.108C147.993 116.345 147.839 116.861 147.839 117.527C147.839 118.559 147.817 119.075 147.575 119.376L147.531 119.419C147.268 119.698 146.916 119.827 146.586 119.763C146.257 119.72 145.993 119.505 145.817 119.183C145.488 118.581 145.334 117.57 145.246 116.56C145.136 115.528 145.07 114.453 145.004 113.4C145.004 111.293 144.96 110.24 144.938 108.133C144.96 106.994 145.026 105.898 145.092 104.844C145.18 103.554 145.312 102.673 145.598 102.179C145.751 101.921 146.015 101.792 146.323 101.813C146.696 101.835 147.07 102.114 147.356 102.587V102.63C147.531 102.996 147.575 103.554 147.619 104.672C147.685 105.962 148.125 106.908 148.872 107.273C150.256 107.768 151.663 108.327 153.003 108.929C153.267 109.015 153.377 108.95 153.399 108.929C153.487 108.864 153.684 108.649 153.728 107.832C153.706 106.843 153.684 106.328 153.662 105.339C153.53 103.662 153.223 102.157 152.761 100.867C152.278 99.5346 151.641 98.2878 150.872 97.17C150.036 95.9662 149.092 94.9559 148.059 94.1605C146.938 93.4081 145.773 92.6772 144.631 92.0323C143.224 91.3874 142.082 91.6884 141.115 92.9782C140.082 94.3539 139.335 96.3531 138.895 98.8897C138.456 101.405 138.214 103.941 138.214 106.328C138.214 108.477 138.214 110.627 138.258 112.669C138.302 114.926 138.588 117.226 139.049 119.483C139.511 121.655 140.302 123.46 141.378 124.858L141.444 124.836ZM157.002 107.316C157.925 107.918 158.87 108.542 159.815 109.208C159.925 109.273 159.969 109.316 160.079 109.38V109.66C160.299 114.776 160.496 119.913 160.628 125.03C160.628 125.46 160.804 125.889 161.112 126.276C161.397 126.62 161.749 126.792 162.232 126.814C163.155 126.835 163.595 126.857 164.496 126.9C164.957 126.9 165.287 126.814 165.551 126.534C165.792 126.276 165.902 126.018 165.902 125.739C165.705 121.891 165.463 118.022 165.199 114.152C165.177 113.765 165.155 113.572 165.133 113.163C165.463 113.443 165.639 113.572 165.968 113.851C166.737 114.475 167.528 115.141 168.385 115.872C168.517 115.98 168.605 116.023 168.649 116.044V115.958C168.583 115.378 168.561 115.098 168.517 114.518C168.495 114.281 168.385 113.959 168.166 113.529C167.946 113.077 167.682 112.669 167.375 112.282C163.837 108.176 160.145 104.199 156.145 100.502C156.014 100.394 155.926 100.373 155.926 100.373C155.926 100.373 155.904 100.373 155.86 100.416C155.75 100.545 155.618 100.824 155.64 101.469L155.75 104.436C155.75 104.973 155.904 105.532 156.145 106.091C156.365 106.607 156.651 106.972 156.981 107.23L157.002 107.316ZM97.275 152.266C97.253 152.137 97.2311 152.072 97.1871 151.922C97.297 151.857 97.3409 151.814 97.4728 151.75C98.0002 151.427 98.3737 150.589 98.5935 149.342C98.8132 148.009 98.9011 146.505 98.8132 144.935C98.7253 143.517 98.6374 142.076 98.5276 140.701C98.4177 139.174 98.1101 137.562 97.6706 135.95C97.2311 134.381 96.5938 133.048 95.7368 131.973C94.9676 130.984 94.0447 130.404 92.924 130.146C92.2647 130.038 91.6055 129.931 90.9902 129.823C90.0673 129.737 89.3201 129.888 88.7268 130.318C88.1335 130.748 87.7599 131.264 87.5402 131.908C87.2985 132.639 87.1886 133.349 87.2106 134.101C87.2106 134.811 87.2545 135.584 87.2985 136.337C87.3424 137.154 87.5402 138.143 87.8698 139.325C88.1994 140.529 88.7488 141.861 89.5399 143.431C90.3969 145.129 91.4077 146.698 92.5504 148.074C92.6164 148.138 92.6383 148.181 92.7042 148.246C92.7042 148.31 92.7042 148.332 92.7482 148.396C93.0119 149.471 93.2756 150.611 93.5613 151.771C93.7151 152.459 94.0227 153.276 94.4622 154.157C94.9017 155.06 95.3852 155.727 95.8466 156.157C96.5059 156.737 97.1651 157.339 97.8244 157.833C97.9782 157.962 98.0661 157.984 98.11 157.984L98.176 157.855C98.3298 157.446 98.3078 156.823 98.132 156.071C97.8464 154.738 97.5607 153.448 97.275 152.223V152.266ZM93.9568 143.044C93.9348 143.732 93.825 144.205 93.6272 144.484C93.5832 144.527 93.5832 144.57 93.5393 144.613C93.4734 144.613 93.4514 144.634 93.3855 144.656C93.2976 144.677 93.1877 144.699 93.0778 144.677C92.7482 144.634 92.3746 144.377 92.1109 143.818C91.8472 143.28 91.7154 142.571 91.6055 141.969C91.4956 141.302 91.4077 140.679 91.3418 140.056C91.2759 139.088 91.21 138.142 91.166 137.197C91.166 136.616 91.166 136.057 91.21 135.52C91.2539 134.746 91.3638 134.295 91.5835 134.058C91.7374 133.886 91.9791 133.822 92.2208 133.865C92.5284 133.908 92.8361 134.123 93.0119 134.424C93.2316 134.768 93.3635 135.283 93.5173 136.143C93.6272 136.788 93.7151 137.433 93.781 138.078L93.9788 141.174V143.044H93.9568ZM115.382 134.445C115.382 133.693 115.162 132.983 114.767 132.36C114.393 131.801 113.976 131.543 113.404 131.543H110.855C110.35 131.543 109.976 131.758 109.691 132.231C109.361 132.768 109.229 133.37 109.251 134.037C109.537 139.067 109.801 144.269 109.954 149.278C109.976 150.31 109.954 151.363 109.911 152.373C109.867 153.663 109.779 154.458 109.515 154.91C109.361 155.168 109.075 155.318 108.768 155.297C108.372 155.254 107.999 154.953 107.801 154.48C107.515 153.835 107.361 152.932 107.208 151.707C107.076 150.654 106.966 149.6 106.878 148.59C106.636 143.71 106.329 138.766 106.153 133.929C106.131 133.284 105.933 132.661 105.559 132.102C105.23 131.608 104.834 131.35 104.329 131.328C103.56 131.285 102.791 131.242 102.044 131.178C101.604 131.156 101.296 131.285 101.055 131.651C100.769 132.059 100.659 132.532 100.703 133.048C100.989 137.24 101.165 141.603 101.45 145.795C101.56 147.451 101.89 149.321 102.395 151.47C102.879 153.577 103.626 155.727 104.615 157.855C105.647 160.091 106.834 161.789 108.153 162.907C108.966 163.508 109.801 164.067 110.614 164.605C111.822 165.25 112.723 165.056 113.514 163.938C114.393 162.713 115.053 160.821 115.404 158.5C115.756 156.114 115.954 153.749 115.91 151.492C115.8 145.86 115.514 140.077 115.426 134.445H115.382ZM134.171 130.812C129.556 131.07 124.941 131.328 120.327 131.457C119.997 131.479 119.557 131.951 119.14 132.79C118.656 133.779 118.393 135.004 118.415 136.466C118.547 144.377 118.854 152.481 118.986 160.477C118.986 161.144 118.986 161.488 119.008 162.154C119.074 164.003 119.338 165.701 119.843 167.163C120.502 169.119 120.986 169.377 121.074 169.399C125.644 170.194 128.897 170.237 133.511 169.592C133.775 169.463 134.061 169.076 134.303 168.474C134.61 167.722 134.764 166.905 134.786 166.067L134.918 161.746C134.94 160.95 134.83 160.284 134.566 159.747C134.325 159.209 134.061 159.166 133.951 159.166C131.182 159.639 128.391 159.833 125.688 159.747H125.161V152.825H125.776C127.93 152.868 130.105 152.739 132.259 152.502C132.545 152.416 132.786 152.137 133.006 151.664C133.27 151.083 133.424 150.417 133.424 149.708V147.837C133.424 147.15 133.314 146.569 133.05 146.096C132.786 145.623 132.523 145.537 132.347 145.516C130.105 145.731 127.842 145.86 125.622 145.86H125.073V145.322C125.073 143.56 125.029 141.818 125.029 140.099V139.518H125.622C128.413 139.454 131.248 139.282 134.061 139.002C134.193 138.959 134.522 138.852 134.83 138.25C135.094 137.734 135.225 137.154 135.225 136.53V133.069C135.225 132.446 135.094 131.908 134.83 131.457C134.566 130.984 134.281 130.898 134.083 130.877L134.171 130.812ZM152.036 160.284C152.673 159.811 153.223 159.059 153.662 158.048C154.102 157.038 154.322 156.178 154.322 155.426C154.19 152.502 153.596 150.331 152.498 148.59L152.322 148.31C152.41 148.181 152.432 148.117 152.52 148.009C153.794 145.989 154.497 143.581 154.563 140.83C154.629 139.088 154.475 137.519 154.146 136.036C153.838 134.639 153.135 133.306 151.992 131.951C150.915 130.64 149.619 129.974 148.169 129.931C145.598 130.081 143.027 130.253 140.521 130.404C140.148 130.447 139.664 130.941 139.225 131.822C138.697 132.833 138.39 134.123 138.368 135.627C138.214 145.129 138.192 154.867 137.884 164.476C137.84 165.551 138.016 166.454 138.39 167.184C138.763 167.915 139.159 167.829 139.489 167.7C140.368 167.335 141.269 166.926 142.191 166.475C142.785 166.174 143.312 165.508 143.774 164.497C144.235 163.423 144.477 162.412 144.477 161.445C144.565 159.467 144.631 157.575 144.697 155.727V155.49C145.598 154.566 146.059 154.093 146.938 153.169L147.158 154.093C147.443 155.254 147.685 157.253 147.817 160.112C147.861 160.972 148.037 161.703 148.366 162.219C148.498 162.434 148.652 162.692 149.355 162.219C150.256 161.617 151.157 160.95 152.058 160.284H152.036ZM148.235 143.796C148.169 144.978 147.465 146.096 146.103 147.107C146.059 147.128 146.059 147.15 146.015 147.171L144.916 147.494V146.763C144.982 143.818 145.026 140.851 145.07 137.906V137.476L145.51 137.369C146.279 137.175 146.872 137.175 147.312 137.369C147.399 137.412 147.421 137.433 147.509 137.455C147.531 137.541 147.553 137.584 147.597 137.648C148.037 138.766 148.257 140.099 148.278 141.732C148.278 142.549 148.278 142.958 148.235 143.775V143.796ZM169.88 130.941C169.88 130.619 169.858 130.447 169.836 130.124C169.836 129.974 169.77 129.78 169.484 129.544C169.242 129.329 168.891 129.221 168.429 129.221H166.364C165.902 129.221 165.573 129.372 165.309 129.673C165.045 129.995 164.913 130.361 164.935 130.726V131.436C165.001 133.091 164.782 134.875 164.21 137.068C164.188 137.175 164.166 137.218 164.144 137.326C163.793 137.455 163.617 137.519 163.243 137.648C163.177 137.433 163.133 137.347 163.068 137.132C162.474 135.369 162.145 133.456 162.123 131.608C162.123 131.307 162.101 131.156 162.079 130.855C162.079 130.404 161.947 130.06 161.639 129.737C161.513 129.591 161.354 129.475 161.175 129.396C160.997 129.318 160.802 129.281 160.606 129.286H160.518C159.749 129.307 158.936 129.35 158.145 129.372C157.596 129.393 157.178 129.608 156.871 130.06C156.519 130.533 156.343 131.092 156.343 131.651V133.198C156.343 134.961 156.893 137.154 157.925 139.497C159.222 142.42 160.057 143.087 160.475 143.216C160.606 143.259 160.694 143.28 160.826 143.345V143.732C160.826 146.075 160.782 148.547 160.716 151.105C160.716 151.771 160.804 152.223 161.024 152.352C161.2 152.459 161.595 152.223 162.079 151.793C162.87 151.062 163.683 150.267 164.496 149.493C165.111 148.912 165.595 148.203 165.968 147.408C166.32 146.655 166.474 146.032 166.474 145.494C166.452 143.603 166.452 141.754 166.408 139.991V139.819C166.452 139.755 166.474 139.733 166.518 139.669C167.155 138.83 167.924 137.261 168.847 134.982C169.66 132.962 169.99 131.758 169.924 130.92L169.88 130.941Z" fill="#FBB928"/>
</g>
</g>
</g>
</g>
</g>
<defs>
<clipPath id="clip0_9_245">
<rect width="256" height="256" fill="white"/>
</clipPath>
</defs>
</svg>
