<svg width="256" height="256" viewBox="0 0 256 256" fill="none" xmlns="http://www.w3.org/2000/svg">
<g id="Arch-Dark 8" clip-path="url(#clip0_9_239)">
<g id="Clip path group">
<mask id="mask0_9_239" style="mask-type:luminance" maskUnits="userSpaceOnUse" x="0" y="0" width="256" height="256">
<g id="clip0_33_628">
<path id="Vector" d="M256 0H0V256H256V0Z" fill="white"/>
</g>
</mask>
<g mask="url(#mask0_9_239)">
<g id="Group">
<path id="Vector_2" d="M196 0H60C26.8629 0 0 26.8629 0 60V196C0 229.137 26.8629 256 60 256H196C229.137 256 256 229.137 256 196V60C256 26.8629 229.137 0 196 0Z" fill="#242938"/>
</g>
</g>
</g>
<g id="Frame">
<path id="Vector_3" d="M175.12 54.64H144.28C143.178 51.1903 141.008 48.1802 138.084 46.0444C135.159 43.9085 131.631 42.7574 128.01 42.7574C124.389 42.7574 120.861 43.9085 117.936 46.0444C115.012 48.1802 112.842 51.1903 111.74 54.64H80.88C75.0452 54.64 69.4495 56.9578 65.3237 61.0836C61.1979 65.2094 58.88 70.8052 58.88 76.64V191.26C58.88 197.095 61.1979 202.691 65.3237 206.816C69.4495 210.942 75.0452 213.26 80.88 213.26H175.12C180.955 213.26 186.551 210.942 190.676 206.816C194.802 202.691 197.12 197.095 197.12 191.26V76.64C197.12 70.8052 194.802 65.2094 190.676 61.0836C186.551 56.9578 180.955 54.64 175.12 54.64ZM113.28 58.64C113.745 58.6503 114.199 58.4982 114.564 58.2099C114.929 57.9215 115.182 57.5149 115.28 57.06C115.916 54.1433 117.53 51.5317 119.855 49.6591C122.179 47.7864 125.075 46.7653 128.06 46.7653C131.045 46.7653 133.941 47.7864 136.265 49.6591C138.59 51.5317 140.204 54.1433 140.84 57.06C140.938 57.5149 141.191 57.9215 141.556 58.2099C141.921 58.4982 142.375 58.6503 142.84 58.64H153.6V71.74C153.6 73.3313 152.968 74.8574 151.843 75.9826C150.717 77.1079 149.191 77.74 147.6 77.74H108.5C106.909 77.74 105.383 77.1079 104.257 75.9826C103.132 74.8574 102.5 73.3313 102.5 71.74V58.64H113.28ZM193.12 191.26C193.12 196.034 191.224 200.612 187.848 203.988C184.472 207.364 179.894 209.26 175.12 209.26H80.88C76.1061 209.26 71.5277 207.364 68.1521 203.988C64.7764 200.612 62.88 196.034 62.88 191.26V76.64C62.88 71.8661 64.7764 67.2877 68.1521 63.9121C71.5277 60.5364 76.1061 58.64 80.88 58.64H98.5V71.74C98.5 74.3922 99.5536 76.9357 101.429 78.8111C103.304 80.6864 105.848 81.74 108.5 81.74H147.5C150.152 81.74 152.696 80.6864 154.571 78.8111C156.446 76.9357 157.5 74.3922 157.5 71.74V58.64H175.12C179.894 58.64 184.472 60.5364 187.848 63.9121C191.224 67.2877 193.12 71.8661 193.12 76.64V191.26Z" fill="white"/>
<path id="Vector_4" d="M171.2 119.84H136C135.47 119.84 134.961 120.051 134.586 120.426C134.211 120.801 134 121.31 134 121.84C134 122.37 134.211 122.879 134.586 123.254C134.961 123.629 135.47 123.84 136 123.84H171.2C171.73 123.84 172.239 123.629 172.614 123.254C172.989 122.879 173.2 122.37 173.2 121.84C173.2 121.31 172.989 120.801 172.614 120.426C172.239 120.051 171.73 119.84 171.2 119.84Z" fill="white"/>
<path id="Vector_5" d="M171.2 119.84H136C135.47 119.84 134.961 120.051 134.586 120.426C134.211 120.801 134 121.31 134 121.84C134 122.37 134.211 122.879 134.586 123.254C134.961 123.629 135.47 123.84 136 123.84H171.2C171.73 123.84 172.239 123.629 172.614 123.254C172.989 122.879 173.2 122.37 173.2 121.84C173.2 121.31 172.989 120.801 172.614 120.426C172.239 120.051 171.73 119.84 171.2 119.84Z" fill="white"/>
<path id="Vector_6" d="M125.2 120H90C89.4696 120 88.9609 120.211 88.5858 120.586C88.2107 120.961 88 121.47 88 122C88 122.53 88.2107 123.039 88.5858 123.414C88.9609 123.789 89.4696 124 90 124H125.2C125.73 124 126.239 123.789 126.614 123.414C126.989 123.039 127.2 122.53 127.2 122C127.2 121.47 126.989 120.961 126.614 120.586C126.239 120.211 125.73 120 125.2 120Z" fill="white"/>
<path id="Vector_7" d="M171.2 168H136C135.47 168 134.961 168.211 134.586 168.586C134.211 168.961 134 169.47 134 170C134 170.53 134.211 171.039 134.586 171.414C134.961 171.789 135.47 172 136 172H171.2C171.73 172 172.239 171.789 172.614 171.414C172.989 171.039 173.2 170.53 173.2 170C173.2 169.47 172.989 168.961 172.614 168.586C172.239 168.211 171.73 168 171.2 168Z" fill="white"/>
<path id="Vector_8" d="M127.2 168H92C91.4696 168 90.9609 168.211 90.5858 168.586C90.2107 168.961 90 169.47 90 170C90 170.53 90.2107 171.039 90.5858 171.414C90.9609 171.789 91.4696 172 92 172H127.2C127.73 172 128.239 171.789 128.614 171.414C128.989 171.039 129.2 170.53 129.2 170C129.2 169.47 128.989 168.961 128.614 168.586C128.239 168.211 127.73 168 127.2 168Z" fill="white"/>
</g>
</g>
<defs>
<clipPath id="clip0_9_239">
<rect width="256" height="256" fill="white"/>
</clipPath>
</defs>
</svg>
