<svg width="256" height="256" viewBox="0 0 256 256" fill="none" xmlns="http://www.w3.org/2000/svg">
<g id="Arch-Dark 9" clip-path="url(#clip0_9_245)">
<g id="Clip path group">
<mask id="mask0_9_245" style="mask-type:luminance" maskUnits="userSpaceOnUse" x="0" y="0" width="256" height="256">
<g id="clip0_33_628">
<path id="Vector" d="M256 0H0V256H256V0Z" fill="white"/>
</g>
</mask>
<g mask="url(#mask0_9_245)">
<g id="Group">
<path id="Vector_2" d="M196 0H60C26.8629 0 0 26.8629 0 60V196C0 229.137 26.8629 256 60 256H196C229.137 256 256 229.137 256 196V60C256 26.8629 229.137 0 196 0Z" fill="#F4F2ED"/>
</g>
</g>
</g>
<g id="Frame">
<path id="Vector_3" d="M175.12 52.64H144.28C143.178 49.1903 141.008 46.1802 138.084 44.0444C135.159 41.9085 131.631 40.7574 128.01 40.7574C124.389 40.7574 120.861 41.9085 117.936 44.0444C115.012 46.1802 112.842 49.1903 111.74 52.64H80.88C75.0452 52.64 69.4494 54.9578 65.3236 59.0836C61.1978 63.2094 58.88 68.8052 58.88 74.64V189.26C58.88 195.095 61.1978 200.691 65.3236 204.816C69.4494 208.942 75.0452 211.26 80.88 211.26H175.12C180.955 211.26 186.551 208.942 190.676 204.816C194.802 200.691 197.12 195.095 197.12 189.26V74.64C197.12 68.8052 194.802 63.2094 190.676 59.0836C186.551 54.9578 180.955 52.64 175.12 52.64ZM113.28 56.64C113.745 56.6503 114.199 56.4982 114.564 56.2099C114.929 55.9215 115.182 55.5149 115.28 55.06C115.916 52.1433 117.53 49.5317 119.855 47.6591C122.179 45.7864 125.075 44.7653 128.06 44.7653C131.045 44.7653 133.941 45.7864 136.265 47.6591C138.59 49.5317 140.204 52.1433 140.84 55.06C140.938 55.5149 141.191 55.9215 141.556 56.2099C141.921 56.4982 142.375 56.6503 142.84 56.64H153.6V69.74C153.6 71.3313 152.968 72.8574 151.843 73.9826C150.717 75.1079 149.191 75.74 147.6 75.74H108.5C106.909 75.74 105.383 75.1079 104.257 73.9826C103.132 72.8574 102.5 71.3313 102.5 69.74V56.64H113.28ZM193.12 189.26C193.12 194.034 191.224 198.612 187.848 201.988C184.472 205.364 179.894 207.26 175.12 207.26H80.88C76.1061 207.26 71.5277 205.364 68.1521 201.988C64.7764 198.612 62.88 194.034 62.88 189.26V74.64C62.88 69.8661 64.7764 65.2877 68.1521 61.9121C71.5277 58.5364 76.1061 56.64 80.88 56.64H98.5V69.74C98.5 72.3922 99.5536 74.9357 101.429 76.8111C103.304 78.6864 105.848 79.74 108.5 79.74H147.5C150.152 79.74 152.696 78.6864 154.571 76.8111C156.446 74.9357 157.5 72.3922 157.5 69.74V56.64H175.12C179.894 56.64 184.472 58.5364 187.848 61.9121C191.224 65.2877 193.12 69.8661 193.12 74.64V189.26Z" fill="black"/>
<path id="Vector_4" d="M171.2 117.84H136C135.47 117.84 134.961 118.051 134.586 118.426C134.211 118.801 134 119.31 134 119.84C134 120.37 134.211 120.879 134.586 121.254C134.961 121.629 135.47 121.84 136 121.84H171.2C171.73 121.84 172.239 121.629 172.614 121.254C172.989 120.879 173.2 120.37 173.2 119.84C173.2 119.31 172.989 118.801 172.614 118.426C172.239 118.051 171.73 117.84 171.2 117.84Z" fill="black"/>
<path id="Vector_5" d="M171.2 117.84H136C135.47 117.84 134.961 118.051 134.586 118.426C134.211 118.801 134 119.31 134 119.84C134 120.37 134.211 120.879 134.586 121.254C134.961 121.629 135.47 121.84 136 121.84H171.2C171.73 121.84 172.239 121.629 172.614 121.254C172.989 120.879 173.2 120.37 173.2 119.84C173.2 119.31 172.989 118.801 172.614 118.426C172.239 118.051 171.73 117.84 171.2 117.84Z" fill="black"/>
<path id="Vector_6" d="M125.2 118H90C89.4696 118 88.9609 118.211 88.5858 118.586C88.2107 118.961 88 119.47 88 120C88 120.53 88.2107 121.039 88.5858 121.414C88.9609 121.789 89.4696 122 90 122H125.2C125.73 122 126.239 121.789 126.614 121.414C126.989 121.039 127.2 120.53 127.2 120C127.2 119.47 126.989 118.961 126.614 118.586C126.239 118.211 125.73 118 125.2 118Z" fill="black"/>
<path id="Vector_7" d="M171.2 166H136C135.47 166 134.961 166.211 134.586 166.586C134.211 166.961 134 167.47 134 168C134 168.53 134.211 169.039 134.586 169.414C134.961 169.789 135.47 170 136 170H171.2C171.73 170 172.239 169.789 172.614 169.414C172.989 169.039 173.2 168.53 173.2 168C173.2 167.47 172.989 166.961 172.614 166.586C172.239 166.211 171.73 166 171.2 166Z" fill="black"/>
<path id="Vector_8" d="M127.2 166H92C91.4696 166 90.9609 166.211 90.5858 166.586C90.2107 166.961 90 167.47 90 168C90 168.53 90.2107 169.039 90.5858 169.414C90.9609 169.789 91.4696 170 92 170H127.2C127.73 170 128.239 169.789 128.614 169.414C128.989 169.039 129.2 168.53 129.2 168C129.2 167.47 128.989 166.961 128.614 166.586C128.239 166.211 127.73 166 127.2 166Z" fill="black"/>
</g>
</g>
<defs>
<clipPath id="clip0_9_245">
<rect width="256" height="256" fill="white"/>
</clipPath>
</defs>
</svg>
