<svg width="256" height="256" viewBox="0 0 256 256" fill="none" xmlns="http://www.w3.org/2000/svg">
<path d="M196 0H60C26.8629 0 0 26.8629 0 60V196C0 229.137 26.8629 256 60 256H196C229.137 256 256 229.137 256 196V60C256 26.8629 229.137 0 196 0Z" fill="#34BDB2"/>
<path d="M168.898 88.1075C155.382 80.2655 143.384 74.0985 127.688 74.3705C118.708 74.5265 110.998 79.4075 109.377 88.3405C107.868 96.6515 115.256 101.262 122.942 104.092C135.689 108.786 146.786 113.742 159.311 118.961C182.08 128.45 193.755 143.817 192.375 163.534C190.619 188.621 175.521 206.614 151.526 212.546C120.172 220.298 89.725 208.49 64 192.006C70.493 182.115 78.026 175.363 84.48 165.532C99.342 171.858 111.018 180.406 126.566 181.739C137.529 182.679 149.951 182.156 152.414 169.279C154.634 157.667 144.528 151.442 134.671 147.965C122.936 143.826 111.223 138.763 99.715 134.063C78.442 125.374 69.786 108.379 71.243 88.3575C71.243 76.6185 80.983 52.8915 104.864 45.5115C141.556 34.1715 161.772 45.7835 188.379 62.8825C181.312 72.2285 175.879 78.8735 168.898 88.1075Z" fill="white"/>
</svg>
