<svg width="256" height="256" viewBox="0 0 256 256" fill="none" xmlns="http://www.w3.org/2000/svg">
<path d="M196 0H60C26.8629 0 0 26.8629 0 60V196C0 229.137 26.8629 256 60 256H196C229.137 256 256 229.137 256 196V60C256 26.8629 229.137 0 196 0Z" fill="#242938"/>
<path fill-rule="evenodd" clip-rule="evenodd" d="M68.9918 70.5758V185.42C68.9918 197.345 95.6356 207.012 128.5 207.012V70.5758H68.9918Z" fill="#0072C6"/>
<path fill-rule="evenodd" clip-rule="evenodd" d="M127.685 207.01H128.5C161.364 207.01 188.008 197.347 188.008 185.422V70.5778H127.685V207.012V207.01Z" fill="#0072C6"/>
<path opacity="0.15" fill-rule="evenodd" clip-rule="evenodd" d="M127.685 207.01H128.5C161.364 207.01 188.008 197.347 188.008 185.422V70.5778H127.685V207.012V207.01Z" fill="white"/>
<path fill-rule="evenodd" clip-rule="evenodd" d="M188.008 70.5758C188.008 82.4988 161.364 92.164 128.5 92.164C95.6356 92.164 68.9918 82.4988 68.9918 70.5758C68.9918 58.6529 95.6356 48.9877 128.5 48.9877C161.364 48.9877 188.008 58.6529 188.008 70.5758Z" fill="white"/>
<path fill-rule="evenodd" clip-rule="evenodd" d="M175.841 69.3314C175.841 77.203 154.646 83.5753 128.5 83.5753C102.354 83.5753 81.1553 77.203 81.1553 69.3314C81.1553 61.4597 102.354 55.0874 128.5 55.0874C154.646 55.0874 175.841 61.4637 175.841 69.3314Z" fill="#7FBA00"/>
<path fill-rule="evenodd" clip-rule="evenodd" d="M165.925 78.0386C172.121 75.6307 175.847 72.6164 175.847 69.3393C175.845 61.4677 154.65 55.0914 128.5 55.0914C102.35 55.0914 81.1592 61.4677 81.1592 69.3393C81.1592 72.6144 84.8825 75.6307 91.0812 78.0386C99.7357 74.6727 113.262 72.5018 128.502 72.5018C143.742 72.5018 157.264 74.6727 165.925 78.0386Z" fill="#B8D432"/>
<path fill-rule="evenodd" clip-rule="evenodd" d="M109.6 150.295C109.6 153.865 108.309 156.628 105.722 158.586C103.136 160.543 99.5691 161.525 95.0128 161.525C91.1368 161.525 87.8976 160.826 85.2951 159.425V151.028C88.2983 153.582 91.6069 154.86 95.221 154.86C96.9666 154.86 98.3174 154.511 99.2696 153.809C100.222 153.108 100.698 152.184 100.698 151.026C100.698 149.89 100.24 148.903 99.3231 148.063C98.4067 147.224 96.5421 146.139 93.7314 144.81C88.0027 142.12 85.1404 138.441 85.1404 133.794C85.1404 130.42 86.388 127.714 88.8874 125.675C91.3867 123.637 94.7013 122.619 98.8372 122.619C102.505 122.619 105.54 123.103 107.954 124.063V131.907C105.423 130.157 102.541 129.284 99.3112 129.284C97.6886 129.284 96.4053 129.628 95.463 130.317C95.0151 130.625 94.6514 131.039 94.4048 131.523C94.1582 132.006 94.0365 132.543 94.0507 133.084C94.0507 134.274 94.4296 135.249 95.1913 136.01C95.953 136.77 97.5081 137.711 99.8647 138.831C103.376 140.494 105.875 142.179 107.371 143.893C108.866 145.608 109.6 147.745 109.6 150.295ZM150.006 141.798C150.006 146.222 149.001 150.064 146.993 153.314C144.986 156.563 142.157 158.846 138.509 160.16L149.401 170.26H138.404L130.626 161.523C127.292 161.402 124.283 160.518 121.603 158.874C118.923 157.231 116.852 154.979 115.396 152.119C113.94 149.258 113.208 146.07 113.208 142.556C113.208 138.657 113.998 135.18 115.577 132.128C117.156 129.077 119.377 126.728 122.242 125.084C125.106 123.441 128.385 122.619 132.09 122.619C135.544 122.619 138.64 123.415 141.374 125.007C144.107 126.6 146.226 128.861 147.737 131.8C149.249 134.74 150.006 138.074 150.006 141.798ZM141.104 142.272C141.104 138.457 140.275 135.447 138.614 133.233C136.954 131.018 134.687 129.912 131.805 129.912C128.871 129.912 126.524 131.022 124.759 133.24C122.994 135.459 122.115 138.418 122.115 142.108C122.115 145.782 122.978 148.713 124.705 150.908C126.433 153.102 128.728 154.199 131.592 154.199C134.51 154.199 136.821 153.136 138.533 151.012C140.245 148.889 141.104 145.977 141.104 142.272ZM178.58 160.867H156.215V123.251H164.673V153.995H178.578L178.58 160.867Z" fill="white"/>
</svg>
