<svg width="256" height="256" viewBox="0 0 256 256" fill="none" xmlns="http://www.w3.org/2000/svg">
<path d="M196 0H60C26.8629 0 0 26.8629 0 60V196C0 229.137 26.8629 256 60 256H196C229.137 256 256 229.137 256 196V60C256 26.8629 229.137 0 196 0Z" fill="#242938"/>
<path d="M56.9506 208.921L51.0069 50.4405C50.8106 45.2065 54.8211 40.7708 60.045 40.4441L194.751 32.0191C200.069 31.6866 204.649 35.7305 204.981 41.0514C204.993 41.2519 205 41.4527 205 41.6536V214.347C205 219.678 200.681 224 195.353 224C195.209 224 195.065 223.997 194.92 223.99L66.1576 218.204C61.1428 217.978 57.1388 213.941 56.9506 208.921Z" fill="#FF4785"/>
<path fill-rule="evenodd" clip-rule="evenodd" d="M185.22 33L166.539 34.1537L165.627 55.8032C165.613 56.136 165.717 56.4632 165.921 56.7286C166.405 57.3591 167.315 57.4825 167.953 57.0042L176.464 50.625L183.652 56.2204C183.922 56.4301 184.257 56.5386 184.6 56.5268C185.401 56.4992 186.027 55.8357 185.999 55.0449L185.22 33ZM170.68 105.497C167.26 108.122 141.786 109.913 141.786 106.176C142.324 91.9175 135.863 91.2924 132.274 91.2924C128.864 91.2924 123.121 92.3109 123.121 99.9495C123.121 107.734 131.514 112.128 141.365 117.286C155.359 124.614 172.294 133.482 172.294 155.797C172.294 177.185 154.707 189 132.274 189C109.123 189 88.8917 179.745 91.1765 147.659C92.0739 143.892 121.506 144.787 121.506 147.659C121.147 160.9 124.198 164.794 131.915 164.794C137.837 164.794 140.529 161.568 140.529 156.136C140.529 147.916 131.785 143.065 121.726 137.484C108.105 129.928 92.0739 121.035 92.0739 100.629C92.0739 80.2587 106.252 66.6787 131.556 66.6787C156.861 66.6787 170.68 80.0506 170.68 105.497Z" fill="white"/>
</svg>
