<svg width="256" height="256" viewBox="0 0 256 256" fill="none" xmlns="http://www.w3.org/2000/svg">
<g id="Arch-Dark 9" clip-path="url(#clip0_9_245)">
<g id="Clip path group">
<mask id="mask0_9_245" style="mask-type:luminance" maskUnits="userSpaceOnUse" x="0" y="0" width="256" height="256">
<g id="clip0_33_628">
<path id="Vector" d="M256 0H0V256H256V0Z" fill="white"/>
</g>
</mask>
<g mask="url(#mask0_9_245)">
<g id="Group">
<path id="Vector_2" d="M196 0H60C26.8629 0 0 26.8629 0 60V196C0 229.137 26.8629 256 60 256H196C229.137 256 256 229.137 256 196V60C256 26.8629 229.137 0 196 0Z" fill="#F4F2ED"/>
</g>
</g>
</g>
<g id="Frame">
<path id="Vector_3" d="M161.587 71.5109C179.838 82.7848 192 102.972 192 126C192 161.346 163.346 190 128 190C120.292 190 112.902 188.637 106.061 186.138L105.33 185.866L106.52 185.483L108.05 184.982L108.805 184.729L109.553 184.476L111.029 183.968L112.478 183.456L113.9 182.941L115.294 182.423L115.982 182.162L117.336 181.638C118.766 181.078 120.151 180.511 121.489 179.939L122.484 179.508L123.703 178.967C124.239 178.725 124.767 178.483 125.287 178.239L126.061 177.873L127.2 177.32L127.759 177.043L128.311 176.764L129.396 176.204C138.502 171.428 144.688 166.239 147.973 160.55C154.932 148.496 148.854 135.615 131.407 122.483L129.987 121.419L129.124 120.757L128.287 120.101L127.474 119.449L126.687 118.803L126.303 118.482L125.924 118.161L125.186 117.525L124.649 117.051L124.126 116.579L123.45 115.955L122.798 115.336L122.17 114.721L121.866 114.416L121.567 114.111L120.988 113.506C114.091 106.174 112.551 99.8977 115.682 94.4742C117.276 91.7139 120.039 89 123.966 86.3569L124.443 86.0401L125.194 85.5569C125.534 85.3425 125.881 85.1286 126.236 84.9152L126.774 84.5954L127.604 84.1173L128.459 83.6408L129.118 83.2847L129.791 82.9295L130.712 82.4576C131.412 82.1043 132.135 81.7526 132.879 81.4026L133.631 81.0531L134.656 80.5888L135.178 80.3574L136.242 79.8961L136.784 79.6663L137.888 79.2081L138.449 78.9798L139.591 78.5247L140.172 78.298L141.354 77.8462L142.561 77.3966L143.174 77.1726L144.421 76.7264L145.693 76.2824L146.992 75.8407L147.651 75.6208L148.988 75.1827L150.352 74.7469L151.741 74.3136L153.156 73.8828L154.598 73.4545L156.436 72.9226L158.315 72.3947L160.623 71.7667L161.587 71.5109ZM128 62C135.783 62 143.242 63.3893 150.141 65.9334L150.878 66.2104L150.411 66.3519L148.131 67.0545L147.385 67.2906L145.912 67.7654L144.466 68.244L143.047 68.7262L141.655 69.2123L140.29 69.7021L139.617 69.9484L137.965 70.5685L136.355 71.1947L135.096 71.7001L134.477 71.9543L133.259 72.4656C120.812 77.77 112.655 83.7176 108.754 90.4742C101.945 102.267 108.121 114.98 125.57 128.108L126.99 129.173L127.852 129.835L128.689 130.492L129.098 130.819L129.898 131.469L130.48 131.953L131.049 132.435L131.786 133.073L132.145 133.391L132.845 134.022C133.226 134.372 133.597 134.72 133.955 135.065L134.485 135.581L135.248 136.35L135.973 137.112C142.84 144.495 144.308 150.897 141.045 156.55C138.933 160.207 134.901 163.808 128.959 167.303L128.413 167.621L127.529 168.122L126.619 168.621C126.106 168.898 125.581 169.174 125.043 169.45L124.228 169.862L123.225 170.356L122.196 170.848L121.141 171.339L120.604 171.584L119.51 172.071L118.389 172.558L117.242 173.042L116.658 173.283L115.472 173.765L114.869 174.005L114.259 174.245L113.021 174.723L111.755 175.199L110.464 175.673L109.146 176.145L107.803 176.615L107.121 176.849L105.738 177.316L105.037 177.548L103.614 178.012L102.166 178.473L100.318 179.047L98.4295 179.618L96.8893 180.071L94.7397 180.689C76.3072 169.455 64 149.165 64 126C64 90.6538 92.6538 62 128 62Z" fill="#0080FF"/>
</g>
</g>
<defs>
<clipPath id="clip0_9_245">
<rect width="256" height="256" fill="white"/>
</clipPath>
</defs>
</svg>
