<svg width="256" height="256" viewBox="0 0 256 256" fill="none" xmlns="http://www.w3.org/2000/svg">
<path d="M196 0H60C26.8629 0 0 26.8629 0 60V196C0 229.137 26.8629 256 60 256H196C229.137 256 256 229.137 256 196V60C256 26.8629 229.137 0 196 0Z" fill="#242938"/>
<path fill-rule="evenodd" clip-rule="evenodd" d="M107.635 104.057C105.6 104.057 103.95 105.707 103.95 107.742V148.736C103.95 150.772 105.6 152.422 107.635 152.422H148.629C150.665 152.422 152.315 150.772 152.315 148.736V107.742C152.315 105.707 150.665 104.057 148.629 104.057H107.635ZM78.0661 74.7966C76.2013 74.7966 74.6899 76.3081 74.6899 78.1726V178.306C74.6899 180.171 76.2013 181.682 78.0661 181.682H178.199C180.064 181.682 181.575 180.171 181.575 178.306V78.1726C181.575 76.3081 180.064 74.7966 178.199 74.7966H78.0661Z" fill="black"/>
<path fill-rule="evenodd" clip-rule="evenodd" d="M38 129.914V195.02C38 199.389 39.2189 203.472 41.3351 206.95L64.8084 183.477V129.914H38ZM48.7035 214.45L71.9776 191.175C72.1397 191.185 72.3032 191.191 72.4681 191.191H123.752V218H60.9786C56.4647 218 52.2547 216.698 48.7035 214.45ZM134.266 218H195.02C207.711 218 218 207.711 218 195.02V60.9786C218 48.2879 207.711 38 195.02 38H129.914V64.8084H183.531C187.761 64.8084 191.191 68.2377 191.191 72.4681V183.531C191.191 187.762 187.761 191.191 183.531 191.191H134.266V218Z" fill="url(#paint0_linear_23_11)"/>
<defs>
<linearGradient id="paint0_linear_23_11" x1="139.393" y1="53.6142" x2="50.8008" y2="142.206" gradientUnits="userSpaceOnUse">
<stop stop-color="#0096FF"/>
<stop offset="1" stop-color="#FF1E56"/>
</linearGradient>
</defs>
</svg>
