<svg width="256" height="256" viewBox="0 0 256 256" fill="none" xmlns="http://www.w3.org/2000/svg">
<path d="M196 0H60C26.8629 0 0 26.8629 0 60V196C0 229.137 26.8629 256 60 256H196C229.137 256 256 229.137 256 196V60C256 26.8629 229.137 0 196 0Z" fill="#242938"/>
<g clip-path="url(#clip0_23_11)">
<path d="M156.123 127.261C154.529 132.749 151.98 136.726 149.112 139.908V111.99C149.112 110.081 147.439 108.491 144.81 108.491C143.694 108.491 142.738 109.047 142.738 109.843C142.738 110.4 143.057 110.877 143.057 112.388V125.193C142.101 130.761 139.711 135.931 136.524 135.931C134.214 135.931 132.86 133.624 132.86 129.329C132.86 122.648 133.736 119.149 135.17 113.263C135.489 112.07 137.799 108.888 133.895 108.888C129.673 108.888 130.231 110.479 129.673 111.831C129.673 111.831 127.004 121.296 127.004 129.727C127.004 136.647 129.912 141.18 135.25 141.18C138.675 141.18 141.145 138.874 143.057 135.692V145.793C137.799 150.407 133.178 154.463 133.178 162.496C133.178 167.586 136.365 171.643 140.826 171.643C144.889 171.643 149.112 168.7 149.112 160.349V146.589C153.414 142.851 158.035 138.158 160.743 128.932C160.823 128.614 160.823 128.216 160.823 128.136C160.823 126.625 159.309 124.875 158.035 124.875C157.238 124.875 156.601 125.591 156.123 127.261ZM140.826 166.632C139.552 166.632 138.755 164.723 138.755 162.258C138.755 157.485 140.508 154.463 143.057 151.838V160.349C143.057 161.86 143.376 166.632 140.826 166.632Z" fill="white"/>
<path d="M178.987 135.851C177.075 135.851 176.278 133.942 176.278 132.193V119.069C176.278 117.16 174.605 115.569 171.976 115.569C170.861 115.569 169.905 116.126 169.905 116.922C169.905 117.478 170.224 117.956 170.224 119.467V131.715C169.347 133.942 167.913 135.851 165.762 135.851C162.974 135.851 161.221 133.465 161.221 129.329C161.221 117.876 168.312 112.706 174.366 112.706C175.163 112.706 175.96 112.865 176.677 112.865C177.473 112.865 177.712 112.388 177.712 111.036C177.712 108.968 176.199 107.695 174.048 107.695C164.328 107.695 155.087 115.808 155.087 129.091C155.087 135.851 158.353 141.101 164.567 141.101C167.595 141.101 169.825 139.669 171.419 137.84C172.614 139.749 174.765 141.101 177.553 141.101C184.405 141.101 187.591 133.942 188.946 128.693C189.025 128.375 189.025 128.216 189.025 128.136C189.025 126.625 187.512 124.875 186.237 124.875C185.44 124.875 184.644 125.591 184.325 127.261C183.608 130.761 182.174 135.851 178.987 135.851Z" fill="white"/>
<path d="M202.011 141.101C208.862 141.101 211.97 133.942 213.404 128.693C213.404 128.534 213.483 128.375 213.483 128.136C213.483 126.625 211.97 124.875 210.695 124.875C209.898 124.875 209.101 125.591 208.783 127.261C208.066 130.761 206.711 135.851 203.047 135.851C200.896 135.851 199.86 133.783 199.86 131.556C199.86 123.603 203.445 114.217 203.445 113.263C203.764 111.434 200.577 108.809 199.621 108.809H195.478C194.682 108.809 193.885 108.809 191.256 108.491C190.38 105.23 188.149 104.275 186.237 104.275C184.166 104.275 182.254 105.707 182.254 107.934C182.254 110.241 183.688 111.911 185.679 113.024C185.6 117.081 185.281 123.682 184.405 126.864C183.688 129.568 187.83 132.431 188.866 129.091C190.3 124.478 190.778 117.558 190.858 114.456H197.789C195.239 121.296 193.805 126.943 193.805 132.034C193.805 139.033 198.267 141.101 202.011 141.101Z" fill="white"/>
<path d="M209.101 112.388C209.101 110.877 208.783 110.4 208.783 109.843C208.783 109.047 209.739 108.491 210.854 108.491C213.483 108.491 215.156 110.081 215.156 111.99V115.569C217.307 111.115 220.175 107.695 224.079 107.695C229.417 107.695 230.691 112.07 230.691 115.729V132.193C230.691 132.908 230.691 135.851 232.763 135.851C235.949 135.851 237.583 130.761 238.3 127.261C238.618 125.591 239.415 124.875 240.212 124.875C241.486 124.875 243 126.625 243 128.136C243 128.216 243 128.375 242.92 128.693C241.566 133.942 238.18 141.101 231.329 141.101C227.106 141.101 224.637 137.681 224.637 133.624V117.478C224.637 115.013 224.477 112.945 222.964 112.945C220.653 112.945 215.714 119.785 215.156 126.068V137.681C215.156 139.192 215.236 141.101 212.926 141.101C211.332 141.101 209.101 140.544 209.101 137.601V112.388ZM64.5847 76C93.0658 76 116.169 99.0656 116.169 127.5C116.169 155.934 93.0658 179 64.5847 179C36.1036 179 13 155.934 13 127.5C13 99.0656 36.1036 76 64.5847 76ZM99.6782 143.109C99.3197 140.286 96.9297 138.337 93.8625 138.377C89.2816 138.436 85.4376 140.803 82.8883 142.373C81.8924 142.99 81.036 143.447 80.2991 143.785C80.4584 141.479 80.319 138.456 79.124 135.136C77.6701 131.159 75.7182 128.713 74.324 127.301C75.9373 124.955 78.1481 121.535 79.1838 116.246C80.08 111.732 79.8012 104.713 77.7497 100.776C77.3315 99.9803 76.6344 99.4037 75.7581 99.1651C75.3995 99.0656 74.7224 98.8668 73.3879 99.2446C71.3763 95.0888 70.6792 94.6514 70.1415 94.2934C69.0261 93.5776 67.7116 93.4185 66.4768 93.8759C64.8237 94.4724 63.4096 96.0631 62.0752 98.8867C61.876 99.3042 61.6967 99.7019 61.5374 100.1C59.008 100.279 55.0246 101.193 51.6586 104.832C51.2404 105.289 50.4238 105.627 49.5674 105.946H49.5873C47.8346 106.562 47.0379 107.994 46.062 110.579C44.7077 114.197 46.1018 117.757 47.4761 120.063C45.6039 121.734 43.1143 124.398 41.7998 127.52C40.1666 131.377 39.9874 135.155 40.0471 137.203C38.6529 138.675 36.5019 141.439 36.2629 144.541C35.9442 148.875 37.5177 151.818 38.2148 152.892C38.4139 153.21 38.633 153.469 38.872 153.727C38.7923 154.264 38.7724 154.841 38.8919 155.437C39.1508 156.829 40.0272 157.963 41.3616 158.678C43.9906 160.07 47.6554 160.667 50.4835 159.255C51.4993 160.329 53.3516 161.363 56.7175 161.363H56.9167C57.7731 161.363 68.6477 160.786 71.8145 160.011C73.2286 159.673 74.2045 159.076 74.8419 158.539C76.8734 157.903 82.49 155.994 87.7878 152.574C91.5322 150.148 92.8268 149.631 95.6152 148.955C98.3239 148.299 100.017 145.833 99.6782 143.109ZM94.938 146.032C91.7513 146.788 90.138 147.484 86.1945 150.049C80.0402 154.025 73.3083 155.875 73.3083 155.875C73.3083 155.875 72.7506 156.71 71.1373 157.088C68.349 157.764 57.8528 158.34 56.8968 158.36C54.3275 158.38 52.7541 157.704 52.3159 156.65C50.9815 153.469 54.2279 152.077 54.2279 152.077C54.2279 152.077 53.5109 151.639 53.0927 151.242C52.7142 150.864 52.3159 150.108 52.1964 150.387C51.6985 151.6 51.4396 154.562 50.1051 155.895C48.2728 157.744 44.8072 157.127 42.7558 156.054C40.5052 154.861 42.9151 152.057 42.9151 152.057C42.9151 152.057 41.7002 152.773 40.7243 151.301C39.8479 149.949 39.0313 147.643 39.2504 144.799C39.4894 141.558 43.1143 138.416 43.1143 138.416C43.1143 138.416 42.477 133.624 44.5682 128.713C46.4603 124.239 51.5591 120.64 51.5591 120.64C51.5591 120.64 47.2769 115.908 48.8703 111.652C49.906 108.869 50.3242 108.888 50.6628 108.769C51.8578 108.312 53.013 107.815 53.8694 106.88C58.1515 102.267 63.6088 103.142 63.6088 103.142C63.6088 103.142 66.198 95.2876 68.588 96.8187C69.3249 97.2959 71.9738 103.182 71.9738 103.182C71.9738 103.182 74.802 101.531 75.1207 102.148C76.8336 105.468 77.0327 111.811 76.2759 115.669C75.0012 122.032 71.8145 125.452 70.5398 127.599C70.2411 128.097 73.9655 129.667 76.3157 136.17C78.4867 142.115 76.5547 147.106 76.8933 147.663C76.9531 147.762 76.973 147.802 76.973 147.802C76.973 147.802 79.4626 148.001 84.4617 144.919C87.1306 143.268 90.2974 141.419 93.9023 141.379C97.3878 141.319 97.567 145.396 94.938 146.032Z" fill="white"/>
</g>
<defs>
<clipPath id="clip0_23_11">
<rect width="230" height="103" fill="white" transform="translate(13 76)"/>
</clipPath>
</defs>
</svg>
